<?xml version="1.0" encoding="UTF-8"?> <svg xmlns="http://www.w3.org/2000/svg" xmlns:xlink="http://www.w3.org/1999/xlink" width="1687px" height="865px" viewBox="0 0 1687 865"><!-- Generator: Sketch 55.2 (78181) - https://sketchapp.com --><title>Group 4</title><desc>Created with Sketch.</desc><defs><linearGradient x1="24.6783629%" y1="8.68124835%" x2="77.3381004%" y2="87.508177%" id="linearGradient-1"><stop stop-color="#FFFFFF" offset="0%"></stop><stop stop-color="#FFFFFF" stop-opacity="0" offset="100%"></stop></linearGradient><linearGradient x1="74.5273987%" y1="9.41412234%" x2="32.9485808%" y2="60.8670772%" id="linearGradient-2"><stop stop-color="#FFFFFF" offset="0%"></stop><stop stop-color="#FFFFFF" stop-opacity="0" offset="100%"></stop></linearGradient></defs><g id="Page-1" stroke="none" stroke-width="1" fill="none" fill-rule="evenodd"><g id="Achirvements" transform="translate(0.000000, -35.000000)"><g id="bg" transform="translate(-41.000000, 0.000000)"><g id="Group-4" transform="translate(0.000000, 35.000000)"><g id="Group-11" transform="translate(446.000000, 79.000000)"><circle id="Oval-Copy-2" fill="url(#linearGradient-1)" opacity="0.049999997" cx="445" cy="445" r="445"></circle><circle id="Oval" fill="url(#linearGradient-2)" opacity="0.100000001" cx="445" cy="445" r="298"></circle><circle id="Oval-Copy" fill="url(#linearGradient-2)" opacity="0.100000001" cx="445" cy="445" r="166.304348"></circle></g><g id="polka-dots" opacity="0.3" transform="translate(1611.000000, 0.000000)" fill="#FFFFFF" fill-rule="nonzero"><path d="M4.46428571,9 C1.9987288,9 0,6.98528137 0,4.5 C0,2.01471863 1.9987288,0 4.46428571,0 C6.92984263,0 8.92857143,2.01471863 8.92857143,4.5 C8.92857143,6.98528137 6.92984263,9 4.46428571,9 Z M31.25,9 C28.7844431,9 26.7857143,6.98528137 26.7857143,4.5 C26.7857143,2.01471863 28.7844431,0 31.25,0 C33.7155569,0 35.7142857,2.01471863 35.7142857,4.5 C35.7142857,6.98528137 33.7155569,9 31.25,9 Z M58.0357143,9 C55.5701574,9 53.5714286,6.98528137 53.5714286,4.5 C53.5714286,2.01471863 55.5701574,0 58.0357143,0 C60.5012712,0 62.5,2.01471863 62.5,4.5 C62.5,6.98528137 60.5012712,9 58.0357143,9 Z M84.8214286,9 C82.3558717,9 80.3571429,6.98528137 80.3571429,4.5 C80.3571429,2.01471863 82.3558717,0 84.8214286,0 C87.2869855,0 89.2857143,2.01471863 89.2857143,4.5 C89.2857143,6.98528137 87.2869855,9 84.8214286,9 Z M111.607143,9 C109.141586,9 107.142857,6.98528137 107.142857,4.5 C107.142857,2.01471863 109.141586,0 111.607143,0 C114.0727,0 116.071429,2.01471863 116.071429,4.5 C116.071429,6.98528137 114.0727,9 111.607143,9 Z M138.392857,9 C135.9273,9 133.928571,6.98528137 133.928571,4.5 C133.928571,2.01471863 135.9273,0 138.392857,0 C140.858414,0 142.857143,2.01471863 142.857143,4.5 C142.857143,6.98528137 140.858414,9 138.392857,9 Z M165.178571,9 C162.713015,9 160.714286,6.98528137 160.714286,4.5 C160.714286,2.01471863 162.713015,0 165.178571,0 C167.644128,0 169.642857,2.01471863 169.642857,4.5 C169.642857,6.98528137 167.644128,9 165.178571,9 Z M191.964286,9 C189.498729,9 187.5,6.98528137 187.5,4.5 C187.5,2.01471863 189.498729,0 191.964286,0 C194.429843,0 196.428571,2.01471863 196.428571,4.5 C196.428571,6.98528137 194.429843,9 191.964286,9 Z M218.75,9 C216.284443,9 214.285714,6.98528137 214.285714,4.5 C214.285714,2.01471863 216.284443,0 218.75,0 C221.215557,0 223.214286,2.01471863 223.214286,4.5 C223.214286,6.98528137 221.215557,9 218.75,9 Z M245.535714,9 C243.070157,9 241.071429,6.98528137 241.071429,4.5 C241.071429,2.01471863 243.070157,0 245.535714,0 C248.001271,0 250,2.01471863 250,4.5 C250,6.98528137 248.001271,9 245.535714,9 Z" id="Shape"></path><path d="M4.46428571,36 C1.9987288,36 0,33.9852814 0,31.5 C0,29.0147186 1.9987288,27 4.46428571,27 C6.92984263,27 8.92857143,29.0147186 8.92857143,31.5 C8.92857143,33.9852814 6.92984263,36 4.46428571,36 Z M31.25,36 C28.7844431,36 26.7857143,33.9852814 26.7857143,31.5 C26.7857143,29.0147186 28.7844431,27 31.25,27 C33.7155569,27 35.7142857,29.0147186 35.7142857,31.5 C35.7142857,33.9852814 33.7155569,36 31.25,36 Z M58.0357143,36 C55.5701574,36 53.5714286,33.9852814 53.5714286,31.5 C53.5714286,29.0147186 55.5701574,27 58.0357143,27 C60.5012712,27 62.5,29.0147186 62.5,31.5 C62.5,33.9852814 60.5012712,36 58.0357143,36 Z M84.8214286,36 C82.3558717,36 80.3571429,33.9852814 80.3571429,31.5 C80.3571429,29.0147186 82.3558717,27 84.8214286,27 C87.2869855,27 89.2857143,29.0147186 89.2857143,31.5 C89.2857143,33.9852814 87.2869855,36 84.8214286,36 Z M111.607143,36 C109.141586,36 107.142857,33.9852814 107.142857,31.5 C107.142857,29.0147186 109.141586,27 111.607143,27 C114.0727,27 116.071429,29.0147186 116.071429,31.5 C116.071429,33.9852814 114.0727,36 111.607143,36 Z M138.392857,36 C135.9273,36 133.928571,33.9852814 133.928571,31.5 C133.928571,29.0147186 135.9273,27 138.392857,27 C140.858414,27 142.857143,29.0147186 142.857143,31.5 C142.857143,33.9852814 140.858414,36 138.392857,36 Z M165.178571,36 C162.713015,36 160.714286,33.9852814 160.714286,31.5 C160.714286,29.0147186 162.713015,27 165.178571,27 C167.644128,27 169.642857,29.0147186 169.642857,31.5 C169.642857,33.9852814 167.644128,36 165.178571,36 Z M191.964286,36 C189.498729,36 187.5,33.9852814 187.5,31.5 C187.5,29.0147186 189.498729,27 191.964286,27 C194.429843,27 196.428571,29.0147186 196.428571,31.5 C196.428571,33.9852814 194.429843,36 191.964286,36 Z M218.75,36 C216.284443,36 214.285714,33.9852814 214.285714,31.5 C214.285714,29.0147186 216.284443,27 218.75,27 C221.215557,27 223.214286,29.0147186 223.214286,31.5 C223.214286,33.9852814 221.215557,36 218.75,36 Z M245.535714,36 C243.070157,36 241.071429,33.9852814 241.071429,31.5 C241.071429,29.0147186 243.070157,27 245.535714,27 C248.001271,27 250,29.0147186 250,31.5 C250,33.9852814 248.001271,36 245.535714,36 Z" id="Shape"></path><path d="M4.46428571,63 C1.9987288,63 0,60.9852814 0,58.5 C0,56.0147186 1.9987288,54 4.46428571,54 C6.92984263,54 8.92857143,56.0147186 8.92857143,58.5 C8.92857143,60.9852814 6.92984263,63 4.46428571,63 Z M31.25,63 C28.7844431,63 26.7857143,60.9852814 26.7857143,58.5 C26.7857143,56.0147186 28.7844431,54 31.25,54 C33.7155569,54 35.7142857,56.0147186 35.7142857,58.5 C35.7142857,60.9852814 33.7155569,63 31.25,63 Z M58.0357143,63 C55.5701574,63 53.5714286,60.9852814 53.5714286,58.5 C53.5714286,56.0147186 55.5701574,54 58.0357143,54 C60.5012712,54 62.5,56.0147186 62.5,58.5 C62.5,60.9852814 60.5012712,63 58.0357143,63 Z M84.8214286,63 C82.3558717,63 80.3571429,60.9852814 80.3571429,58.5 C80.3571429,56.0147186 82.3558717,54 84.8214286,54 C87.2869855,54 89.2857143,56.0147186 89.2857143,58.5 C89.2857143,60.9852814 87.2869855,63 84.8214286,63 Z M111.607143,63 C109.141586,63 107.142857,60.9852814 107.142857,58.5 C107.142857,56.0147186 109.141586,54 111.607143,54 C114.0727,54 116.071429,56.0147186 116.071429,58.5 C116.071429,60.9852814 114.0727,63 111.607143,63 Z M138.392857,63 C135.9273,63 133.928571,60.9852814 133.928571,58.5 C133.928571,56.0147186 135.9273,54 138.392857,54 C140.858414,54 142.857143,56.0147186 142.857143,58.5 C142.857143,60.9852814 140.858414,63 138.392857,63 Z M165.178571,63 C162.713015,63 160.714286,60.9852814 160.714286,58.5 C160.714286,56.0147186 162.713015,54 165.178571,54 C167.644128,54 169.642857,56.0147186 169.642857,58.5 C169.642857,60.9852814 167.644128,63 165.178571,63 Z M191.964286,63 C189.498729,63 187.5,60.9852814 187.5,58.5 C187.5,56.0147186 189.498729,54 191.964286,54 C194.429843,54 196.428571,56.0147186 196.428571,58.5 C196.428571,60.9852814 194.429843,63 191.964286,63 Z M218.75,63 C216.284443,63 214.285714,60.9852814 214.285714,58.5 C214.285714,56.0147186 216.284443,54 218.75,54 C221.215557,54 223.214286,56.0147186 223.214286,58.5 C223.214286,60.9852814 221.215557,63 218.75,63 Z M245.535714,63 C243.070157,63 241.071429,60.9852814 241.071429,58.5 C241.071429,56.0147186 243.070157,54 245.535714,54 C248.001271,54 250,56.0147186 250,58.5 C250,60.9852814 248.001271,63 245.535714,63 Z" id="Shape"></path><path d="M4.46428571,90 C1.9987288,90 0,87.9852814 0,85.5 C0,83.0147186 1.9987288,81 4.46428571,81 C6.92984263,81 8.92857143,83.0147186 8.92857143,85.5 C8.92857143,87.9852814 6.92984263,90 4.46428571,90 Z M31.25,90 C28.7844431,90 26.7857143,87.9852814 26.7857143,85.5 C26.7857143,83.0147186 28.7844431,81 31.25,81 C33.7155569,81 35.7142857,83.0147186 35.7142857,85.5 C35.7142857,87.9852814 33.7155569,90 31.25,90 Z M58.0357143,90 C55.5701574,90 53.5714286,87.9852814 53.5714286,85.5 C53.5714286,83.0147186 55.5701574,81 58.0357143,81 C60.5012712,81 62.5,83.0147186 62.5,85.5 C62.5,87.9852814 60.5012712,90 58.0357143,90 Z M84.8214286,90 C82.3558717,90 80.3571429,87.9852814 80.3571429,85.5 C80.3571429,83.0147186 82.3558717,81 84.8214286,81 C87.2869855,81 89.2857143,83.0147186 89.2857143,85.5 C89.2857143,87.9852814 87.2869855,90 84.8214286,90 Z M111.607143,90 C109.141586,90 107.142857,87.9852814 107.142857,85.5 C107.142857,83.0147186 109.141586,81 111.607143,81 C114.0727,81 116.071429,83.0147186 116.071429,85.5 C116.071429,87.9852814 114.0727,90 111.607143,90 Z M138.392857,90 C135.9273,90 133.928571,87.9852814 133.928571,85.5 C133.928571,83.0147186 135.9273,81 138.392857,81 C140.858414,81 142.857143,83.0147186 142.857143,85.5 C142.857143,87.9852814 140.858414,90 138.392857,90 Z M165.178571,90 C162.713015,90 160.714286,87.9852814 160.714286,85.5 C160.714286,83.0147186 162.713015,81 165.178571,81 C167.644128,81 169.642857,83.0147186 169.642857,85.5 C169.642857,87.9852814 167.644128,90 165.178571,90 Z M191.964286,90 C189.498729,90 187.5,87.9852814 187.5,85.5 C187.5,83.0147186 189.498729,81 191.964286,81 C194.429843,81 196.428571,83.0147186 196.428571,85.5 C196.428571,87.9852814 194.429843,90 191.964286,90 Z M218.75,90 C216.284443,90 214.285714,87.9852814 214.285714,85.5 C214.285714,83.0147186 216.284443,81 218.75,81 C221.215557,81 223.214286,83.0147186 223.214286,85.5 C223.214286,87.9852814 221.215557,90 218.75,90 Z M245.535714,90 C243.070157,90 241.071429,87.9852814 241.071429,85.5 C241.071429,83.0147186 243.070157,81 245.535714,81 C248.001271,81 250,83.0147186 250,85.5 C250,87.9852814 248.001271,90 245.535714,90 Z" id="Shape"></path><path d="M4.46428571,116 C1.9987288,116 0,113.985281 0,111.5 C0,109.014719 1.9987288,107 4.46428571,107 C6.92984263,107 8.92857143,109.014719 8.92857143,111.5 C8.92857143,113.985281 6.92984263,116 4.46428571,116 Z M31.25,116 C28.7844431,116 26.7857143,113.985281 26.7857143,111.5 C26.7857143,109.014719 28.7844431,107 31.25,107 C33.7155569,107 35.7142857,109.014719 35.7142857,111.5 C35.7142857,113.985281 33.7155569,116 31.25,116 Z M58.0357143,116 C55.5701574,116 53.5714286,113.985281 53.5714286,111.5 C53.5714286,109.014719 55.5701574,107 58.0357143,107 C60.5012712,107 62.5,109.014719 62.5,111.5 C62.5,113.985281 60.5012712,116 58.0357143,116 Z M84.8214286,116 C82.3558717,116 80.3571429,113.985281 80.3571429,111.5 C80.3571429,109.014719 82.3558717,107 84.8214286,107 C87.2869855,107 89.2857143,109.014719 89.2857143,111.5 C89.2857143,113.985281 87.2869855,116 84.8214286,116 Z M111.607143,116 C109.141586,116 107.142857,113.985281 107.142857,111.5 C107.142857,109.014719 109.141586,107 111.607143,107 C114.0727,107 116.071429,109.014719 116.071429,111.5 C116.071429,113.985281 114.0727,116 111.607143,116 Z M138.392857,116 C135.9273,116 133.928571,113.985281 133.928571,111.5 C133.928571,109.014719 135.9273,107 138.392857,107 C140.858414,107 142.857143,109.014719 142.857143,111.5 C142.857143,113.985281 140.858414,116 138.392857,116 Z M165.178571,116 C162.713015,116 160.714286,113.985281 160.714286,111.5 C160.714286,109.014719 162.713015,107 165.178571,107 C167.644128,107 169.642857,109.014719 169.642857,111.5 C169.642857,113.985281 167.644128,116 165.178571,116 Z M191.964286,116 C189.498729,116 187.5,113.985281 187.5,111.5 C187.5,109.014719 189.498729,107 191.964286,107 C194.429843,107 196.428571,109.014719 196.428571,111.5 C196.428571,113.985281 194.429843,116 191.964286,116 Z M218.75,116 C216.284443,116 214.285714,113.985281 214.285714,111.5 C214.285714,109.014719 216.284443,107 218.75,107 C221.215557,107 223.214286,109.014719 223.214286,111.5 C223.214286,113.985281 221.215557,116 218.75,116 Z M245.535714,116 C243.070157,116 241.071429,113.985281 241.071429,111.5 C241.071429,109.014719 243.070157,107 245.535714,107 C248.001271,107 250,109.014719 250,111.5 C250,113.985281 248.001271,116 245.535714,116 Z" id="Shape"></path><path d="M4.46428571,143 C1.9987288,143 0,140.985281 0,138.5 C0,136.014719 1.9987288,134 4.46428571,134 C6.92984263,134 8.92857143,136.014719 8.92857143,138.5 C8.92857143,140.985281 6.92984263,143 4.46428571,143 Z M31.25,143 C28.7844431,143 26.7857143,140.985281 26.7857143,138.5 C26.7857143,136.014719 28.7844431,134 31.25,134 C33.7155569,134 35.7142857,136.014719 35.7142857,138.5 C35.7142857,140.985281 33.7155569,143 31.25,143 Z M58.0357143,143 C55.5701574,143 53.5714286,140.985281 53.5714286,138.5 C53.5714286,136.014719 55.5701574,134 58.0357143,134 C60.5012712,134 62.5,136.014719 62.5,138.5 C62.5,140.985281 60.5012712,143 58.0357143,143 Z M84.8214286,143 C82.3558717,143 80.3571429,140.985281 80.3571429,138.5 C80.3571429,136.014719 82.3558717,134 84.8214286,134 C87.2869855,134 89.2857143,136.014719 89.2857143,138.5 C89.2857143,140.985281 87.2869855,143 84.8214286,143 Z M111.607143,143 C109.141586,143 107.142857,140.985281 107.142857,138.5 C107.142857,136.014719 109.141586,134 111.607143,134 C114.0727,134 116.071429,136.014719 116.071429,138.5 C116.071429,140.985281 114.0727,143 111.607143,143 Z M138.392857,143 C135.9273,143 133.928571,140.985281 133.928571,138.5 C133.928571,136.014719 135.9273,134 138.392857,134 C140.858414,134 142.857143,136.014719 142.857143,138.5 C142.857143,140.985281 140.858414,143 138.392857,143 Z M165.178571,143 C162.713015,143 160.714286,140.985281 160.714286,138.5 C160.714286,136.014719 162.713015,134 165.178571,134 C167.644128,134 169.642857,136.014719 169.642857,138.5 C169.642857,140.985281 167.644128,143 165.178571,143 Z M191.964286,143 C189.498729,143 187.5,140.985281 187.5,138.5 C187.5,136.014719 189.498729,134 191.964286,134 C194.429843,134 196.428571,136.014719 196.428571,138.5 C196.428571,140.985281 194.429843,143 191.964286,143 Z M218.75,143 C216.284443,143 214.285714,140.985281 214.285714,138.5 C214.285714,136.014719 216.284443,134 218.75,134 C221.215557,134 223.214286,136.014719 223.214286,138.5 C223.214286,140.985281 221.215557,143 218.75,143 Z M245.535714,143 C243.070157,143 241.071429,140.985281 241.071429,138.5 C241.071429,136.014719 243.070157,134 245.535714,134 C248.001271,134 250,136.014719 250,138.5 C250,140.985281 248.001271,143 245.535714,143 Z" id="Shape"></path><path d="M4.46428571,170 C1.9987288,170 0,167.985281 0,165.5 C0,163.014719 1.9987288,161 4.46428571,161 C6.92984263,161 8.92857143,163.014719 8.92857143,165.5 C8.92857143,167.985281 6.92984263,170 4.46428571,170 Z M31.25,170 C28.7844431,170 26.7857143,167.985281 26.7857143,165.5 C26.7857143,163.014719 28.7844431,161 31.25,161 C33.7155569,161 35.7142857,163.014719 35.7142857,165.5 C35.7142857,167.985281 33.7155569,170 31.25,170 Z M58.0357143,170 C55.5701574,170 53.5714286,167.985281 53.5714286,165.5 C53.5714286,163.014719 55.5701574,161 58.0357143,161 C60.5012712,161 62.5,163.014719 62.5,165.5 C62.5,167.985281 60.5012712,170 58.0357143,170 Z M84.8214286,170 C82.3558717,170 80.3571429,167.985281 80.3571429,165.5 C80.3571429,163.014719 82.3558717,161 84.8214286,161 C87.2869855,161 89.2857143,163.014719 89.2857143,165.5 C89.2857143,167.985281 87.2869855,170 84.8214286,170 Z M111.607143,170 C109.141586,170 107.142857,167.985281 107.142857,165.5 C107.142857,163.014719 109.141586,161 111.607143,161 C114.0727,161 116.071429,163.014719 116.071429,165.5 C116.071429,167.985281 114.0727,170 111.607143,170 Z M138.392857,170 C135.9273,170 133.928571,167.985281 133.928571,165.5 C133.928571,163.014719 135.9273,161 138.392857,161 C140.858414,161 142.857143,163.014719 142.857143,165.5 C142.857143,167.985281 140.858414,170 138.392857,170 Z M165.178571,170 C162.713015,170 160.714286,167.985281 160.714286,165.5 C160.714286,163.014719 162.713015,161 165.178571,161 C167.644128,161 169.642857,163.014719 169.642857,165.5 C169.642857,167.985281 167.644128,170 165.178571,170 Z M191.964286,170 C189.498729,170 187.5,167.985281 187.5,165.5 C187.5,163.014719 189.498729,161 191.964286,161 C194.429843,161 196.428571,163.014719 196.428571,165.5 C196.428571,167.985281 194.429843,170 191.964286,170 Z M218.75,170 C216.284443,170 214.285714,167.985281 214.285714,165.5 C214.285714,163.014719 216.284443,161 218.75,161 C221.215557,161 223.214286,163.014719 223.214286,165.5 C223.214286,167.985281 221.215557,170 218.75,170 Z M245.535714,170 C243.070157,170 241.071429,167.985281 241.071429,165.5 C241.071429,163.014719 243.070157,161 245.535714,161 C248.001271,161 250,163.014719 250,165.5 C250,167.985281 248.001271,170 245.535714,170 Z" id="Shape"></path></g><g id="polka-dots" opacity="0.3" transform="translate(0.000000, 708.000000)" fill="#FFFFFF" fill-rule="nonzero"><path d="M5.42857142,11 C2.43045422,11 0,8.53756612 0,5.5 C0,2.46243388 2.43045422,0 5.42857142,0 C8.42668864,0 10.8571429,2.46243388 10.8571429,5.5 C10.8571429,8.53756612 8.42668864,11 5.42857142,11 Z M38,11 C35.0018828,11 32.5714286,8.53756612 32.5714286,5.5 C32.5714286,2.46243388 35.0018828,0 38,0 C40.9981172,0 43.4285714,2.46243388 43.4285714,5.5 C43.4285714,8.53756612 40.9981172,11 38,11 Z M70.5714286,11 C67.5733114,11 65.1428572,8.53756612 65.1428572,5.5 C65.1428572,2.46243388 67.5733114,0 70.5714286,0 C73.5695458,0 76,2.46243388 76,5.5 C76,8.53756612 73.5695458,11 70.5714286,11 Z M103.142857,11 C100.14474,11 97.7142858,8.53756612 97.7142858,5.5 C97.7142858,2.46243388 100.14474,0 103.142857,0 C106.140974,0 108.571429,2.46243388 108.571429,5.5 C108.571429,8.53756612 106.140974,11 103.142857,11 Z M135.714286,11 C132.716169,11 130.285714,8.53756612 130.285714,5.5 C130.285714,2.46243388 132.716169,0 135.714286,0 C138.712403,0 141.142858,2.46243388 141.142858,5.5 C141.142858,8.53756612 138.712403,11 135.714286,11 Z M168.285714,11 C165.287597,11 162.857142,8.53756612 162.857142,5.5 C162.857142,2.46243388 165.287597,0 168.285714,0 C171.283831,0 173.714286,2.46243388 173.714286,5.5 C173.714286,8.53756612 171.283831,11 168.285714,11 Z M200.857142,11 C197.859026,11 195.428572,8.53756612 195.428572,5.5 C195.428572,2.46243388 197.859026,0 200.857142,0 C203.85526,0 206.285714,2.46243388 206.285714,5.5 C206.285714,8.53756612 203.85526,11 200.857142,11 Z M233.428572,11 C230.430454,11 228,8.53756612 228,5.5 C228,2.46243388 230.430454,0 233.428572,0 C236.426689,0 238.857142,2.46243388 238.857142,5.5 C238.857142,8.53756612 236.426689,11 233.428572,11 Z M266,11 C263.001883,11 260.571428,8.53756612 260.571428,5.5 C260.571428,2.46243388 263.001883,0 266,0 C268.998117,0 271.428572,2.46243388 271.428572,5.5 C271.428572,8.53756612 268.998117,11 266,11 Z M298.571428,11 C295.573311,11 293.142858,8.53756612 293.142858,5.5 C293.142858,2.46243388 295.573311,0 298.571428,0 C301.569546,0 304,2.46243388 304,5.5 C304,8.53756612 301.569546,11 298.571428,11 Z" id="Shape"></path><path d="M5.42857142,44 C2.43045422,44 0,41.5375662 0,38.5 C0,35.4624338 2.43045422,33 5.42857142,33 C8.42668864,33 10.8571429,35.4624338 10.8571429,38.5 C10.8571429,41.5375662 8.42668864,44 5.42857142,44 Z M38,44 C35.0018828,44 32.5714286,41.5375662 32.5714286,38.5 C32.5714286,35.4624338 35.0018828,33 38,33 C40.9981172,33 43.4285714,35.4624338 43.4285714,38.5 C43.4285714,41.5375662 40.9981172,44 38,44 Z M70.5714286,44 C67.5733114,44 65.1428572,41.5375662 65.1428572,38.5 C65.1428572,35.4624338 67.5733114,33 70.5714286,33 C73.5695458,33 76,35.4624338 76,38.5 C76,41.5375662 73.5695458,44 70.5714286,44 Z M103.142857,44 C100.14474,44 97.7142858,41.5375662 97.7142858,38.5 C97.7142858,35.4624338 100.14474,33 103.142857,33 C106.140974,33 108.571429,35.4624338 108.571429,38.5 C108.571429,41.5375662 106.140974,44 103.142857,44 Z M135.714286,44 C132.716169,44 130.285714,41.5375662 130.285714,38.5 C130.285714,35.4624338 132.716169,33 135.714286,33 C138.712403,33 141.142858,35.4624338 141.142858,38.5 C141.142858,41.5375662 138.712403,44 135.714286,44 Z M168.285714,44 C165.287597,44 162.857142,41.5375662 162.857142,38.5 C162.857142,35.4624338 165.287597,33 168.285714,33 C171.283831,33 173.714286,35.4624338 173.714286,38.5 C173.714286,41.5375662 171.283831,44 168.285714,44 Z M200.857142,44 C197.859026,44 195.428572,41.5375662 195.428572,38.5 C195.428572,35.4624338 197.859026,33 200.857142,33 C203.85526,33 206.285714,35.4624338 206.285714,38.5 C206.285714,41.5375662 203.85526,44 200.857142,44 Z M233.428572,44 C230.430454,44 228,41.5375662 228,38.5 C228,35.4624338 230.430454,33 233.428572,33 C236.426689,33 238.857142,35.4624338 238.857142,38.5 C238.857142,41.5375662 236.426689,44 233.428572,44 Z M266,44 C263.001883,44 260.571428,41.5375662 260.571428,38.5 C260.571428,35.4624338 263.001883,33 266,33 C268.998117,33 271.428572,35.4624338 271.428572,38.5 C271.428572,41.5375662 268.998117,44 266,44 Z M298.571428,44 C295.573311,44 293.142858,41.5375662 293.142858,38.5 C293.142858,35.4624338 295.573311,33 298.571428,33 C301.569546,33 304,35.4624338 304,38.5 C304,41.5375662 301.569546,44 298.571428,44 Z" id="Shape"></path><path d="M5.42857142,77 C2.43045422,77 0,74.5375662 0,71.5 C0,68.4624338 2.43045422,66 5.42857142,66 C8.42668864,66 10.8571429,68.4624338 10.8571429,71.5 C10.8571429,74.5375662 8.42668864,77 5.42857142,77 Z M38,77 C35.0018828,77 32.5714286,74.5375662 32.5714286,71.5 C32.5714286,68.4624338 35.0018828,66 38,66 C40.9981172,66 43.4285714,68.4624338 43.4285714,71.5 C43.4285714,74.5375662 40.9981172,77 38,77 Z M70.5714286,77 C67.5733114,77 65.1428572,74.5375662 65.1428572,71.5 C65.1428572,68.4624338 67.5733114,66 70.5714286,66 C73.5695458,66 76,68.4624338 76,71.5 C76,74.5375662 73.5695458,77 70.5714286,77 Z M103.142857,77 C100.14474,77 97.7142858,74.5375662 97.7142858,71.5 C97.7142858,68.4624338 100.14474,66 103.142857,66 C106.140974,66 108.571429,68.4624338 108.571429,71.5 C108.571429,74.5375662 106.140974,77 103.142857,77 Z M135.714286,77 C132.716169,77 130.285714,74.5375662 130.285714,71.5 C130.285714,68.4624338 132.716169,66 135.714286,66 C138.712403,66 141.142858,68.4624338 141.142858,71.5 C141.142858,74.5375662 138.712403,77 135.714286,77 Z M168.285714,77 C165.287597,77 162.857142,74.5375662 162.857142,71.5 C162.857142,68.4624338 165.287597,66 168.285714,66 C171.283831,66 173.714286,68.4624338 173.714286,71.5 C173.714286,74.5375662 171.283831,77 168.285714,77 Z M200.857142,77 C197.859026,77 195.428572,74.5375662 195.428572,71.5 C195.428572,68.4624338 197.859026,66 200.857142,66 C203.85526,66 206.285714,68.4624338 206.285714,71.5 C206.285714,74.5375662 203.85526,77 200.857142,77 Z M233.428572,77 C230.430454,77 228,74.5375662 228,71.5 C228,68.4624338 230.430454,66 233.428572,66 C236.426689,66 238.857142,68.4624338 238.857142,71.5 C238.857142,74.5375662 236.426689,77 233.428572,77 Z M266,77 C263.001883,77 260.571428,74.5375662 260.571428,71.5 C260.571428,68.4624338 263.001883,66 266,66 C268.998117,66 271.428572,68.4624338 271.428572,71.5 C271.428572,74.5375662 268.998117,77 266,77 Z M298.571428,77 C295.573311,77 293.142858,74.5375662 293.142858,71.5 C293.142858,68.4624338 295.573311,66 298.571428,66 C301.569546,66 304,68.4624338 304,71.5 C304,74.5375662 301.569546,77 298.571428,77 Z" id="Shape"></path><path d="M5.42857142,110 C2.43045422,110 0,107.537566 0,104.5 C0,101.462434 2.43045422,99 5.42857142,99 C8.42668864,99 10.8571429,101.462434 10.8571429,104.5 C10.8571429,107.537566 8.42668864,110 5.42857142,110 Z M38,110 C35.0018828,110 32.5714286,107.537566 32.5714286,104.5 C32.5714286,101.462434 35.0018828,99 38,99 C40.9981172,99 43.4285714,101.462434 43.4285714,104.5 C43.4285714,107.537566 40.9981172,110 38,110 Z M70.5714286,110 C67.5733114,110 65.1428572,107.537566 65.1428572,104.5 C65.1428572,101.462434 67.5733114,99 70.5714286,99 C73.5695458,99 76,101.462434 76,104.5 C76,107.537566 73.5695458,110 70.5714286,110 Z M103.142857,110 C100.14474,110 97.7142858,107.537566 97.7142858,104.5 C97.7142858,101.462434 100.14474,99 103.142857,99 C106.140974,99 108.571429,101.462434 108.571429,104.5 C108.571429,107.537566 106.140974,110 103.142857,110 Z M135.714286,110 C132.716169,110 130.285714,107.537566 130.285714,104.5 C130.285714,101.462434 132.716169,99 135.714286,99 C138.712403,99 141.142858,101.462434 141.142858,104.5 C141.142858,107.537566 138.712403,110 135.714286,110 Z M168.285714,110 C165.287597,110 162.857142,107.537566 162.857142,104.5 C162.857142,101.462434 165.287597,99 168.285714,99 C171.283831,99 173.714286,101.462434 173.714286,104.5 C173.714286,107.537566 171.283831,110 168.285714,110 Z M200.857142,110 C197.859026,110 195.428572,107.537566 195.428572,104.5 C195.428572,101.462434 197.859026,99 200.857142,99 C203.85526,99 206.285714,101.462434 206.285714,104.5 C206.285714,107.537566 203.85526,110 200.857142,110 Z M233.428572,110 C230.430454,110 228,107.537566 228,104.5 C228,101.462434 230.430454,99 233.428572,99 C236.426689,99 238.857142,101.462434 238.857142,104.5 C238.857142,107.537566 236.426689,110 233.428572,110 Z M266,110 C263.001883,110 260.571428,107.537566 260.571428,104.5 C260.571428,101.462434 263.001883,99 266,99 C268.998117,99 271.428572,101.462434 271.428572,104.5 C271.428572,107.537566 268.998117,110 266,110 Z M298.571428,110 C295.573311,110 293.142858,107.537566 293.142858,104.5 C293.142858,101.462434 295.573311,99 298.571428,99 C301.569546,99 304,101.462434 304,104.5 C304,107.537566 301.569546,110 298.571428,110 Z" id="Shape"></path><path d="M5.42857142,141 C2.43045422,141 0,138.537566 0,135.5 C0,132.462434 2.43045422,130 5.42857142,130 C8.42668864,130 10.8571429,132.462434 10.8571429,135.5 C10.8571429,138.537566 8.42668864,141 5.42857142,141 Z M38,141 C35.0018828,141 32.5714286,138.537566 32.5714286,135.5 C32.5714286,132.462434 35.0018828,130 38,130 C40.9981172,130 43.4285714,132.462434 43.4285714,135.5 C43.4285714,138.537566 40.9981172,141 38,141 Z M70.5714286,141 C67.5733114,141 65.1428572,138.537566 65.1428572,135.5 C65.1428572,132.462434 67.5733114,130 70.5714286,130 C73.5695458,130 76,132.462434 76,135.5 C76,138.537566 73.5695458,141 70.5714286,141 Z M103.142857,141 C100.14474,141 97.7142858,138.537566 97.7142858,135.5 C97.7142858,132.462434 100.14474,130 103.142857,130 C106.140974,130 108.571429,132.462434 108.571429,135.5 C108.571429,138.537566 106.140974,141 103.142857,141 Z M135.714286,141 C132.716169,141 130.285714,138.537566 130.285714,135.5 C130.285714,132.462434 132.716169,130 135.714286,130 C138.712403,130 141.142858,132.462434 141.142858,135.5 C141.142858,138.537566 138.712403,141 135.714286,141 Z M168.285714,141 C165.287597,141 162.857142,138.537566 162.857142,135.5 C162.857142,132.462434 165.287597,130 168.285714,130 C171.283831,130 173.714286,132.462434 173.714286,135.5 C173.714286,138.537566 171.283831,141 168.285714,141 Z M200.857142,141 C197.859026,141 195.428572,138.537566 195.428572,135.5 C195.428572,132.462434 197.859026,130 200.857142,130 C203.85526,130 206.285714,132.462434 206.285714,135.5 C206.285714,138.537566 203.85526,141 200.857142,141 Z M233.428572,141 C230.430454,141 228,138.537566 228,135.5 C228,132.462434 230.430454,130 233.428572,130 C236.426689,130 238.857142,132.462434 238.857142,135.5 C238.857142,138.537566 236.426689,141 233.428572,141 Z M266,141 C263.001883,141 260.571428,138.537566 260.571428,135.5 C260.571428,132.462434 263.001883,130 266,130 C268.998117,130 271.428572,132.462434 271.428572,135.5 C271.428572,138.537566 268.998117,141 266,141 Z M298.571428,141 C295.573311,141 293.142858,138.537566 293.142858,135.5 C293.142858,132.462434 295.573311,130 298.571428,130 C301.569546,130 304,132.462434 304,135.5 C304,138.537566 301.569546,141 298.571428,141 Z" id="Shape"></path></g></g></g></g></g></svg> 