<?xml version="1.0" encoding="UTF-8"?> <svg xmlns="http://www.w3.org/2000/svg" xmlns:xlink="http://www.w3.org/1999/xlink" width="1061px" height="900px" viewBox="0 0 1061 900"><!-- Generator: Sketch 55.2 (78181) - https://sketchapp.com --><title>bg</title><desc>Created with Sketch.</desc><g id="Page-1" stroke="none" stroke-width="1" fill="none" fill-rule="evenodd"><g id="Header" transform="translate(-639.000000, 0.000000)" fill="#F7F6F3"><g id="Graphics" transform="translate(58.000000, -420.000000)"><g id="bg"><rect id="Rectangle" opacity="0.100000001" transform="translate(1488.182486, 377.567277) rotate(-35.000000) translate(-1488.182486, -377.567277) " x="996.682486" y="312.067277" width="983" height="131" rx="65.5"></rect><rect id="Rectangle-Copy-13" opacity="0.100000001" transform="translate(1524.182486, 998.567277) rotate(-35.000000) translate(-1524.182486, -998.567277) " x="1032.68249" y="933.067277" width="983" height="131" rx="65.5"></rect><rect id="Rectangle-Copy-14" opacity="0.100000001" transform="translate(1928.182486, 945.567277) rotate(-35.000000) translate(-1928.182486, -945.567277) " x="1436.68249" y="880.067277" width="983" height="131" rx="65.5"></rect><rect id="Rectangle-Copy-11" opacity="0.100000001" transform="translate(947.182486, 1188.567277) rotate(-35.000000) translate(-947.182486, -1188.567277) " x="455.682486" y="1123.06728" width="983" height="131" rx="65.5"></rect><rect id="Rectangle-Copy-2" opacity="0.100000001" transform="translate(996.182486, 912.567277) rotate(-35.000000) translate(-996.182486, -912.567277) " x="504.682486" y="847.067277" width="983" height="131" rx="65.5"></rect><rect id="Rectangle-Copy-12" opacity="0.100000001" transform="translate(1778.182486, 592.567277) rotate(-35.000000) translate(-1778.182486, -592.567277) " x="1286.68249" y="527.067277" width="983" height="131" rx="65.5"></rect><rect id="Rectangle-Copy-10" opacity="0.149999991" transform="translate(1827.182486, 335.567277) rotate(-35.000000) translate(-1827.182486, -335.567277) " x="1335.68249" y="270.067277" width="983" height="131" rx="65.5"></rect></g></g></g></g></svg> 