<svg width="77" height="77" viewBox="0 0 77 77" fill="none" xmlns="http://www.w3.org/2000/svg">
<path d="M67.2217 44.9304C64.087 44.5821 60.9523 43.8855 58.166 42.8406C54.3347 41.4474 50.1551 42.4923 47.0204 45.2788L44.5823 47.7169C38.3129 43.5373 32.7401 38.3128 28.5605 31.6951L30.9986 29.257C33.785 26.4706 34.8299 21.9427 33.4367 18.1114C32.3918 15.3251 31.6953 12.1904 31.3469 9.05567C30.6504 3.83118 26.1224 -8.56302e-05 20.898 -8.56302e-05H10.449C10.1007 -8.56302e-05 9.75241 -8.56302e-05 9.40408 -8.56302e-05C6.61771 0.348241 4.17959 1.74139 2.43812 3.83118C0.696653 5.92098 0 8.70735 0 11.4938C1.0449 22.6393 5.22449 33.785 11.1455 43.1891C16.7184 51.8966 24.3809 59.5591 33.0884 65.1319C42.4925 71.4013 53.638 75.2326 64.7837 76.2775C65.132 76.2775 65.4802 76.2775 65.8286 76.2775C68.6149 76.2775 71.4014 75.2326 73.1429 73.1428C74.8843 71.053 76.2775 68.6149 76.2775 65.8285V55.3795C76.2775 50.155 72.4463 45.6271 67.2218 44.9305L67.2217 44.9304ZM69.3115 55.3794V65.8284C69.3115 66.8733 68.9632 67.5699 68.2666 68.2665C67.57 68.9632 66.8734 69.3114 65.4802 69.3114C55.3796 68.2665 45.6272 64.7835 36.9197 59.2108C28.9088 54.3346 22.2911 47.3686 17.0666 39.3577C11.4938 30.6502 8.01086 20.8979 6.96596 10.7971C6.96596 9.75224 7.31429 9.05567 7.66253 8.35902C8.3591 7.66245 9.404 6.96579 10.4489 6.96579H20.8979C22.6393 6.96579 24.0326 8.35902 24.3809 10.1005C24.7292 13.5835 25.7741 17.4148 27.1673 20.5495C27.5156 21.9427 27.1673 23.3358 26.4707 24.3807L21.9428 28.5603C20.8979 29.6052 20.5496 31.3467 21.2462 32.7399C26.4707 42.144 34.1333 49.8066 43.5374 55.0311C44.9306 55.7277 46.6721 55.7277 47.717 54.3345L52.2449 49.8066C53.2898 48.7617 54.683 48.4134 56.0762 49.11C59.5592 50.5033 63.0421 51.1998 66.5251 51.8964C67.9184 52.2447 69.3115 53.6379 69.3115 55.3794V55.3794Z" fill="white"/>
</svg>
