<svg width="63" height="70" viewBox="0 0 63 70" fill="none" xmlns="http://www.w3.org/2000/svg">
<path d="M45.2789 41.7957H17.4149C7.66253 41.7957 0 49.4584 0 59.2107V66.1766C0 68.2664 1.39322 69.6597 3.48302 69.6597C5.57282 69.6597 6.96604 68.2664 6.96604 66.1766V59.2107C6.96604 53.2896 11.494 48.7617 17.415 48.7617H45.2789C51.2 48.7617 55.7279 53.2896 55.7279 59.2107V66.1766C55.7279 68.2664 57.1211 69.6597 59.2109 69.6597C61.3007 69.6597 62.694 68.2664 62.694 66.1766V59.2107C62.694 49.4583 55.0312 41.7957 45.2789 41.7957ZM31.3469 34.8298C41.0993 34.8298 48.7618 27.1672 48.7618 17.4148C48.7618 7.66252 41.0992 -9.15527e-05 31.3469 -9.15527e-05C21.5945 -9.15527e-05 13.9319 7.66252 13.9319 17.4148C13.9319 27.1672 21.5945 34.8298 31.3469 34.8298ZM31.3469 6.96587C37.2679 6.96587 41.7958 11.4938 41.7958 17.4148C41.7958 23.3359 37.2679 27.8638 31.3469 27.8638C25.4258 27.8638 20.8979 23.3359 20.8979 17.4148C20.8979 11.4938 25.4258 6.96587 31.3469 6.96587Z" fill="#595959"/>
</svg>
