<svg width="77" height="77" viewBox="0 0 77 77" fill="none" xmlns="http://www.w3.org/2000/svg">
<path d="M67.2217 44.9305C64.087 44.5822 60.9523 43.8856 58.166 42.8407C54.3347 41.4475 50.1551 42.4924 47.0204 45.2788L44.5823 47.717C38.3129 43.5374 32.7401 38.3129 28.5605 31.6952L30.9986 29.257C33.785 26.4707 34.8299 21.9428 33.4367 18.1115C32.3918 15.3251 31.6953 12.1904 31.3469 9.05573C30.6504 3.83124 26.1224 -2.45951e-05 20.898 -2.45951e-05H10.449C10.1007 -2.45951e-05 9.75241 -2.45951e-05 9.40408 -2.45951e-05C6.61771 0.348302 4.17959 1.74145 2.43812 3.83124C0.696653 5.92104 0 8.70741 0 11.4939C1.0449 22.6394 5.22449 33.785 11.1455 43.1891C16.7184 51.8966 24.3809 59.5592 33.0884 65.132C42.4925 71.4014 53.638 75.2326 64.7837 76.2775C65.132 76.2775 65.4802 76.2775 65.8286 76.2775C68.6149 76.2775 71.4014 75.2326 73.1429 73.1428C74.8843 71.053 76.2775 68.6149 76.2775 65.8285V55.3796C76.2775 50.1551 72.4463 45.6272 67.2218 44.9306L67.2217 44.9305ZM69.3115 55.3795V65.8285C69.3115 66.8734 68.9632 67.5699 68.2666 68.2666C67.57 68.9632 66.8734 69.3115 65.4802 69.3115C55.3796 68.2666 45.6272 64.7836 36.9197 59.2108C28.9088 54.3347 22.2911 47.3686 17.0666 39.3578C11.4938 30.6503 8.01086 20.8979 6.96596 10.7972C6.96596 9.75231 7.31429 9.05573 7.66253 8.35908C8.3591 7.66251 9.404 6.96586 10.4489 6.96586H20.8979C22.6393 6.96586 24.0326 8.35908 24.3809 10.1005C24.7292 13.5836 25.7741 17.4148 27.1673 20.5495C27.5156 21.9427 27.1673 23.3359 26.4707 24.3808L21.9428 28.5604C20.8979 29.6053 20.5496 31.3468 21.2462 32.74C26.4707 42.1441 34.1333 49.8067 43.5374 55.0312C44.9306 55.7277 46.6721 55.7277 47.717 54.3346L52.2449 49.8067C53.2898 48.7618 54.683 48.4134 56.0762 49.1101C59.5592 50.5033 63.0421 51.1999 66.5251 51.8965C67.9184 52.2448 69.3115 53.6379 69.3115 55.3795V55.3795Z" fill="white"/>
</svg>
