<svg width="16" height="18" viewBox="0 0 16 18" fill="none" xmlns="http://www.w3.org/2000/svg">
<path d="M1 17.4194C1 13.6228 4.07847 10.5444 7.875 10.5444C11.6715 10.5444 14.75 13.6228 14.75 17.4194M7.875 1.37769C6.86202 1.37769 5.89053 1.78009 5.17424 2.49637C4.45796 3.21266 4.05556 4.18415 4.05556 5.19713C4.05556 6.21011 4.45796 7.1816 5.17424 7.89788C5.89053 8.61417 6.86202 9.01657 7.875 9.01657C8.88798 9.01657 9.85947 8.61417 10.5758 7.89788C11.292 7.1816 11.6944 6.21011 11.6944 5.19713C11.6944 4.18415 11.292 3.21266 10.5758 2.49637C9.85947 1.78009 8.88798 1.37769 7.875 1.37769Z" stroke="#001737" stroke-width="1.5"/>
</svg>
