<svg width="100" height="106" viewBox="0 0 100 106" fill="none" xmlns="http://www.w3.org/2000/svg">
<path d="M3.14002 70.94C5.31317 74.6009 7.92959 77.9797 10.93 81C11.3754 82.7284 12.2507 84.316 13.4747 85.6151C14.6986 86.9142 16.2312 87.8825 17.93 88.43C18.3484 88.5673 18.7762 88.6742 19.21 88.75H19.48L19.9 88.82H20.19H20.52C21.4095 88.8794 22.3029 88.829 23.18 88.67C24.8808 88.3519 26.4735 87.6089 27.81 86.51L44.34 72.44L49.9 75.23L52.11 80.58L34.28 94.83C31.7562 96.7472 28.823 98.0546 25.71 98.65L24.83 98.8C23.1303 99.042 21.4072 99.0722 19.7 98.89C19.42 98.89 19.12 98.82 18.81 98.77L18.46 98.72C18.2 98.72 17.89 98.61 17.58 98.55L17.25 98.48C16.4075 98.2984 15.5788 98.0578 14.77 97.76C11.568 96.6037 8.7115 94.6543 6.46771 92.094C4.22392 89.5336 2.66613 86.4461 1.94002 83.12C1.22602 79.8316 1.35328 76.4162 2.31002 73.19C2.53882 72.4232 2.81605 71.6717 3.14002 70.94ZM96.56 31.76C95.8871 31.0299 95.071 30.4462 94.1626 30.0453C93.2542 29.6444 92.2729 29.435 91.28 29.43C90.2944 29.4222 89.3176 29.6159 88.4096 29.9994C87.5016 30.3829 86.6816 30.948 86 31.66L77.47 40.52L57 36.66C56.0655 36.4852 55.103 36.5316 54.1896 36.7955C53.2762 37.0595 52.4373 37.5336 51.74 38.18L48.14 41.53C47.9481 41.7095 47.8016 41.932 47.7125 42.1792C47.6233 42.4264 47.5942 42.6912 47.6274 42.9519C47.6606 43.2126 47.7552 43.4617 47.9034 43.6786C48.0516 43.8956 48.2493 44.0743 48.48 44.2L65.18 53.26L59.67 59L51.87 57.88C51.0195 57.7546 50.1517 57.8226 49.331 58.0788C48.5104 58.335 47.7581 58.7729 47.13 59.36L45.46 60.91C45.2659 61.0928 45.1188 61.3197 45.0309 61.5715C44.9431 61.8233 44.9173 62.0925 44.9555 62.3564C44.9938 62.6203 45.095 62.8711 45.2507 63.0875C45.4064 63.304 45.612 63.4798 45.85 63.6L56.64 69L61.25 80.16C61.3528 80.4067 61.5136 80.625 61.7188 80.7963C61.9241 80.9675 62.1676 81.0867 62.4288 81.1436C62.6899 81.2006 62.961 81.1936 63.2189 81.1233C63.4768 81.0531 63.7139 80.9216 63.91 80.74L65.58 79.19C66.2105 78.6057 66.7014 77.8871 67.0165 77.0874C67.3315 76.2876 67.4626 75.4273 67.4 74.57L66.84 66.57L72.84 61.57L80.66 78.89C80.8287 79.2557 81.1246 79.5476 81.4925 79.7114C81.8605 79.8751 82.2754 79.8995 82.66 79.78C82.8833 79.704 83.0879 79.5813 83.26 79.42L86.89 76C87.5848 75.3523 88.1185 74.5511 88.4484 73.6603C88.7784 72.7696 88.8953 71.814 88.79 70.87L86.43 50.19L95.88 42.33C96.6425 41.6963 97.2677 40.9138 97.7174 40.0303C98.1672 39.1467 98.4319 38.1807 98.4956 37.1914C98.5592 36.202 98.4204 35.2101 98.0876 34.2762C97.7548 33.3423 97.235 32.4861 96.56 31.76ZM58.19 24C57.28 25.5 58.04 26.79 58.77 27.91C58.8654 28.1266 59.0144 28.3153 59.2031 28.4582C59.3918 28.6011 59.6138 28.6934 59.8481 28.7264C60.0825 28.7595 60.3214 28.7322 60.5422 28.647C60.7631 28.5619 60.9585 28.4218 61.11 28.24C61.82 27.57 63.35 26.83 63.95 27.15C66.17 28.36 68.33 28.15 70.6 27.7C70.7 27.7 72.6 28.65 72.71 28.62C74.15 28.27 77.1 29.47 77.92 27.79L79.86 25.79C81.4465 24.1562 83.3669 22.8839 85.49 22.06C82.3983 16.9708 78.2973 12.5685 73.4398 9.12432C68.5822 5.68014 63.0708 3.26702 57.2452 2.03361C51.4197 0.800192 45.4033 0.772614 39.5666 1.95257C33.73 3.13252 28.1968 5.49502 23.3078 8.89452C18.4188 12.294 14.2777 16.6585 11.1394 21.7192C8.00122 26.7798 5.93238 32.4294 5.06038 38.3199C4.18837 44.2105 4.53167 50.2171 6.06913 55.9699C7.60659 61.7228 10.3056 67.0999 14 71.77L14.71 72.63L15.33 73.35C15.85 73.94 16.39 74.53 16.95 75.09L17.09 75.26C18.8019 76.9911 20.6549 78.5766 22.63 80L30 73.6C27.4211 71.9839 25.0673 70.0336 23 67.8H23.05C26.05 66.95 29.15 66.09 32.2 65.27C32.5 65.19 32.87 65.4 33.2 65.35C34.45 65.18 35.71 65.11 36.43 63.73C36.8084 63.1604 37.3583 62.7261 38 62.49C39.12 61.98 41 59.64 40.77 58.49C40.62 57.62 40.27 56.4 39.63 56.07C39.1219 55.7856 38.6804 55.3957 38.3355 54.9266C37.9905 54.4574 37.75 53.9198 37.63 53.35C37.1 51.8 36.56 50.26 35.97 48.74C35.8 48.31 35.51 47.74 35.15 47.62C34.6819 47.4548 34.2702 47.1606 33.9623 46.7713C33.6543 46.382 33.4629 45.9135 33.41 45.42C32.92 42.78 31.33 41.3 28.86 40.36C26.39 39.42 24.86 39.7 23.8 42.25C23.6154 42.8089 23.2904 43.3112 22.8562 43.7086C22.422 44.106 21.8931 44.3854 21.32 44.52C20.9212 44.6579 20.5729 44.9121 20.32 45.25C18.32 47.72 19.94 50.63 19.37 53.25C19.37 53.42 19.49 53.62 19.56 53.81C19.82 54.56 20.04 55.33 20.37 56.04C20.5599 56.4368 20.6492 56.8743 20.63 57.3137C20.6108 57.7532 20.4838 58.1812 20.26 58.56C19.73 59.63 19.26 60.72 18.7 61.8C14.69 54.9384 13.201 46.8922 14.49 39.05C14.6453 39.6481 14.9976 40.1766 15.49 40.55C16.16 40.95 16.69 41.02 17.04 40.12C17.39 39.22 17.93 38.34 18.28 37.41C18.4038 36.9788 18.6468 36.5914 18.9812 36.2924C19.3156 35.9934 19.7277 35.7949 20.17 35.72C21.25 35.54 22.33 35.33 23.43 35.24C24.1357 35.1311 24.8568 35.1824 25.54 35.39C27.45 36.17 28.66 35.83 29.78 34.08C30.0547 33.7154 30.4202 33.4292 30.84 33.25C32.41 32.49 34.03 31.82 35.6 31.05C38.3674 29.7007 41.355 28.8606 44.42 28.57C47.19 28.31 49.42 26.92 51.82 26.42C50.9882 25.7435 50.2604 24.9483 49.66 24.06C49.488 23.6036 49.2207 23.1891 48.8758 22.8442C48.5309 22.4994 48.1164 22.232 47.66 22.06C46.86 21.76 46.15 21.23 45.34 21.06C44.57 20.9055 43.7851 20.8384 43 20.86C42.1973 20.8952 41.3932 20.8483 40.6 20.72C39.79 20.51 39.08 19.93 38.28 19.72C36.7 19.23 36.28 18.02 36.08 16.51L43.89 13.75C46.37 12.87 47.82 13.53 48.66 16.02C48.8143 16.6761 48.9014 17.3462 48.92 18.02L49.5 17.74L51.39 17.62C51.6718 17.132 51.8201 16.5785 51.8201 16.015C51.8201 15.4515 51.6718 14.898 51.39 14.41C51.2055 14.1097 50.9643 13.8482 50.68 13.64C50.0308 13.1542 49.512 12.5152 49.17 11.78C48.9809 11.2963 48.6752 10.8669 48.28 10.53C50.1431 10.5335 52.0028 10.6907 53.84 11C55.7 11.76 57.07 12.85 57.4 15C57.4 15.21 57.79 15.4 58.03 15.56C60.32 16.99 60.81 18.63 59.66 21.1C59.2209 22.0916 58.7302 23.0596 58.19 24Z" fill="white"/>
</svg>
