<svg width="84" height="74" viewBox="0 0 84 74" fill="none" xmlns="http://www.w3.org/2000/svg">
<path d="M0 15.6316C0 13.7926 0.585143 12.1486 1.75543 10.6997C2.92571 9.25079 4.34678 8.33128 6.01861 7.94119L40.0405 0.0835574C40.6535 0.0278295 41.2386 -3.33786e-05 41.7959 -3.33786e-05C42.3532 -3.33786e-05 42.9662 0.0278295 43.6349 0.0835574L77.5732 7.94119C79.3008 8.38701 80.7218 9.30652 81.8364 10.6997C82.951 12.0929 83.5361 13.7369 83.5918 15.6316C83.6476 17.5264 83.0624 19.1704 81.8364 20.5636C80.6104 21.9568 79.1893 22.8763 77.5732 23.3221L70.5515 24.9103V46.9786C70.5515 50.7681 68.2109 53.8888 63.5298 56.3409C58.8487 58.7929 51.604 60.0189 41.7959 60.0189C31.9878 60.0189 24.7432 58.7929 20.062 56.3409C15.3809 53.8888 13.0403 50.7681 13.0403 46.9786V24.9103L6.01861 23.3221C4.29105 22.8763 2.86999 21.9568 1.75543 20.5636C0.640871 19.1704 0.0557279 17.5264 0 15.6316H0ZM5.26629 15.6316C5.26629 17.0248 5.90716 17.8886 7.1889 18.223L41.1272 26.0806H42.4647L76.4029 18.223C77.6847 17.8886 78.3255 17.0248 78.3255 15.6316C78.3255 14.2384 77.6847 13.3747 76.4029 13.0403L42.4647 5.18266H41.1272L7.1889 13.0403C5.90716 13.3747 5.26629 14.2384 5.26629 15.6316V15.6316ZM18.3066 46.9786C18.3066 48.0931 19.1147 49.2077 20.7308 50.3223C22.3469 51.4368 25.0497 52.4678 28.8392 53.4151C32.6287 54.3625 36.9476 54.8362 41.7959 54.8362C46.6442 54.8362 50.9632 54.3625 54.7526 53.4151C58.5421 52.4678 61.2449 51.4368 62.8611 50.3223C64.4772 49.2077 65.2852 48.0931 65.2852 46.9786V26.0806L43.6349 31.1797C42.9662 31.2354 42.3532 31.2633 41.7959 31.2633C41.2386 31.2633 40.6535 31.2354 40.0405 31.1797L18.3066 26.0806V46.9786V46.9786ZM73.1429 67.8765C73.1429 66.149 73.7001 63.9756 74.8147 61.3564C75.9292 58.7372 77.0995 57.4276 78.3255 57.4276C79.5516 57.4276 80.7497 58.7372 81.92 61.3564C83.0903 63.9756 83.6476 66.149 83.5918 67.8765C83.5918 69.2697 83.0624 70.4957 82.0036 71.5546C80.9448 72.6134 79.7187 73.1428 78.3255 73.1428C76.9324 73.1428 75.7342 72.6134 74.7311 71.5546C73.728 70.4957 73.1986 69.2697 73.1429 67.8765V67.8765ZM75.7342 52.1613V28.672C75.7342 27.9475 75.985 27.3345 76.4865 26.8329C76.9881 26.3314 77.6011 26.0806 78.3255 26.0806C79.05 26.0806 79.6909 26.3314 80.2482 26.8329C80.8054 27.3345 81.0562 27.9475 81.0005 28.672V52.1613C81.0005 52.9415 80.7497 53.5823 80.2482 54.0839C79.7466 54.5854 79.1057 54.8362 78.3255 54.8362C77.5454 54.8362 76.9324 54.5854 76.4865 54.0839C76.0407 53.5823 75.7899 52.9415 75.7342 52.1613Z" fill="#116466"/>
</svg>
