<svg width="73" height="58" viewBox="0 0 73 58" fill="none" xmlns="http://www.w3.org/2000/svg">
<path d="M16.7918 0C22.0944 0.126774 26.042 2.21858 28.6344 6.27541C31.109 10.3322 32.3462 15.0863 32.3462 20.5377C32.3462 26.623 31.109 32.2011 28.6344 37.2721C26.1598 42.3432 22.9782 46.6536 19.0896 50.2033C15.201 53.8798 11.1356 56.4787 6.89346 58L0 46.7803C1.53188 45.8929 3.35835 44.4984 5.47942 42.5967C7.60049 40.6951 9.54479 38.6667 11.3123 36.5115C13.0799 34.4831 14.2583 32.518 14.8475 30.6164C12.4907 30.3628 10.3696 29.6022 8.48425 28.3344C6.48103 27.1934 4.89023 25.5454 3.71186 23.3902C2.53349 21.235 1.94431 18.6361 1.94431 15.5934C1.94431 10.3956 3.47619 6.46557 6.53995 3.80328C9.48587 1.26777 12.9031 0 16.7918 0ZM57.4455 0C62.7482 0.126774 66.6957 2.21858 69.2881 6.27541C71.7627 10.3322 73 15.0863 73 20.5377C73 26.623 71.7627 32.2011 69.2881 37.2721C66.8136 42.3432 63.632 46.6536 59.7433 50.2033C55.8547 53.8798 51.7304 56.4787 47.3705 58L40.477 46.7803C42.2446 45.8929 44.1889 44.4984 46.3099 42.5967C48.3132 40.6951 50.1985 38.6667 51.9661 36.5115C53.7337 34.4831 54.912 32.518 55.5012 30.6164C53.0266 30.3628 50.8466 29.6022 48.9613 28.3344C47.0759 27.1934 45.544 25.5454 44.3656 23.3902C43.1872 21.235 42.5981 18.6361 42.5981 15.5934C42.5981 10.3956 44.1299 6.46557 47.1937 3.80328C50.1396 1.26777 53.5569 0 57.4455 0Z" fill="#D4C8F8"/>
</svg>
