<svg width="24" height="24" viewBox="0 0 24 24" fill="none" xmlns="http://www.w3.org/2000/svg">
<path d="M11.503 2.42813L3.93741 3.93751L2.42804 11.5031C2.40439 11.6239 2.41083 11.7487 2.4468 11.8664C2.48277 11.9841 2.54716 12.0912 2.63429 12.1781L12.4218 21.9656C12.4908 22.0362 12.5732 22.0923 12.6641 22.1306C12.7551 22.1689 12.8528 22.1886 12.9515 22.1886C13.0502 22.1886 13.1479 22.1689 13.2388 22.1306C13.3298 22.0923 13.4122 22.0362 13.4812 21.9656L21.9655 13.4813C22.0361 13.4123 22.0922 13.3299 22.1305 13.2389C22.1688 13.148 22.1885 13.0503 22.1885 12.9516C22.1885 12.8529 22.1688 12.7552 22.1305 12.6642C22.0922 12.5733 22.0361 12.4909 21.9655 12.4219L12.178 2.63438C12.0911 2.54725 11.984 2.48286 11.8663 2.44689C11.7486 2.41092 11.6238 2.40448 11.503 2.42813V2.42813Z" stroke="#685143" stroke-width="2" stroke-linecap="round" stroke-linejoin="round"/>
<path d="M7.875 9C8.49632 9 9 8.49632 9 7.875C9 7.25368 8.49632 6.75 7.875 6.75C7.25368 6.75 6.75 7.25368 6.75 7.875C6.75 8.49632 7.25368 9 7.875 9Z" fill="#685143"/>
</svg>
