<svg width="21" height="21" viewBox="0 0 21 21" fill="none" xmlns="http://www.w3.org/2000/svg">
<g clip-path="url(#clip0_801_375)">
<path d="M20.0384 10.9077H0.961526C0.734603 10.9077 0.55127 10.7244 0.55127 10.4974C0.55127 10.2705 0.734603 10.0872 0.961526 10.0872H19.0474L16.5577 7.59743C16.3974 7.43717 16.3974 7.17692 16.5577 7.01666C16.7179 6.85641 16.9782 6.85641 17.1384 7.01666L20.3295 10.2077C20.4474 10.3256 20.482 10.5013 20.4179 10.6551C20.3538 10.8077 20.2038 10.9077 20.0384 10.9077Z" fill="white"/>
<path d="M16.8435 14.1026C16.7384 14.1026 16.6333 14.0628 16.5538 13.982C16.3935 13.8218 16.3935 13.5615 16.5538 13.4013L19.7487 10.2064C19.9089 10.0461 20.1692 10.0461 20.3294 10.2064C20.4897 10.3667 20.4897 10.6269 20.3294 10.7872L17.1346 13.982C17.0538 14.0628 16.9487 14.1026 16.8435 14.1026Z" fill="white"/>
</g>
<defs>
<clipPath id="clip0_801_375">
<rect width="20" height="20" fill="white" transform="translate(0.5 0.5)"/>
</clipPath>
</defs>
</svg>
