<svg width="72" height="72" viewBox="0 0 72 72" fill="none" xmlns="http://www.w3.org/2000/svg">
<path d="M58.5 66H13.5C11.0145 66 9 63.9855 9 61.5V52.5H63V61.5C63 63.9855 60.9855 66 58.5 66Z" fill="#15130E"/>
<path d="M58.5 61.5H13.5C11.8425 61.5 10.5 60.1575 10.5 58.5V10.5H61.5V58.5C61.5 60.1575 60.1575 61.5 58.5 61.5Z" fill="white"/>
<path d="M58.5 63H13.5C11.019 63 9 60.981 9 58.5V10.5C9 9.6705 9.6705 9 10.5 9H61.5C62.3295 9 63 9.6705 63 10.5V58.5C63 60.981 60.981 63 58.5 63ZM12 12V58.5C12 59.328 12.672 60 13.5 60H58.5C59.328 60 60 59.328 60 58.5V12H12Z" fill="#15130E"/>
<path d="M61.5 21H10.5V24H61.5V21Z" fill="#15130E"/>
<path d="M18 9V12C18 13.6575 19.3425 15 21 15C22.6575 15 24 13.6575 24 12V9C24 7.3425 22.6575 6 21 6C19.3425 6 18 7.3425 18 9Z" fill="white"/>
<path d="M21 16.5C18.519 16.5 16.5 14.481 16.5 12V9C16.5 6.519 18.519 4.5 21 4.5C23.481 4.5 25.5 6.519 25.5 9V12C25.5 14.481 23.481 16.5 21 16.5ZM21 7.5C20.172 7.5 19.5 8.172 19.5 9V12C19.5 12.828 20.172 13.5 21 13.5C21.828 13.5 22.5 12.828 22.5 12V9C22.5 8.172 21.828 7.5 21 7.5Z" fill="#15130E"/>
<path d="M48 9V12C48 13.6575 49.3425 15 51 15C52.6575 15 54 13.6575 54 12V9C54 7.3425 52.6575 6 51 6C49.3425 6 48 7.3425 48 9Z" fill="white"/>
<path d="M51 16.5C48.519 16.5 46.5 14.481 46.5 12V9C46.5 6.519 48.519 4.5 51 4.5C53.481 4.5 55.5 6.519 55.5 9V12C55.5 14.481 53.481 16.5 51 16.5ZM51 7.5C50.172 7.5 49.5 8.172 49.5 9V12C49.5 12.828 50.172 13.5 51 13.5C51.828 13.5 52.5 12.828 52.5 12V9C52.5 8.172 51.828 7.5 51 7.5Z" fill="#15130E"/>
<path d="M51 28.5H28.5C27.672 28.5 27 29.1705 27 30V36H21C20.172 36 19.5 36.6705 19.5 37.5V45V52.5C19.5 53.3295 20.172 54 21 54H43.5C44.328 54 45 53.3295 45 52.5V46.5H51C51.828 46.5 52.5 45.8295 52.5 45V37.5V30C52.5 29.1705 51.828 28.5 51 28.5ZM49.5 36H45V31.5H49.5V36ZM42 43.5H37.5V39H42V43.5ZM30 43.5V39H34.5V43.5H30ZM34.5 46.5V51H30V46.5H34.5ZM37.5 36V31.5H42V36H37.5ZM30 31.5H34.5V36H30V31.5ZM22.5 39H27V43.5H22.5V39ZM22.5 46.5H27V51H22.5V46.5ZM42 51H37.5V46.5H42V51ZM49.5 43.5H45V39H49.5V43.5Z" fill="#15130E"/>
</svg>
