<svg width="22" height="20" viewBox="0 0 22 20" fill="none" xmlns="http://www.w3.org/2000/svg">
<path d="M13.388 4.44035C14.3232 4.60425 15.1827 5.01511 15.8565 5.62033C16.5302 6.22556 16.9876 6.99761 17.1701 7.83769M13.388 1C15.331 1.19389 17.1429 1.97549 18.5261 3.21645C19.9093 4.45741 20.7817 6.08398 21 7.82909M20.0425 14.6926V17.2728C20.0436 17.5124 19.989 17.7495 19.8821 17.969C19.7753 18.1884 19.6186 18.3854 19.4221 18.5474C19.2256 18.7093 18.9937 18.8326 18.7411 18.9093C18.4885 18.9861 18.2208 19.0146 17.9552 18.993C15.0089 18.7054 12.1787 17.8011 9.69213 16.3526C7.37869 15.032 5.4173 13.2701 3.94724 11.192C2.32908 8.94824 1.32206 6.3936 1.00777 3.73508C0.983845 3.49723 1.01531 3.25752 1.10017 3.0312C1.18503 2.80488 1.32141 2.59691 1.50065 2.42054C1.67989 2.24416 1.89804 2.10324 2.14123 2.00675C2.38442 1.91026 2.64731 1.86031 2.91316 1.86009H5.78561C6.25028 1.85598 6.70076 2.00379 7.05309 2.27597C7.40541 2.54815 7.63554 2.92612 7.70057 3.33944C7.82181 4.16518 8.04665 4.97595 8.37081 5.75628C8.49963 6.06413 8.52751 6.39869 8.45115 6.72034C8.37478 7.04198 8.19737 7.33722 7.93994 7.57106L6.72394 8.66337C8.08697 10.8166 10.0717 12.5995 12.4688 13.8239L13.6848 12.7316C13.9452 12.5003 14.2738 12.341 14.6319 12.2724C14.99 12.2038 15.3624 12.2288 15.7051 12.3445C16.5738 12.6357 17.4764 12.8377 18.3956 12.9466C18.8608 13.0055 19.2855 13.216 19.5892 13.5379C19.8928 13.8598 20.0542 14.2708 20.0425 14.6926Z" stroke="#7230FF" stroke-linecap="round" stroke-linejoin="round"/>
</svg>
