<svg width="17" height="15" viewBox="0 0 17 15" fill="none" xmlns="http://www.w3.org/2000/svg">
<g clip-path="url(#clip0_192_450)">
<path fill-rule="evenodd" clip-rule="evenodd" d="M3.33334 2L3.77206 0.683772C3.90818 0.27543 4.29033 0 4.72076 0H12.2792C12.7097 0 13.0918 0.27543 13.2279 0.683772L13.6667 2H15C16.1046 2 17 2.89543 17 4V12C17 13.1046 16.1046 14 15 14H2C0.895431 14 0 13.1046 0 12V4C0 2.89543 0.895431 2 2 2H3.33334ZM8.5 11.75C10.8472 11.75 12.75 9.84721 12.75 7.5C12.75 5.15279 10.8472 3.25 8.5 3.25C6.15279 3.25 4.25 5.15279 4.25 7.5C4.25 9.84721 6.15279 11.75 8.5 11.75ZM8.5 10.25C6.98122 10.25 5.75 9.01878 5.75 7.5C5.75 5.98122 6.98122 4.75 8.5 4.75C10.0188 4.75 11.25 5.98122 11.25 7.5C11.25 9.01878 10.0188 10.25 8.5 10.25ZM14 5V6H15V5H14Z" fill="white"/>
</g>
<defs>
<clipPath id="clip0_192_450">
<rect width="17" height="15" fill="white"/>
</clipPath>
</defs>
</svg>
