<svg width="44" height="33" viewBox="0 0 44 33" fill="none" xmlns="http://www.w3.org/2000/svg">
<path d="M42.1667 24.7253H37.3083C36.9094 23.407 36.0969 22.252 34.9909 21.4311C33.8848 20.6102 32.544 20.167 31.1667 20.167C29.7893 20.167 28.4485 20.6102 27.3425 21.4311C26.2364 22.252 25.4239 23.407 25.025 24.7253H1.83333C1.3471 24.7253 0.880788 24.9184 0.536971 25.2623C0.193155 25.6061 0 26.0724 0 26.5586C0 27.0449 0.193155 27.5112 0.536971 27.855C0.880788 28.1988 1.3471 28.392 1.83333 28.392H25.025C25.4239 29.7103 26.2364 30.8653 27.3425 31.6862C28.4485 32.507 29.7893 32.9503 31.1667 32.9503C32.544 32.9503 33.8848 32.507 34.9909 31.6862C36.0969 30.8653 36.9094 29.7103 37.3083 28.392H42.1667C42.6529 28.392 43.1192 28.1988 43.463 27.855C43.8068 27.5112 44 27.0449 44 26.5586C44 26.0724 43.8068 25.6061 43.463 25.2623C43.1192 24.9184 42.6529 24.7253 42.1667 24.7253Z" fill="white"/>
<path d="M1.83333 8.22496H10.3583C10.7572 9.5433 11.5698 10.6983 12.6758 11.5192C13.7818 12.3401 15.1226 12.7833 16.5 12.7833C17.8774 12.7833 19.2182 12.3401 20.3242 11.5192C21.4302 10.6983 22.2428 9.5433 22.6417 8.22496H42.1667C42.6529 8.22496 43.1192 8.03181 43.463 7.68799C43.8068 7.34418 44 6.87786 44 6.39163C44 5.9054 43.8068 5.43908 43.463 5.09527C43.1192 4.75145 42.6529 4.5583 42.1667 4.5583H22.6417C22.2428 3.23996 21.4302 2.08497 20.3242 1.26409C19.2182 0.443205 17.8774 0 16.5 0C15.1226 0 13.7818 0.443205 12.6758 1.26409C11.5698 2.08497 10.7572 3.23996 10.3583 4.5583H1.83333C1.3471 4.5583 0.880788 4.75145 0.536971 5.09527C0.193155 5.43908 0 5.9054 0 6.39163C0 6.87786 0.193155 7.34418 0.536971 7.68799C0.880788 8.03181 1.3471 8.22496 1.83333 8.22496Z" fill="white"/>
</svg>
