<svg width="71" height="77" viewBox="0 0 71 77" fill="none" xmlns="http://www.w3.org/2000/svg">
<path d="M61.053 45.257C57.9183 44.9087 54.7836 44.2121 51.9973 43.1672C48.166 41.774 43.9864 42.8189 40.8517 45.6053L38.4136 48.0434C32.1442 43.8638 26.5714 38.6393 22.3918 32.0216L24.8299 29.5835C27.6163 26.7971 28.6612 22.2692 27.268 18.438C26.2231 15.6516 25.5266 12.5169 25.1782 9.38221C24.4817 4.15772 19.9537 0.326452 14.7293 0.326452H4.28028C3.93195 0.326452 3.58371 0.326452 3.23538 0.326452C0.449013 0.674779 -1.98911 2.06793 -3.73058 4.15772C-5.47205 6.24752 -6.1687 9.03388 -6.1687 11.8203C-5.1238 22.9659 -0.944212 34.1115 4.97685 43.5156C10.5497 52.2231 18.2122 59.8856 26.9197 65.4585C36.3238 71.7278 47.4693 75.5591 58.615 76.604C58.9633 76.604 59.3115 76.604 59.6599 76.604C62.4462 76.604 65.2327 75.5591 66.9742 73.4693C68.7156 71.3795 70.1088 68.9414 70.1088 66.155V55.706C70.1088 50.4816 66.2776 45.9536 61.0531 45.2571L61.053 45.257ZM63.1428 55.706V66.1549C63.1428 67.1998 62.7945 67.8964 62.0979 68.5931C61.4013 69.2897 60.7047 69.638 59.3115 69.638C49.2109 68.5931 39.4585 65.11 30.751 59.5373C22.7401 54.6611 16.1224 47.6951 10.8979 39.6842C5.3251 30.9767 1.84216 21.2244 0.797258 11.1237C0.797258 10.0788 1.14558 9.38221 1.49383 8.68556C2.1904 7.98899 3.2353 7.29233 4.2802 7.29233H14.7292C16.4706 7.29233 17.8639 8.68555 18.2122 10.427C18.5605 13.91 19.6054 17.7413 20.9986 20.876C21.3469 22.2692 20.9986 23.6624 20.302 24.7073L15.7741 28.8869C14.7292 29.9318 14.3809 31.6732 15.0775 33.0665C20.302 42.4705 27.9646 50.1331 37.3687 55.3576C38.7619 56.0542 40.5034 56.0542 41.5483 54.6611L46.0762 50.1331C47.1211 49.0882 48.5143 48.7399 49.9075 49.4366C53.3905 50.8298 56.8734 51.5264 60.3564 52.2229C61.7497 52.5713 63.1428 53.9644 63.1428 55.706V55.706Z" fill="white"/>
</svg>
