<svg width="291" height="251" viewBox="0 0 291 251" fill="none" xmlns="http://www.w3.org/2000/svg">
<path d="M271.234 89.6691C269.439 81.8644 264.71 75.2238 257.918 70.9713L210.449 41.2453C209.048 40.3659 207.195 40.7917 206.314 42.1955L193.272 63.0202C192.849 63.6945 192.713 64.5089 192.89 65.2843C193.068 66.0597 193.548 66.7326 194.221 67.1549L201.996 72.0236C205.09 73.9577 207.244 76.9787 208.06 80.5299C208.877 84.0783 208.261 87.7321 206.318 90.8317L206.017 91.317C202.024 97.6867 193.585 99.6198 187.209 95.6281L179.438 90.7609C178.034 89.882 176.183 90.3068 175.303 91.7106L172.165 96.7197C170.985 91.9449 168.039 87.6005 163.552 84.7878L158.347 81.5251L169.798 63.2419C170.219 62.5675 170.356 61.7531 170.178 60.9777C170 60.2023 169.521 59.5294 168.846 59.1071L121.378 29.381C107.363 20.6032 88.82 24.8625 80.0446 38.8752L50.3083 86.3424L50.3063 86.3449L20.5797 133.825C11.8024 147.843 16.0622 166.385 30.0749 175.159L77.5446 204.885L77.5485 204.887L125.024 234.622C129.955 237.713 135.447 239.186 140.88 239.186C150.874 239.185 160.664 234.197 166.359 225.116L196.085 177.648C196.964 176.244 196.538 174.393 195.134 173.513L174.309 160.47C173.634 160.048 172.818 159.911 172.045 160.089C171.269 160.268 170.596 160.746 170.173 161.421L165.309 169.189C161.304 175.572 152.866 177.519 146.513 173.533L146.01 173.215C139.634 169.224 137.697 160.786 141.688 154.41L146.567 146.64C146.99 145.965 147.129 145.15 146.95 144.374C146.772 143.598 146.294 142.924 145.619 142.501L127.336 131.051L137.195 115.31L142.397 118.562C146.841 121.348 152.108 122.236 157.222 121.061C159.968 120.429 162.48 119.229 164.659 117.578L181.493 128.12L178.229 133.326C172.492 142.502 175.283 154.643 184.469 160.402L184.951 160.699C188.112 162.681 191.687 163.701 195.33 163.701C196.804 163.701 198.291 163.534 199.764 163.195C204.879 162.02 209.226 158.923 212.006 154.48L215.268 149.274L233.551 160.725C234.957 161.604 236.807 161.179 237.686 159.775L267.424 112.305C271.676 105.514 273.03 97.4753 271.234 89.6691ZM139.888 145.992L136.604 151.223C130.855 160.407 133.647 172.555 142.812 178.292L143.313 178.61C152.48 184.357 164.628 181.562 170.393 172.375L173.667 167.148L189.407 177.006L161.274 221.931C154.242 233.145 139.407 236.558 128.21 229.537L83.2711 201.392L94.7213 183.111C95.0506 182.584 95.1968 181.995 95.1769 181.418C95.1527 180.706 94.8656 180.02 94.3683 179.484C94.3275 179.44 94.2956 179.39 94.2519 179.349C94.2094 179.308 94.1559 179.277 94.1107 179.239C94.0026 179.148 93.8966 179.054 93.7731 178.977L86.0319 174.117C84.497 173.159 83.1945 171.93 82.1715 170.502C82.1664 170.495 82.1603 170.488 82.1552 170.481C81.1309 169.044 80.3895 167.406 79.9811 165.634C79.1618 162.079 79.777 158.417 81.7038 155.339L82.0241 154.835C84.9909 150.097 90.6666 147.616 96.1823 148.686C96.5534 148.753 96.9245 148.842 97.235 148.926C97.5397 149.014 97.9342 149.133 98.2858 149.277C98.3239 149.291 98.362 149.307 98.401 149.32C98.6178 149.398 98.8346 149.484 99.1002 149.605C99.6647 149.85 100.213 150.142 100.774 150.496C100.777 150.498 100.779 150.499 100.782 150.501L100.785 150.503L108.555 155.369C108.709 155.465 108.868 155.54 109.03 155.606C109.074 155.623 109.117 155.637 109.162 155.653C109.296 155.7 109.431 155.737 109.569 155.764C109.607 155.771 109.644 155.781 109.682 155.787C109.836 155.811 109.99 155.826 110.144 155.826C110.156 155.826 110.168 155.822 110.18 155.822C110.393 155.819 110.606 155.799 110.817 155.75C110.83 155.747 110.841 155.741 110.854 155.738C110.904 155.726 110.95 155.704 110.999 155.689C111.169 155.638 111.333 155.577 111.49 155.498C111.558 155.463 111.623 155.423 111.689 155.383C111.826 155.301 111.954 155.209 112.076 155.106C112.133 155.058 112.19 155.013 112.244 154.96C112.41 154.797 112.563 154.62 112.689 154.42L124.15 136.136L139.888 145.992ZM164.677 108.668L164.676 108.67C164.674 108.673 164.671 108.677 164.67 108.68L164.347 109.196C162.42 112.263 159.414 114.4 155.878 115.213C152.327 116.031 148.672 115.413 145.581 113.476L137.834 108.633C136.431 107.756 134.582 108.181 133.701 109.585L122.25 127.867L106.501 118.009L109.767 112.796C110.295 111.948 110.728 111.134 111.09 110.319C111.272 109.909 111.429 109.501 111.572 109.091C111.846 108.378 112.076 107.619 112.273 106.772C112.335 106.507 112.382 106.243 112.415 106.043C112.553 105.322 112.634 104.644 112.694 104.068L112.695 104.064L112.695 104.06L112.696 104.053C112.699 104.017 112.699 103.98 112.702 103.943C113.309 96.5909 109.817 89.6096 103.577 85.7111L103.079 85.3952C97.3133 81.778 90.2182 81.3966 84.089 84.3696C84.0744 84.3766 84.0592 84.3822 84.0446 84.3893L84.0413 84.3911C84.0373 84.3931 84.0331 84.3946 84.029 84.3966C84.0243 84.3989 84.0208 84.4024 84.0161 84.4046C83.9589 84.433 83.902 84.4634 83.846 84.496C83.4921 84.6695 83.1348 84.861 82.7632 85.0821C82.7497 85.0899 82.736 85.0962 82.7223 85.1042L82.7233 85.1046L82.7196 85.1069C82.7072 85.1143 82.6957 85.1201 82.6833 85.1276C82.6801 85.1295 82.6778 85.1322 82.6746 85.1341C82.6597 85.1431 82.6446 85.1519 82.6295 85.1613C82.4903 85.2406 82.3632 85.3222 82.2326 85.4034C82.1627 85.4468 82.0897 85.4884 82.0226 85.5316C81.8141 85.6659 81.6181 85.7982 81.4401 85.9211C81.404 85.9464 81.3678 85.9723 81.3327 85.9992C80.6298 86.4886 79.9491 87.0422 79.2907 87.6543C79.2842 87.6601 79.2766 87.6637 79.2702 87.6696C79.2627 87.6764 79.2559 87.6845 79.2484 87.6913C79.2383 87.7008 79.2276 87.7089 79.2174 87.7184C78.9225 88.0002 78.6403 88.2824 78.3405 88.5968C78.3366 88.601 78.3332 88.6058 78.3292 88.61C78.3229 88.6169 78.3156 88.6231 78.3092 88.63C78.3014 88.6385 78.2968 88.6486 78.2891 88.6572C77.4262 89.5837 76.6488 90.5902 75.987 91.6505L72.7252 96.8556L56.9838 86.9875L85.1295 42.0602C92.1461 30.8512 106.977 27.444 118.194 34.466L163.12 62.5998L151.67 80.882C150.791 82.2858 151.215 84.1364 152.62 85.0163L160.366 89.8717C166.737 93.8654 168.671 102.298 164.677 108.668Z" fill="white"/>
</svg>
