<svg width="38" height="37" viewBox="0 0 38 37" fill="none" xmlns="http://www.w3.org/2000/svg">
<path d="M29.2411 0.0636063C30.3701 0.231201 31.6668 1.13093 32.2137 2.14533C32.7518 3.12445 32.7253 2.48052 32.7253 15.897V28.1669L33.6339 28.211C34.4454 28.2463 34.6042 28.2815 35.1952 28.5638C36.6859 29.2871 37.5768 30.6808 37.5768 32.2862C37.568 34.4297 36.0772 36.1145 33.9161 36.3967C33.4398 36.4585 29.4263 36.4849 21.6992 36.4673L10.188 36.4408L9.62348 36.2379C8.44149 35.8145 7.70053 35.1442 7.15364 34.0151L6.83609 33.3535L6.79198 21.2248L6.74788 9.09617L3.54591 9.05206L0.335117 9.00796L0.167519 8.79626C0.00874329 8.6022 -7.62939e-05 8.41696 -7.62939e-05 6.06179C-7.62939e-05 3.34497 0.0352058 3.05388 0.485069 2.17179C0.934937 1.29853 1.7641 0.601677 2.83142 0.213558L3.39595 0.0106812L16.0539 0.00185776C23.0135 -0.00696182 28.95 0.0195007 29.2411 0.0636063ZM7.40944 1.55433C7.40944 1.60726 7.50648 1.80132 7.62997 1.97773C7.75346 2.16297 7.9387 2.55109 8.05337 2.84218L8.24743 3.36261L8.29153 18.2258L8.33564 33.0889L8.60026 33.5564C8.90017 34.1121 9.22654 34.412 9.85282 34.6943C10.9554 35.1971 12.3579 34.809 13.0372 33.8122C13.39 33.2918 13.4958 32.9389 13.4958 32.2509C13.4958 31.7658 13.4429 31.5629 13.2224 31.1219C12.799 30.2662 12.1727 29.8428 11.1407 29.6929C10.6643 29.6311 10.4967 29.5694 10.338 29.3841C10.0822 29.0754 10.0822 28.6873 10.3644 28.4138L10.5761 28.1933H20.9054H31.2258L31.2081 15.8177L31.1817 3.45082L30.9788 3.04506C30.5907 2.24236 29.8232 1.67783 28.9764 1.55433C28.262 1.44848 7.40944 1.44848 7.40944 1.55433ZM2.81378 1.87188C2.36391 2.11887 2.01108 2.49817 1.71117 3.05388C1.56121 3.32732 1.54358 3.60959 1.51711 5.45315L1.49065 7.55252H4.13691H6.79198V5.8942C6.79198 4.04182 6.70378 3.36261 6.39505 2.82454C5.68056 1.59844 4.10162 1.17504 2.81378 1.87188ZM14.3691 30.0722C14.766 30.6543 15.013 31.4835 15.013 32.2597C15.0218 33.2036 14.8013 33.9004 14.2456 34.756L14.0868 34.9942L24.0456 34.9677L34.0043 34.9413L34.4895 34.7119C35.5039 34.2356 35.989 33.5388 36.0596 32.4803C36.1037 31.6511 35.8744 31.0248 35.3098 30.4603C34.4983 29.6399 35.3716 29.7017 24.0632 29.7017L14.1221 29.6929L14.3691 30.0722Z" fill="#AE7EFF"/>
<path d="M23.781 4.80996C24.6101 5.2951 25.0512 6.12426 25.0512 7.24451C25.0512 8.78816 24.0809 9.93488 22.7842 9.93488C20.7025 9.93488 19.741 6.96225 21.267 5.22454C21.8845 4.51005 22.9518 4.34245 23.781 4.80996ZM22.4843 6.14191C22.0609 6.37125 21.8933 7.42093 22.1844 7.99429C22.6254 8.84109 23.5516 8.35594 23.5516 7.27098C23.5516 6.36243 23.0577 5.842 22.4843 6.14191Z" fill="#AE7EFF"/>
<path d="M17.3241 5.58711C17.5446 5.86938 19.053 7.92464 20.6761 10.1563C23.2606 13.6935 23.6399 14.2492 23.6399 14.5315C23.6399 15.193 22.8548 15.4841 22.3873 14.9813C22.1139 14.6991 16.2039 6.61033 15.9481 6.17811C15.6305 5.64003 15.9481 5.08432 16.5832 5.08432C16.9095 5.08432 16.9625 5.1196 17.3241 5.58711Z" fill="#AE7EFF"/>
<path d="M17.5181 10.5421C18.9736 11.2036 19.4323 13.3824 18.4267 14.8466C18.0474 15.4024 17.3858 15.7552 16.7331 15.7552C16.4508 15.7552 16.0892 15.7023 15.9304 15.6317C15.4364 15.4288 14.9513 14.9172 14.6866 14.3262C14.2015 13.2501 14.3867 11.9446 15.163 11.0625C15.7275 10.4097 16.7419 10.1892 17.5181 10.5421ZM16.2744 12.0857C16.1597 12.2004 16.0186 12.4562 15.9657 12.6591C15.7187 13.5853 16.3626 14.5203 17.0065 14.1763C17.3946 13.9734 17.6063 12.9325 17.3682 12.465C17.0595 11.8652 16.6361 11.7241 16.2744 12.0857Z" fill="#AE7EFF"/>
<path d="M28.3943 18.8066C28.7471 19.0977 28.7736 19.5388 28.4472 19.8563L28.2355 20.0768H19.7763C11.3524 20.0768 11.3171 20.0768 11.0789 19.8916C10.8496 19.7064 10.7702 19.3182 10.9025 18.9742C11.0613 18.5685 10.9378 18.5773 19.7939 18.5773H28.1208L28.3943 18.8066Z" fill="#AE7EFF"/>
<path d="M28.112 23.6692C28.3767 23.7221 28.6678 24.1014 28.6678 24.4101C28.6678 24.5424 28.5707 24.7718 28.4561 24.9041L28.2444 25.1511H19.7763H11.3083L11.079 24.9394C10.7614 24.6395 10.7614 24.1631 11.079 23.8632L11.3083 23.6515L19.6087 23.6427C24.1779 23.6339 28.0062 23.6515 28.112 23.6692Z" fill="#AE7EFF"/>
</svg>
