<svg width="460" height="413" viewBox="0 0 460 413" fill="none" xmlns="http://www.w3.org/2000/svg">
<path d="M534.46 42.9267C534.46 42.9267 498.243 -22.7908 446.788 18.6649C395.333 60.1206 435.009 133.514 340.907 134.598C246.806 135.682 217.993 151.067 220.96 226.104C223.926 301.141 237.55 339.682 124.256 343.192C10.9613 346.702 2.87331 477.045 79.2454 511.21" stroke="white" stroke-width="0.700833" stroke-miterlimit="10"/>
<path d="M534.607 45.3464C534.607 45.3464 498.716 -19.6534 447.651 21.654C396.588 62.9401 435.853 135.915 342.329 137.081C299.134 137.615 269.74 141.16 250.864 152.143C228.928 164.936 221.297 187.854 222.794 227.902C225.498 302.349 238.819 340.644 126.324 344.237C13.7615 347.886 5.65846 477.41 81.4519 511.621" stroke="white" stroke-width="0.700833" stroke-miterlimit="10"/>
<path d="M534.752 47.7649C534.752 47.7649 499.19 -16.5172 448.513 24.6403C397.843 65.7568 436.696 138.311 343.748 139.562C300.832 140.129 271.582 143.667 252.737 154.557C230.886 167.242 223.227 189.974 224.627 229.7C227.068 303.555 240.086 341.605 128.391 345.283C16.5617 349.071 8.44065 477.773 83.657 512.033" stroke="white" stroke-width="0.700833" stroke-miterlimit="10"/>
<path d="M534.896 50.1855C534.896 50.1855 499.661 -13.3791 449.372 27.6286C399.095 68.5755 437.536 140.711 345.166 142.045C302.528 142.645 273.42 146.175 254.608 156.973C232.843 169.55 225.155 192.096 226.457 231.498C228.636 304.762 241.351 342.566 130.456 346.327C19.36 350.255 11.2209 478.137 85.86 512.443" stroke="white" stroke-width="0.700833" stroke-miterlimit="10"/>
<path d="M535.043 52.6046C535.043 52.6046 500.135 -10.2423 450.237 30.6169C400.353 71.3941 438.384 143.11 346.589 144.528C304.229 145.161 275.266 148.683 256.486 159.388C234.806 171.858 227.178 194.215 228.294 233.297C230.372 305.965 242.624 343.53 132.528 347.375C22.1634 351.441 14.0077 478.502 88.0698 512.857" stroke="white" stroke-width="0.700833" stroke-miterlimit="10"/>
<path d="M535.189 55.0244C535.189 55.0244 500.609 -7.10494 451.099 33.6045C401.607 74.2106 439.227 145.509 348.008 147.01C305.926 147.676 277.082 151.143 258.358 161.802C236.736 174.11 229.127 196.334 230.125 235.093C231.98 307.169 243.89 344.489 134.595 348.417C24.9638 352.623 16.7902 478.864 90.275 513.265" stroke="white" stroke-width="0.700833" stroke-miterlimit="10"/>
<path d="M535.336 57.4431C535.336 57.4431 501.084 -3.96857 451.962 36.5911C402.864 77.0275 440.071 147.908 349.429 149.489C307.626 150.189 278.921 153.64 260.233 164.215C238.69 176.405 231.081 198.453 231.96 236.888C233.593 308.374 245.158 345.448 136.664 349.46C27.7658 353.805 19.5755 479.225 92.4818 513.675" stroke="white" stroke-width="0.700833" stroke-miterlimit="10"/>
<path d="M535.481 59.8637C535.481 59.8637 501.555 -0.830267 452.823 39.581C404.118 79.8478 440.913 150.308 350.849 151.974C309.322 152.707 280.756 156.141 262.107 166.632C240.645 178.704 233.035 200.576 233.793 238.689C235.203 309.583 246.427 346.412 138.732 350.507C30.5653 354.991 22.3586 479.591 94.689 514.088" stroke="white" stroke-width="0.700833" stroke-miterlimit="10"/>
<path d="M535.626 62.2817C535.626 62.2817 502.028 2.30529 453.685 42.5667C405.374 82.6622 441.757 152.705 352.27 154.454C311.021 155.22 282.596 158.638 263.981 169.045C242.599 181 234.988 202.695 235.626 240.484C236.814 310.788 247.695 347.37 140.8 351.55C33.3667 356.174 25.1418 479.953 96.8939 514.498" stroke="white" stroke-width="0.700833" stroke-miterlimit="10"/>
<path d="M535.769 64.7024C535.769 64.7024 502.5 5.44214 454.545 45.5552C406.626 85.4812 442.598 155.104 353.688 156.937C312.717 157.736 284.43 161.137 265.852 171.461C244.552 183.298 236.937 204.817 237.457 242.284C238.423 311.997 248.952 348.098 142.865 352.596C36.156 357.123 27.9225 480.318 99.0986 514.91" stroke="white" stroke-width="0.700833" stroke-miterlimit="10"/>
<path d="M535.916 67.1212C535.916 67.1212 502.973 8.57865 455.408 48.5433C407.882 88.2996 443.442 157.504 355.109 159.419C314.416 160.252 286.269 163.636 267.727 173.876C246.506 185.594 238.891 206.939 239.291 244.082C240.034 313.204 250.219 349.033 144.935 353.642C38.9568 358.281 30.7087 480.683 101.306 515.322" stroke="white" stroke-width="0.700833" stroke-miterlimit="10"/>
<path d="M536.059 69.5408C536.059 69.5408 503.445 11.7158 456.268 51.5307C409.134 91.1174 444.284 159.902 356.526 161.901C316.112 162.767 288.105 166.135 269.599 176.29C248.46 187.89 240.842 209.059 241.123 245.878C241.643 314.412 251.484 349.968 147.001 354.686C41.7543 359.438 33.4902 481.045 103.511 515.731" stroke="white" stroke-width="0.700833" stroke-miterlimit="10"/>
<path d="M536.208 71.9596C536.208 71.9596 503.92 14.8523 457.134 54.5172C410.394 93.9342 445.131 162.3 357.95 164.382C317.813 165.282 289.946 168.631 271.476 178.704C250.417 190.188 242.798 211.18 242.958 247.675C243.257 315.618 252.753 350.903 149.072 355.73C44.556 360.595 36.2759 481.408 105.719 516.143" stroke="white" stroke-width="0.700833" stroke-miterlimit="10"/>
<path d="M536.353 74.3811C536.353 74.3811 504.393 17.9914 457.995 57.508C411.647 96.7539 445.973 164.703 359.369 166.867C319.511 167.8 291.783 171.133 273.349 181.122C252.37 192.488 244.749 213.306 244.791 249.477C244.867 316.831 254.02 351.843 151.138 356.778C47.3542 361.758 39.0579 481.775 107.924 516.557" stroke="white" stroke-width="0.700833" stroke-miterlimit="10"/>
<path d="M536.499 76.7993C536.499 76.7993 504.867 21.1272 458.858 60.494C412.903 99.5702 446.817 167.099 360.79 169.348C321.209 170.314 293.621 173.63 275.224 183.535C254.327 194.784 246.704 215.425 246.625 251.272C246.479 318.038 255.288 352.776 153.208 357.822C50.1533 362.914 41.8424 482.137 110.131 516.966" stroke="white" stroke-width="0.700833" stroke-miterlimit="10"/>
<path d="M536.642 79.2181C536.642 79.2181 505.337 24.2637 459.718 63.4805C414.156 102.387 447.659 169.497 362.209 171.829C322.906 172.828 295.457 176.128 277.096 185.949C256.28 197.08 248.654 217.546 248.455 253.068C248.086 319.247 256.552 353.712 155.272 358.865C52.9491 364.072 44.6235 482.498 112.334 517.375" stroke="white" stroke-width="0.700833" stroke-miterlimit="10"/>
<path d="M536.787 81.6378C536.787 81.6378 505.81 27.401 460.579 66.4695C415.411 105.206 448.501 171.896 363.628 174.312C324.603 175.343 297.295 178.628 278.969 188.364C258.234 199.379 250.606 219.67 250.289 254.867C249.697 320.458 257.818 354.648 157.342 359.911C55.7498 365.231 47.4081 482.864 114.541 517.787" stroke="white" stroke-width="0.700833" stroke-miterlimit="10"/>
<path d="M536.934 84.0575C536.934 84.0575 506.285 30.5383 461.442 69.457C416.666 108.023 449.347 174.296 365.049 176.794C326.303 177.858 299.135 181.127 280.844 190.779C260.191 201.676 252.559 221.792 252.122 256.664C251.307 321.668 259.083 355.584 159.409 360.955C58.5485 366.389 50.1907 483.226 116.747 518.198" stroke="white" stroke-width="0.700833" stroke-miterlimit="10"/>
<path d="M537.081 86.4764C537.081 86.4764 506.759 33.6749 462.306 72.4437C417.923 110.84 450.191 176.694 366.471 179.275C328.001 180.373 300.975 183.625 282.72 193.193C262.149 203.974 254.514 223.914 253.957 258.462C252.92 322.879 260.352 356.521 161.479 362.001C61.3487 367.55 52.9762 483.591 118.955 518.61" stroke="white" stroke-width="0.700833" stroke-miterlimit="10"/>
<path d="M537.225 88.8954C537.225 88.8954 507.307 36.9098 463.166 75.4321C419.252 113.757 451.033 179.093 367.89 181.758C329.698 182.889 302.811 186.125 284.592 195.609C264.102 206.274 256.464 226.037 255.789 260.26C254.529 324.089 261.617 357.459 163.545 363.045C64.146 368.709 55.7587 483.953 121.159 519.021" stroke="white" stroke-width="0.700833" stroke-miterlimit="10"/>
<path d="M537.367 91.3159C537.367 91.3159 507.781 40.0521 464.026 78.4202C420.509 116.579 451.873 181.493 369.308 184.241C331.394 185.404 304.648 188.626 286.463 198.023C266.055 208.57 258.415 228.16 257.619 262.058C256.137 325.301 262.881 358.396 165.612 364.091C66.9423 369.867 58.5404 484.318 123.364 519.432" stroke="white" stroke-width="0.700833" stroke-miterlimit="10"/>
<path d="M537.515 93.7343C537.515 93.7343 508.26 43.1938 464.89 81.4065C421.769 119.4 452.719 183.889 370.729 186.722C333.093 187.919 306.486 191.123 288.338 200.437C268.012 210.868 260.367 230.281 259.453 263.854C257.748 326.511 264.148 359.33 167.68 365.133C69.7418 371.024 61.3237 484.679 125.57 519.842" stroke="white" stroke-width="0.700833" stroke-miterlimit="10"/>
<path d="M537.661 96.155C537.661 96.155 508.737 46.3364 465.752 84.3965C423.028 122.225 453.562 186.291 372.149 189.206C334.792 190.436 308.326 193.625 290.213 202.854C269.968 213.169 262.32 232.407 261.287 265.655C259.36 327.726 265.414 360.272 169.749 366.182C72.5407 372.188 64.108 485.047 127.777 520.256" stroke="white" stroke-width="0.700833" stroke-miterlimit="10"/>
<path d="M537.807 98.5736C537.807 98.5736 509.215 49.4767 466.616 87.3828C424.289 125.046 454.406 188.688 373.571 191.687C336.492 192.95 310.166 196.124 292.088 205.268C271.926 215.466 264.273 234.53 263.122 267.451C260.97 328.938 266.682 361.208 171.818 367.225C75.3397 373.345 66.8922 485.408 129.984 520.666" stroke="white" stroke-width="0.700833" stroke-miterlimit="10"/>
<path d="M537.953 100.992C537.953 100.992 509.692 52.6165 467.477 90.3687C425.547 127.866 455.25 191.085 374.99 194.167C338.189 195.464 312.005 198.621 293.961 207.681C273.88 217.763 266.226 236.652 264.954 269.248C262.58 330.151 267.947 362.144 173.885 368.27C78.1382 374.504 69.6746 485.772 132.189 521.076" stroke="white" stroke-width="0.700833" stroke-miterlimit="10"/>
<path d="M538.096 103.413C538.096 103.413 510.167 55.7593 468.337 93.3589C426.804 130.691 456.092 193.487 376.409 196.652C339.886 197.982 313.842 201.122 295.834 210.097C275.836 220.063 268.177 238.777 266.786 271.046C264.189 331.365 269.213 363.082 175.952 369.315C80.9351 375.665 72.458 486.135 134.394 521.488" stroke="white" stroke-width="0.700833" stroke-miterlimit="10"/>
<path d="M538.243 105.831C538.243 105.831 510.645 58.8994 469.2 96.345C428.064 133.511 456.936 195.884 377.83 199.132C341.585 200.495 315.683 203.621 297.709 212.511C277.793 222.362 270.129 240.901 268.621 272.843C265.799 332.579 270.479 364.021 178.022 370.36C83.735 376.825 75.2433 486.499 136.602 521.899" stroke="white" stroke-width="0.700833" stroke-miterlimit="10"/>
<path d="M538.39 108.252C538.39 108.252 511.125 62.0419 470.065 99.3334C429.325 136.334 457.782 198.284 379.253 201.615C343.286 203.012 317.524 206.121 299.585 214.926C279.751 224.661 272.084 243.026 270.456 274.641C267.412 333.795 271.748 364.958 180.092 371.404C86.535 377.984 78.0284 486.862 138.81 522.31" stroke="white" stroke-width="0.700833" stroke-miterlimit="10"/>
<path d="M538.535 110.67C538.535 110.67 511.601 65.1817 470.926 102.321C430.583 139.155 458.624 200.682 380.672 204.097C344.982 205.527 319.363 208.621 301.458 217.341C281.706 226.961 274.034 245.151 272.288 276.44C269.02 335.01 273.012 365.898 182.158 372.449C89.3316 379.145 80.8103 487.226 141.015 522.721" stroke="white" stroke-width="0.700833" stroke-miterlimit="10"/>
<path d="M538.678 113.09C538.678 113.09 512.075 68.3242 471.785 105.309C431.84 141.978 459.464 203.082 382.09 206.58C346.678 208.043 321.199 211.122 303.33 219.757C283.661 229.261 275.983 247.276 274.119 278.238C270.628 336.227 274.276 366.837 184.225 373.496C92.1278 380.306 83.593 487.59 143.219 523.134" stroke="white" stroke-width="0.700833" stroke-miterlimit="10"/>
<path d="M538.825 115.509C538.825 115.509 512.555 71.4646 472.649 108.296C433.1 144.799 460.309 205.479 383.51 209.061C348.376 210.557 323.04 213.619 305.203 222.169C285.618 231.558 277.935 249.399 275.952 280.033C272.236 337.441 275.54 367.773 186.292 374.538C94.9237 381.465 86.3756 487.952 145.424 523.542" stroke="white" stroke-width="0.700833" stroke-miterlimit="10"/>
<path d="M538.968 117.929C538.968 117.929 513.029 74.6064 473.509 111.285C434.357 147.621 461.152 207.88 384.929 211.543C350.073 213.072 324.877 216.12 307.075 224.585C287.574 233.859 279.885 251.524 277.784 281.831C273.844 338.658 276.804 368.711 188.359 375.584C97.7211 382.626 89.1581 488.315 147.63 523.955" stroke="white" stroke-width="0.700833" stroke-miterlimit="10"/>
<path d="M539.115 120.348C539.115 120.348 513.507 77.7471 474.372 114.272C435.617 150.442 462.002 210.442 386.35 214.024C351.775 215.661 326.717 218.619 308.951 226.999C289.532 236.158 281.838 253.65 279.619 283.628C275.455 339.875 278.071 369.65 190.429 376.626C100.521 383.785 91.9428 488.677 149.837 524.363" stroke="white" stroke-width="0.700833" stroke-miterlimit="10"/>
<path d="M539.261 122.768C539.261 122.768 513.984 80.8891 475.234 117.26C436.876 153.265 462.846 212.846 387.77 216.507C353.474 218.179 328.558 221.12 310.825 229.414C291.489 238.458 283.788 255.776 281.452 285.427C277.064 341.094 279.337 370.59 192.497 377.673C103.317 384.947 94.7261 489.043 152.045 524.777" stroke="white" stroke-width="0.700833" stroke-miterlimit="10"/>
<path d="M539.408 125.187C539.408 125.187 514.463 84.0278 476.099 120.247C438.137 156.085 463.692 215.249 389.193 218.989C355.175 220.697 330.4 223.62 312.701 231.828C293.448 240.757 285.742 257.9 283.287 287.223C278.675 342.312 280.604 371.529 194.567 378.717C106.117 386.107 97.5128 489.406 154.251 525.186" stroke="white" stroke-width="0.700833" stroke-miterlimit="10"/>
<path d="M539.549 127.608C539.549 127.608 514.936 87.1706 476.956 123.236C439.391 158.907 464.532 217.654 390.609 221.472C356.869 223.215 332.236 226.121 314.57 234.244C295.401 243.058 287.688 260.029 285.116 289.022C280.278 343.532 281.865 372.47 196.63 379.764C108.909 387.271 100.291 489.77 156.454 525.6" stroke="white" stroke-width="0.700833" stroke-miterlimit="10"/>
<path d="M539.696 130.026C539.696 130.026 515.414 90.3103 477.819 126.222C440.651 161.727 465.377 220.056 392.03 223.952C358.568 225.73 334.077 228.62 316.446 236.657C297.36 245.357 289.641 262.154 286.951 290.818C281.889 344.751 283.132 373.408 198.701 380.805C111.709 388.428 103.077 490.131 158.663 526.007" stroke="white" stroke-width="0.700833" stroke-miterlimit="10"/>
<path d="M539.843 132.446C539.843 132.446 515.892 93.4508 478.683 129.211C441.911 164.55 466.222 222.46 393.452 226.436C360.268 228.25 335.919 231.123 318.321 239.074C299.319 247.66 291.593 264.283 288.784 292.619C283.497 345.975 284.396 374.351 200.769 381.854C114.507 389.593 105.86 490.498 160.869 526.423" stroke="white" stroke-width="0.700833" stroke-miterlimit="10"/>
<path d="M539.988 134.864C539.988 134.864 516.369 96.5911 479.543 132.198C443.169 167.371 467.064 224.863 394.869 228.917C361.964 230.766 337.757 233.623 320.192 241.488C301.274 249.959 293.541 266.409 290.616 294.415C285.102 347.194 285.66 375.29 202.835 382.898C117.302 390.755 108.641 490.861 163.073 526.832" stroke="white" stroke-width="0.700833" stroke-miterlimit="10"/>
<path d="M540.133 137.283C540.133 137.283 516.845 99.7303 480.406 135.184C444.428 170.19 467.909 227.264 396.29 231.398C363.663 233.281 339.598 236.122 322.068 243.9C303.233 252.258 295.492 268.535 292.449 296.211C286.71 348.414 286.926 376.229 204.903 383.941C120.098 391.914 111.426 491.222 165.279 527.242" stroke="white" stroke-width="0.700833" stroke-miterlimit="10"/>
<path d="M540.28 139.704C540.28 139.704 517.324 102.873 481.269 138.174C445.688 173.013 468.754 229.668 397.712 233.882C365.363 235.8 341.439 238.626 323.943 246.317C305.192 254.562 297.444 270.665 294.283 298.01C288.318 349.639 288.191 377.172 206.972 384.988C122.896 393.079 114.21 491.589 167.486 527.655" stroke="white" stroke-width="0.700833" stroke-miterlimit="10"/>
<path d="M540.425 142.123C540.425 142.123 517.799 106.013 482.13 141.162C446.945 175.834 469.596 232.072 399.131 236.364C367.06 238.318 343.278 241.126 325.815 248.732C307.149 256.863 299.392 272.793 296.115 299.807C289.924 350.862 289.454 378.112 209.039 386.032C125.691 394.24 116.993 491.95 169.692 528.065" stroke="white" stroke-width="0.700833" stroke-miterlimit="10"/>
<path d="M540.571 144.543C540.571 144.543 518.277 109.153 482.994 144.149C448.206 178.654 470.443 234.474 400.553 238.846C368.761 240.835 345.121 243.627 327.691 251.147C309.109 259.165 301.343 274.921 297.95 301.606C291.532 352.087 290.721 379.055 211.109 387.077C128.489 395.403 119.778 492.315 171.899 528.476" stroke="white" stroke-width="0.700833" stroke-miterlimit="10"/>
<path d="M540.715 146.962C540.715 146.962 518.753 112.291 483.854 147.137C449.462 181.475 471.284 236.878 401.971 241.328C370.457 243.352 346.959 246.129 329.564 253.562C311.066 261.466 303.291 277.051 299.782 303.403C293.137 353.312 291.984 379.996 213.175 388.122C131.285 396.566 122.56 492.678 174.104 528.888" stroke="white" stroke-width="0.700833" stroke-miterlimit="10"/>
<path d="M540.859 149.382C540.859 149.382 519.229 115.432 484.715 150.125C450.72 184.296 472.127 239.281 403.39 243.811C372.154 245.869 348.801 248.631 331.436 255.976C313.023 263.767 305.239 279.179 301.614 305.201C294.741 354.538 293.247 380.939 215.242 389.167C134.078 397.728 125.343 493.041 176.308 529.298" stroke="white" stroke-width="0.700833" stroke-miterlimit="10"/>
<path d="M541.005 151.8C541.005 151.8 519.706 118.572 485.577 153.111C451.978 187.115 472.971 241.682 404.81 246.291C373.853 248.384 350.641 251.13 333.309 258.39C314.98 266.067 307.187 281.308 303.447 306.997C296.347 355.762 294.511 381.88 217.309 390.211C136.874 398.891 128.125 493.403 178.513 529.708" stroke="white" stroke-width="0.700833" stroke-miterlimit="10"/>
<path d="M541.151 154.22C541.151 154.22 520.182 121.712 486.44 156.1C453.238 189.936 473.816 244.086 406.232 248.775C375.553 250.902 352.483 253.633 335.186 260.806C316.941 268.371 309.139 283.438 305.283 308.797C297.955 356.993 295.778 382.824 219.381 391.257C139.674 400.055 130.912 493.769 180.724 530.121" stroke="white" stroke-width="0.700833" stroke-miterlimit="10"/>
<path d="M541.299 156.639C541.299 156.639 520.662 124.852 487.304 159.087C454.498 192.756 474.662 246.487 407.653 251.256C377.252 253.419 354.325 256.135 337.061 263.22C318.902 270.674 311.088 285.567 307.116 310.593C299.558 358.219 297.042 383.766 221.449 392.301C142.471 401.219 133.696 494.131 182.93 530.533" stroke="white" stroke-width="0.700833" stroke-miterlimit="10"/>
<path d="M541.442 159.06C541.442 159.06 521.137 127.991 488.163 162.075C455.755 195.577 475.504 248.892 409.071 253.739C378.948 255.938 356.164 258.638 338.931 265.636C320.857 272.976 313.033 287.7 308.946 312.393C301.16 359.45 298.304 384.712 223.514 393.348C145.263 402.384 136.477 494.497 185.133 530.944" stroke="white" stroke-width="0.700833" stroke-miterlimit="10"/>
<path d="M541.586 161.479C541.586 161.479 521.612 131.13 489.024 165.064C457.011 198.397 476.346 251.295 410.489 256.222C380.644 258.455 358.003 261.14 340.803 268.051C322.814 275.278 314.977 289.83 310.778 314.189C302.762 360.679 299.566 385.654 225.58 394.392C148.056 403.548 139.258 494.859 187.336 531.356" stroke="white" stroke-width="0.700833" stroke-miterlimit="10"/>
<path d="M541.734 163.897C541.734 163.897 522.091 134.269 489.889 168.05C458.272 201.216 477.192 253.696 411.913 258.702C382.346 260.97 359.849 263.641 342.681 270.464C324.777 277.58 316.93 291.96 312.615 315.986C304.368 361.909 300.834 386.597 227.652 395.437C150.856 404.712 142.045 495.224 189.547 531.766" stroke="white" stroke-width="0.700833" stroke-miterlimit="10"/>
<path d="M541.879 166.317C541.879 166.317 522.568 137.409 490.751 171.037C459.531 204.036 478.037 256.098 413.333 261.185C384.044 263.487 361.689 266.143 344.555 272.879C326.736 279.884 318.876 294.092 314.448 317.784C305.97 363.141 302.097 387.542 229.721 396.481C153.652 405.877 144.829 495.586 191.753 532.176" stroke="white" stroke-width="0.700833" stroke-miterlimit="10"/>
<path d="M542.024 168.736C542.024 168.736 523.043 140.547 491.611 174.026C460.788 206.857 478.879 258.501 414.752 263.667C385.741 266.005 363.53 268.647 346.427 275.295C328.693 282.188 320.82 296.225 316.279 319.583C307.571 364.374 303.36 388.488 231.787 397.527C156.444 407.042 147.61 495.951 193.957 532.589" stroke="white" stroke-width="0.700833" stroke-miterlimit="10"/>
<path d="M542.17 171.156C542.17 171.156 523.52 143.687 492.474 177.013C462.047 209.676 479.724 260.904 416.172 266.149C387.44 268.522 365.373 271.149 348.303 277.71C330.654 284.491 322.769 298.356 318.114 321.381C309.174 365.607 304.624 389.433 233.856 398.572C159.241 408.208 150.396 496.314 196.165 532.999" stroke="white" stroke-width="0.700833" stroke-miterlimit="10"/>
<path d="M542.318 173.575C542.318 173.575 523.999 146.825 493.339 180C463.308 212.494 480.57 263.303 417.596 268.63C389.142 271.037 367.218 273.651 350.179 280.123C332.617 286.793 324.717 300.487 319.95 323.175C310.776 366.84 305.89 390.375 235.927 399.614C162.04 409.37 153.182 496.675 198.373 533.408" stroke="white" stroke-width="0.700833" stroke-miterlimit="10"/>
<path d="M542.459 175.995C542.459 175.995 524.472 149.966 494.197 182.99C464.562 215.316 481.411 265.708 419.011 271.115C390.835 273.556 369.055 276.157 352.048 282.54C334.571 289.1 326.656 302.623 321.778 324.976C312.37 368.078 307.149 391.324 237.989 400.663C164.828 410.54 155.96 497.042 200.574 533.822" stroke="white" stroke-width="0.700833" stroke-miterlimit="10"/>
<path d="M542.607 178.414C542.607 178.414 524.95 153.104 495.061 185.976C465.822 218.134 482.256 268.109 420.433 273.596C392.535 276.071 370.898 278.66 353.924 284.954C336.533 291.403 328.604 304.756 323.612 326.774C313.971 369.314 308.413 392.271 240.059 401.707C167.625 411.707 158.745 497.405 202.782 534.233" stroke="white" stroke-width="0.700833" stroke-miterlimit="10"/>
<path d="M542.753 180.835C542.753 180.835 525.427 156.243 495.924 188.965C467.081 220.954 483.103 270.512 421.854 276.078C394.235 278.588 372.741 281.163 355.799 287.369C338.494 293.708 330.549 306.89 325.447 328.572C315.57 370.552 309.678 393.218 242.128 402.753C170.421 412.873 161.529 497.769 204.989 534.645" stroke="white" stroke-width="0.700833" stroke-miterlimit="10"/>
<path d="M542.896 183.253C542.896 183.253 525.901 159.38 496.784 191.952C468.337 223.773 483.944 272.913 423.272 278.559C395.931 281.103 374.581 283.665 357.671 289.783C340.452 296.011 332.489 309.023 327.277 330.368C317.164 371.789 310.938 394.164 244.193 403.795C173.213 414.038 164.311 498.13 207.194 535.054" stroke="white" stroke-width="0.700833" stroke-miterlimit="10"/>
<path d="M543.042 185.674C543.042 185.674 526.379 162.52 497.646 194.941C469.596 226.591 484.789 275.316 424.693 281.042C397.63 283.621 376.424 286.17 359.544 292.197C342.411 298.315 334.432 311.157 329.112 332.166C318.761 373.028 312.203 395.111 246.263 404.841C176.008 415.208 167.096 498.496 209.4 535.466" stroke="white" stroke-width="0.700833" stroke-miterlimit="10"/>
<path d="M543.188 188.092C543.188 188.092 526.855 165.657 498.508 197.927C470.855 229.409 485.634 277.716 426.113 283.523C399.329 286.136 378.268 288.672 361.42 294.611C344.373 300.619 336.376 313.29 330.945 333.962C320.357 374.266 313.466 396.058 248.33 405.883C178.801 416.373 169.878 498.856 211.607 535.875" stroke="white" stroke-width="0.700833" stroke-miterlimit="10"/>
<path d="M543.334 190.512C543.334 190.512 527.332 168.796 499.372 200.916C472.113 232.23 486.478 280.12 427.535 286.006C401.028 288.653 380.112 291.178 363.295 297.028C346.335 302.927 338.319 315.428 332.779 335.762C321.951 375.511 314.729 397.009 250.399 406.932C181.596 417.545 172.663 499.224 213.814 536.289" stroke="white" stroke-width="0.700833" stroke-miterlimit="10"/>
<path d="M543.482 192.931C543.482 192.931 527.811 171.933 500.236 203.903C473.373 235.047 487.325 282.519 428.957 288.487C402.729 291.169 381.956 293.681 365.17 299.442C348.297 305.232 340.261 317.563 334.614 337.558C323.546 376.751 315.994 397.957 252.47 407.974C184.393 418.711 175.45 499.585 216.022 536.698" stroke="white" stroke-width="0.700833" stroke-miterlimit="10"/>
<path d="M543.623 195.349C543.623 195.349 528.283 175.069 501.093 206.889C474.626 237.864 488.164 284.92 430.373 290.968C404.424 293.684 383.794 296.185 367.039 301.854C350.252 307.535 342.196 319.697 336.443 339.354C325.134 377.992 317.252 398.905 254.533 409.018C187.182 419.879 178.228 499.948 218.224 537.108" stroke="white" stroke-width="0.700833" stroke-miterlimit="10"/>
<path d="M543.768 197.77C543.768 197.77 528.758 178.208 501.954 209.879C475.883 240.684 489.007 287.323 431.79 293.452C406.12 296.202 385.635 298.693 368.911 304.271C352.211 309.843 344.133 321.835 338.274 341.153C326.722 379.239 318.513 399.856 256.599 410.064C189.973 421.049 181.009 500.312 220.428 537.521" stroke="white" stroke-width="0.700833" stroke-miterlimit="10"/>
<path d="M543.917 200.188C543.917 200.188 529.237 181.345 502.821 212.865C477.145 243.501 489.857 289.723 433.216 295.933C407.823 298.717 387.482 301.196 370.79 306.685C354.176 312.147 346.077 323.971 340.112 342.951C328.316 380.484 319.78 400.807 258.672 411.11C192.772 422.22 183.797 500.677 222.638 537.932" stroke="white" stroke-width="0.700833" stroke-miterlimit="10"/>
<path d="M544.062 202.608C544.062 202.608 529.713 184.484 503.682 215.853C478.401 246.319 490.699 292.124 434.635 298.415C409.52 301.234 389.325 303.701 372.662 309.1C356.136 314.455 348.013 326.108 341.944 344.749C329.903 381.729 321.04 401.758 260.738 412.154C195.563 423.389 186.579 501.039 224.842 538.343" stroke="white" stroke-width="0.700833" stroke-miterlimit="10"/>
<path d="M544.208 205.027C544.208 205.027 530.188 187.619 504.544 218.841C479.66 249.137 491.544 294.525 436.055 300.898C411.219 303.75 391.168 306.207 374.538 311.515C358.099 316.761 349.952 328.247 343.778 346.546C331.489 382.975 322.305 402.71 262.808 413.199C198.359 424.562 189.366 501.403 227.051 538.754" stroke="white" stroke-width="0.700833" stroke-miterlimit="10"/>
<path d="M544.353 207.448C544.353 207.448 530.664 190.758 505.405 221.83C480.916 251.956 492.388 296.927 437.474 303.381C412.916 306.268 393.011 308.714 376.41 313.93C360.057 319.068 351.886 330.384 345.61 348.344C333.073 384.224 323.566 403.663 264.875 414.244C201.151 425.733 192.148 501.766 229.256 539.166" stroke="white" stroke-width="0.700833" stroke-miterlimit="10"/>
<path d="M544.498 209.866C544.498 209.866 531.14 193.893 506.268 224.815C482.173 254.772 493.231 299.326 438.895 305.861C414.616 308.781 394.855 311.218 378.285 316.343C362.019 321.373 353.822 332.521 347.444 350.14C334.656 385.471 324.828 404.614 266.943 415.287C203.943 426.904 194.931 502.129 231.462 539.575" stroke="white" stroke-width="0.700833" stroke-miterlimit="10"/>
<path d="M544.644 212.286C544.644 212.286 531.616 197.031 507.13 227.805C483.431 257.59 494.076 301.728 440.316 308.345C416.314 311.298 396.698 313.726 380.16 318.76C363.982 323.684 355.756 334.66 349.278 351.94C336.239 386.724 326.092 405.57 269.012 416.334C206.737 428.078 197.715 502.494 233.669 539.989" stroke="white" stroke-width="0.700833" stroke-miterlimit="10"/>
<path d="M544.789 214.705C544.789 214.705 532.09 200.167 507.991 230.792C484.687 260.407 494.92 304.127 441.736 310.826C418.013 313.814 398.541 316.233 382.033 321.174C365.943 325.991 357.687 336.799 351.111 353.737C337.818 387.973 327.352 406.525 271.079 417.379C209.528 429.251 200.498 502.858 235.874 540.399" stroke="white" stroke-width="0.700833" stroke-miterlimit="10"/>
<path d="M544.934 217.125C544.934 217.125 532.566 203.303 508.853 233.779C485.943 263.223 495.764 306.528 443.155 313.308C419.711 316.329 400.384 318.738 383.906 323.588C367.902 328.298 359.618 338.936 352.943 355.534C339.394 389.223 328.613 407.478 273.147 418.423C212.322 430.424 203.281 503.219 238.08 540.809" stroke="white" stroke-width="0.700833" stroke-miterlimit="10"/>
<path d="M545.078 219.544C545.078 219.544 533.04 206.44 509.715 236.768C487.2 266.041 496.608 308.93 444.575 315.791C421.409 318.847 402.229 321.247 385.779 326.004C369.863 330.608 361.548 341.075 354.776 357.332C340.968 390.476 329.876 408.436 275.215 419.469C215.113 431.601 206.065 503.585 240.286 541.221" stroke="white" stroke-width="0.700833" stroke-miterlimit="10"/>
<path d="M545.223 221.963C545.223 221.963 533.513 209.575 510.575 239.755C488.456 268.857 497.45 311.328 445.992 318.273C423.105 321.362 404.069 323.753 387.651 328.418C371.823 332.915 363.475 343.214 356.607 359.13C342.539 391.729 331.135 409.393 277.281 420.513C217.903 432.775 208.846 503.947 242.49 541.632" stroke="white" stroke-width="0.700833" stroke-miterlimit="10"/>
<path d="M545.372 224.383C545.372 224.383 533.992 212.71 511.441 242.742C489.715 271.672 498.299 313.727 447.417 320.754C424.807 323.877 405.917 326.26 389.529 330.833C373.788 335.224 365.407 345.353 358.444 360.927C344.114 392.981 332.401 410.35 279.352 421.558C220.699 433.952 211.632 504.311 244.699 542.043" stroke="white" stroke-width="0.700833" stroke-miterlimit="10"/>
<path d="M545.516 226.802C545.516 226.802 534.467 215.847 512.303 245.731C490.972 274.489 499.143 316.129 448.837 323.237C426.506 326.393 407.76 328.77 391.402 333.249C375.75 337.534 367.332 347.493 360.277 362.727C345.681 394.236 333.662 411.31 281.419 422.604C223.49 435.129 214.415 504.676 246.904 542.456" stroke="white" stroke-width="0.700833" stroke-miterlimit="10"/>
<path d="M545.66 229.222C545.66 229.222 534.939 218.983 513.162 248.718C492.226 277.306 499.986 318.528 450.255 325.719C428.203 328.908 409.601 331.278 393.273 335.662C377.709 339.842 369.255 349.632 362.107 364.523C347.244 395.487 334.92 412.267 283.486 423.648C226.281 436.306 217.198 505.039 249.109 542.865" stroke="white" stroke-width="0.700833" stroke-miterlimit="10"/>
<path d="M545.808 231.641C545.808 231.641 535.416 222.118 514.026 251.705C493.484 280.121 500.831 320.927 451.677 328.201C429.903 331.423 411.449 333.786 395.15 338.077C379.674 342.152 371.181 351.77 363.942 366.321C348.809 396.742 336.185 413.228 285.555 424.693C229.073 437.484 219.983 505.401 251.317 543.276" stroke="white" stroke-width="0.700833" stroke-miterlimit="10"/>
<path d="M545.952 234.061C545.952 234.061 535.889 225.252 514.886 254.694C494.739 282.937 501.673 323.326 453.095 330.684C431.599 333.939 413.291 336.296 397.022 340.493C381.633 344.463 373.101 353.909 365.773 368.119C350.367 397.996 337.444 414.19 287.621 425.739C231.863 438.665 222.764 505.767 253.52 543.689" stroke="white" stroke-width="0.700833" stroke-miterlimit="10"/>
<path d="M546.099 236.48C546.099 236.48 536.365 228.387 515.751 257.681C495.997 285.753 502.52 325.725 454.518 333.166C433.3 336.454 415.138 338.804 398.898 342.907C383.597 346.773 375.024 356.047 367.609 369.916C351.927 399.249 338.707 415.15 289.691 426.783C234.656 439.843 225.549 506.128 255.728 544.098" stroke="white" stroke-width="0.700833" stroke-miterlimit="10"/>
<path d="M546.244 238.9C546.244 238.9 536.838 231.522 516.612 260.669C497.251 288.569 503.364 328.124 455.937 335.647C434.998 338.968 416.981 341.314 400.773 345.321C385.559 349.082 376.944 358.185 369.442 371.713C353.48 400.502 339.969 416.114 291.759 427.828C237.449 441.026 228.332 506.493 257.934 544.511" stroke="white" stroke-width="0.700833" stroke-miterlimit="10"/>
<path d="M546.387 241.318C546.387 241.318 537.311 234.656 517.472 263.656C498.504 291.383 504.206 330.522 457.355 338.128C436.695 341.483 418.823 343.822 402.644 347.736C387.52 351.393 378.857 360.323 371.272 373.51C355.029 401.754 341.228 417.076 293.825 428.871C240.239 442.205 231.115 506.854 260.139 544.919" stroke="white" stroke-width="0.700833" stroke-miterlimit="10"/>
<path d="M546.536 243.738C546.536 243.738 537.788 237.791 518.337 266.644C499.763 294.198 505.054 332.921 458.778 340.611C438.395 343.999 420.669 346.333 404.519 350.15C389.483 353.704 380.775 362.46 373.107 375.308C356.579 403.007 342.492 418.042 295.895 429.917C243.031 443.39 233.9 507.219 262.346 545.332" stroke="white" stroke-width="0.700833" stroke-miterlimit="10"/>
<path d="M546.68 246.158C546.68 246.158 538.26 240.925 519.199 269.631C501.018 297.013 505.897 335.319 460.197 343.092C440.093 346.512 422.513 348.843 406.394 352.564C391.446 356.015 382.69 364.595 374.941 377.105C358.124 404.256 343.754 419.007 297.963 430.96C245.823 444.572 236.683 507.581 264.553 545.741" stroke="white" stroke-width="0.700833" stroke-miterlimit="10"/>
<path d="M546.826 248.578C546.826 248.578 538.734 244.059 520.061 272.62C502.272 299.828 506.741 337.718 461.618 345.576C441.792 349.029 424.359 351.354 408.267 354.981C393.407 358.329 384.601 366.733 376.774 378.905C359.666 405.509 345.016 419.977 300.031 432.008C248.614 445.761 239.466 507.948 266.758 546.156" stroke="white" stroke-width="0.700833" stroke-miterlimit="10"/>
<path d="M546.968 250.997C546.968 250.997 539.204 247.194 520.919 275.608C503.524 302.642 507.582 340.115 463.034 348.058C443.488 351.542 426.199 353.866 410.138 357.395C395.366 360.64 386.508 368.869 378.604 380.702C361.2 406.757 346.274 420.944 302.095 433.052C251.402 446.946 242.245 508.31 268.962 546.565" stroke="white" stroke-width="0.700833" stroke-miterlimit="10"/>
<path d="M547.117 253.417C547.117 253.417 539.678 250.326 521.784 278.595C504.78 305.456 508.429 342.513 464.457 350.539C445.189 354.057 428.046 356.378 412.015 359.809C397.332 362.951 388.421 371.001 380.441 382.499C362.738 408.003 347.538 421.912 304.168 434.097C254.198 448.133 245.035 508.674 271.173 546.977" stroke="white" stroke-width="0.700833" stroke-miterlimit="10"/>
<path d="M547.261 255.836C547.261 255.836 540.15 253.46 522.645 281.583C506.034 308.27 509.273 344.91 465.877 353.022C446.886 356.572 429.89 358.89 413.888 362.224C399.293 365.265 390.326 373.137 382.273 384.297C364.267 409.247 348.799 422.884 306.235 435.141C256.989 449.323 247.817 509.036 273.378 547.387" stroke="white" stroke-width="0.700833" stroke-miterlimit="10"/>
<path d="M547.407 258.254C547.407 258.254 540.623 256.592 523.508 284.57C507.288 311.082 510.118 347.307 467.298 355.503C448.585 359.086 431.736 361.402 415.762 364.638C401.255 367.577 392.232 375.267 384.106 386.094C365.794 410.49 350.062 423.856 308.303 436.187C259.781 450.513 250.6 509.401 275.584 547.799" stroke="white" stroke-width="0.700833" stroke-miterlimit="10"/>
<path d="M547.554 260.674C547.554 260.674 541.096 259.724 524.371 287.557C508.543 313.895 510.963 349.702 468.717 357.985C450.283 361.599 433.58 363.914 417.635 367.053C403.218 369.89 394.135 377.399 385.939 387.891C367.318 411.729 351.323 424.829 310.37 437.23C262.572 451.705 253.382 509.762 277.789 548.208" stroke="white" stroke-width="0.700833" stroke-miterlimit="10"/>
<path d="M547.7 263.093C547.7 263.093 541.568 262.857 525.233 290.546C509.797 316.71 511.808 352.1 470.138 360.468C451.982 364.114 435.425 366.428 419.511 369.468C405.181 372.205 396.038 379.529 387.773 389.69C368.839 412.966 352.587 425.805 312.439 438.277C265.366 452.899 256.168 510.128 279.996 548.622" stroke="white" stroke-width="0.700833" stroke-miterlimit="10"/>
<path d="M547.843 265.514C547.843 265.514 542.038 265.991 526.094 293.534C511.049 319.524 512.65 354.497 471.557 362.951C453.68 366.628 437.269 368.944 421.383 371.883C407.142 374.52 397.939 381.657 389.605 391.487C370.353 414.199 353.849 426.781 314.505 439.321C268.157 454.094 258.95 510.49 282.201 549.031" stroke="white" stroke-width="0.700833" stroke-miterlimit="10"/>
<path d="M547.989 267.933C547.989 267.933 542.51 269.122 526.956 296.521C512.301 322.336 513.494 356.891 472.977 365.432C455.378 369.141 439.114 371.456 423.257 374.297C409.104 376.834 399.837 383.784 391.438 393.284C371.864 415.427 355.112 427.758 316.574 440.365C270.95 455.29 261.734 510.854 284.407 549.443" stroke="white" stroke-width="0.700833" stroke-miterlimit="10"/>
<path d="M548.135 270.352C548.135 270.352 542.981 272.255 527.819 299.51C513.554 325.149 514.339 359.289 474.398 367.915C457.077 371.656 440.96 373.972 425.131 376.714C411.067 379.15 401.734 385.909 393.272 395.084C373.374 416.655 356.375 428.74 318.642 441.412C273.743 456.49 264.517 511.219 286.614 549.855" stroke="white" stroke-width="0.700833" stroke-miterlimit="10"/>
<path d="M548.28 272.771C548.28 272.771 543.451 275.385 528.68 302.496C514.806 327.96 515.182 361.682 475.818 370.396C458.775 374.169 442.803 376.486 427.005 379.127C413.029 381.465 403.63 388.032 395.105 396.88C374.879 417.872 357.64 429.72 320.71 442.456C276.537 457.689 267.301 511.582 288.82 550.266" stroke="white" stroke-width="0.700833" stroke-miterlimit="10"/>
<path d="M548.425 275.192C548.425 275.192 543.92 278.518 529.542 305.485C516.058 330.775 516.027 364.078 477.238 372.879C460.474 376.684 444.648 379.001 428.879 381.543C414.991 383.782 405.525 390.153 396.938 398.679C376.381 419.089 358.904 430.705 322.778 443.502C279.331 458.894 270.085 511.947 291.025 550.677" stroke="white" stroke-width="0.700833" stroke-miterlimit="10"/>
<path d="M548.572 277.611C548.572 277.611 544.39 281.649 530.405 308.473C517.31 333.586 516.87 366.473 478.659 375.361C462.173 379.196 446.493 381.518 430.753 383.957C416.954 386.097 407.42 392.272 398.772 400.476C377.88 420.297 360.169 431.688 324.846 444.546C282.125 460.098 272.868 512.31 293.232 551.089" stroke="white" stroke-width="0.700833" stroke-miterlimit="10"/>
<path d="M548.716 280.029C548.716 280.029 544.858 284.779 531.265 311.459C518.559 336.397 517.713 368.865 480.078 377.842C463.87 381.707 448.336 384.033 432.627 386.371C418.917 388.411 409.311 394.385 400.604 402.273C379.375 421.5 361.433 432.675 326.915 445.59C284.921 461.302 275.652 512.672 295.438 551.498" stroke="white" stroke-width="0.700833" stroke-miterlimit="10"/>
<path d="M548.863 282.449C548.863 282.449 545.329 287.911 532.13 314.447C519.813 339.21 518.56 371.259 481.5 380.325C465.57 384.222 450.183 386.551 434.502 388.787C420.88 390.728 411.205 396.5 402.439 404.071C380.871 422.697 362.7 433.663 328.984 446.636C287.717 462.513 278.436 513.036 297.646 551.911" stroke="white" stroke-width="0.700833" stroke-miterlimit="10"/>
<path d="M549.006 284.867C549.006 284.867 545.796 291.04 532.99 317.434C521.06 342.021 519.4 373.652 482.918 382.807C467.265 386.734 452.026 389.067 436.373 391.201C422.84 393.046 413.093 398.613 404.268 405.869C382.358 423.889 363.962 434.655 331.048 447.681C290.511 463.725 281.215 513.401 299.847 552.321" stroke="white" stroke-width="0.700833" stroke-miterlimit="10"/>
<path d="M549.151 287.288C549.151 287.288 546.262 294.172 533.85 320.422C522.309 344.832 520.243 376.046 484.337 385.289C468.962 389.246 453.87 391.586 438.247 393.615C424.8 395.362 414.983 400.72 406.101 407.665C383.845 425.07 365.23 435.646 333.115 448.725C293.308 464.937 284 513.763 302.053 552.733" stroke="white" stroke-width="0.700833" stroke-miterlimit="10"/>
<path d="M549.299 289.706C549.299 289.706 546.732 297.302 534.714 323.409C523.56 347.643 521.088 378.437 485.759 387.77C470.662 391.757 455.716 394.104 440.123 396.029C426.766 397.679 416.876 402.825 407.936 409.463C385.335 426.244 366.5 436.64 335.185 449.769C296.108 466.153 286.784 514.126 304.26 553.142" stroke="white" stroke-width="0.700833" stroke-miterlimit="10"/>
<path d="M549.447 292.126C549.447 292.126 547.2 300.432 535.58 326.398C524.812 350.456 521.935 380.83 487.183 390.253C472.364 394.271 457.564 396.625 442 398.446C428.73 399.998 418.769 404.931 409.773 411.262C386.823 427.414 367.771 437.638 337.257 450.816C298.912 467.374 289.572 514.491 306.471 553.556" stroke="white" stroke-width="0.700833" stroke-miterlimit="10"/>
<path d="M549.589 294.545C549.589 294.545 547.663 303.562 536.439 329.385C526.057 353.266 522.775 383.221 488.6 392.734C474.059 396.783 459.405 399.143 443.87 400.86C430.689 402.316 420.655 407.03 411.602 413.059C388.305 428.572 369.039 438.638 339.321 451.86C301.709 468.597 292.351 514.855 308.673 553.966" stroke="white" stroke-width="0.700833" stroke-miterlimit="10"/>
<path d="M549.734 296.966C549.734 296.966 548.128 306.693 537.299 332.373C527.303 356.078 523.616 385.613 490.018 395.218C475.756 399.295 461.249 401.663 445.744 403.275C432.651 404.636 422.546 409.129 413.435 414.857C389.791 429.725 370.31 439.639 341.389 452.906C304.512 469.823 295.134 515.219 310.879 554.379" stroke="white" stroke-width="0.700833" stroke-miterlimit="10"/>
<path d="M549.881 299.384C549.881 299.384 548.595 309.822 538.163 335.361C528.551 358.887 524.46 388.003 491.44 397.699C477.455 401.806 463.094 404.184 447.619 405.689C434.613 406.954 424.439 411.222 415.27 416.655C391.278 430.867 371.583 440.641 343.458 453.95C307.318 471.051 297.92 515.581 313.086 554.788" stroke="white" stroke-width="0.700833" stroke-miterlimit="10"/>
<path d="M550.024 301.804C550.024 301.804 549.057 312.954 539.023 338.349C529.797 361.699 525.3 390.393 492.859 400.181C479.151 404.317 464.937 406.704 449.491 408.103C436.573 409.274 426.329 413.314 417.101 418.451C392.761 432 372.856 441.647 345.524 454.994C310.123 472.282 300.701 515.944 315.29 555.199" stroke="white" stroke-width="0.700833" stroke-miterlimit="10"/>
<path d="M550.169 304.224C550.169 304.224 549.52 316.083 539.885 341.336C531.043 364.51 526.142 392.781 494.277 402.664C480.848 406.829 466.779 409.227 451.364 410.519C438.533 411.594 428.221 415.404 418.933 420.249C394.248 433.128 374.13 442.656 347.592 456.039C312.932 473.519 303.484 516.308 317.496 555.61" stroke="white" stroke-width="0.700833" stroke-miterlimit="10"/>
<path d="M550.317 306.643C550.317 306.643 549.985 319.213 540.749 344.325C532.29 367.323 526.987 395.172 495.7 405.146C482.546 409.339 468.625 411.75 453.24 412.934C440.496 413.915 430.117 417.491 420.768 422.048C395.739 434.246 375.409 443.668 349.662 457.086C315.745 474.759 306.269 516.673 319.704 556.023" stroke="white" stroke-width="0.700833" stroke-miterlimit="10"/>
<path d="M550.462 309.062C550.462 309.062 550.446 322.343 541.611 347.312C533.536 370.131 527.828 397.558 497.12 407.628C484.245 411.851 470.471 414.272 455.114 415.35C442.459 416.236 432.015 419.577 422.602 423.846C397.233 435.355 376.689 444.682 351.73 458.13C318.559 476.002 309.054 517.036 321.911 556.433" stroke="white" stroke-width="0.700833" stroke-miterlimit="10"/>
<path d="M550.607 311.482C550.607 311.482 550.908 325.473 542.473 350.299C534.779 372.943 528.67 399.946 498.54 410.109C485.941 414.359 472.314 416.795 456.987 417.762C444.419 418.555 433.912 421.654 424.434 425.642C398.727 436.454 377.97 445.696 353.797 459.174C321.376 477.249 311.836 517.398 324.116 556.844" stroke="white" stroke-width="0.700833" stroke-miterlimit="10"/>
<path d="M550.751 313.901C550.751 313.901 551.366 328.603 543.332 353.287C536.019 375.753 529.508 402.332 499.958 412.591C487.637 416.87 474.154 419.319 458.859 420.177C446.379 420.877 435.81 423.735 426.266 427.439C400.225 437.548 379.253 446.715 355.863 460.218C324.195 478.501 314.618 517.762 326.319 557.253" stroke="white" stroke-width="0.700833" stroke-miterlimit="10"/>
<path d="M550.9 316.32C550.9 316.32 551.83 331.731 544.198 356.274C537.267 378.564 530.351 404.717 501.382 415.072C489.336 419.378 476.001 421.843 460.736 422.591C448.343 423.198 437.715 425.81 428.102 429.237C401.731 438.636 380.543 447.736 357.935 461.263C327.025 479.758 317.405 518.125 328.531 557.666" stroke="white" stroke-width="0.700833" stroke-miterlimit="10"/>
<path d="M551.041 318.74C551.041 318.74 552.285 334.862 545.055 359.262C538.503 381.376 531.187 407.103 502.797 417.555C491.029 421.888 477.841 424.37 462.606 425.007C450.298 425.521 439.615 427.886 429.931 431.035C403.234 439.716 381.829 448.76 359.999 462.308C329.849 481.019 320.183 518.489 330.732 558.076" stroke="white" stroke-width="0.700833" stroke-miterlimit="10"/>
<path d="M551.19 321.159C551.19 321.159 552.747 337.992 545.921 362.251C539.748 384.187 532.031 409.488 504.222 420.038C492.729 424.397 479.687 426.896 464.483 427.423C452.263 427.845 441.526 429.959 431.768 432.834C404.753 440.791 383.125 449.788 362.07 463.356C332.688 482.287 322.972 518.854 332.942 558.489" stroke="white" stroke-width="0.700833" stroke-miterlimit="10"/>
<path d="M551.337 323.579C551.337 323.579 553.205 341.124 546.784 365.238C540.99 386.999 532.871 411.872 505.643 422.52C494.428 426.907 481.531 429.423 466.359 429.836C454.225 430.166 443.438 432.03 433.603 434.63C406.273 441.857 384.425 450.815 364.14 464.398C335.53 483.556 325.756 519.216 335.15 558.898" stroke="white" stroke-width="0.700833" stroke-miterlimit="10"/>
<path d="M551.478 325.998C551.478 325.998 553.656 344.254 547.641 368.225C542.225 389.809 533.705 414.252 507.057 425.001C496.116 429.413 483.368 431.95 468.226 432.25C456.178 432.489 445.342 434.098 435.43 436.428C407.792 442.921 385.718 451.845 366.201 465.443C338.371 484.833 328.533 519.579 337.349 559.311" stroke="white" stroke-width="0.700833" stroke-miterlimit="10"/>
<path d="M551.626 328.418C551.626 328.418 554.116 347.386 548.508 371.214C543.469 392.625 534.547 416.636 508.482 427.485C497.817 431.923 485.215 434.479 470.104 434.667C458.142 434.815 447.262 436.169 437.267 438.227C409.326 443.981 387.027 452.879 368.274 466.489C341.23 486.116 331.321 519.944 339.56 559.722" stroke="white" stroke-width="0.700833" stroke-miterlimit="10"/>
<path d="M551.772 330.837C551.772 330.837 554.531 350.506 549.37 374.201C544.672 395.427 535.369 418.977 509.902 429.966C499.507 434.415 487.058 437.008 471.98 437.081C460.104 437.139 449.182 438.234 439.102 440.023C410.864 445.036 388.339 453.913 370.344 467.533C344.092 487.401 334.106 520.307 341.768 560.133" stroke="white" stroke-width="0.700833" stroke-miterlimit="10"/>
<path d="M551.917 333.257C551.917 333.257 555.004 353.644 550.231 377.189C545.925 398.245 536.211 421.377 511.321 432.449C501.205 436.93 488.899 439.56 473.852 439.495C462.062 439.48 451.101 440.3 440.933 441.821C412.407 446.089 389.653 454.949 372.41 468.578C346.96 488.693 336.889 520.67 343.972 560.543" stroke="white" stroke-width="0.700833" stroke-miterlimit="10"/>
<path d="M552.062 335.676C552.062 335.676 569.403 442.889 475.726 441.91C382.048 440.931 333.764 484.788 346.176 560.954" stroke="white" stroke-width="0.700833" stroke-miterlimit="10"/>
</svg>
