<svg width="38" height="38" viewBox="0 0 38 38" fill="none" xmlns="http://www.w3.org/2000/svg">
<path d="M16.9916 0.143326C12.6012 0.821514 8.88906 3.17731 6.40832 6.86271C4.99841 8.95081 4.06145 11.5654 3.86513 13.9747L3.80267 14.7065L3.1691 14.7422C1.97335 14.8225 0.866838 15.5988 0.322505 16.7589L0.0369534 17.3567L0.0101829 21.0154C-0.0165876 23.5943 0.0101829 24.8168 0.0815708 25.1648C0.313582 26.2267 1.04531 27.1369 2.04474 27.6098L2.62477 27.8865L5.88184 27.9132C7.67546 27.9311 9.22815 27.9132 9.33523 27.8865C9.80817 27.7704 9.80817 27.8061 9.80817 21.3277C9.80817 16.2502 9.79033 15.3043 9.67432 15.0902C9.53155 14.8135 9.37985 14.7243 9.03183 14.7243C8.80874 14.7243 8.80874 14.7243 8.87121 14.1175C9.25492 10.5124 11.8873 7.10365 15.3407 5.72051C16.8042 5.14048 17.3574 5.04232 19.2671 5.05125C20.8733 5.05125 21.0785 5.06909 21.8906 5.29218C25.2904 6.2113 28.0656 8.81696 29.1721 12.1187C29.3774 12.7344 29.7076 14.2871 29.7076 14.6529C29.7076 14.6975 29.4934 14.7243 29.2257 14.7243C28.61 14.7243 28.485 14.7778 28.3244 15.0902C28.2084 15.3043 28.1906 16.2502 28.1906 21.3277C28.1906 27.6634 28.1906 27.7258 28.5921 27.8775C28.6724 27.9043 29.2435 27.9311 29.8503 27.9311C30.6713 27.9311 30.9568 27.9578 30.9568 28.0382C30.9568 28.1006 30.7605 28.4576 30.5285 28.8234C29.1008 31.0543 26.629 32.5981 23.47 33.2316L22.4349 33.4369L22.194 33.0175C21.9084 32.5177 21.4266 32.0716 20.8822 31.8217C20.5253 31.6611 20.3022 31.6343 19.2671 31.6343C18.1873 31.6343 18.0089 31.6611 17.5895 31.8485C17.0005 32.1162 16.3045 32.8568 16.1082 33.4279C15.6531 34.7754 16.2242 36.1942 17.5091 36.8724C17.8304 37.042 18.0535 37.0776 19.0886 37.1044C20.5521 37.1401 21.0785 36.9973 21.7121 36.3638C22.078 35.989 22.4795 35.3019 22.4795 35.0342C22.4795 34.9539 22.6758 34.8735 23.0863 34.8111C25.9329 34.3203 28.4583 33.1424 30.1983 31.4915C31.0728 30.6617 31.6529 29.8853 32.2061 28.8056L32.6523 27.9489L34.0087 27.9132C35.1955 27.8865 35.4275 27.8597 35.8201 27.6812C36.8642 27.1993 37.5156 26.4765 37.8369 25.4236C38.0064 24.8703 38.0153 24.6294 37.9886 21.0957L37.9618 17.3567L37.6762 16.7589C37.5245 16.4287 37.2122 15.9736 36.9802 15.7505C36.534 15.2954 35.6238 14.8225 35.0616 14.7511C34.7315 14.7065 34.7136 14.6886 34.669 14.3317C34.4816 12.8415 34.3924 12.3328 34.1693 11.4405C33.2413 7.87107 30.9122 4.63184 27.7176 2.50805C26.4416 1.6514 24.6569 0.866131 23.0596 0.45565C21.3106 0.000549316 18.7495 -0.133301 16.9916 0.143326ZM21.6764 1.64248C26.04 2.42774 29.77 5.22972 31.7689 9.21852C32.5006 10.673 33.0182 12.431 33.152 13.939L33.2145 14.6351H32.1883H31.171L31.0639 13.8498C30.6981 11.1103 29.4934 8.76342 27.441 6.80025C25.7455 5.17618 23.7467 4.14997 21.4087 3.68595C20.2576 3.45394 18.0624 3.48071 16.8845 3.73057C13.1813 4.52476 10.1919 6.85379 8.54996 10.2179C7.96101 11.4226 7.63084 12.4845 7.47914 13.6356C7.4256 14.064 7.36314 14.4655 7.34529 14.5191C7.32744 14.6083 7.03297 14.6351 6.29232 14.6351H5.25719L5.31074 14.2067C5.58736 11.6903 6.38155 9.4773 7.67546 7.58552C10.0402 4.13213 13.6274 1.99049 17.9286 1.48185C18.5621 1.41046 20.9447 1.50862 21.6764 1.64248ZM5.16796 21.3277V26.5033H4.26669C3.7759 26.5033 3.19587 26.4587 2.9817 26.4052C2.49984 26.2802 1.92873 25.8073 1.66103 25.3076C1.47364 24.9506 1.46471 24.8525 1.43794 21.6043C1.41117 18.0795 1.44686 17.6155 1.8038 17.089C2.2946 16.3573 2.80324 16.161 4.16853 16.1521H5.16796V21.3277ZM8.29118 21.3277V26.5033H7.48807H6.68495V21.3277V16.1521H7.48807H8.29118V21.3277ZM31.3138 21.3277V26.5033H30.5107H29.7076V21.3277V16.1521H30.5107H31.3138V21.3277ZM35.0527 16.2413C35.5524 16.3841 35.9986 16.7499 36.2752 17.2497L36.534 17.7137V21.3277C36.534 24.8882 36.534 24.9506 36.3377 25.3076C36.07 25.8073 35.4989 26.2802 35.017 26.4052C34.8029 26.4587 34.2228 26.5033 33.732 26.5033H32.8308V21.3277V16.1521H33.7945C34.321 16.1521 34.8832 16.1878 35.0527 16.2413ZM20.4896 33.2852C20.8555 33.5083 21.0518 33.9009 21.0696 34.4095C21.0785 34.8557 20.9179 35.1413 20.4807 35.4625C20.1327 35.7213 18.6335 35.7837 18.1606 35.5607C17.2414 35.1234 17.1611 33.8741 18.0089 33.3119C18.2766 33.1335 18.4193 33.1067 19.2582 33.1067C20.0345 33.1067 20.2576 33.1335 20.4896 33.2852Z" fill="#AE7EFF"/>
</svg>
