<svg width="32" height="29" viewBox="0 0 32 29" fill="none" xmlns="http://www.w3.org/2000/svg">
<path d="M18.8 12.502C18.5265 12.2286 18.1556 12.075 17.7689 12.075C17.3822 12.075 17.0113 12.2286 16.7379 12.502L15.7068 13.5316C15.4378 13.8102 15.1159 14.0324 14.7601 14.1852C14.4042 14.3381 14.0215 14.4185 13.6342 14.4219C13.247 14.4253 12.8629 14.3515 12.5045 14.2048C12.146 14.0582 11.8204 13.8416 11.5465 13.5677C11.2727 13.2939 11.0561 12.9682 10.9094 12.6098C10.7628 12.2514 10.689 11.8673 10.6923 11.48C10.6957 11.0927 10.7762 10.71 10.929 10.3542C11.0819 9.99832 11.3041 9.67648 11.5827 9.40743L19.7931 1.19409C21.7369 0.751966 23.7707 0.933925 25.6052 1.7141C27.4397 2.49427 28.9815 3.83295 30.0114 5.53977C31.0414 7.2466 31.507 9.23468 31.3421 11.2213C31.1772 13.208 30.3901 15.0921 29.0929 16.6058L26.0187 19.7193L18.8 12.5006V12.502ZM2.81662 3.73451C4.32565 2.22569 6.29944 1.2699 8.4189 1.02167C10.5384 0.773443 12.6796 1.24729 14.4964 2.36659L9.51912 7.34535C8.44112 8.4212 7.82663 9.87599 7.80695 11.3989C7.78727 12.9218 8.36396 14.3919 9.4138 15.4953C10.4636 16.5986 11.9034 17.2477 13.4253 17.3036C14.9473 17.3596 16.4308 16.8182 17.5589 15.7949L17.7689 15.5951L23.9566 21.7814L17.7689 27.9691C17.222 28.5159 16.4802 28.8231 15.7068 28.8231C14.9334 28.8231 14.1917 28.5159 13.6447 27.9691L2.81516 17.1395C1.03765 15.3618 0.0390625 12.9509 0.0390625 10.437C0.0390625 7.92312 1.03765 5.51218 2.81516 3.73451H2.81662Z" fill="#AD5555"/>
</svg>
