<svg width="19" height="19" viewBox="0 0 19 19" fill="none" xmlns="http://www.w3.org/2000/svg">
<path d="M5.69727 18.6636V16.5968M13.2129 18.6636V16.5968" stroke="#001737" stroke-width="1.50313"/>
<path d="M4.19531 11.3358V4.38386C4.19531 2.7229 5.54061 1.3776 7.20157 1.3776H11.711C13.3719 1.3776 14.7172 2.7229 14.7172 4.38386V11.3358" stroke="#001737" stroke-width="1.50313" stroke-linejoin="round"/>
<path d="M5.69726 16.4088C5.29893 16.4088 4.91563 16.2509 4.63455 15.9683L1.62829 12.9621C1.04057 12.3744 1.04057 11.4244 1.62829 10.8367C2.21602 10.2489 3.16599 10.2489 3.75371 10.8367L6.31955 13.4025H12.5906L15.1564 10.8367C15.7442 10.2489 16.6941 10.2489 17.2819 10.8367C17.8696 11.4244 17.8696 12.3744 17.2819 12.9621L14.2756 15.9683C13.9945 16.2509 13.6112 16.4088 13.2129 16.4088H5.69726Z" stroke="#001737" stroke-width="1.50313"/>
</svg>
