<svg width="40" height="41" viewBox="0 0 40 41" fill="none" xmlns="http://www.w3.org/2000/svg">
<path d="M2.51357 1.0501C1.99582 1.17537 1.23591 1.61795 0.868476 2.01879C0.68476 2.2192 0.409186 2.63674 0.267223 2.94572L0 3.50522V16.3319V29.1503L0.308977 29.785C0.68476 30.5449 1.1691 31.0125 1.94572 31.38L2.50522 31.6472L8.79332 31.6722C14.6973 31.6889 15.0814 31.7056 15.0397 31.8392C14.8894 32.357 13.929 35.547 13.7286 36.215L13.4781 37.0334H11.9332H10.3883L10.1712 37.2505C9.97077 37.4509 9.96242 37.501 10.0042 38.0188C10.0793 38.7537 10.5052 39.6388 11.0313 40.1148C11.2401 40.3152 11.6576 40.5908 11.9666 40.7328L12.5261 41H20H27.4739L28.0334 40.7328C28.3424 40.5908 28.7599 40.3152 28.9687 40.1148C29.4948 39.6388 29.9207 38.7537 29.9958 38.0188C30.0376 37.501 30.0292 37.4509 29.8288 37.2505L29.6117 37.0334H28.0668H26.5219L26.2714 36.215C26.071 35.547 25.1106 32.357 24.9603 31.8392C24.9186 31.7056 25.3027 31.6889 31.2067 31.6722L37.5031 31.6472L38.1378 31.3382C38.8977 30.9624 39.3653 30.4781 39.7328 29.7015L40 29.142V16.3236V3.50522L39.7328 2.94572C39.3653 2.1691 38.8977 1.68476 38.1378 1.30898L37.5031 1L20.1754 0.983299C9.89562 0.983299 2.70564 1.00835 2.51357 1.0501ZM37.3194 2.39457C37.7787 2.52818 38.4718 3.22129 38.6054 3.68058C38.6806 3.94781 38.7056 6.51983 38.7056 14.5198V25.0084H20H1.29436V21V16.9916H6.3048H11.3152V17.4593C11.3152 17.7182 11.357 18.0856 11.4154 18.2777C11.5491 18.737 12.2422 19.4301 12.7015 19.5637C12.9603 19.6388 14.6889 19.6639 19.5741 19.6639C25.8038 19.6639 26.096 19.6722 26.096 19.8142C26.096 20.1148 26.4468 21.0084 26.7641 21.4843C27.3737 22.4363 28.2338 23.096 29.3528 23.4718C29.6868 23.5887 30.0543 23.6305 30.6889 23.6305C31.3236 23.6305 31.691 23.5887 32.0251 23.4718C33.5699 22.9541 34.6472 21.8685 35.1649 20.3319C35.382 19.6973 35.382 18.2944 35.1649 17.6597C34.7808 16.5324 34.1461 15.6889 33.1942 15.0793C32.7015 14.762 31.8079 14.4029 31.5073 14.4029C31.3653 14.4029 31.357 14.2359 31.357 11.2213C31.357 9 31.3236 7.93111 31.2568 7.70564C31.2067 7.52192 30.9979 7.18789 30.7975 6.97077C30.1712 6.26931 30.5052 6.30271 23.5741 6.30271H17.4948L14.8225 4.96659C13.3528 4.23173 12.0919 3.63048 12.0251 3.63048C11.9499 3.63048 10.8476 3.93111 9.56159 4.29854L7.23173 4.96659H4.25887H1.29436V4.49895C1.29436 4.24008 1.33612 3.87265 1.39457 3.68058C1.51983 3.2547 2.22129 2.53653 2.63048 2.40292C3.07307 2.26096 36.8434 2.26096 37.3194 2.39457ZM13.2359 5.67641L14.4468 6.29436H13.7453C13.3612 6.30271 12.8935 6.34447 12.7015 6.40292C12.2422 6.53653 11.5491 7.22964 11.4154 7.68893C11.3486 7.92276 11.3152 8.74113 11.3152 10.1775V12.3152H10.6472H9.97912V12.9833V13.643L12.6931 13.6681L15.4071 13.6931L15.6743 13.9687C15.9081 14.2025 15.9499 14.2944 15.9499 14.6534C15.9499 15.0125 15.9081 15.1044 15.6743 15.3382L15.4071 15.6138L8.35073 15.6388L1.29436 15.6555V10.9791V6.30271H4.36743L7.43215 6.29436L9.56159 5.67641C10.7307 5.34238 11.7662 5.05845 11.858 5.05845C11.9499 5.05845 12.5679 5.33403 13.2359 5.67641ZM29.8121 7.8476C30.0042 8.03131 30.0209 8.11482 30.0209 8.84969V9.64301H21.3361H12.6514V8.84969C12.6514 8.11482 12.6681 8.03131 12.8601 7.8476L13.0605 7.63883H21.3361H29.6117L29.8121 7.8476ZM30.0209 11.6472V12.3152H21.3361H12.6514V11.6472V10.9791H21.3361H30.0209V11.6472ZM30.0209 14.0104V14.3612L29.595 14.4614C27.9415 14.8539 26.547 16.2484 26.1545 17.9019L26.0543 18.3278H19.5574H13.0605L12.8601 18.119C12.6848 17.952 12.6514 17.8351 12.6514 17.4593V17.0084L14.1378 16.9749C15.499 16.9499 15.6493 16.9332 15.9916 16.7495C16.2004 16.6409 16.476 16.4572 16.6013 16.3319C17.1858 15.7975 17.4697 14.7119 17.2192 14.0021L17.0939 13.6514H23.5574H30.0209V14.0104ZM32.0585 15.9729C32.8184 16.3236 33.3027 16.8079 33.6785 17.5595C33.9708 18.1608 33.9875 18.2359 33.9875 18.9958C33.9875 19.7557 33.9708 19.8309 33.6785 20.4321C33.3027 21.1921 32.8184 21.6597 32.0418 22.0271C31.5324 22.2693 31.4071 22.2944 30.6889 22.2944C29.9708 22.2944 29.8455 22.2693 29.3361 22.0271C28.5595 21.6597 28.0752 21.1921 27.6994 20.4321C27.4071 19.8309 27.3904 19.7557 27.3904 19.0042C27.3904 18.2777 27.4154 18.1524 27.6576 17.643C27.9916 16.9332 28.4676 16.4154 29.0939 16.0898C29.7453 15.739 30.1127 15.6555 30.8727 15.6889C31.382 15.714 31.6409 15.7808 32.0585 15.9729ZM38.7056 27.4802C38.7056 28.1315 38.6639 28.7662 38.6054 28.9666C38.4718 29.4259 37.7787 30.119 37.3194 30.2526C36.8184 30.4029 3.18163 30.4029 2.68058 30.2526C2.22129 30.119 1.52818 29.4259 1.39457 28.9666C1.33612 28.7662 1.29436 28.1315 1.29436 27.4802V26.3445H20H38.7056V27.4802ZM23.7495 32.499C23.9499 33.167 24.9019 36.3403 25.0605 36.8831C25.1023 37.0251 24.8267 37.0334 20 37.0334C15.1733 37.0334 14.8977 37.0251 14.9395 36.8831C14.9645 36.8079 15.3069 35.6472 15.6994 34.3194C16.0919 32.9833 16.4342 31.8476 16.4509 31.7891C16.476 31.714 17.261 31.6889 19.9916 31.6889H23.499L23.7495 32.499ZM28.5177 38.5031C28.5177 38.7286 27.6743 39.4969 27.2985 39.6054C26.8058 39.7474 13.1942 39.7474 12.7015 39.6054C12.3257 39.4969 11.4823 38.7286 11.4823 38.5031C11.4823 38.3862 12.3257 38.3695 20 38.3695C27.6743 38.3695 28.5177 38.3862 28.5177 38.5031Z" fill="#8444E8"/>
<path d="M17.9958 15.6554V16.3235H18.6639H19.3319V15.6554V14.9874H18.6639H17.9958V15.6554Z" fill="#8444E8"/>
<path d="M20.6681 15.6554V16.3235H21.3361H22.0042V15.6554V14.9874H21.3361H20.6681V15.6554Z" fill="#8444E8"/>
<path d="M23.3403 15.6554V16.3235H24.0084H24.6764V15.6554V14.9874H24.0084H23.3403V15.6554Z" fill="#8444E8"/>
<path d="M31.0898 18.3027L30.0209 19.3716L29.62 18.9708C29.4029 18.7537 29.1858 18.5783 29.1357 18.5783C29.0271 18.5783 28.2672 19.3549 28.2672 19.4635C28.2672 19.5136 28.6012 19.8726 29.0104 20.2735C30.071 21.3173 29.9624 21.3424 31.7077 19.6054C32.476 18.8372 33.1106 18.1691 33.1106 18.119C33.1106 18.0104 32.3424 17.2422 32.2338 17.2422C32.1837 17.2422 31.6743 17.7182 31.0898 18.3027Z" fill="#8444E8"/>
</svg>
