<svg width="37" height="37" viewBox="0 0 37 37" fill="none" xmlns="http://www.w3.org/2000/svg">
<path d="M18.2037 0.10117C17.575 0.260155 17.3365 0.476952 13.7883 4.0252C10.5074 7.31328 10.2256 7.60957 10.2256 7.83359C10.2256 8.03594 10.3123 8.16602 10.8254 8.68633L11.418 9.30058L11.9961 9.26445C13.1523 9.19941 14.0268 9.48125 14.7494 10.1678C15.4359 10.8182 15.79 11.6275 15.79 12.5236C15.7828 13.4848 15.4865 14.2219 14.8145 14.8867C13.4631 16.2381 11.3746 16.1947 10.0449 14.7711C9.40898 14.0918 9.11992 13.1812 9.19219 12.0828L9.23555 11.5191L8.62129 10.9049C8.09375 10.3846 7.97813 10.2979 7.76855 10.2979C7.5373 10.2979 7.2627 10.5508 3.95293 13.8533C-0.101172 17.9074 0.00722656 17.7701 0 18.8252C0 19.8875 0.0216797 19.9236 2.78945 22.6986L5.17422 25.0834L4.75508 25.2135C3.8084 25.5025 2.82559 26.1891 2.16797 27.0129C0.664844 28.8918 0.541992 31.5584 1.87168 33.5602C3.68555 36.2846 7.46504 36.8627 10.0305 34.8031C10.7965 34.1816 11.5047 33.1555 11.7865 32.2449L11.9166 31.8258L14.3014 34.2105C17.0764 36.9783 17.1125 37 18.1748 37C19.2299 36.9928 19.0926 37.1012 23.1467 33.0471C26.4492 29.7373 26.7021 29.4627 26.7021 29.2314C26.7021 29.0219 26.6154 28.9062 26.0951 28.3787L25.4809 27.7645L24.9172 27.8078C23.7898 27.8801 22.901 27.591 22.1783 26.9045C21.4773 26.2396 21.1377 25.452 21.1377 24.4908C21.1377 23.2406 21.8531 22.0988 22.9805 21.5424C23.9705 21.0582 25.1918 21.1088 26.1385 21.6652C26.5576 21.9037 27.1502 22.5469 27.3742 22.9877C27.6561 23.5514 27.7355 23.9344 27.7211 24.7943L27.7139 25.5965L28.3209 26.1818C28.834 26.6877 28.9641 26.7744 29.1664 26.7744C29.3904 26.7744 29.6867 26.4926 32.9748 23.2117C37.0289 19.1648 36.9205 19.3021 36.9277 18.2471C36.9277 17.1848 36.9061 17.1486 34.1383 14.3736L31.7535 11.9889L32.1727 11.8588C33.1482 11.548 34.0877 10.8977 34.767 10.0521C36.2629 8.18769 36.3785 5.50664 35.0561 3.51211C33.2422 0.794922 29.5061 0.209568 26.9189 2.24746C26.1602 2.84004 25.423 3.90957 25.1412 4.82734L25.0111 5.24648L22.6264 2.86172C20.5596 0.802147 20.1766 0.448048 19.808 0.281834C19.3527 0.0722656 18.6229 -0.00722885 18.2037 0.10117ZM19.1648 1.48867C19.2732 1.5248 20.6824 2.87617 22.2939 4.48769C25.1268 7.30606 25.2352 7.40723 25.5025 7.40723C25.7049 7.40723 25.8277 7.35664 25.9723 7.20488C26.1529 7.03144 26.1746 6.9375 26.2252 6.3666C26.3625 4.56719 27.4393 3.16523 29.1158 2.60156C29.8168 2.36309 30.8502 2.33418 31.515 2.5293C32.9748 2.95566 34.0877 4.07578 34.4779 5.50664C34.6297 6.07031 34.6225 7.13984 34.4707 7.66738C34.1094 8.9248 33.2205 9.95098 32.0787 10.4424C31.6596 10.623 30.7996 10.8037 30.3371 10.8037C29.9035 10.8037 29.5928 11.0928 29.5928 11.4975C29.5928 11.7648 29.7012 11.8805 32.5484 14.7422C35.1645 17.3654 35.5113 17.734 35.5619 17.9797C35.6775 18.6229 35.6848 18.6084 32.3172 21.9832C30.6045 23.7031 29.1809 25.1123 29.152 25.1123C29.123 25.1123 29.1014 24.8232 29.1014 24.4764C29.0941 23.5008 28.8412 22.677 28.2992 21.8748C26.9406 19.873 24.1729 19.2443 22.0771 20.4656C21.1377 21.0148 20.2994 22.0555 19.9742 23.0889C19.7574 23.7609 19.7141 24.8016 19.8658 25.5025C20.2488 27.2225 21.6002 28.6172 23.3057 29.0508C23.5586 29.1158 24.0572 29.1736 24.4041 29.1736C24.751 29.1736 25.04 29.1953 25.04 29.2242C25.04 29.3254 18.8469 35.4391 18.6301 35.5475C18.3627 35.6848 18.052 35.692 17.7629 35.5836C17.6545 35.5475 16.2453 34.1961 14.6266 32.5846C11.8082 29.7734 11.6926 29.665 11.4252 29.665C11.0205 29.665 10.7314 29.9758 10.7314 30.4094C10.7314 30.9441 10.5363 31.8041 10.3051 32.2883C9.29336 34.3984 6.70625 35.2873 4.625 34.2395C2.78945 33.3072 1.87891 31.1393 2.5293 29.1953C2.89062 28.1041 3.69277 27.1863 4.71172 26.6949C5.1959 26.4637 6.05586 26.2686 6.59063 26.2686C7.02422 26.2686 7.33496 25.9795 7.33496 25.5748C7.33496 25.3146 7.22656 25.1918 4.3793 22.3373C1.76328 19.7141 1.41641 19.3383 1.36582 19.0926C1.26465 18.5 1.26465 18.4928 4.65391 15.1107L7.82637 11.9383V12.5887C7.83359 13.875 8.25996 14.9156 9.17773 15.8334C10.6736 17.3293 12.8488 17.6689 14.7205 16.6789C15.3637 16.3465 16.1514 15.5732 16.5344 14.9229C17.3221 13.5643 17.3727 11.8805 16.6572 10.4568C15.8623 8.87422 14.3014 7.90586 12.5236 7.90586H11.8588L15.0023 4.75508C16.7295 3.02793 18.2398 1.56816 18.3555 1.51035C18.6156 1.39473 18.8902 1.3875 19.1648 1.48867Z" fill="#AE7EFF"/>
</svg>
