<svg width="384" height="384" viewBox="0 0 384 384" fill="none" xmlns="http://www.w3.org/2000/svg">
<rect width="384" height="384" fill="#F4FFF8"/>
<path fill-rule="evenodd" clip-rule="evenodd" d="M192.996 42.0004C258.266 42.1614 310.665 91.9958 329.9 154.368C348.219 213.765 327.355 278.032 277.048 314.539C226.829 350.983 159.004 351.201 108.676 314.907C57.7897 278.211 35.4765 213.629 53.9966 153.687C73.3948 90.904 127.284 41.8384 192.996 42.0004Z" fill="#E2FFEB"/>
<path d="M191.851 143.457C190.961 143.457 190.137 143.028 189.643 142.303C186.182 137.326 182.819 133.897 181.534 132.612L180.94 131.986C173.82 124.074 166.568 118.998 158.69 116.526C157.932 116.295 157.306 115.735 157.009 114.976C156.712 114.251 156.745 113.394 157.108 112.702C160.964 105.219 166.634 99.2857 174.513 94.5389C189.412 85.5398 189.082 75.2552 189.05 74.8266C189.017 74.1014 189.28 73.3433 189.775 72.8159C190.797 71.728 192.807 71.728 193.829 72.8159C194.357 73.3762 194.719 74.1014 194.653 74.8596C194.62 75.2552 194.291 85.5398 209.19 94.5389C217.036 99.2857 222.705 105.186 226.529 112.57C226.892 113.262 226.925 114.119 226.628 114.844C226.331 115.57 225.705 116.13 224.947 116.394C217.135 118.899 209.883 123.942 202.828 131.821L202.235 132.414C200.949 133.7 197.554 137.161 194.027 142.27C193.566 143.028 192.741 143.457 191.851 143.457ZM184.962 128.36L185.391 128.821C186.478 129.909 188.984 132.447 191.851 136.172C194.785 132.348 197.356 129.777 198.444 128.656C205.498 120.811 212.75 115.471 220.233 112.405C216.937 107.131 212.388 102.813 206.421 99.1868C198.444 94.3741 194.159 89.0669 191.884 84.5839C189.61 89.034 185.325 94.3741 177.347 99.1868C171.348 102.813 166.766 107.197 163.47 112.504C170.985 115.537 178.204 120.877 184.962 128.36L182.951 130.173L184.962 128.36Z" fill="#34A769"/>
<path d="M113.827 162.51C113.464 162.51 113.134 162.444 112.805 162.312C112.079 162.015 111.519 161.389 111.255 160.631C108.684 152.654 108.519 144.413 110.761 135.447C114.947 118.536 107.432 111.515 107.102 111.218C106.542 110.724 106.212 109.999 106.212 109.241C106.212 108.482 106.476 107.757 107.003 107.263C107.53 106.735 108.355 106.472 109.08 106.406C109.838 106.439 110.596 106.702 111.091 107.263C111.354 107.559 118.375 115.075 135.286 110.889C144.219 108.68 152.427 108.845 160.371 111.35C161.129 111.581 161.756 112.141 162.052 112.9C162.349 113.625 162.316 114.482 161.953 115.174C158.196 122.492 156.613 131.194 157.174 141.743V142.633C157.174 144.446 157.207 149.258 158.294 155.291C158.459 156.148 158.163 157.071 157.536 157.697C156.91 158.323 156.02 158.62 155.163 158.455C149.229 157.401 144.615 157.368 142.67 157.368H141.747C131.099 156.807 122.397 158.389 115.079 162.18C114.684 162.411 114.255 162.51 113.827 162.51ZM115.936 116.097C117.485 120.877 118.211 127.667 115.969 136.699C114.288 143.556 114.123 149.885 115.541 155.95C123.089 152.72 131.825 151.401 142.01 151.929C144.054 151.929 147.713 151.962 152.361 152.555C151.735 147.841 151.735 144.215 151.735 142.666C151.174 131.953 152.493 123.217 155.69 115.702C149.658 114.317 143.362 114.449 136.538 116.163C127.506 118.372 120.716 117.646 115.936 116.097Z" fill="#47CD70"/>
<path d="M113.926 227.152C113.497 227.152 113.069 227.053 112.673 226.855C105.19 222.998 99.2568 217.328 94.51 209.45C85.5109 194.55 75.2263 194.88 74.7978 194.913C74.0396 194.913 73.3144 194.682 72.787 194.188C72.2596 193.693 71.9629 192.935 71.9629 192.21C71.9629 191.452 72.2596 190.628 72.8199 190.133C73.3803 189.639 74.1715 189.276 74.8637 189.309C75.2922 189.309 85.5439 189.672 94.543 174.772C99.2568 166.927 105.19 161.257 112.574 157.433C113.266 157.071 114.09 157.038 114.849 157.335C115.574 157.631 116.134 158.258 116.398 159.016C118.903 166.828 123.98 174.08 131.825 181.134L132.451 181.728C133.737 183.013 137.198 186.408 142.274 189.936C143 190.43 143.428 191.254 143.428 192.144C143.428 193.034 143 193.858 142.274 194.353C137.297 197.814 133.869 201.176 132.583 202.462L131.957 203.055C124.144 210.076 118.936 217.559 116.497 225.306C116.266 226.064 115.706 226.69 114.947 226.987C114.651 227.086 114.288 227.152 113.926 227.152ZM84.555 192.078C89.0051 194.353 94.3452 198.638 99.1579 206.615C102.784 212.615 107.168 217.164 112.475 220.493C115.541 212.944 120.848 205.725 128.364 199.001L130.177 201.011L128.364 199.001L128.825 198.572C129.913 197.484 132.451 194.979 136.176 192.111C132.385 189.177 129.781 186.639 128.66 185.551C120.815 178.464 115.442 171.245 112.376 163.729C107.102 167.026 102.784 171.575 99.1579 177.541C94.3452 185.518 89.0381 189.804 84.555 192.078Z" fill="#34A769"/>
<path d="M140.758 194.814C140.231 194.814 139.67 194.649 139.209 194.32C133.737 190.529 130.045 186.903 128.661 185.519L130.012 183.079L128.199 185.09C119.727 177.475 113.992 169.234 111.223 160.598C110.827 159.345 111.388 157.961 112.541 157.368C120.782 153.115 130.408 151.335 142.011 151.929C144.582 151.929 149.658 151.962 156.086 153.115C157.207 153.313 158.064 154.17 158.262 155.291C159.679 163.037 162.316 169.993 166.14 176.058C166.964 177.377 167.953 178.629 169.14 179.948C169.832 180.706 170.03 181.827 169.634 182.815C169.239 183.771 168.316 184.431 167.261 184.497C165.745 184.563 164.195 184.727 162.58 185.123C155.592 186.705 148.768 189.804 142.242 194.353C141.813 194.649 141.286 194.814 140.758 194.814ZM131.825 181.101L132.451 181.695C133.605 182.848 136.539 185.716 140.791 188.815C147.417 184.464 154.339 181.431 161.426 179.849C161.624 179.816 161.855 179.75 162.053 179.717C161.888 179.486 161.723 179.222 161.558 178.992C157.702 172.86 154.933 165.872 153.317 158.192C148.274 157.433 144.384 157.401 142.637 157.401H141.714C132.089 156.906 124.046 158.126 117.156 161.224C119.892 168.147 124.705 174.673 131.825 181.101Z" fill="#47CD70"/>
<path d="M109.179 277.784C108.454 277.784 107.762 277.52 107.267 276.993C106.74 276.465 106.377 275.674 106.41 274.916C106.443 274.158 106.707 273.4 107.267 272.905C107.564 272.641 115.08 265.62 110.893 248.71C108.685 239.777 108.85 231.569 111.355 223.625C111.586 222.866 112.146 222.24 112.904 221.943C113.629 221.647 114.486 221.68 115.179 222.042C122.529 225.833 131.232 227.415 141.747 226.822H142.637C144.45 226.822 149.263 226.789 155.328 225.701C156.185 225.536 157.108 225.833 157.735 226.459C158.361 227.086 158.658 227.976 158.493 228.866C157.438 234.799 157.405 239.381 157.405 241.359V242.282C156.845 252.896 158.427 261.599 162.218 268.95C162.58 269.642 162.613 270.499 162.317 271.224C162.02 271.949 161.394 272.51 160.635 272.773C152.658 275.345 144.417 275.509 135.451 273.301C118.541 269.114 111.52 276.63 111.256 276.96C110.761 277.52 110.036 277.85 109.311 277.85C109.245 277.784 109.212 277.784 109.179 277.784ZM125.826 266.576C129.023 266.576 132.616 266.972 136.704 267.994C143.56 269.675 149.889 269.84 155.955 268.422C152.724 260.873 151.406 252.171 151.933 241.952C151.933 239.909 151.966 236.25 152.559 231.602C147.813 232.228 144.187 232.228 142.637 232.228C131.957 232.755 123.222 231.47 115.673 228.272C114.289 234.305 114.453 240.601 116.135 247.424C118.376 256.489 117.651 263.247 116.102 268.027C118.739 267.17 121.969 266.576 125.826 266.576Z" fill="#47CD70"/>
<path d="M192.181 312C191.423 312 190.599 311.703 190.105 311.143C189.577 310.583 189.215 309.857 189.28 309.099C189.313 308.704 189.643 298.419 174.743 289.42C166.898 284.706 161.228 278.806 157.405 271.389C157.042 270.697 157.009 269.84 157.306 269.114C157.602 268.389 158.229 267.829 158.987 267.565C166.799 265.06 174.018 260.016 181.105 252.138L181.699 251.512C182.984 250.226 186.38 246.765 189.874 241.689C190.368 240.963 191.192 240.535 192.082 240.535C192.972 240.535 193.796 240.963 194.291 241.689C197.752 246.666 201.114 250.094 202.4 251.38L202.993 252.006C210.113 259.918 217.365 264.994 225.244 267.466C226.002 267.697 226.628 268.257 226.925 269.015C227.222 269.741 227.189 270.598 226.826 271.29C222.969 278.773 217.3 284.706 209.421 289.453C194.522 298.452 194.851 308.737 194.884 309.165C194.917 309.89 194.654 310.649 194.159 311.176C193.632 311.67 192.939 312 192.181 312ZM163.734 271.587C167.03 276.861 171.579 281.179 177.545 284.805C185.523 289.618 189.808 294.925 192.082 299.408C194.357 294.958 198.642 289.618 206.619 284.805C212.619 281.179 217.201 276.795 220.497 271.488C212.948 268.422 205.729 263.115 199.005 255.599L201.016 253.786L199.005 255.599L198.576 255.138C197.488 254.05 194.983 251.512 192.115 247.787C189.215 251.578 186.643 254.149 185.556 255.27C178.468 263.148 171.216 268.521 163.734 271.587Z" fill="#34A769"/>
<path d="M159.778 272.839C158.789 272.839 157.866 272.312 157.371 271.389C153.119 263.148 151.339 253.523 151.932 241.919C151.932 239.348 151.965 234.272 153.119 227.844C153.317 226.723 154.174 225.866 155.295 225.668C163.008 224.251 169.996 221.614 176.062 217.79C177.38 216.966 178.633 215.977 179.951 214.79C180.743 214.065 181.83 213.9 182.819 214.296C183.775 214.691 184.434 215.614 184.5 216.669C184.566 218.186 184.764 219.735 185.127 221.35C186.709 228.338 189.808 235.162 194.357 241.689C195.016 242.612 195.016 243.831 194.357 244.787C190.599 250.226 186.94 253.918 185.588 255.336L185.127 255.797C177.512 264.269 169.238 270.004 160.635 272.773C160.338 272.806 160.074 272.839 159.778 272.839ZM158.162 230.646C157.404 235.689 157.371 239.546 157.371 241.326V242.249C156.844 251.841 158.097 259.918 161.162 266.807C168.117 264.104 174.677 259.291 181.072 252.171L181.666 251.545C182.819 250.391 185.687 247.457 188.786 243.238C184.434 236.612 181.402 229.69 179.787 222.603C179.754 222.405 179.688 222.174 179.655 221.976C179.424 222.141 179.16 222.306 178.93 222.471C172.831 226.262 165.843 229.031 158.162 230.646ZM183.083 253.951H183.149H183.083Z" fill="#47CD70"/>
<path d="M274.986 277.553C274.953 277.553 274.92 277.553 274.92 277.553C274.162 277.52 273.404 277.256 272.909 276.696C272.645 276.399 265.591 268.884 248.714 273.07C239.781 275.279 231.573 275.114 223.628 272.609C222.87 272.378 222.244 271.817 221.947 271.059C221.651 270.334 221.684 269.477 222.046 268.785C225.837 261.467 227.386 252.764 226.826 242.216V241.293C226.826 239.48 226.793 234.667 225.705 228.635C225.54 227.745 225.837 226.855 226.463 226.229C227.09 225.602 227.98 225.306 228.87 225.471C234.803 226.525 239.385 226.558 241.363 226.558H242.286C252.9 227.119 261.636 225.536 268.953 221.746C269.646 221.383 270.47 221.35 271.228 221.647C271.953 221.943 272.514 222.57 272.777 223.328C275.348 231.305 275.513 239.546 273.272 248.545C269.085 265.455 276.601 272.477 276.931 272.74C277.491 273.235 277.821 273.96 277.821 274.685C277.854 275.443 277.557 276.169 277.03 276.663C276.469 277.19 275.711 277.553 274.986 277.553ZM228.243 268.257C234.276 269.642 240.572 269.51 247.395 267.796C256.427 265.554 263.218 266.28 267.998 267.829C266.448 263.049 265.723 256.259 267.965 247.227C269.646 240.37 269.811 234.041 268.393 227.976C260.844 231.206 252.142 232.525 241.923 231.997C239.88 231.997 236.221 231.964 231.573 231.371C232.199 236.085 232.199 239.711 232.199 241.26C232.759 252.006 231.441 260.742 228.243 268.257Z" fill="#47CD70"/>
<path d="M270.14 226.888C269.778 226.888 269.448 226.822 269.119 226.69C268.393 226.394 267.833 225.767 267.569 225.009C265.097 217.296 259.889 209.846 252.142 202.89L251.516 202.297C250.23 201.011 246.769 197.616 241.693 194.089C240.968 193.595 240.539 192.771 240.539 191.881C240.539 190.991 240.968 190.166 241.693 189.672C246.67 186.211 250.099 182.849 251.384 181.563L252.01 180.97C259.922 173.849 264.998 166.597 267.47 158.752C267.701 157.994 268.261 157.368 269.02 157.071C269.745 156.774 270.602 156.807 271.294 157.17C278.777 161.027 284.71 166.696 289.457 174.575C298.456 189.441 308.708 189.145 309.169 189.112C309.928 189.112 310.653 189.342 311.18 189.87C311.708 190.364 312.037 191.089 312.037 191.815C312.037 192.573 311.741 193.397 311.18 193.891C310.62 194.419 309.895 194.781 309.136 194.715C308.675 194.715 298.456 194.353 289.457 209.252C284.743 217.098 278.843 222.768 271.426 226.591C270.997 226.756 270.569 226.888 270.14 226.888ZM247.791 191.848C251.582 194.781 254.186 197.32 255.307 198.407C263.152 205.495 268.525 212.714 271.591 220.229C276.865 216.933 281.183 212.384 284.809 206.418C289.622 198.44 294.929 194.155 299.412 191.881C294.962 189.606 289.622 185.321 284.809 177.344C281.183 171.344 276.799 166.795 271.492 163.466C268.426 171.015 263.119 178.234 255.603 184.958C254.12 186.376 251.516 188.98 247.791 191.848Z" fill="#34A769"/>
<path d="M246.275 232.129C244.857 232.129 243.374 232.096 241.891 231.997C239.319 231.997 234.243 231.964 227.815 230.811C226.694 230.613 225.837 229.756 225.639 228.635C224.222 220.889 221.585 213.933 217.761 207.868C216.937 206.549 215.948 205.297 214.761 203.978C214.069 203.22 213.871 202.099 214.267 201.11C214.663 200.154 215.586 199.495 216.64 199.429C218.157 199.363 219.706 199.199 221.321 198.803C228.31 197.221 235.133 194.122 241.66 189.573C242.583 188.947 243.802 188.914 244.758 189.573C250.23 193.364 253.922 196.99 255.307 198.374L253.955 200.814L255.768 198.803C264.24 206.418 269.976 214.658 272.745 223.295C273.14 224.548 272.58 225.899 271.426 226.525C264.207 230.283 255.966 232.129 246.275 232.129ZM230.617 225.8C235.66 226.558 239.55 226.591 241.297 226.591H242.22C251.846 227.086 259.889 225.866 266.778 222.8C264.075 215.878 259.164 209.187 252.142 202.89L251.516 202.297C250.362 201.143 247.428 198.276 243.176 195.177C236.55 199.528 229.628 202.561 222.541 204.143C222.343 204.176 222.112 204.242 221.915 204.275C222.079 204.506 222.244 204.769 222.409 205C226.233 211.131 229.035 218.12 230.617 225.8Z" fill="#47CD70"/>
<path d="M270.008 162.246C269.58 162.246 269.151 162.147 268.755 161.95C261.438 158.159 252.702 156.609 242.187 157.17H241.297C239.484 157.17 234.671 157.203 228.639 158.291C227.782 158.455 226.892 158.159 226.232 157.532C225.606 156.906 225.309 156.016 225.474 155.126C226.529 149.193 226.562 144.578 226.562 142.633V141.71C227.122 131.096 225.54 122.36 221.749 115.042C221.387 114.35 221.354 113.493 221.65 112.768C221.947 112.043 222.573 111.482 223.332 111.218C231.309 108.647 239.55 108.482 248.549 110.724C265.459 114.91 272.48 107.395 272.744 107.065C273.239 106.505 273.964 106.175 274.689 106.175C275.447 106.208 276.172 106.439 276.667 106.966C277.194 107.494 277.557 108.285 277.524 109.043C277.491 109.801 277.227 110.559 276.667 111.054C276.37 111.317 268.854 118.339 273.041 135.249C275.249 144.182 275.085 152.39 272.579 160.334C272.349 161.092 271.788 161.719 271.03 162.015C270.733 162.147 270.371 162.246 270.008 162.246ZM245.912 151.632C254.548 151.632 261.833 152.983 268.261 155.719C269.646 149.687 269.514 143.391 267.8 136.568C265.558 127.503 266.283 120.745 267.833 115.965C263.053 117.515 256.262 118.24 247.23 115.998C240.374 114.317 234.045 114.152 227.979 115.57C231.21 123.118 232.528 131.821 232.001 142.039C232.001 144.083 231.968 147.742 231.375 152.39C236.089 151.764 239.715 151.764 241.264 151.764C242.846 151.665 244.395 151.632 245.912 151.632Z" fill="#47CD70"/>
<path d="M202.169 169.861C201.806 169.861 201.477 169.795 201.147 169.663C200.191 169.267 199.532 168.344 199.466 167.29C199.4 165.773 199.235 164.224 198.84 162.609C197.257 155.621 194.159 148.797 189.61 142.27C188.95 141.347 188.95 140.128 189.61 139.172C193.401 133.7 197.027 130.008 198.411 128.59L200.85 129.975L198.84 128.162C206.454 119.69 214.695 113.954 223.331 111.186C224.584 110.757 225.969 111.35 226.562 112.504C230.814 120.745 232.594 130.37 232.001 141.974C232.001 144.545 231.968 149.621 230.814 156.049C230.616 157.17 229.759 158.027 228.639 158.225C220.892 159.642 213.937 162.279 207.872 166.103C206.553 166.927 205.3 167.916 203.982 169.103C203.487 169.63 202.828 169.861 202.169 169.861ZM195.148 140.787C199.499 147.413 202.531 154.335 204.147 161.422C204.18 161.62 204.246 161.851 204.279 162.048C204.509 161.884 204.773 161.719 205.004 161.587C211.135 157.73 218.123 154.961 225.804 153.346C226.562 148.27 226.595 144.413 226.595 142.666V141.743C227.122 132.15 225.87 124.074 222.771 117.185C215.783 119.888 209.256 124.701 202.861 131.854L202.268 132.447C201.147 133.601 198.279 136.535 195.148 140.787Z" fill="#47CD70"/>
<path d="M191.983 219.932C176.589 219.932 164.03 207.406 164.03 191.979C164.03 176.585 176.556 164.026 191.983 164.026C207.377 164.026 219.937 176.552 219.937 191.979C219.904 207.373 207.377 219.932 191.983 219.932ZM191.983 169.432C179.556 169.432 169.436 179.552 169.436 191.979C169.436 204.407 179.556 214.526 191.983 214.526C204.411 214.526 214.531 204.407 214.531 191.979C214.498 179.552 204.411 169.432 191.983 169.432Z" fill="#34A769"/>
<path d="M191.983 205.824C184.369 205.824 178.139 199.627 178.139 191.98C178.139 184.332 184.336 178.135 191.983 178.135C199.631 178.135 205.828 184.332 205.828 191.98C205.828 199.627 199.598 205.824 191.983 205.824ZM191.983 183.541C187.336 183.541 183.545 187.332 183.545 191.98C183.545 196.627 187.336 200.418 191.983 200.418C196.631 200.418 200.422 196.627 200.422 191.98C200.422 187.332 196.631 183.541 191.983 183.541Z" fill="#34A769"/>
</svg>
