<svg width="72" height="72" viewBox="0 0 72 72" fill="none" xmlns="http://www.w3.org/2000/svg">
<g clip-path="url(#clip0_4977_7990)">
<path fill-rule="evenodd" clip-rule="evenodd" d="M1.50305 68.6971V65.3971C1.50305 64.8826 1.76705 64.4026 2.20355 64.1296L10.7761 58.7296C11.0146 58.5796 11.2921 58.4971 11.5756 58.4971H18.4321C18.7141 58.4971 18.9916 58.5796 19.2301 58.7296L27.8026 64.1296C28.239 64.4041 28.5046 64.8841 28.5046 65.3971V68.6971C28.5046 70.4506 27.1321 71.9971 25.2901 71.9971H4.71755C2.87105 71.9971 1.50305 70.4491 1.50305 68.6971Z" fill="#15130E"/>
<path fill-rule="evenodd" clip-rule="evenodd" d="M43.5031 68.7029V65.4029C43.5031 64.8884 43.7671 64.4084 44.2036 64.1354L52.776 58.7354C53.0145 58.5854 53.292 58.5029 53.5755 58.5029H60.432C60.714 58.5029 60.9916 58.5854 61.23 58.7354L69.8026 64.1354C70.239 64.4099 70.5045 64.8899 70.5045 65.4029V68.7029C70.5045 70.4564 69.1321 72.0029 67.2901 72.0029H46.7176C44.8711 72.0029 43.5031 70.4549 43.5031 68.7029Z" fill="#15130E"/>
<path fill-rule="evenodd" clip-rule="evenodd" d="M60.4305 58.5029H53.574L45.0015 63.9029V65.7029C45.0015 66.6974 45.768 67.5029 46.716 67.5029H67.2885C68.235 67.5029 69.003 66.6974 69.003 65.7029V63.9029L60.4305 58.5029Z" fill="white"/>
<path fill-rule="evenodd" clip-rule="evenodd" d="M63.003 48.0031C63.003 44.6866 60.315 41.9971 57.0015 41.9971C53.6895 41.9971 51 44.6866 51 48.0031C51 51.3136 53.6895 54.0031 57.0015 54.0031C60.315 54.0031 63.003 51.3136 63.003 48.0031Z" fill="white"/>
<path fill-rule="evenodd" clip-rule="evenodd" d="M43.5031 65.7029V63.9029C43.5031 63.3884 43.7671 62.9084 44.2036 62.6354L52.776 57.2354C53.0145 57.0854 53.292 57.0029 53.5755 57.0029H60.432C60.714 57.0029 60.9916 57.0854 61.23 57.2354L69.8026 62.6354C70.239 62.9099 70.5045 63.3899 70.5045 63.9029V65.7029C70.5045 67.4564 69.1321 69.0029 67.2901 69.0029H46.7176C44.8711 69.0029 43.5031 67.4549 43.5031 65.7029ZM67.503 65.7029V64.7309L59.9971 60.0029H54.0076L46.5031 64.7309V65.7029C46.5031 65.9414 46.6651 66.0029 46.7176 66.0029H67.2901C67.3366 66.0029 67.503 65.9384 67.503 65.7029Z" fill="#15130E"/>
<path fill-rule="evenodd" clip-rule="evenodd" d="M49.4985 48.0031C49.4985 43.8616 52.8585 40.4971 57 40.4971C61.1415 40.4971 64.5015 43.8616 64.5015 48.0031C64.5015 52.1431 61.1415 55.5031 57 55.5031C52.8585 55.5031 49.4985 52.1431 49.4985 48.0031ZM61.503 48.0031C61.503 45.5146 59.4855 43.4971 57.0015 43.4971C54.5175 43.4971 52.5 45.5146 52.5 48.0031C52.5 50.4856 54.5175 52.5031 57.0015 52.5031C59.4855 52.5031 61.503 50.4856 61.503 48.0031Z" fill="#15130E"/>
<path fill-rule="evenodd" clip-rule="evenodd" d="M11.5756 58.5029H18.4321L27.0046 63.9029V65.7029C27.0046 66.6974 26.2381 67.5029 25.2901 67.5029H4.71755C3.77105 67.5029 3.00305 66.6974 3.00305 65.7029V63.9029L11.5756 58.5029Z" fill="white"/>
<path fill-rule="evenodd" clip-rule="evenodd" d="M1.50305 65.7029V63.9029C1.50305 63.3884 1.76705 62.9084 2.20355 62.6354L10.7761 57.2354C11.0146 57.0854 11.2921 57.0029 11.5756 57.0029H18.4321C18.7141 57.0029 18.9916 57.0854 19.2301 57.2354L27.8026 62.6354C28.239 62.9099 28.5046 63.3899 28.5046 63.9029V65.7029C28.5046 67.4549 27.1351 69.0029 25.2901 69.0029H4.71755C2.87255 69.0029 1.50305 67.4564 1.50305 65.7029ZM25.5031 65.7029V64.7309L17.9971 60.0029H12.0076L4.50305 64.7309V65.7029C4.50305 65.9384 4.66655 66.0029 4.71755 66.0029H25.2901C25.3396 66.0029 25.5031 65.9414 25.5031 65.7029Z" fill="#15130E"/>
<path fill-rule="evenodd" clip-rule="evenodd" d="M21.0315 49.6155C22.902 49.2195 25.0395 49.8195 26.61 51.3735C28.1805 52.926 28.7835 55.035 28.386 56.8815C26.52 57.273 24.3825 56.673 22.812 55.122C21.2415 53.5695 20.6325 51.459 21.0315 49.6155Z" fill="white"/>
<path fill-rule="evenodd" clip-rule="evenodd" d="M21.7545 56.1884C19.845 54.2984 19.05 51.6764 19.563 49.2989C19.689 48.7214 20.1405 48.2714 20.7195 48.1484C23.1075 47.6429 25.7535 48.4169 27.663 50.3069C29.5755 52.1969 30.363 54.8204 29.8515 57.1994C29.7255 57.7769 29.271 58.2299 28.6935 58.3499C26.3115 58.8509 23.667 58.0769 21.7545 56.1884ZM25.5525 52.4414C24.783 51.6809 23.859 51.2294 22.9425 51.0674L22.422 51.0074L22.4775 51.4934C22.641 52.3889 23.094 53.2979 23.8635 54.0554C24.63 54.8159 25.5555 55.2674 26.472 55.4309L26.988 55.4909L26.9325 55.0034C26.7705 54.1094 26.319 53.2004 25.5525 52.4414Z" fill="#15130E"/>
<path fill-rule="evenodd" clip-rule="evenodd" d="M21.003 48.0031C21.003 44.6866 18.315 41.9971 15.0015 41.9971C11.6895 41.9971 9 44.6866 9 48.0031C9 51.3136 11.6895 54.0031 15.0015 54.0031C18.315 54.0031 21.003 51.3136 21.003 48.0031Z" fill="white"/>
<path fill-rule="evenodd" clip-rule="evenodd" d="M7.49854 48.0031C7.49854 43.8616 10.8585 40.4971 15 40.4971C19.1415 40.4971 22.5015 43.8616 22.5015 48.0031C22.5015 52.1431 19.1415 55.5031 15 55.5031C10.8585 55.5031 7.49854 52.1431 7.49854 48.0031ZM19.503 48.0031C19.503 45.5146 17.4855 43.4971 15.0015 43.4971C12.5175 43.4971 10.5 45.5146 10.5 48.0031C10.5 50.4856 12.5175 52.5031 15.0015 52.5031C17.4855 52.5031 19.503 50.4856 19.503 48.0031Z" fill="#15130E"/>
<path fill-rule="evenodd" clip-rule="evenodd" d="M22.4985 37.4956V38.9971H24V37.4956H22.4985Z" fill="#15130E"/>
<path fill-rule="evenodd" clip-rule="evenodd" d="M47.9985 37.4956V38.9971H49.5V37.4956H47.9985Z" fill="#15130E"/>
<path fill-rule="evenodd" clip-rule="evenodd" d="M18.0225 20.2649V21.7664H54V20.2649H18.0225Z" fill="#15130E"/>
<path fill-rule="evenodd" clip-rule="evenodd" d="M22.941 37.9351C24.0105 36.8656 24.8175 35.6791 25.4295 34.4836L24.8115 34.0891C20.709 31.2376 18.0015 26.8051 18.0015 21.7456C18.0015 12.8536 26.277 5.99561 36.0015 5.99561C45.723 5.99561 54.0015 12.8536 54.0015 21.7456C54.0015 26.3911 51.711 30.5116 48.1635 33.3601L46.584 34.4896L47.2515 35.6761C47.7495 36.4576 48.345 37.2226 49.059 37.9366C50.0025 38.8786 49.3335 40.4971 48.0015 40.4971C45.309 40.4971 42.831 39.4366 40.794 38.1346L39.4695 37.1851L38.0775 37.3951C37.395 37.4626 36.7035 37.4971 36.0015 37.4971C35.2875 37.4971 34.584 37.4611 33.891 37.3906L32.5305 37.1821L31.2045 38.1346C29.166 39.4366 26.688 40.4971 24 40.4971C22.6665 40.4956 21.9975 38.8771 22.941 37.9351Z" fill="#15130E"/>
<path fill-rule="evenodd" clip-rule="evenodd" d="M27.357 32.3851C22.6425 29.8756 19.5015 25.3756 19.5015 20.2456C19.5015 12.3796 26.8935 5.99561 36.0015 5.99561C45.1095 5.99561 52.5015 12.3796 52.5015 20.2456C52.5015 24.9571 49.8495 29.1376 45.765 31.7311C45.6195 31.8451 45.2655 32.0551 44.6445 32.3851C45.3465 34.0876 46.4025 35.8996 48 37.4956C44.9205 37.4956 42.0435 35.8591 39.846 34.1071C39.8265 34.1131 39.8085 34.1146 39.7935 34.1176C38.5755 34.3651 37.305 34.4956 36 34.4956C34.6755 34.4956 33.3885 34.3621 32.154 34.1071C29.9565 35.8591 27.0795 37.4956 24 37.4956C25.599 35.8996 26.655 34.0876 27.357 32.3851Z" fill="white"/>
<path fill-rule="evenodd" clip-rule="evenodd" d="M22.941 36.4351C24.0105 35.3656 24.8175 34.1791 25.4295 32.9836L24.8115 32.5891C20.709 29.7376 18.0015 25.3051 18.0015 20.2456C18.0015 11.3536 26.277 4.49561 36.0015 4.49561C45.723 4.49561 54.0015 11.3536 54.0015 20.2456C54.0015 24.8911 51.711 29.0116 48.1635 31.8601L46.584 32.9896L47.2515 34.1761C47.7495 34.9576 48.345 35.7226 49.059 36.4366C50.0025 37.3786 49.3335 38.9971 48.0015 38.9971C45.309 38.9971 42.831 37.9366 40.794 36.6346L39.4695 35.6851L38.0775 35.8951C37.395 35.9626 36.7035 35.9971 36.0015 35.9971C35.2875 35.9971 34.584 35.9611 33.891 35.8906L32.5305 35.6821L31.2045 36.6346C29.166 37.9366 26.688 38.9971 24 38.9971C22.6665 38.9956 21.9975 37.3771 22.941 36.4351ZM31.2195 32.9356C31.5675 32.6581 32.022 32.5501 32.457 32.6401C33.591 32.8741 34.7775 32.9956 36.0015 32.9956C37.2075 32.9956 38.3775 32.8756 39.504 32.6476L39.564 32.6356C39.9945 32.5531 40.44 32.6611 40.782 32.9356C41.832 33.7741 42.9945 34.5391 44.214 35.0956L44.3565 35.1541L43.905 34.3636C43.6635 33.8896 43.449 33.4201 43.2585 32.9581C42.9645 32.2456 43.26 31.4266 43.941 31.0621C44.5335 30.7486 44.787 30.5926 44.8575 30.5401L44.961 30.4666C48.687 28.1011 51.003 24.3646 51.003 20.2471C51.003 13.4086 44.4945 7.49711 36.003 7.49711C27.5085 7.49711 21.003 13.4086 21.003 20.2471C21.003 24.7276 23.7465 28.7656 28.0635 31.0636C28.743 31.4281 29.04 32.2471 28.746 32.9596C28.5555 33.4216 28.3395 33.8911 28.098 34.3651L27.6435 35.1556L27.7875 35.0971C29.0055 34.5391 30.1665 33.7726 31.2195 32.9356Z" fill="#15130E"/>
<path fill-rule="evenodd" clip-rule="evenodd" d="M33.4395 25.0575L28.9395 20.5575C28.353 19.971 28.353 19.0215 28.9395 18.435C29.526 17.8485 30.4755 17.8485 31.062 18.435L34.5015 21.8745L42.4395 13.935C43.026 13.3485 43.9755 13.3485 44.562 13.935C45.1485 14.5215 45.1485 15.471 44.562 16.0575L35.562 25.0575C34.9755 25.6425 34.0245 25.6425 33.4395 25.0575Z" fill="#15130E"/>
</g>
<defs>
<clipPath id="clip0_4977_7990">
<rect width="72" height="72" fill="white"/>
</clipPath>
</defs>
</svg>
