<svg width="97" height="15" viewBox="0 0 97 15" fill="none" xmlns="http://www.w3.org/2000/svg">
<path d="M90.147 3.23715C89.5402 1.57647 89.2367 0.746135 88.7343 0.621007C88.5796 0.582474 88.4178 0.582474 88.263 0.621007C87.7606 0.746135 87.4572 1.57647 86.8503 3.23715L86.3151 4.70167C86.2041 5.0054 86.1486 5.15727 86.0375 5.25717C86.0011 5.28984 85.9609 5.31796 85.9177 5.34088C85.7858 5.41097 85.6241 5.41097 85.3007 5.41097H84.1784C82.1323 5.41097 81.1093 5.41097 80.8235 5.8732C80.7361 6.01452 80.6863 6.17583 80.6788 6.34182C80.6542 6.88472 81.499 7.46159 83.1888 8.61533L83.8524 9.06849C84.1474 9.26991 84.2949 9.37062 84.3645 9.5174C84.3872 9.56525 84.4035 9.61589 84.4129 9.66801C84.4417 9.82788 84.3804 9.99563 84.2578 10.3311L83.9004 11.3092C83.2464 13.0989 82.9193 13.9937 83.2398 14.4175C83.3381 14.5475 83.4675 14.6508 83.616 14.7179C84.1002 14.9366 84.9005 14.4197 86.501 13.3858L87.9127 12.4739C88.1647 12.3111 88.2908 12.2296 88.43 12.2136C88.4756 12.2084 88.5217 12.2084 88.5673 12.2136C88.7065 12.2296 88.8326 12.3111 89.0847 12.4739L90.4963 13.3858C92.0968 14.4197 92.8971 14.9366 93.3813 14.7179C93.5298 14.6508 93.6592 14.5475 93.7575 14.4175C94.078 13.9937 93.751 13.0989 93.097 11.3092L92.7355 10.3202C92.6145 9.98901 92.554 9.82343 92.5816 9.66512C92.5907 9.61349 92.6064 9.56326 92.6285 9.51572C92.6962 9.36996 92.8404 9.26859 93.1289 9.06586L93.7891 8.60181C95.4288 7.44937 96.2487 6.87314 96.2199 6.33391C96.211 6.16888 96.1604 6.0088 96.0727 5.86871C95.7863 5.41097 94.7842 5.41097 92.78 5.41097H91.6966C91.3733 5.41097 91.2116 5.41097 91.0796 5.34088C91.0364 5.31796 90.9962 5.28984 90.9599 5.25717C90.8487 5.15727 90.7932 5.0054 90.6822 4.70167L90.147 3.23715Z" fill="black"/>
<path d="M70.147 3.23715C69.5402 1.57647 69.2367 0.746135 68.7343 0.621007C68.5796 0.582474 68.4178 0.582474 68.263 0.621007C67.7606 0.746135 67.4572 1.57647 66.8503 3.23715L66.3151 4.70167C66.2041 5.0054 66.1486 5.15727 66.0375 5.25717C66.0011 5.28984 65.9609 5.31796 65.9177 5.34088C65.7858 5.41097 65.6241 5.41097 65.3007 5.41097H64.1784C62.1323 5.41097 61.1093 5.41097 60.8235 5.8732C60.7361 6.01452 60.6863 6.17583 60.6788 6.34182C60.6542 6.88472 61.499 7.46159 63.1888 8.61533L63.8524 9.06849C64.1474 9.26991 64.2949 9.37062 64.3645 9.5174C64.3872 9.56525 64.4035 9.61589 64.4129 9.66801C64.4417 9.82788 64.3804 9.99563 64.2578 10.3311L63.9004 11.3092C63.2464 13.0989 62.9193 13.9937 63.2398 14.4175C63.3381 14.5475 63.4675 14.6508 63.616 14.7179C64.1002 14.9366 64.9005 14.4197 66.501 13.3858L67.9127 12.4739C68.1647 12.3111 68.2908 12.2296 68.43 12.2136C68.4756 12.2084 68.5217 12.2084 68.5673 12.2136C68.7065 12.2296 68.8326 12.3111 69.0847 12.4739L70.4963 13.3858C72.0968 14.4197 72.8971 14.9366 73.3813 14.7179C73.5298 14.6508 73.6592 14.5475 73.7575 14.4175C74.078 13.9937 73.751 13.0989 73.097 11.3092L72.7355 10.3202C72.6145 9.98901 72.554 9.82343 72.5816 9.66512C72.5907 9.61349 72.6064 9.56326 72.6285 9.51572C72.6962 9.36996 72.8404 9.26859 73.1289 9.06586L73.7891 8.60181C75.4288 7.44937 76.2487 6.87314 76.2199 6.33391C76.211 6.16888 76.1604 6.0088 76.0727 5.86871C75.7863 5.41097 74.7842 5.41097 72.78 5.41097H71.6966C71.3733 5.41097 71.2116 5.41097 71.0796 5.34088C71.0364 5.31796 70.9962 5.28984 70.9599 5.25717C70.8487 5.15727 70.7932 5.0054 70.6822 4.70167L70.147 3.23715Z" fill="black"/>
<path d="M50.147 3.23715C49.5402 1.57647 49.2367 0.746135 48.7343 0.621007C48.5796 0.582474 48.4178 0.582474 48.263 0.621007C47.7606 0.746135 47.4572 1.57647 46.8503 3.23715L46.3151 4.70167C46.2041 5.0054 46.1486 5.15727 46.0375 5.25717C46.0011 5.28984 45.9609 5.31796 45.9177 5.34088C45.7858 5.41097 45.6241 5.41097 45.3007 5.41097H44.1784C42.1323 5.41097 41.1093 5.41097 40.8235 5.8732C40.7361 6.01452 40.6863 6.17583 40.6788 6.34182C40.6542 6.88472 41.499 7.46159 43.1888 8.61533L43.8524 9.06849C44.1474 9.26991 44.2949 9.37062 44.3645 9.5174C44.3872 9.56525 44.4035 9.61589 44.4129 9.66801C44.4417 9.82788 44.3804 9.99563 44.2578 10.3311L43.9004 11.3092C43.2464 13.0989 42.9193 13.9937 43.2398 14.4175C43.3381 14.5475 43.4675 14.6508 43.616 14.7179C44.1002 14.9366 44.9005 14.4197 46.501 13.3858L47.9127 12.4739C48.1647 12.3111 48.2908 12.2296 48.43 12.2136C48.4756 12.2084 48.5217 12.2084 48.5673 12.2136C48.7065 12.2296 48.8326 12.3111 49.0847 12.4739L50.4963 13.3858C52.0968 14.4197 52.8971 14.9366 53.3813 14.7179C53.5298 14.6508 53.6592 14.5475 53.7575 14.4175C54.078 13.9937 53.751 13.0989 53.097 11.3092L52.7355 10.3202C52.6145 9.98901 52.554 9.82343 52.5816 9.66512C52.5907 9.61349 52.6064 9.56326 52.6285 9.51572C52.6962 9.36996 52.8404 9.26859 53.1289 9.06586L53.7891 8.60181C55.4288 7.44937 56.2487 6.87314 56.2199 6.33391C56.211 6.16888 56.1604 6.0088 56.0727 5.86871C55.7863 5.41097 54.7842 5.41097 52.78 5.41097H51.6966C51.3733 5.41097 51.2116 5.41097 51.0796 5.34088C51.0364 5.31796 50.9962 5.28984 50.9599 5.25717C50.8487 5.15727 50.7932 5.0054 50.6822 4.70167L50.147 3.23715Z" fill="black"/>
<path d="M30.147 3.23715C29.5402 1.57647 29.2367 0.746135 28.7343 0.621007C28.5796 0.582474 28.4178 0.582474 28.263 0.621007C27.7606 0.746135 27.4572 1.57647 26.8503 3.23715L26.3151 4.70167C26.2041 5.0054 26.1486 5.15727 26.0375 5.25717C26.0011 5.28984 25.9609 5.31796 25.9177 5.34088C25.7858 5.41097 25.6241 5.41097 25.3007 5.41097H24.1784C22.1323 5.41097 21.1093 5.41097 20.8235 5.8732C20.7361 6.01452 20.6863 6.17583 20.6788 6.34182C20.6542 6.88472 21.499 7.46159 23.1888 8.61533L23.8524 9.06849C24.1474 9.26991 24.2949 9.37062 24.3645 9.5174C24.3872 9.56525 24.4035 9.61589 24.4129 9.66801C24.4417 9.82788 24.3804 9.99563 24.2578 10.3311L23.9004 11.3092C23.2464 13.0989 22.9193 13.9937 23.2398 14.4175C23.3381 14.5475 23.4675 14.6508 23.616 14.7179C24.1002 14.9366 24.9005 14.4197 26.501 13.3858L27.9127 12.4739C28.1647 12.3111 28.2908 12.2296 28.43 12.2136C28.4756 12.2084 28.5217 12.2084 28.5673 12.2136C28.7065 12.2296 28.8326 12.3111 29.0847 12.4739L30.4963 13.3858C32.0968 14.4197 32.8971 14.9366 33.3813 14.7179C33.5298 14.6508 33.6592 14.5475 33.7575 14.4175C34.078 13.9937 33.751 13.0989 33.097 11.3092L32.7355 10.3202C32.6145 9.98901 32.554 9.82343 32.5816 9.66512C32.5907 9.61349 32.6064 9.56326 32.6285 9.51572C32.6962 9.36996 32.8404 9.26859 33.1289 9.06586L33.7891 8.60181C35.4288 7.44937 36.2487 6.87314 36.2199 6.33391C36.211 6.16888 36.1604 6.0088 36.0727 5.86871C35.7863 5.41097 34.7842 5.41097 32.78 5.41097H31.6966C31.3733 5.41097 31.2116 5.41097 31.0796 5.34088C31.0364 5.31796 30.9962 5.28984 30.9599 5.25717C30.8487 5.15727 30.7932 5.0054 30.6822 4.70167L30.147 3.23715Z" fill="black"/>
<path d="M10.147 3.23715C9.54016 1.57647 9.23671 0.746135 8.73429 0.621007C8.57957 0.582474 8.41776 0.582474 8.26304 0.621007C7.76062 0.746135 7.45718 1.57647 6.85029 3.23715L6.31509 4.70167C6.20409 5.0054 6.14859 5.15727 6.03746 5.25717C6.00112 5.28984 5.96091 5.31796 5.91774 5.34088C5.78577 5.41097 5.62408 5.41097 5.3007 5.41097H4.17839C2.13234 5.41097 1.10932 5.41097 0.823507 5.8732C0.73612 6.01452 0.686302 6.17583 0.678778 6.34182C0.654173 6.88472 1.49903 7.46159 3.18876 8.61533L3.85244 9.06849C4.14743 9.26991 4.29492 9.37062 4.36454 9.5174C4.38723 9.56525 4.40349 9.61589 4.41289 9.66801C4.44173 9.82788 4.38043 9.99563 4.25783 10.3311L3.90038 11.3092C3.24636 13.0989 2.91934 13.9937 3.23983 14.4175C3.33815 14.5475 3.4675 14.6508 3.61604 14.7179C4.10023 14.9366 4.9005 14.4197 6.50104 13.3858L7.91265 12.4739C8.16475 12.3111 8.2908 12.2296 8.42999 12.2136C8.47563 12.2084 8.52171 12.2084 8.56734 12.2136C8.70654 12.2296 8.83259 12.3111 9.08468 12.4739L10.4963 13.3858C12.0968 14.4197 12.8971 14.9366 13.3813 14.7179C13.5298 14.6508 13.6592 14.5475 13.7575 14.4175C14.078 13.9937 13.751 13.0989 13.097 11.3092L12.7355 10.3202C12.6145 9.98901 12.554 9.82343 12.5816 9.66512C12.5907 9.61349 12.6064 9.56326 12.6285 9.51572C12.6962 9.36996 12.8404 9.26859 13.1289 9.06586L13.7891 8.60181C15.4288 7.44937 16.2487 6.87314 16.2199 6.33391C16.211 6.16888 16.1604 6.0088 16.0727 5.86871C15.7863 5.41097 14.7842 5.41097 12.78 5.41097H11.6966C11.3733 5.41097 11.2116 5.41097 11.0796 5.34088C11.0364 5.31796 10.9962 5.28984 10.9599 5.25717C10.8487 5.15727 10.7932 5.0054 10.6822 4.70167L10.147 3.23715Z" fill="black"/>
</svg>
