<svg width="87" height="86" viewBox="0 0 87 86" fill="none" xmlns="http://www.w3.org/2000/svg">
<path opacity="0.35" d="M58.0744 60.2268H27.9286C24.3606 60.2268 21.4688 57.335 21.4688 53.767V32.2342C21.4688 28.6663 24.3606 25.7744 27.9286 25.7744H58.0744C61.6424 25.7744 64.5343 28.6663 64.5343 32.2342V53.767C64.5343 57.335 61.6424 60.2268 58.0744 60.2268Z" fill="#FF6262"/>
<path d="M38.5701 42.4946L21.4688 32.2342C21.4688 28.6663 24.3606 25.7744 27.9286 25.7744H58.0744C61.6424 25.7744 64.5343 28.6663 64.5343 32.2342L47.4329 42.4946C44.7047 44.1311 41.2983 44.1311 38.5701 42.4946Z" fill="#FF6262"/>
<rect opacity="0.1" x="0.00195312" width="86" height="86" fill="#FF6262"/>
</svg>
