<svg width="50" height="51" viewBox="0 0 50 51" fill="none" xmlns="http://www.w3.org/2000/svg">
<circle cx="25" cy="25.5" r="25" fill="#F2F2F2"/>
<path opacity="0.5" d="M13.0725 31.97L16.2117 14.3515C16.2336 14.2185 16.2821 14.0912 16.3542 13.9769C16.4263 13.8627 16.5206 13.7638 16.6317 13.6861C16.7428 13.6083 16.8684 13.5533 17.0011 13.5241C17.1339 13.4949 17.2712 13.4922 17.4051 13.5161L24.5655 14.7627C24.836 14.8128 25.0759 14.9661 25.2336 15.1896C25.3913 15.413 25.4541 15.6889 25.4087 15.9578L22.2565 33.6792C22.0406 34.8725 21.3619 35.9346 20.3655 36.6383C19.3691 37.3421 18.1342 37.6314 16.9251 37.4445C14.3437 37.0333 12.6185 34.5274 13.0725 31.97Z" fill="#9BBEA2"/>
<path d="M13.0725 31.97L16.2117 14.3515C16.2336 14.2185 16.2821 14.0912 16.3542 13.9769C16.4263 13.8627 16.5206 13.7638 16.6317 13.6861C16.7428 13.6083 16.8684 13.5533 17.0011 13.5241C17.1339 13.4949 17.2712 13.4922 17.4051 13.5161L24.5655 14.7627C24.836 14.8128 25.0759 14.9661 25.2336 15.1896C25.3913 15.413 25.4541 15.6889 25.4087 15.9578L22.2565 33.6792C22.0406 34.8725 21.3619 35.9346 20.3655 36.6383C19.3691 37.3421 18.1342 37.6314 16.9251 37.4445C14.3437 37.0333 12.6185 34.5274 13.0725 31.97Z" stroke="black" stroke-width="1.4" stroke-linecap="round" stroke-linejoin="round"/>
<path d="M23.6575 25.7758L33.1139 22.3703C33.2424 22.3233 33.3791 22.3019 33.5161 22.3075C33.653 22.3131 33.7875 22.3455 33.9117 22.4029C34.0359 22.4602 34.1474 22.5414 34.2398 22.6417C34.3322 22.7419 34.4036 22.8594 34.45 22.9871L36.9405 29.7467C37.0324 30.0024 37.0185 30.2836 36.9019 30.5292C36.7852 30.7747 36.5753 30.9646 36.3179 31.0575L19.2471 37.2131" stroke="black" stroke-width="1.4" stroke-linecap="round" stroke-linejoin="round"/>
<path d="M36.8486 30.6211V36.4682C36.8486 36.7409 36.7393 37.0024 36.5446 37.1952C36.35 37.388 36.0861 37.4963 35.8109 37.4963H17.6504" stroke="black" stroke-width="1.4" stroke-linecap="round" stroke-linejoin="round"/>
<path d="M17.6523 34.4123C18.512 34.4123 19.2089 33.7219 19.2089 32.8702C19.2089 32.0185 18.512 31.3281 17.6523 31.3281C16.7926 31.3281 16.0957 32.0185 16.0957 32.8702C16.0957 33.7219 16.7926 34.4123 17.6523 34.4123Z" fill="black"/>
</svg>
