<svg height="20" viewBox="0 0 20 20" width="20" xmlns="http://www.w3.org/2000/svg"><path d="m4 0h12a4 4 0 0 1 4 4v12a4 4 0 0 1 -4 4h-12a4 4 0 0 1 -4-4v-12a4 4 0 0 1 4-4zm0 2a2 2 0 0 0 -2 2v12a2 2 0 0 0 2 2h12a2 2 0 0 0 2-2v-12a2 2 0 0 0 -2-2zm1.229 16h-1.229a2 2 0 0 1 -.813-.172 5.58 5.58 0 0 1 3.347-3.758 1 1 0 0 1 .785 1.84l-.052.02a3.579 3.579 0 0 0 -2.038 2.07zm9.512 0a3.658 3.658 0 0 0 -2.1-2.066 1 1 0 0 1 .656-1.889l.056.021a5.659 5.659 0 0 1 3.437 3.77 1.993 1.993 0 0 1 -.79.164h-1.26zm-4.741-14a4 4 0 0 1 4 4v2a4 4 0 0 1 -8 0v-2a4 4 0 0 1 4-4zm0 2a2 2 0 0 0 -2 2v2a2 2 0 0 0 4 0v-2a2 2 0 0 0 -2-2z" fill="#011d26"/></svg>