<svg width="72" height="72" viewBox="0 0 72 72" fill="none" xmlns="http://www.w3.org/2000/svg">
<path d="M0 64.8C11.9294 64.8 21.6 55.1293 21.6 43.2001C21.6 31.2706 11.9294 21.6 0 21.6V36.7199C3.57878 36.7199 6.47996 39.6211 6.47996 43.2001C6.47996 46.7788 3.57878 49.68 0 49.68V64.8Z" fill="#A88343"/>
<path d="M72 28.7999C68.3089 27.6306 64.3783 26.9998 60.3 26.9998C38.9265 26.9998 21.6001 44.3265 21.6001 65.6997C21.6001 67.8451 21.7747 69.9496 22.1103 71.9998H46.1558C45.2975 70.0754 44.8202 67.9434 44.8202 65.6997C44.8202 57.1504 51.7507 50.2197 60.3 50.2197C64.9727 50.2197 69.1617 52.2901 72 55.5634V28.7999Z" fill="#A88343"/>
<path d="M3.79736 0C5.58815 16.1998 19.3225 28.8001 35.9997 28.8001C52.6766 28.8001 66.4111 16.1998 68.2018 0H45.031C43.6006 3.58599 40.0959 6.11998 35.9997 6.11998C31.9032 6.11998 28.3988 3.58599 26.9681 0H3.79736Z" fill="#A88343"/>
</svg>
