<svg width="70" height="70" viewBox="0 0 70 70" fill="none" xmlns="http://www.w3.org/2000/svg">
<g clip-path="url(#clip0_172_528)">
<path d="M46.9737 0C45.5181 0 45.5038 2.18559 46.982 2.18537C55.0842 2.18417 62.4451 6.8742 65.8679 14.2123C69.2908 21.5505 68.1421 30.1972 62.9328 36.4014C58.2529 41.9752 51.06 44.6482 43.9721 43.6176L45.6981 42.3807C46.9166 41.5006 45.6425 39.7396 44.4291 40.6033L40.6588 43.3014C40.1608 43.6515 40.0446 44.3411 40.4004 44.8352L43.1048 48.6056C43.9508 49.8154 45.7571 48.5192 44.8821 47.3303L43.7884 45.8051C51.5761 46.8895 59.4728 43.9276 64.6119 37.807C70.3641 30.956 71.6239 21.3913 67.8439 13.2873C63.8672 4.85237 55.5919 0 46.9737 0ZM47.0303 7.64558C38.5844 7.64558 31.7225 14.5404 31.7225 23.0115C31.7225 31.4826 38.5844 38.3753 47.0303 38.3753C55.4763 38.3753 62.3467 31.4826 62.3467 23.0115C62.3467 14.5404 55.4763 7.64558 47.0303 7.64558ZM47.0303 9.83521C54.2896 9.83521 60.1593 15.7182 60.1593 23.0115C60.1593 30.3048 54.2896 36.1878 47.0303 36.1878C39.771 36.1878 33.912 30.3048 33.912 23.0115C33.912 15.7182 39.771 9.83521 47.0303 9.83521ZM47.0345 13.1271C46.4985 13.124 45.9606 13.4843 45.9365 14.2188V15.3638C43.7937 15.8464 42.1661 17.7132 42.1661 20.0037C42.1661 21.6163 42.98 22.5381 43.9584 23.0158C44.9367 23.4935 45.9781 23.5627 46.9212 23.6609C47.8644 23.7593 48.7129 23.8858 49.1493 24.0988C49.4192 24.2489 49.7154 24.394 49.7154 25.1392C49.7154 26.5357 48.5654 27.7015 47.0751 27.7155C45.824 27.6907 44.8424 26.9226 44.4262 25.5515C43.9464 24.1736 41.9398 24.8124 42.337 26.2137C43.0408 28.3938 44.5052 29.3982 45.9365 29.7663V30.625C46.0146 32.1032 48.1025 32.0499 48.1239 30.625V29.7769C50.271 29.2959 51.9028 27.4072 51.9028 25.1392C51.9028 23.5479 51.0889 22.6134 50.1106 22.1356C49.1322 21.6579 48.0908 21.5887 47.1477 21.4905C46.2046 21.3921 45.356 21.2594 44.9196 21.0462C44.5951 20.8878 44.3535 20.6778 44.3535 20.0037C44.3535 18.5816 45.5036 17.467 46.9939 17.453C48.3347 17.5051 49.2052 18.2096 49.6427 19.5935C50.1099 20.945 52.1072 20.3704 51.7341 18.9377C51.1925 17.225 50.0407 15.8736 48.1239 15.3873V14.2188C48.1033 13.4969 47.5704 13.1303 47.0345 13.1271ZM15.7779 46.0443C14.5236 46.6448 13.4858 47.1759 12.7018 47.5995C12.1344 46.6098 11.0613 45.9397 9.84995 45.9397H3.28758C1.44645 45.9397 0 47.4284 0 49.2273V64.5335C0 66.3324 1.45852 67.8211 3.28758 67.8211H9.84993C11.6488 67.8211 13.1294 66.3726 13.1268 64.5335L13.129 64.3454C15.2625 63.9998 17.2964 63.5353 19.6914 63.4439C21.0435 63.4439 23.5729 65.3601 25.2155 66.5201C27.5562 68.1723 30.0775 70 32.8118 70C33.6349 70 34.4595 69.7292 35.5483 69.3228C41.5318 67.0858 54.153 59.9455 61.505 55.6445C63.1329 54.7443 63.8055 52.8095 63.2439 51.1199C63.1637 50.8785 63.0591 50.6404 62.9276 50.4128C61.9192 48.6662 59.8722 48.2409 57.8819 48.9196L42.5762 54.2196C42.3083 53.0863 41.5877 52.0712 40.5062 51.4468C36.2283 49.1529 31.793 46.796 27.4178 45.0124C26.0417 44.4897 24.4199 43.7664 22.834 43.7507C21.2482 43.7351 18.1763 44.8961 15.7779 46.0443ZM26.6042 47.0377C31.0877 48.9416 35.0151 50.9541 39.4084 53.3439C40.6357 54.0525 40.7126 55.4703 40.2159 56.3303C39.6329 57.3403 38.2869 57.7468 37.221 57.1314L30.5903 53.3033C29.292 52.4245 28.0895 54.5111 29.5008 55.1939L36.1294 59.0198C38.212 60.2223 40.9041 59.5047 42.1065 57.4219C42.264 57.1491 42.3958 56.8565 42.4888 56.5675L58.5978 50.9855C60.0046 50.5068 60.8363 50.9979 61.1313 51.7054C61.4265 52.4131 61.1846 53.3376 60.4477 53.7305C51.8929 58.6616 40.759 64.9896 34.7836 67.2721C33.7883 67.6433 32.9836 67.8211 32.8119 67.8211C31.1713 67.8211 28.7815 66.3654 26.4739 64.7364C24.9087 63.683 22.0828 61.2959 19.6915 61.2565C17.922 61.2606 15.0432 61.7717 13.1292 62.1238V49.8682C13.1292 49.8682 14.9551 48.8524 16.7115 48.0225C18.98 46.9506 21.4691 45.9397 22.7175 45.9479C23.966 45.9562 25.5203 46.6013 26.6042 47.0377ZM3.28775 48.1272H9.8501C10.4899 48.1272 10.9394 48.6451 10.9394 49.2295C10.9394 54.8819 10.9416 63.4474 10.9416 64.5335C10.9416 65.1284 10.4599 65.6334 9.85212 65.6336L3.28762 65.6358C2.70117 65.636 2.18966 65.1583 2.18957 64.5335L2.18746 49.2273C2.18737 48.5554 2.72763 48.1272 3.28775 48.1272ZM4.3772 62.3481C4.37718 62.9522 4.86691 63.4418 5.47091 63.4418C6.07492 63.4418 6.56677 62.9821 6.56677 62.3481C6.56677 61.7141 6.06212 61.2544 5.45938 61.2544C4.85665 61.2544 4.37722 61.744 4.3772 62.3481Z" fill="#0B0C0E"/>
</g>
<defs>
<clipPath id="clip0_172_528">
<rect width="70" height="70" fill="white"/>
</clipPath>
</defs>
</svg>
