<svg width="60" height="60" viewBox="0 0 60 60" fill="none" xmlns="http://www.w3.org/2000/svg">
<g id="commitment">
<g id="Group">
<path id="Vector" d="M36.623 40.979L41.9908 44.0781" stroke="#1A9705" stroke-width="1.75781" stroke-miterlimit="10" stroke-linecap="round" stroke-linejoin="round"/>
<path id="Vector_2" d="M39.5332 35.9392L45.9875 39.6655" stroke="#1A9705" stroke-width="1.75781" stroke-miterlimit="10" stroke-linecap="round" stroke-linejoin="round"/>
<path id="Vector_3" d="M35.1918 24.9388C35.0648 25.4504 34.8324 25.9204 34.519 26.3245" stroke="#1A9705" stroke-width="1.75781" stroke-miterlimit="10" stroke-linecap="round" stroke-linejoin="round"/>
<path id="Vector_4" d="M33.6963 46.0093L36.3949 47.5673" stroke="#1A9705" stroke-width="1.75781" stroke-miterlimit="10" stroke-linecap="round" stroke-linejoin="round"/>
<path id="Vector_5" d="M15.1792 17.8796L16.5335 18.6614C16.6123 18.7069 16.6393 18.8077 16.5938 18.8866L7.39975 34.8109C7.35428 34.8898 7.2535 34.9167 7.17463 34.8713L0.961349 31.2841C0.882482 31.2386 0.855528 31.1378 0.900997 31.0589L10.0949 15.1344C10.1404 15.0556 10.2412 15.0286 10.3201 15.0741L11.6151 15.8219" stroke="#1A9705" stroke-width="1.75781" stroke-miterlimit="10" stroke-linecap="round" stroke-linejoin="round"/>
<g id="Group_2">
<g id="Group_3">
<circle id="Ellipse" cx="11.8538" cy="19.5919" r="0.878906" fill="#1A9705"/>
</g>
</g>
<path id="Vector_6" d="M59.0387 31.2841C59.1176 31.2386 59.1445 31.1378 59.0991 31.0589L49.9051 15.1344C49.8596 15.0556 49.7588 15.0286 49.68 15.0741L43.4667 18.6613C43.3879 18.7068 43.3609 18.8076 43.4064 18.8864L52.6003 34.8109C52.6458 34.8898 52.7466 34.9167 52.8254 34.8713L59.0387 31.2841Z" stroke="#1A9705" stroke-width="1.75781" stroke-miterlimit="10" stroke-linecap="round" stroke-linejoin="round"/>
<g id="Group_4">
<g id="Group_5">
<circle id="Ellipse_2" cx="48.1465" cy="19.5919" r="0.878906" fill="#1A9705"/>
</g>
</g>
<path id="Vector_7" d="M14.605 32.3724C14.4255 32.4331 14.2492 32.5122 14.0788 32.6107L10.8017 34.5028C9.79106 35.0863 9.44489 36.3785 10.0282 37.3891L10.8251 38.7694C11.4086 39.78 12.7008 40.1261 13.7115 39.5428L16.9886 37.6507C18.3537 36.8626 18.8386 35.1353 18.0984 33.7562" stroke="#1A9705" stroke-width="1.75781" stroke-miterlimit="10" stroke-linecap="round" stroke-linejoin="round"/>
<path id="Vector_8" d="M17.0717 44.3226L19.2986 43.0369C20.6903 42.2334 21.1671 40.4538 20.3636 39.062C19.56 37.6703 17.7804 37.1935 16.3887 37.997L14.1618 39.2827C13.1512 39.8662 12.805 41.1584 13.3884 42.169L14.1852 43.5493C14.7688 44.5598 16.0611 44.9061 17.0717 44.3226Z" stroke="#1A9705" stroke-width="1.75781" stroke-miterlimit="10" stroke-linecap="round" stroke-linejoin="round"/>
<path id="Vector_9" d="M21.5863 48.4359L23.6634 47.2368C25.0551 46.4332 25.5319 44.6536 24.7284 43.2619C23.9248 41.8702 22.1452 41.3933 20.7535 42.1969L18.6764 43.3961C17.6658 43.9795 17.3196 45.2718 17.903 46.2824L18.6999 47.6626C19.2836 48.6732 20.5758 49.0194 21.5863 48.4359Z" stroke="#1A9705" stroke-width="1.75781" stroke-miterlimit="10" stroke-linecap="round" stroke-linejoin="round"/>
<path id="Vector_10" d="M26.5729 52.2767L28.0498 51.424C29.4415 50.6205 29.9184 48.8408 29.1148 47.4491C28.3113 46.0574 26.5316 45.5806 25.1399 46.3841L23.663 47.2368C22.6524 47.8203 22.3062 49.1125 22.8896 50.1231L23.6865 51.5033C24.27 52.5139 25.5623 52.8601 26.5729 52.2767Z" stroke="#1A9705" stroke-width="1.75781" stroke-miterlimit="10" stroke-linecap="round" stroke-linejoin="round"/>
<path id="Vector_11" d="M29.9386 13.8227C29.0451 13.8227 28.3208 13.0983 28.3208 12.2049V8.96946C28.3208 8.07602 29.0451 7.35168 29.9386 7.35168C30.832 7.35168 31.5563 8.07602 31.5563 8.96946V12.2049C31.5562 13.0984 30.832 13.8227 29.9386 13.8227Z" stroke="#1A9705" stroke-width="1.75781" stroke-miterlimit="10" stroke-linecap="round" stroke-linejoin="round"/>
<path id="Vector_12" d="M37.2183 15.2235C36.4445 14.7768 36.1795 13.7874 36.6262 13.0137L38.244 10.2117C38.6907 9.43795 39.6801 9.17288 40.4538 9.61959C41.2276 10.0663 41.4926 11.0557 41.0459 11.8294L39.4281 14.6314C38.9814 15.4051 37.9921 15.6702 37.2183 15.2235Z" stroke="#1A9705" stroke-width="1.75781" stroke-miterlimit="10" stroke-linecap="round" stroke-linejoin="round"/>
<path id="Vector_13" d="M22.6591 15.2235C23.4329 14.7768 23.698 13.7874 23.2512 13.0137L21.6335 10.2117C21.1867 9.43795 20.1973 9.17288 19.4237 9.61959C18.6499 10.0663 18.3848 11.0557 18.8315 11.8294L20.4493 14.6314C20.896 15.4051 21.8854 15.6702 22.6591 15.2235Z" stroke="#1A9705" stroke-width="1.75781" stroke-miterlimit="10" stroke-linecap="round" stroke-linejoin="round"/>
<path id="Vector_14" d="M29.2183 50.1636L29.6166 50.3735L33.0653 52.3646C34.0895 52.9559 35.3996 52.5916 35.9713 51.5564L36.7421 50.161C37.2987 49.1532 36.9461 47.8854 35.949 47.3096L33.9904 46.1788L38.7544 48.9293C39.7785 49.5206 41.0885 49.1563 41.6604 48.121L42.4312 46.7258C42.9878 45.718 42.6352 44.45 41.6381 43.8744L38.7312 42.1959L43.0426 44.6851C44.0533 45.2686 45.3455 44.9223 45.929 43.9117L46.7258 42.5314C47.3092 41.5209 46.9631 40.2289 45.9529 39.6453L43.3165 38.1226L46.6218 40.0313C47.6538 40.6274 48.9744 40.2522 49.5392 39.2027L50.2946 37.7988C50.8357 36.7929 50.4795 35.539 49.4903 34.9679L49.4042 34.9182" stroke="#1A9705" stroke-width="1.75781" stroke-miterlimit="10" stroke-linecap="round" stroke-linejoin="round"/>
<path id="Vector_15" d="M8.11475 33.5731L10.3445 34.8581" stroke="#1A9705" stroke-width="1.75781" stroke-miterlimit="10" stroke-linecap="round" stroke-linejoin="round"/>
<path id="Vector_16" d="M22.0075 22.6217C20.8407 22.5925 19.693 22.2701 18.6718 21.6808L15.9021 20.0847" stroke="#1A9705" stroke-width="1.75781" stroke-miterlimit="10" stroke-linecap="round" stroke-linejoin="round"/>
<path id="Vector_17" d="M32.7534 19.4084L32.6239 19.3337C31.1012 18.4545 29.225 18.4545 27.7022 19.3337L20.0106 23.7745C19.5854 24.02 19.4397 24.5638 19.6852 24.9889L19.9718 25.4854C21.175 27.5694 23.8402 28.2833 25.9242 27.0802C26.423 26.7923 26.8686 26.5351 27.1804 26.3551C27.7175 26.045 28.4045 26.1334 28.8279 26.5866C29.5105 27.3174 30.4827 27.7743 31.5615 27.7743C32.7643 27.7743 33.8344 27.2066 34.5185 26.3244L37.8288 28.2356L43.2799 31.3828L49.4037 34.9183L51.8459 33.5049" stroke="#1A9705" stroke-width="1.75781" stroke-miterlimit="10" stroke-linecap="round" stroke-linejoin="round"/>
<path id="Vector_18" d="M44.1118 20.1089L41.4599 21.6365C39.9599 22.5023 38.112 22.5021 36.6121 21.6362L36.5552 21.6034" stroke="#1A9705" stroke-width="1.75781" stroke-miterlimit="10" stroke-linecap="round" stroke-linejoin="round"/>
</g>
</g>
</svg>
