<svg width="84" height="70" viewBox="0 0 84 70" fill="none" xmlns="http://www.w3.org/2000/svg">
<path d="M45.2789 41.7957H17.4149C7.66253 41.7957 0 49.4583 0 59.2106V66.1766C0 68.2664 1.39322 69.6596 3.48302 69.6596C5.57282 69.6596 6.96604 68.2664 6.96604 66.1766V59.2106C6.96604 53.2895 11.494 48.7616 17.415 48.7616H45.2789C51.2 48.7616 55.7279 53.2895 55.7279 59.2106V66.1766C55.7279 68.2664 57.1211 69.6596 59.2109 69.6596C61.3007 69.6596 62.694 68.2664 62.694 66.1766V59.2106C62.694 49.4582 55.0313 41.7957 45.279 41.7957H45.2789ZM31.3469 34.8297C41.0993 34.8297 48.7618 27.1671 48.7618 17.4148C48.7618 7.66244 41.0992 -0.000167976 31.3469 -0.000167976C21.5945 -0.000167976 13.9319 7.66244 13.9319 17.4148C13.9319 27.1671 21.5945 34.8297 31.3469 34.8297V34.8297ZM31.3469 6.96579C37.2679 6.96579 41.7958 11.4937 41.7958 17.4148C41.7958 23.3358 37.2679 27.8638 31.3469 27.8638C25.4258 27.8638 20.8979 23.3358 20.8979 17.4148C20.8979 11.4937 25.4258 6.96579 31.3469 6.96579ZM70.3564 42.4923C68.6149 42.144 66.5251 43.1889 66.1768 44.9304C65.8285 46.672 66.8734 48.7617 68.6149 49.11C73.1429 50.1549 76.2776 54.3345 76.2776 59.2107V66.1766C76.2776 68.2664 77.6708 69.6597 79.7606 69.6597C81.8504 69.6597 83.2436 68.2664 83.2436 66.1766V59.2107C83.5919 51.1998 78.3674 44.2338 70.3565 42.4923H70.3564ZM56.4244 0.696405C54.6829 -0.000166342 52.9414 1.04473 52.2448 3.13453C51.8965 4.876 52.9414 6.96579 54.6829 7.31412C60.2558 8.70734 63.7387 14.2801 62.3456 20.2012C61.3007 24.0325 58.5143 26.8189 54.6829 27.8638C52.9415 28.2122 51.5482 30.302 52.2448 32.0434C52.5931 33.7849 53.9863 34.8298 55.7278 34.8298C56.0762 34.8298 56.4244 34.8298 56.4244 34.8298C62.6938 33.0883 67.57 28.5604 68.9632 22.291C71.4013 12.5386 65.8285 2.78628 56.4244 0.696485V0.696405Z" fill="#DFA245"/>
</svg>
