<svg width="384" height="384" viewBox="0 0 384 384" fill="none" xmlns="http://www.w3.org/2000/svg">
<path d="M0 0H384V384H0V0Z" fill="#F4FFF8"/>
<path fill-rule="evenodd" clip-rule="evenodd" d="M190.402 38.5424C256.296 38.3932 316.97 76.8259 338.172 139.216C360.265 204.228 340.922 277.586 285.329 317.885C229.909 358.057 154.714 352.795 99.6844 312.091C46.122 272.472 23.706 203.117 44.6771 139.88C65.267 77.7938 124.99 38.6906 190.402 38.5424Z" fill="#E2FFEB"/>
<path d="M146.333 116.239C143.238 109.302 146.367 101.175 153.304 98.0811C160.24 95.0207 168.367 98.1151 171.462 105.052L166.361 107.33C165.477 105.324 163.845 103.794 161.839 103.012C159.798 102.23 157.588 102.298 155.582 103.182C151.467 105.018 149.597 109.846 151.433 113.961L146.333 116.239Z" fill="#34A769"/>
<path d="M225.936 287.109C220.665 287.109 215.633 284.049 213.354 278.948L218.455 276.67C219.339 278.676 220.971 280.206 222.978 280.988C225.018 281.77 227.228 281.702 229.234 280.818C231.241 279.934 232.771 278.336 233.553 276.296C234.335 274.256 234.267 272.045 233.383 270.039L238.483 267.761C239.98 271.127 240.082 274.868 238.755 278.302C237.429 281.736 234.845 284.457 231.513 285.919C229.71 286.735 227.806 287.109 225.936 287.109Z" fill="#34A769"/>
<path d="M106.242 171.02C102.807 169.693 100.087 167.109 98.6248 163.777C97.1286 160.41 97.0266 156.67 98.3528 153.236C101.073 146.163 109.064 142.626 116.137 145.347L114.131 150.549C109.914 148.917 105.188 151.025 103.555 155.242C102.773 157.282 102.841 159.492 103.725 161.499C104.61 163.505 106.242 165.035 108.248 165.817L106.242 171.02Z" fill="#34A769"/>
<path d="M273.61 239.606C271.978 239.606 270.311 239.3 268.679 238.688L270.685 233.485C272.726 234.267 274.936 234.199 276.942 233.315C278.948 232.431 280.479 230.799 281.261 228.792C282.043 226.752 281.975 224.542 281.091 222.536C280.207 220.529 278.574 218.999 276.568 218.217L278.574 213.015C282.009 214.341 284.729 216.925 286.191 220.257C287.687 223.624 287.789 227.364 286.463 230.765C284.389 236.239 279.152 239.606 273.61 239.606Z" fill="#34A769"/>
<path d="M111.071 239.266C105.8 239.266 100.767 236.205 98.4891 231.105C96.9929 227.738 96.8909 223.998 98.217 220.563C99.5432 217.129 102.128 214.409 105.46 212.947L107.704 218.047C105.698 218.931 104.168 220.529 103.386 222.57C102.604 224.61 102.672 226.82 103.556 228.826C105.392 232.941 110.22 234.811 114.335 232.975L116.613 238.075C114.845 238.892 112.941 239.266 111.071 239.266Z" fill="#34A769"/>
<path d="M279.356 171.088L277.078 165.987C279.084 165.103 280.614 163.505 281.397 161.464C282.179 159.424 282.111 157.214 281.226 155.208C279.39 151.093 274.562 149.223 270.447 151.059L268.169 145.959C275.106 142.898 283.233 146.027 286.327 152.929C289.421 159.832 286.293 167.993 279.356 171.088Z" fill="#34A769"/>
<path d="M158.575 286.973C156.942 286.973 155.276 286.667 153.644 286.055C146.571 283.335 143.035 275.344 145.755 268.271L150.958 270.277C150.176 272.317 150.244 274.528 151.128 276.534C152.012 278.54 153.61 280.07 155.65 280.852C159.867 282.485 164.593 280.376 166.225 276.16L171.428 278.166C169.32 283.641 164.083 286.973 158.575 286.973Z" fill="#34A769"/>
<path d="M239.095 115.729L233.893 113.723C234.675 111.683 234.607 109.472 233.723 107.466C232.839 105.46 231.206 103.93 229.2 103.148C224.984 101.55 220.257 103.624 218.625 107.84L213.422 105.834C216.143 98.7612 224.134 95.2248 231.206 97.9452C238.279 100.665 241.816 108.656 239.095 115.729Z" fill="#34A769"/>
<path d="M234.709 146.741C258.886 146.741 308.872 188.09 310.98 189.858C311.626 190.402 312 191.184 312 192C312 192.816 311.626 193.598 310.98 194.142C308.872 195.91 258.886 237.259 234.709 237.259V231.683C253.955 231.683 294.114 200.535 304.791 192C294.114 183.465 253.955 152.317 234.709 152.317V146.741V146.741Z" fill="#47CD70"/>
<path d="M149.291 152.317C130.045 152.317 89.8861 183.465 79.2089 192C89.8521 200.535 130.045 231.683 149.291 231.683V237.259C125.114 237.259 75.1284 195.91 73.0201 194.142C72.3741 193.598 72 192.816 72 192C72 191.184 72.3741 190.402 73.0201 189.858C75.1284 188.09 125.114 146.741 149.291 146.741V152.317V152.317Z" fill="#47CD70"/>
<path d="M190.164 129.773C207.268 112.669 271.841 106.582 274.595 106.344C275.412 106.276 276.228 106.582 276.806 107.16C277.384 107.738 277.69 108.554 277.622 109.37C277.384 112.125 271.297 176.698 254.193 193.802L250.249 189.858C263.85 176.256 270.243 125.828 271.739 112.261C258.172 113.757 207.71 120.15 194.108 133.751L190.164 129.773Z" fill="#47CD70"/>
<path d="M133.717 194.142C120.116 207.744 113.723 258.172 112.227 271.773C125.794 270.277 176.222 263.884 189.824 250.283L193.768 254.227C176.664 271.331 112.091 277.418 109.336 277.656C108.52 277.724 107.704 277.418 107.126 276.84C106.548 276.262 106.242 275.446 106.31 274.629C106.548 271.875 112.635 207.302 129.739 190.198L133.717 194.142Z" fill="#47CD70"/>
<path d="M146.707 149.291C146.707 125.114 188.056 75.1284 189.824 73.0201C190.368 72.374 191.15 72 191.966 72C192.782 72 193.565 72.374 194.109 73.0201C195.877 75.1284 237.226 125.114 237.226 149.291H231.649C231.649 130.045 200.501 89.8861 191.966 79.2088C183.431 89.8861 152.284 130.045 152.284 149.291H146.707Z" fill="#47CD70"/>
<path d="M152.284 234.709C152.284 253.955 183.431 294.114 191.966 304.791C200.501 294.114 231.649 253.955 231.649 234.709H237.226C237.226 258.886 195.877 308.872 194.109 310.98C193.565 311.626 192.782 312 191.966 312C191.15 312 190.368 311.626 189.824 310.98C188.056 308.872 146.707 258.886 146.707 234.709H152.284Z" fill="#47CD70"/>
<path d="M129.773 193.802C112.669 176.698 106.582 112.125 106.344 109.37C106.276 108.554 106.582 107.738 107.16 107.16C107.738 106.582 108.555 106.276 109.371 106.344C112.125 106.582 176.699 112.669 193.803 129.773L189.858 133.717C176.256 120.116 125.829 113.723 112.261 112.227C113.757 125.794 120.15 176.256 133.752 189.858L129.773 193.802Z" fill="#47CD70"/>
<path d="M194.109 250.249C207.71 263.85 258.138 270.243 271.74 271.739C270.243 258.172 263.851 207.744 250.249 194.142L254.194 190.198C271.298 207.302 277.384 271.875 277.622 274.629C277.69 275.446 277.384 276.262 276.806 276.84C276.228 277.418 275.412 277.724 274.596 277.656C271.842 277.418 207.268 271.331 190.164 254.227L194.109 250.249Z" fill="#47CD70"/>
<path d="M192.68 254.363C158.336 254.363 130.385 226.412 130.385 192.068C130.385 157.724 158.336 129.773 192.68 129.773C227.024 129.773 254.975 157.724 254.975 192.068C254.975 226.412 227.024 254.363 192.68 254.363ZM192.68 135.383C161.43 135.383 135.961 160.818 135.961 192.102C135.961 223.386 161.396 248.821 192.68 248.821C223.93 248.821 249.399 223.386 249.399 192.102C249.399 160.818 223.964 135.383 192.68 135.383Z" fill="#47CD70"/>
<path d="M192.68 223.692C175.236 223.692 161.057 209.512 161.057 192.068C161.057 174.624 175.236 160.444 192.68 160.444C210.124 160.444 224.304 174.624 224.304 192.068C224.304 209.512 210.124 223.692 192.68 223.692ZM192.68 166.021C178.331 166.021 166.633 177.718 166.633 192.068C166.633 206.418 178.331 218.115 192.68 218.115C207.03 218.115 218.727 206.418 218.727 192.068C218.727 177.718 207.064 166.021 192.68 166.021Z" fill="#34A769"/>
<path d="M192.68 206.418C184.791 206.418 178.365 199.991 178.365 192.102C178.365 184.179 184.791 177.752 192.68 177.752C200.569 177.752 207.03 184.179 207.03 192.102C207.03 199.991 200.603 206.418 192.68 206.418ZM192.68 183.329C187.852 183.329 183.941 187.273 183.941 192.102C183.941 196.931 187.852 200.841 192.68 200.841C197.509 200.841 201.453 196.931 201.453 192.102C201.453 187.239 197.509 183.329 192.68 183.329Z" fill="#34A769"/>
</svg>
