<svg width="32" height="32" viewBox="0 0 32 32" fill="none" xmlns="http://www.w3.org/2000/svg">
<path d="M16 2L8 18H13.5L12 30H16L24 14H18.5L20 2H16ZM4.29297 2.46484L1.46484 5.29297L5.70703 9.53516L8.53516 6.70703L4.29297 2.46484ZM27.707 2.46484L23.4648 6.70703L26.293 9.53516L30.5352 5.29297L27.707 2.46484ZM0 14V18H6V14H0ZM26 14V18H32V14H26ZM5.70703 22.4648L1.46484 26.707L4.29297 29.5352L8.53516 25.293L5.70703 22.4648ZM26.293 22.4648L23.4648 25.293L27.707 29.5352L30.5352 26.707L26.293 22.4648Z" fill="#52B5E9"/>
</svg>
