<svg width="49" height="36" viewBox="0 0 49 36" fill="none" xmlns="http://www.w3.org/2000/svg">
<path d="M35.75 10.075V8.9375C35.75 3.83906 28.0719 0 17.875 0C7.67812 0 0 3.83906 0 8.9375V17.0625C0 21.3078 5.32188 24.6797 13 25.6953V26.8125C13 31.9109 20.6781 35.75 30.875 35.75C41.0719 35.75 48.75 31.9109 48.75 26.8125V18.6875C48.75 14.4828 43.5906 11.1109 35.75 10.075ZM13 22.3844V17.5703C14.6166 17.7781 16.2451 17.8798 17.875 17.875C19.5049 17.8798 21.1334 17.7781 22.75 17.5703V22.3844C21.1373 22.6357 19.5071 22.7579 17.875 22.75C16.2429 22.7579 14.6127 22.6357 13 22.3844V22.3844ZM32.5 14.1984V17.0625C32.5 18.7687 29.9813 20.5969 26 21.7141V16.9609C28.6203 16.3313 30.8344 15.3766 32.5 14.1984V14.1984ZM3.25 17.0625V14.1984C4.91562 15.3766 7.12969 16.3313 9.75 16.9609V21.7141C5.76875 20.5969 3.25 18.7687 3.25 17.0625ZM16.25 26.8125V25.9594L17.875 26C18.674 26 19.4458 25.9797 20.1906 25.9391C21.0031 26.2234 21.8562 26.4672 22.75 26.6906V31.4641C18.7687 30.3469 16.25 28.5187 16.25 26.8125ZM26 32.1344V27.3C27.6164 27.5121 29.2447 27.6206 30.875 27.625C32.5049 27.6298 34.1334 27.5281 35.75 27.3203V32.1344C32.5183 32.6219 29.2317 32.6219 26 32.1344ZM39 31.4641V26.7109C41.6203 26.0813 43.8344 25.1266 45.5 23.9484V26.8125C45.5 28.5187 42.9813 30.3469 39 31.4641V31.4641Z" fill="white"/>
</svg>
