<svg width="100% " height="100%" viewBox="0 0 78 77" fill="none" xmlns="http://www.w3.org/2000/svg">
<path d="M73.6257 32.0216C71.5359 32.0216 70.1427 33.4148 70.1427 35.5046V38.6393C70.1427 56.0543 56.2107 69.9863 38.7957 69.9863C21.3808 69.9863 7.44879 56.0543 7.44879 38.6393C7.44879 21.2244 21.3808 7.2924 38.7957 7.2924C43.3236 7.2924 47.5032 8.33729 51.6828 10.0788C53.4243 10.7753 55.5141 10.0788 56.2107 8.33729C56.9074 6.59582 56.2107 4.50603 54.4693 3.80938C49.5931 1.71958 44.3686 0.326358 38.7958 0.326358C17.5495 0.326358 0.48291 17.393 0.48291 38.6393C0.48291 59.8855 17.5496 76.9521 38.7958 76.9521C60.0421 76.9521 77.1087 59.8855 77.1087 38.6393V35.5046C77.1087 33.4148 75.7155 32.0215 73.6257 32.0215V32.0216ZM30.7849 32.7183C29.3916 31.325 27.3018 31.325 25.9087 32.7183C24.5156 34.1115 24.5155 36.2013 25.9087 37.5944L36.3577 48.0434C37.0543 48.74 37.7509 49.0883 38.7958 49.0883C39.8407 49.0883 40.5373 48.74 41.2339 48.0434L76.0639 13.2135C77.4571 11.8202 77.4571 9.73044 76.0639 8.33729C74.6707 6.94415 72.5809 6.94407 71.1877 8.33729L38.7959 40.7291L30.785 32.7183H30.7849Z" fill="#dfa245"/>
</svg>
