<svg width="39" height="40" viewBox="0 0 39 40" fill="none" xmlns="http://www.w3.org/2000/svg">
<path fill-rule="evenodd" clip-rule="evenodd" d="M13.4678 10.5564C13.4091 10.5564 13.3505 10.5638 13.2918 10.5784C7.84681 11.9186 3.41748 17.8183 3.41748 23.7289C3.41748 31.1649 9.46748 37.2149 16.9053 37.2149C23.6098 37.2149 29.2125 32.4391 30.2281 25.8574C30.2355 25.8024 30.2611 25.6429 30.1108 25.4651C29.9678 25.2983 29.7405 25.1993 29.5021 25.1993C26.9153 25.1993 24.9408 25.2579 23.399 25.3019C19.6663 25.4138 18.1226 25.4559 16.5973 24.3248C14.2983 22.6216 14.104 19.6956 14.104 11.0899C14.104 10.9359 14.038 10.8076 13.906 10.7049C13.7831 10.6078 13.6273 10.5564 13.4678 10.5564ZM16.9053 39.9649C7.95131 39.9649 0.66748 32.6811 0.66748 23.7289C0.66748 16.6303 6.03548 9.53158 12.6336 7.90725C13.664 7.65608 14.7713 7.89075 15.6036 8.53975C16.3975 9.16308 16.854 10.0926 16.854 11.0899C16.854 19.1291 17.1253 21.2924 18.2345 22.1156C18.9623 22.6528 19.9596 22.6473 23.3201 22.5538C24.8821 22.5079 26.8823 22.4493 29.5021 22.4493C30.5471 22.4493 31.5316 22.8966 32.199 23.6758C32.8186 24.3999 33.09 25.3459 32.947 26.2773C31.7223 34.2064 24.9756 39.9649 16.9053 39.9649Z" fill="#7147E9"/>
<mask id="mask0_79_3627" style="mask-type:luminance" maskUnits="userSpaceOnUse" x="19" y="0" width="20" height="20">
<path fill-rule="evenodd" clip-rule="evenodd" d="M19.8691 0.834473H38.9706V19.6982H19.8691V0.834473Z" fill="white"/>
</mask>
<g mask="url(#mask0_79_3627)">
<path fill-rule="evenodd" clip-rule="evenodd" d="M22.6865 3.58669C22.4849 8.20486 22.7837 14.1705 22.923 16.5337C22.9304 16.6749 23.033 16.7775 23.1724 16.7849C25.057 16.893 31.5507 17.1937 36.2202 16.5062C36.2312 13.9322 34.4694 10.4415 31.8165 7.79052C29.0959 5.07352 25.8765 3.58669 22.7269 3.58669H22.6865ZM28.7439 19.698C26.3422 19.698 24.2284 19.6009 23.0129 19.5312C21.4839 19.4414 20.2665 18.2222 20.1785 16.6932C20.0355 14.2695 19.7257 8.11136 19.9457 3.34836C20.0062 1.96419 21.1245 0.862356 22.4922 0.838522C26.41 0.724856 30.4525 2.54352 33.7599 5.84536C36.9829 9.06652 39.0289 13.2997 38.9702 16.6309C38.9482 17.9307 38.004 19.016 36.728 19.2085C34.2384 19.5844 31.3234 19.698 28.7439 19.698Z" fill="#7147E9"/>
</g>
</svg>
