<?xml version="1.0" encoding="UTF-8"?> <svg xmlns="http://www.w3.org/2000/svg" width="74" height="51" viewBox="0 0 74 51" fill="none"><rect y="1" width="74" height="50" fill="#FAF4E8"></rect><path d="M52.2079 28.5743C54.2529 23.4318 54.1493 17.6553 51.8877 12.6349L45.0602 12.5C44.9472 12.4978 44.8541 12.5884 44.8533 12.7015L44.7958 21.0768C44.7954 21.1311 44.8168 21.1833 44.8552 21.2216L52.2079 28.5743ZM52.2079 28.5743C51.1942 31.1232 49.6528 33.5164 47.5846 35.5846C45.5164 37.6528 43.1232 39.1942 40.5743 40.2079M40.5743 40.2079C35.4318 42.2529 29.6553 42.1493 24.6349 39.8877L24.5 33.0602C24.4978 32.9472 24.5884 32.8541 24.7015 32.8533L33.0768 32.7958C33.1311 32.7954 33.1833 32.8168 33.2216 32.8552L40.5743 40.2079Z" stroke="#595959" stroke-width="2"></path><path d="M28.6673 27.0833C28.6673 21.3303 33.331 16.6666 39.084 16.6666" stroke="#DFA245" stroke-width="2"></path><path d="M20.334 27.0833C20.334 16.7279 28.7286 8.33325 39.084 8.33325" stroke="#DFA245" stroke-width="2"></path></svg> 