<svg width="40" height="47" viewBox="0 0 40 47" fill="none" xmlns="http://www.w3.org/2000/svg">
<path d="M21.3795 0.0918007C20.9389 0.266215 20.8838 0.486527 20.8838 2.04707C20.8838 3.46075 20.893 3.50664 21.1041 3.71778C21.4346 4.04825 21.7742 4.10332 22.1598 3.89219C22.3801 3.77286 22.527 3.60762 22.6004 3.39649C22.7564 2.9375 22.7473 0.99141 22.5912 0.605863C22.3709 0.0826209 21.9027 -0.119332 21.3795 0.0918007Z" fill="#7836F8"/>
<path d="M11.3277 3.07524C11.0248 3.24047 10.8412 3.66274 10.9238 4.02993C10.9972 4.3604 12.6496 5.91176 13.1545 6.1229C13.4299 6.23305 13.5033 6.23305 13.7971 6.08618C14.2101 5.88422 14.4029 5.51704 14.3295 5.09477C14.2744 4.8102 13.9072 4.43383 12.5027 3.23129C12.1172 2.91001 11.7316 2.85493 11.3277 3.07524Z" fill="#7836F8"/>
<path d="M30.348 3.81879C29.7973 4.29613 29.2924 4.81937 29.2373 4.96625C28.9894 5.54457 29.4668 6.19632 30.1094 6.17797C30.4766 6.16879 30.8621 5.88422 31.9637 4.81937C32.4686 4.33285 32.6338 4.11254 32.6338 3.92894C32.6338 3.35062 32.2115 2.93754 31.6332 2.93754C31.4129 2.93754 31.1467 3.12113 30.348 3.81879Z" fill="#7836F8"/>
<path d="M20.0668 8.17908C18.6898 8.4453 18.0197 9.5285 17.5332 12.3008C16.6979 17.0742 15.7523 19.5986 13.9623 21.8844C13.1637 22.9033 11.3369 24.6383 11.2084 24.5006C11.19 24.4822 11.0891 24.2986 10.9881 24.0875C10.8871 23.8855 10.6301 23.5642 10.4189 23.3715C9.67539 22.7014 9.79473 22.7197 5.64551 22.7197C2.04707 22.7197 1.90938 22.7289 1.50547 22.9125C0.973047 23.1603 0.495703 23.6377 0.220313 24.1976L0 24.6474V34.4697V44.292L0.257031 44.8152C0.532422 45.3752 0.844531 45.6873 1.45957 46.0178C1.82676 46.2197 1.9002 46.2197 5.59961 46.2197C9.24395 46.2197 9.37246 46.2105 9.78555 46.0269C10.3088 45.7791 10.8045 45.2926 11.0248 44.806C11.1166 44.5949 11.2176 44.4297 11.2451 44.4297C11.2818 44.4297 11.7408 44.6316 12.2641 44.8795C14.2193 45.7974 16.9365 46.5869 19.1121 46.8623C20.1219 46.9908 21.2877 47.0092 27.4014 46.9816C35.3418 46.9541 34.8094 46.9908 35.8283 46.2932C36.7555 45.6598 37.4072 44.4021 37.4072 43.2363C37.4072 42.6947 37.1135 41.5473 36.9482 41.4463C36.7647 41.3361 36.8656 41.2351 37.4348 40.9598C38.5088 40.4273 39.3258 39.3258 39.5186 38.1508C39.6838 37.141 39.3258 35.9293 38.6465 35.1765L38.3068 34.8002L38.6281 34.4055C39.849 32.9183 39.8582 30.8162 38.6465 29.4851L38.3068 29.0996L38.6373 28.714C40.5191 26.5201 39.3258 23.1144 36.4984 22.582C36.1955 22.5269 33.7904 22.4902 30.3756 22.4902C25.9234 22.4902 24.7393 22.4627 24.7393 22.3709C24.7393 22.3158 25.0238 21.1867 25.3727 19.874C26.2172 16.6795 26.2447 16.5601 26.2355 15.2383C26.2264 14.3295 26.1805 13.9072 25.9969 13.2004C25.5654 11.548 24.6199 10.015 23.5184 9.18885C22.4811 8.40858 21.0674 7.98631 20.0668 8.17908ZM21.5906 10.2078C23.0777 10.7586 24.1609 12.4844 24.4088 14.7334C24.5189 15.6422 24.3262 16.6887 23.4449 19.9658C22.9859 21.6824 22.6096 23.243 22.6004 23.4265C22.5912 23.6928 22.6463 23.8305 22.8391 24.0232L23.0869 24.2803L29.7238 24.3262L36.3516 24.3721L36.783 24.6291C38.0406 25.3635 38.0314 27.1994 36.7647 27.9062C36.3607 28.1265 36.3057 28.1357 33.9373 28.1816L31.5139 28.2275L31.2936 28.4846C31.0549 28.7599 30.9998 29.2465 31.165 29.5586C31.367 29.9349 31.5781 29.9717 34.075 30.0176L36.4709 30.0635L36.8748 30.3389C37.8846 31.0549 38.0131 32.4135 37.1502 33.258C36.5902 33.8088 36.2322 33.873 33.7629 33.873H31.6057L31.3395 34.1392C30.9723 34.5064 30.9723 34.9562 31.3395 35.3601L31.6057 35.6631L34.0291 35.709C36.7188 35.764 36.7738 35.7732 37.3063 36.4158C38.059 37.3338 37.7193 38.8025 36.6361 39.2982C36.3057 39.4451 36.0027 39.4726 34.075 39.4726C32.285 39.4726 31.826 39.5002 31.5781 39.6103C31.0182 39.8857 30.8988 40.5926 31.3395 41.0424C31.6057 41.3086 31.624 41.3086 32.6797 41.3086C33.9465 41.3086 34.4238 41.4096 34.8828 41.7951C36.0211 42.7314 35.6355 44.6592 34.2219 45.0723C33.974 45.1457 31.7617 45.164 26.5752 45.1365C18.6623 45.0998 19.1029 45.1273 16.8539 44.5582C15.0088 44.0992 12.8332 43.2271 11.6857 42.4836L11.2451 42.2082V34.5248V26.8414L12.2549 26.0795C14.3295 24.5373 15.8625 22.7289 16.9732 20.5625C18.0197 18.5154 18.6348 16.4959 19.2223 13.2187C19.6629 10.7769 19.8832 10.1803 20.4248 9.97831C20.6084 9.91405 21.0031 9.98748 21.5906 10.2078ZM9.17051 24.7025L9.40918 24.8861V34.4697V44.0533L9.17051 44.2369C8.93184 44.4205 8.82168 44.4297 5.63633 44.4297H2.35L2.09297 44.2094L1.83594 43.989V34.4697V24.9504L2.09297 24.7301L2.35 24.5098H5.63633C8.82168 24.5098 8.93184 24.5189 9.17051 24.7025Z" fill="#7836F8"/>
<path d="M5.25995 28.0255C4.93867 28.3193 4.85605 28.7324 5.04882 29.0904C5.49863 29.9716 6.74706 29.6687 6.74706 28.6865C6.74706 27.9429 5.80156 27.5298 5.25995 28.0255Z" fill="#7836F8"/>
<path d="M7.97712 10.9238C7.42634 11.1349 7.22439 11.906 7.60076 12.3558C7.86697 12.6587 8.33513 12.7505 9.7488 12.7505C10.7494 12.7597 10.7953 12.7505 11.0707 12.5027C11.5756 12.0529 11.4011 11.2267 10.7677 11.0339C10.3822 10.9146 8.22498 10.832 7.97712 10.9238Z" fill="#7836F8"/>
<path d="M33.8271 10.9146C32.4318 10.9881 32.1748 11.1441 32.1748 11.9152C32.1748 12.2182 32.2299 12.3283 32.4594 12.5211C32.7256 12.7506 32.7898 12.7598 33.7629 12.7506C35.1766 12.7506 35.6447 12.6588 35.9109 12.3559C36.425 11.7592 35.9018 10.7861 35.0939 10.8504C34.9838 10.8596 34.4055 10.8871 33.8271 10.9146Z" fill="#7836F8"/>
</svg>
