<svg width="50" height="50" viewBox="0 0 50 50" fill="none" xmlns="http://www.w3.org/2000/svg">
<circle cx="25" cy="25" r="25" fill="#F2F2F2"/>
<path opacity="0.5" d="M32.7996 13C33.9135 13 34.9818 13.4425 35.7695 14.2302C36.5571 15.0178 36.9996 16.0861 36.9996 17.2C36.9996 18.3139 36.5571 19.3822 35.7695 20.1698C34.9818 20.9575 33.9135 21.4 32.7996 21.4H28.5996V17.2C28.5996 16.0861 29.0421 15.0178 29.8298 14.2302C30.6174 13.4425 31.6857 13 32.7996 13Z" fill="#9BBEA2"/>
<path opacity="0.5" d="M21.4004 21.4004H17.2004C16.0865 21.4004 15.0182 20.9579 14.2305 20.1702C13.4429 19.3826 13.0004 18.3143 13.0004 17.2004C13.0004 16.0865 13.4429 15.0182 14.2305 14.2305C15.0182 13.4429 16.0865 13.0004 17.2004 13.0004C18.3143 13.0004 19.3826 13.4429 20.1702 14.2305C20.9579 15.0182 21.4004 16.0865 21.4004 17.2004V21.4004Z" fill="#9BBEA2"/>
<path opacity="0.5" d="M28.5996 28.5996H32.7996C33.9135 28.5996 34.9818 29.0421 35.7695 29.8298C36.5571 30.6174 36.9996 31.6857 36.9996 32.7996C36.9996 33.9135 36.5571 34.9818 35.7695 35.7695C34.9818 36.5571 33.9135 36.9996 32.7996 36.9996C31.6857 36.9996 30.6174 36.5571 29.8298 35.7695C29.0421 34.9818 28.5996 33.9135 28.5996 32.7996V28.5996Z" fill="#9BBEA2"/>
<path opacity="0.5" d="M17.2004 37C16.0865 37 15.0182 36.5575 14.2305 35.7698C13.4429 34.9822 13.0004 33.9139 13.0004 32.8C13.0004 31.6861 13.4429 30.6178 14.2305 29.8302C15.0182 29.0425 16.0865 28.6 17.2004 28.6H21.4004V32.8C21.4004 33.9139 20.9579 34.9822 20.1702 35.7698C19.3826 36.5575 18.3143 37 17.2004 37Z" fill="#9BBEA2"/>
<path d="M17.2004 37C16.0865 37 15.0182 36.5575 14.2305 35.7698C13.4429 34.9822 13.0004 33.9139 13.0004 32.8C13.0004 31.6861 13.4429 30.6178 14.2305 29.8302C15.0182 29.0425 16.0865 28.6 17.2004 28.6H21.4004V32.8C21.4004 33.9139 20.9579 34.9822 20.1702 35.7698C19.3826 36.5575 18.3143 37 17.2004 37V37Z" stroke="black" stroke-width="1.5" stroke-linecap="round" stroke-linejoin="round"/>
<path d="M32.7996 13C33.9135 13 34.9818 13.4425 35.7695 14.2302C36.5571 15.0178 36.9996 16.0861 36.9996 17.2C36.9996 18.3139 36.5571 19.3822 35.7695 20.1698C34.9818 20.9575 33.9135 21.4 32.7996 21.4H28.5996V17.2C28.5996 16.0861 29.0421 15.0178 29.8298 14.2302C30.6174 13.4425 31.6857 13 32.7996 13V13Z" stroke="black" stroke-width="1.5" stroke-linecap="round" stroke-linejoin="round"/>
<path d="M21.4004 21.4004H17.2004C16.0865 21.4004 15.0182 20.9579 14.2305 20.1702C13.4429 19.3826 13.0004 18.3143 13.0004 17.2004C13.0004 16.0865 13.4429 15.0182 14.2305 14.2305C15.0182 13.4429 16.0865 13.0004 17.2004 13.0004C18.3143 13.0004 19.3826 13.4429 20.1702 14.2305C20.9579 15.0182 21.4004 16.0865 21.4004 17.2004V21.4004Z" stroke="black" stroke-width="1.5" stroke-linecap="round" stroke-linejoin="round"/>
<path d="M28.5996 28.5996H32.7996C33.9135 28.5996 34.9818 29.0421 35.7695 29.8298C36.5571 30.6174 36.9996 31.6857 36.9996 32.7996C36.9996 33.9135 36.5571 34.9818 35.7695 35.7695C34.9818 36.5571 33.9135 36.9996 32.7996 36.9996C31.6857 36.9996 30.6174 36.5571 29.8298 35.7695C29.0421 34.9818 28.5996 33.9135 28.5996 32.7996V28.5996Z" stroke="black" stroke-width="1.5" stroke-linecap="round" stroke-linejoin="round"/>
<path d="M28.6004 21.4004H21.4004V28.6004H28.6004V21.4004Z" stroke="black" stroke-width="1.5" stroke-linecap="round" stroke-linejoin="round"/>
</svg>
