<svg width="58" height="41" viewBox="0 0 58 41" fill="none" xmlns="http://www.w3.org/2000/svg">
<path d="M24.8208 29.1375C24.8208 35.9722 20.1445 41.0084 12.95 41.0084C5.75556 41.0084 0 35.0729 0 25.3604C0 12.2306 9.17292 1.79861 21.7632 0V7.55417C14.7486 8.99306 9.7125 13.6695 9.7125 19.425C10.9715 18.7056 12.5903 18.166 14.7486 18.166C20.3243 18.166 24.8208 22.1229 24.8208 29.1375ZM57.016 29.1375C57.016 35.9722 52.1597 41.0084 45.1452 41.0084C37.7709 41.0084 32.0153 35.0729 32.0153 25.3604C32.0153 12.2306 41.3681 1.79861 53.9584 0V7.55417C46.9438 8.99306 41.9077 13.6695 41.9077 19.2451C43.1667 18.5257 44.7854 18.166 46.7639 18.166C52.3396 18.166 57.016 22.1229 57.016 29.1375Z" fill="#FAF8F3"/>
</svg>
