<svg width="21" height="21" viewBox="0 0 21 21" fill="none" xmlns="http://www.w3.org/2000/svg">
<g clip-path="url(#clip0_801_145)">
<path d="M20.0384 10.6577H0.961526C0.734603 10.6577 0.55127 10.4744 0.55127 10.2474C0.55127 10.0205 0.734603 9.83717 0.961526 9.83717H19.0474L16.5577 7.34743C16.3974 7.18717 16.3974 6.92692 16.5577 6.76666C16.7179 6.60641 16.9782 6.60641 17.1384 6.76666L20.3295 9.95769C20.4474 10.0756 20.482 10.2513 20.4179 10.4051C20.3538 10.5577 20.2038 10.6577 20.0384 10.6577Z" fill="black"/>
<path d="M16.8435 13.8526C16.7384 13.8526 16.6333 13.8128 16.5538 13.732C16.3935 13.5718 16.3935 13.3115 16.5538 13.1513L19.7487 9.9564C19.9089 9.79615 20.1692 9.79615 20.3294 9.9564C20.4897 10.1167 20.4897 10.3769 20.3294 10.5372L17.1346 13.732C17.0538 13.8128 16.9487 13.8526 16.8435 13.8526Z" fill="black"/>
</g>
<defs>
<clipPath id="clip0_801_145">
<rect width="20" height="20" fill="white" transform="translate(0.5 0.25)"/>
</clipPath>
</defs>
</svg>
