<svg width="25" height="25" viewBox="0 0 25 25" fill="none" xmlns="http://www.w3.org/2000/svg">
<g clip-path="url(#clip0_5042_13092)">
<path d="M18.9559 9.89769C18.9559 13.7208 12.028 22.9746 12.028 22.9746C12.028 22.9746 5.1001 13.7208 5.1001 9.89769C5.1001 6.07461 8.20225 2.97461 12.028 2.97461C15.8537 2.97461 18.9559 6.07461 18.9559 9.89769Z" stroke="#DEB25E" stroke-width="2" stroke-linecap="square"/>
<path d="M12.0277 7.52148C11.4981 7.52148 10.9902 7.73173 10.6157 8.10598C10.2412 8.48023 10.0308 8.98781 10.0308 9.51707C10.0308 10.0463 10.2412 10.5539 10.6157 10.9282C10.9902 11.3024 11.4981 11.5127 12.0277 11.5127C12.5574 11.5127 13.0653 11.3024 13.4398 10.9282C13.8143 10.5539 14.0247 10.0463 14.0247 9.51707C14.0247 8.98781 13.8143 8.48023 13.4398 8.10598C13.0653 7.73173 12.5574 7.52148 12.0277 7.52148V7.52148Z" stroke="#DEB25E" stroke-width="2" stroke-linecap="square"/>
</g>
<defs>
<clipPath id="clip0_5042_13092">
<rect width="24.0167" height="24" fill="white" transform="translate(0.0195312 0.974609)"/>
</clipPath>
</defs>
</svg>
