<svg width="47" height="41" viewBox="0 0 47 41" fill="none" xmlns="http://www.w3.org/2000/svg">
<path opacity="0.952" fill-rule="evenodd" clip-rule="evenodd" d="M17.3165 0.00974896C22.8667 -0.1627 26.726 1.95269 28.8944 6.35591C30.7065 6.38508 32.5187 6.41427 34.3309 6.44344C35.7651 6.72758 36.6208 7.50076 36.8982 8.76307C36.9485 10.105 36.9653 11.4471 36.9485 12.7896C38.0615 12.7564 39.1689 12.8002 40.2708 12.9209C41.3376 13.2357 42.0255 13.8629 42.3347 14.8029C42.3851 16.2614 42.4019 17.7204 42.3851 19.1795C44.2854 19.0191 45.5104 19.7193 46.0598 21.2803C46.1269 24.7525 46.1269 28.2246 46.0598 31.6968C45.4537 33.1982 44.2288 33.8694 42.3851 33.71C42.4019 35.1984 42.3851 36.6864 42.3347 38.1742C41.9286 39.1694 41.1399 39.7968 39.9688 40.0562C27.9548 40.1146 15.9406 40.1146 3.92652 40.0562C1.76197 39.6915 0.469953 38.5681 0.050463 36.6862C-0.0166582 27.7286 -0.0166582 18.771 0.050463 9.81347C0.481803 7.89203 1.80737 6.76872 4.0272 6.44344C5.36914 6.39968 6.71149 6.38509 8.05427 6.39968C9.71433 2.71 12.8018 0.580028 17.3165 0.00974896ZM17.7192 1.67288C22.0243 1.63933 25.0949 3.30246 26.9312 6.66228C27.8171 8.68184 27.8003 10.6951 26.8808 12.7021C24.3983 12.7896 21.915 12.8188 19.4307 12.7896C19.4139 10.7762 19.4307 8.7629 19.4811 6.74981C20.2057 7.40902 20.9607 8.03637 21.7463 8.63177C22.9464 8.72097 23.3324 8.26869 22.9041 7.27501C21.6456 6.18084 20.3872 5.08668 19.1287 3.99251C18.7459 3.74496 18.3432 3.71578 17.9206 3.90498C16.595 5.0575 15.2695 6.21002 13.9439 7.36254C13.6214 8.27823 14.0074 8.70127 15.1016 8.63177C15.9507 8.06902 16.7393 7.44167 17.4676 6.74981C17.5179 8.7629 17.5347 10.7762 17.5179 12.7896C15.0343 12.8042 12.5509 12.7896 10.0678 12.7458C8.42496 8.65698 9.63308 5.35987 13.6922 2.85458C14.9561 2.22087 16.2984 1.82697 17.7192 1.67288ZM4.4299 8.06281C5.47077 8.04828 6.51109 8.06281 7.55088 8.10657C7.20825 9.66633 7.34248 11.1982 7.95359 12.7021C6.64608 12.8041 5.33728 12.8188 4.0272 12.7458C2.36421 12.2318 1.70981 11.2252 2.064 9.72594C2.50473 8.78469 3.29336 8.23026 4.4299 8.06281ZM29.3978 8.06281C30.9418 8.04819 32.4855 8.06281 34.0289 8.10657C34.4315 8.16505 34.7167 8.35473 34.8846 8.67554C34.935 10.0466 34.9518 11.418 34.935 12.7896C32.955 12.7896 30.9751 12.7896 28.995 12.7896C29.4917 11.2396 29.626 9.66397 29.3978 8.06281ZM1.91298 13.7525C2.45872 14.0812 3.06278 14.3 3.72517 14.409C15.605 14.4381 27.4849 14.4674 39.3648 14.4965C39.857 14.5452 40.2093 14.764 40.4219 15.153C40.4722 16.4949 40.489 17.837 40.4722 19.1795C37.5859 19.1649 34.6999 19.1795 31.814 19.2233C27.9489 19.54 25.4152 21.3052 24.2129 24.5191C23.3097 28.6825 25.0716 31.6149 29.4984 33.3162C30.1222 33.4889 30.7598 33.6055 31.4113 33.6663C34.4314 33.71 37.4517 33.7247 40.4722 33.71C40.489 35.0525 40.4722 36.3947 40.4219 37.7366C40.294 38.1103 40.0087 38.3292 39.5661 38.3931C27.8204 38.4515 16.0749 38.4515 4.32923 38.3931C3.00365 38.1742 2.21501 37.4886 1.96332 36.336C1.91298 28.8083 1.8962 21.2804 1.91298 13.7525ZM31.2099 20.9302C35.3378 20.9156 39.4655 20.9302 43.5932 20.974C43.8637 21.1381 44.0483 21.3569 44.1469 21.6305C44.2141 24.8692 44.2141 28.1079 44.1469 31.3467C44.019 31.7204 43.7337 31.9393 43.2911 32.0032C39.4654 32.0615 35.6397 32.0615 31.814 32.0032C28.1444 31.5117 26.1644 29.6588 25.8741 26.4448C26.1613 23.511 27.9398 21.6728 31.2099 20.9302ZM32.2167 25.657C33.0257 25.8092 33.2774 26.2177 32.9718 26.8825C32.5019 27.3493 32.0322 27.3493 31.5623 26.8825C31.2662 26.2597 31.4844 25.8511 32.2167 25.657Z" fill="#8444E8"/>
</svg>
