<svg width="70" height="70" viewBox="0 0 70 70" fill="none" xmlns="http://www.w3.org/2000/svg">
<path d="M66.6423 15.2153L16.5059 6.27226C14.3088 5.8771 12.1744 7.41428 11.7933 9.59952L8.56427 28.1236H3.95161C1.77258 28.1236 0 29.8967 0 32.0752V59.8381C0 62.0165 1.77258 63.7897 3.95161 63.7897H55.0894C57.2685 63.7897 59.041 62.0165 59.041 59.8381V50.0759C60.506 50.3373 61.9201 50.6455 63.2744 49.8354C64.2905 49.2274 65.0193 48.1791 65.2231 47.0111L69.9379 19.9618C70.3257 17.737 68.8473 15.6077 66.6423 15.2153ZM14.0181 9.98734C14.1874 9.01694 15.129 8.31976 16.1096 8.49476L66.246 17.4378C67.2299 17.6134 67.8881 18.5714 67.7137 19.5734L66.9358 24.0387L13.2379 14.4611L14.0181 9.98734ZM56.783 59.8381C56.783 60.7718 56.0231 61.5316 55.0894 61.5316H3.95161C3.0179 61.5316 2.25806 60.7718 2.25806 59.8381V32.0752C2.25806 31.1415 3.0179 30.3816 3.95161 30.3816H55.0894C56.0231 30.3816 56.783 31.1415 56.783 32.0752V59.8381ZM62.9989 46.6233C62.6477 48.6313 60.4179 48.0278 59.041 47.7823V32.0752C59.041 29.8967 57.2685 28.1236 55.0894 28.1236H10.8568L12.8501 16.6853L16.1209 17.2685L66.5474 26.2629L62.9989 46.6233Z" fill="#0B0C0E"/>
<path d="M26.5995 57.0178H20.1075C19.4843 57.0178 18.9785 56.512 18.9785 55.8888C18.9785 55.2656 19.4843 54.7598 20.1075 54.7598H26.5995C27.2227 54.7598 27.7285 55.2656 27.7285 55.8888C27.7285 56.512 27.2233 57.0178 26.5995 57.0178Z" fill="#0B0C0E"/>
<path d="M14.266 57.0178H7.77405C7.15083 57.0178 6.64502 56.512 6.64502 55.8888C6.64502 55.2656 7.15083 54.7598 7.77405 54.7598H14.266C14.8892 54.7598 15.395 55.2656 15.395 55.8888C15.395 56.512 14.8892 57.0178 14.266 57.0178Z" fill="#0B0C0E"/>
<path d="M38.933 57.0178H32.441C31.8178 57.0178 31.312 56.512 31.312 55.8888C31.312 55.2656 31.8178 54.7598 32.441 54.7598H38.933C39.5562 54.7598 40.062 55.2656 40.062 55.8888C40.062 56.512 39.5568 57.0178 38.933 57.0178Z" fill="#0B0C0E"/>
<path d="M51.267 57.0178H44.775C44.1518 57.0178 43.646 56.512 43.646 55.8888C43.646 55.2656 44.1518 54.7598 44.775 54.7598H51.267C51.8902 54.7598 52.396 55.2656 52.396 55.8888C52.396 56.512 51.8902 57.0178 51.267 57.0178Z" fill="#0B0C0E"/>
<path d="M17.1828 51.1604H9.0052C7.44883 51.1604 6.18262 49.8942 6.18262 48.3379V45.0953C6.18262 43.5389 7.44883 42.2727 9.0052 42.2727H17.1828C18.7391 42.2727 20.0054 43.5389 20.0054 45.0953V48.3379C20.0054 49.8937 18.7386 51.1604 17.1828 51.1604ZM9.0052 44.5302C8.69415 44.5302 8.44068 44.7831 8.44068 45.0947V48.3373C8.44068 48.6489 8.69415 48.9018 9.0052 48.9018H17.1828C17.4938 48.9018 17.7473 48.6489 17.7473 48.3373V45.0947C17.7473 44.7831 17.4938 44.5302 17.1828 44.5302H9.0052Z" fill="#0B0C0E"/>
</svg>
