<svg width="925" height="262" viewBox="0 0 925 262" fill="none" xmlns="http://www.w3.org/2000/svg">
<path d="M83.97 216.749V118.568L140.666 165.585C140.666 165.585 129.679 163.354 122.689 164.202C111.418 165.568 96.4155 176.647 96.4155 176.647C96.4155 176.647 113.503 186.547 125.455 186.327C137.589 186.103 154.495 175.264 154.495 175.264C154.495 175.264 169.994 188.964 176.62 200.155C179.081 204.312 180.982 209.382 181.267 211.6C182.65 222.382 182.151 234.133 182.151 234.133C182.151 234.133 181.247 242.561 178.003 247.172C173.138 254.084 166.645 255.509 158.643 258.234C155.878 259.176 140.211 261.002 128.221 261C118.44 260.999 107.478 260.287 103.33 258.234C95.1154 254.17 90.7996 249.855 86.7357 241.64C82.3987 232.874 83.97 216.749 83.97 216.749Z" fill="white" stroke="white"/>
<path d="M188.2 158.67L185.6 125.8C185.6 125.8 206.69 114.213 218.105 108.888C232.965 101.957 258.207 96.4429 258.207 96.4429C258.207 96.4429 265.011 131.342 260.973 153.139C257.355 172.663 252.441 183.511 241.613 200.155C230.575 217.123 205.659 237.492 205.659 237.492C205.659 237.492 192.696 233 190.448 215.367C188.2 197.733 190.448 169.733 190.448 169.733H212.573C212.573 169.733 221.774 166.696 226.402 162.819C232.72 157.525 237.464 144.842 237.464 144.842C237.464 144.842 221.549 139.687 212.573 143.459C204.829 146.714 197.362 158.67 197.362 158.67H188.2Z" fill="white" stroke="white"/>
<path d="M183.534 111.933V10.7072C183.534 10.7072 203.064 17.6214 225.019 39.7467C242.858 57.7236 255.442 85.3802 255.442 85.3802C255.442 85.3802 246.406 90.9128 240.23 93.6772C232.437 97.1656 219.488 100.591 219.488 100.591C219.488 100.591 226.819 94.767 229.168 89.5287C231.828 83.595 230.551 72.9347 230.551 72.9347C230.551 72.9347 219.93 76.2602 215.339 81.2317C209.198 87.8829 208.425 103.357 208.425 103.357L183.534 111.933Z" fill="white" stroke="white"/>
<path d="M130.986 39.7467L169.706 10.7072L175.237 179.413L122.689 137.928C122.689 137.928 131.387 120.676 130.986 108.888C130.597 97.452 121.306 81.2317 121.306 81.2317C121.306 81.2317 109.177 97.937 108.861 110.271C108.633 119.175 114.392 132.397 114.392 132.397L83.97 106.123V85.3802L121.306 48.0437C121.306 48.0437 134.447 56.0614 143.432 54.9579C151.346 53.986 161.409 45.2781 161.409 45.2781C161.409 45.2781 153.497 39.5673 147.58 38.3639C141.208 37.0678 130.986 39.7467 130.986 39.7467Z" fill="white" stroke="white"/>
<path d="M70.1417 88.1458V14.8557C70.1417 14.8557 30.5243 35.8247 14.8283 68.7862C1 97.8257 1 136.545 1 136.545L30.0395 146.225C30.0395 146.225 22.5005 140.489 20.3597 135.162C17.943 129.149 20.3597 118.568 20.3597 118.568C20.3597 118.568 35.6829 124.028 39.7193 132.397C42.7783 138.738 41.1022 150.373 41.1022 150.373L70.1417 157.288V101.974C70.1417 101.974 48.3669 100.133 39.7193 90.9115C32.9279 83.6694 30.0395 67.4033 30.0395 67.4033C30.0395 67.4033 46.3225 67.9289 54.9305 72.9347C62.1928 77.1578 70.1417 88.1458 70.1417 88.1458Z" fill="white" stroke="white"/>
<path d="M83.97 64.6376V9.32425C83.97 9.32425 101.947 1.53886 124.072 1.02725C144.815 0.547612 160.026 6.5586 160.026 6.5586L125.455 34.2153L93.6498 64.6376H83.97Z" fill="white" stroke="white"/>
<path d="M67.376 223.664C67.007 230.674 60.4619 240.258 60.4619 240.258C60.4619 240.258 33.4369 220.37 21.7425 202.921C8.61691 183.336 1 146.225 1 146.225C1 146.225 32.8052 155.905 54.9305 161.436C61.0403 162.963 68.7589 169.733 68.7589 169.733C68.7589 169.733 68.7589 197.39 67.376 223.664Z" fill="white" stroke="white"/>
<path d="M312.328 211V68.5H328.656L405.844 181.312V68.5H422.172V211H405.844L330.141 98.1875V211H312.328ZM479.231 213.969C472.799 213.474 466.861 211.99 461.419 209.516C456.471 207.042 452.512 203.578 449.544 199.125C446.575 194.177 445.091 188.24 445.091 181.312C445.091 175.87 446.08 171.417 448.059 167.953C450.533 164.49 453.749 161.768 457.708 159.789C462.161 157.81 466.861 156.326 471.809 155.336C476.757 154.346 481.458 153.357 485.911 152.367C490.859 151.872 495.065 151.13 498.528 150.141C502.486 149.151 505.703 148.161 508.177 147.172C510.651 145.688 511.887 143.708 511.887 141.234C511.887 135.792 511.145 131.339 509.661 127.875C508.177 124.411 505.703 121.69 502.239 119.711C499.27 117.732 495.065 116.99 489.622 117.484C484.674 116.99 480.468 117.732 477.005 119.711C473.541 121.69 470.82 124.164 468.841 127.133C467.356 129.607 466.367 132.328 465.872 135.297H452.512C453.997 127.875 456.471 122.185 459.934 118.227C463.893 113.773 468.346 110.557 473.294 108.578C478.736 106.599 484.179 105.609 489.622 105.609C492.591 105.609 496.054 106.104 500.012 107.094C504.466 108.083 508.671 109.815 512.63 112.289C516.588 114.763 519.804 118.474 522.278 123.422C525.247 127.875 526.731 134.307 526.731 142.719V194.672C526.731 197.146 526.979 199.867 527.473 202.836C527.968 205.31 528.463 208.031 528.958 211H514.114C513.619 208.526 513.124 206.299 512.63 204.32C512.135 201.846 511.887 199.62 511.887 197.641C508.919 202.094 504.466 205.805 498.528 208.773C493.085 211.742 486.653 213.474 479.231 213.969ZM482.2 199.125C488.632 199.125 493.828 197.888 497.786 195.414C502.239 192.94 505.703 189.724 508.177 185.766C510.651 181.807 511.887 177.849 511.887 173.891V159.047C511.393 159.542 509.908 160.284 507.434 161.273C504.96 161.768 502.239 162.263 499.27 162.758C496.302 163.253 493.333 163.747 490.364 164.242C487.395 164.737 485.169 164.984 483.684 164.984C477.252 165.479 471.809 166.964 467.356 169.438C462.903 171.911 460.429 176.365 459.934 182.797C460.429 186.26 461.419 189.229 462.903 191.703C464.882 194.177 467.604 196.156 471.067 197.641C474.531 198.63 478.242 199.125 482.2 199.125ZM586.759 211C582.801 211 578.595 210.258 574.142 208.773C570.184 206.794 566.72 204.073 563.752 200.609C561.278 196.651 560.041 191.703 560.041 185.766V117.484H543.712V104.125H560.041V78.8906H574.884V104.125H597.15V117.484H574.884V181.312C574.884 188.24 576.369 192.693 579.337 194.672C582.306 196.651 585.77 197.641 589.728 197.641H597.15V211H586.759ZM651.241 212.484C645.303 212.484 639.86 211.247 634.913 208.773C629.965 205.805 626.006 201.352 623.038 195.414C620.069 189.477 618.584 182.302 618.584 173.891V104.125H634.913V172.406C634.913 177.354 635.902 181.807 637.881 185.766C639.86 189.229 642.334 191.951 645.303 193.93C648.767 195.909 652.725 197.146 657.178 197.641C661.136 197.146 665.095 195.909 669.053 193.93C673.506 191.951 676.97 188.734 679.444 184.281C682.413 179.828 683.897 174.385 683.897 167.953V104.125H700.225V211H683.897V193.188C680.928 198.63 676.722 203.331 671.28 207.289C665.837 210.753 659.157 212.484 651.241 212.484ZM724.628 211V104.125H739.472V120.453C741.946 115.505 744.915 111.794 748.378 109.32C751.842 106.352 755.8 104.62 760.253 104.125C765.201 103.135 770.644 102.641 776.581 102.641V118.969H767.675C762.232 118.969 757.532 119.711 753.573 121.195C749.615 122.185 746.399 124.411 743.925 127.875C741.946 131.339 740.956 136.286 740.956 142.719V211H724.628ZM821.766 213.969C815.333 213.474 809.396 211.99 803.953 209.516C799.005 207.042 795.047 203.578 792.078 199.125C789.109 194.177 787.625 188.24 787.625 181.312C787.625 175.87 788.615 171.417 790.594 167.953C793.068 164.49 796.284 161.768 800.242 159.789C804.695 157.81 809.396 156.326 814.344 155.336C819.292 154.346 823.992 153.357 828.445 152.367C833.393 151.872 837.599 151.13 841.062 150.141C845.021 149.151 848.237 148.161 850.711 147.172C853.185 145.688 854.422 143.708 854.422 141.234C854.422 135.792 853.68 131.339 852.195 127.875C850.711 124.411 848.237 121.69 844.773 119.711C841.805 117.732 837.599 116.99 832.156 117.484C827.208 116.99 823.003 117.732 819.539 119.711C816.076 121.69 813.354 124.164 811.375 127.133C809.891 129.607 808.901 132.328 808.406 135.297H795.047C796.531 127.875 799.005 122.185 802.469 118.227C806.427 113.773 810.88 110.557 815.828 108.578C821.271 106.599 826.714 105.609 832.156 105.609C835.125 105.609 838.589 106.104 842.547 107.094C847 108.083 851.206 109.815 855.164 112.289C859.122 114.763 862.339 118.474 864.812 123.422C867.781 127.875 869.266 134.307 869.266 142.719V194.672C869.266 197.146 869.513 199.867 870.008 202.836C870.503 205.31 870.997 208.031 871.492 211H856.648C856.154 208.526 855.659 206.299 855.164 204.32C854.669 201.846 854.422 199.62 854.422 197.641C851.453 202.094 847 205.805 841.062 208.773C835.62 211.742 829.188 213.474 821.766 213.969ZM824.734 199.125C831.167 199.125 836.362 197.888 840.32 195.414C844.773 192.94 848.237 189.724 850.711 185.766C853.185 181.807 854.422 177.849 854.422 173.891V159.047C853.927 159.542 852.443 160.284 849.969 161.273C847.495 161.768 844.773 162.263 841.805 162.758C838.836 163.253 835.867 163.747 832.898 164.242C829.93 164.737 827.703 164.984 826.219 164.984C819.786 165.479 814.344 166.964 809.891 169.438C805.438 171.911 802.964 176.365 802.469 182.797C802.964 186.26 803.953 189.229 805.438 191.703C807.417 194.177 810.138 196.156 813.602 197.641C817.065 198.63 820.776 199.125 824.734 199.125ZM895.153 211V68.5H911.481V211H895.153Z" fill="white"/>
</svg>
