<svg width="51" height="50" viewBox="0 0 51 50" fill="none" xmlns="http://www.w3.org/2000/svg">
<circle cx="25.0022" cy="25" r="25" fill="#F2F2F2"/>
<path opacity="0.5" d="M13.0022 22.8178H37.0022V18.4542C37.0022 18.1649 36.8968 17.8874 36.7093 17.6828C36.5218 17.4782 36.2674 17.3633 36.0022 17.3633H14.0022C13.737 17.3633 13.4826 17.4782 13.2951 17.6828C13.1076 17.8874 13.0022 18.1649 13.0022 18.4542V22.8178Z" fill="#9BBEA2"/>
<path opacity="0.5" d="M13.0022 31.5449H37.0022V35.9086C37.0022 36.1979 36.8968 36.4754 36.7093 36.6799C36.5218 36.8845 36.2674 36.9995 36.0022 36.9995H14.0022C13.737 36.9995 13.4826 36.8845 13.2951 36.6799C13.1076 36.4754 13.0022 36.1979 13.0022 35.9086V31.5449Z" fill="#9BBEA2"/>
<path d="M36.0022 17.3633H14.0022C13.4499 17.3633 13.0022 17.8517 13.0022 18.4542V35.9087C13.0022 36.5112 13.4499 36.9996 14.0022 36.9996H36.0022C36.5545 36.9996 37.0022 36.5112 37.0022 35.9087V18.4542C37.0022 17.8517 36.5545 17.3633 36.0022 17.3633Z" stroke="black" stroke-width="1.5" stroke-linecap="round" stroke-linejoin="round"/>
<path d="M30.0024 17.3636V15.1818C30.0024 14.6032 29.7917 14.0482 29.4167 13.639C29.0416 13.2299 28.5329 13 28.0024 13H22.0024C21.472 13 20.9633 13.2299 20.5882 13.639C20.2132 14.0482 20.0024 14.6032 20.0024 15.1818V17.3636" stroke="black" stroke-width="1.5" stroke-linecap="round" stroke-linejoin="round"/>
<path d="M13.0022 31.5449H37.0022" stroke="black" stroke-width="1.5" stroke-linecap="round" stroke-linejoin="round"/>
<path d="M13.0022 22.8182H37.0022" stroke="black" stroke-width="1.5" stroke-linecap="round" stroke-linejoin="round"/>
</svg>
