<svg xmlns="http://www.w3.org/2000/svg" xmlns:xlink="http://www.w3.org/1999/xlink" width="39px" height="45px" viewBox="0 0 39 45"><!-- Generator: Sketch 55.2 (78181) - https://sketchapp.com --><title>atom</title><desc>Created with Sketch.</desc><g id="Page-1" stroke="none" stroke-width="1" fill="none" fill-rule="evenodd"><g id="Why-Choose-Us" transform="translate(-1133.000000, -507.000000)" fill="#FFFFFF"><g id="3" transform="translate(1106.000000, 482.000000)"><g id="Group-6"><g id="atom" transform="translate(27.000000, 25.000000)"><ellipse id="Oval" cx="19.6571417" cy="22.1538448" rx="1.8199237" ry="1.84596912"></ellipse><path d="M23.7665764,14.9676914 C30.0350204,12.3839993 34.3033503,12.3208608 35.3806709,12.9450454 C35.3768487,13.73483 34.5059281,15.5015991 32.5440362,17.744122 C33.5159726,18.5444297 34.4212932,19.3596912 35.2632741,20.1799373 C38.412785,16.5799375 39.790423,13.2153223 38.5727723,11.0769224 C36.311655,7.10529188 26.0189572,8.83938409 15.5766467,14.9494145 C16.5059927,8.15427644 18.5852814,4.37372282 19.6571417,3.73735362 C20.3287607,4.13778437 21.4006209,5.78547658 22.3337891,8.62892256 L25.774881,7.45864571 C24.2749319,2.8916306 22.0924431,0 19.6571417,0 C15.1354531,0 11.4704882,9.91052249 11.466666,22.1377833 C6.12756789,17.9224605 3.94125691,14.2050453 3.93197437,12.9467069 C4.60905369,12.5556916 6.55183453,12.4366146 9.4490788,13.0386454 C9.64619625,11.7858455 9.88972639,10.5828917 10.1687486,9.43310713 C5.51928856,8.46664565 1.95916179,8.93852254 0.741511067,11.0769224 C-1.51796816,15.0485529 5.10867271,23.2227678 15.547161,29.3399983 C9.27980897,31.9242443 5.01257113,31.9846135 3.93306643,31.3615366 C3.93852675,30.571752 4.80944733,28.8066444 6.76970118,26.5652292 L4.05046325,24.1283063 C0.900952327,27.728306 -0.476685686,31.0923674 0.740965035,33.2313211 C3.00208236,37.2035055 13.2964183,35.4683056 23.7370906,29.3566136 C22.8099288,36.1545209 20.7290019,39.9350745 19.6571417,40.570336 C18.9855227,40.1721207 17.9136624,38.5238746 16.9788561,35.6787671 C15.8087102,36.1318132 14.6609515,36.5195055 13.5394024,36.849044 C15.0393515,41.4160591 17.2218402,44.3076897 19.6571417,44.3076897 C24.1788303,44.3076897 27.8437952,34.3988287 27.8476174,22.1699064 C33.1867155,26.3852292 35.3713884,30.1020905 35.3806709,31.3615366 C34.7035916,31.7519981 32.7602647,31.8699673 29.8668427,31.2673828 L29.1449887,34.8751364 C33.7949948,35.841044 37.3551216,35.369721 38.5727723,33.2307673 C40.8317055,29.2585829 34.2039726,21.0827064 23.7665764,14.9676914 Z M24.207224,22.1538448 C24.207224,23.0654755 24.1804684,23.9333524 24.1433382,24.7801831 C23.4416875,25.2365523 22.7127352,25.6940292 21.9324558,26.1509523 C21.1516305,26.6073215 20.3981067,27.0182753 19.6571417,27.408183 C18.9161767,27.0188292 18.1626529,26.608983 17.3818275,26.1509523 C16.6031863,25.6945831 15.8764181,25.2371062 15.1725832,24.7801831 C15.1316308,23.9366755 15.1070594,23.0676909 15.1070594,22.1538448 C15.1070594,21.2416603 15.133815,20.3726757 15.1709451,19.5269527 C15.87478,19.0705835 16.6015482,18.6131066 17.3818275,18.1567374 C18.1626529,17.7003682 18.9161767,17.2894144 19.6571417,16.9000605 C20.3964686,17.2877528 21.1516305,17.7003682 21.9324558,18.1567374 C22.7110971,18.6131066 23.4395034,19.0705835 24.1417001,19.5269527 C24.1804684,20.3726757 24.207224,21.2416603 24.207224,22.1538448 Z" id="Shape" fill-rule="nonzero"></path></g></g></g></g></g></svg>