<?xml version="1.0" encoding="UTF-8"?> <svg xmlns="http://www.w3.org/2000/svg" xmlns:xlink="http://www.w3.org/1999/xlink" width="60px" height="45px" viewBox="0 0 60 45"><!-- Generator: Sketch 55.2 (78181) - https://sketchapp.com --><title>repeat</title><desc>Created with Sketch.</desc><g id="Page-1" stroke="none" stroke-width="1" fill="none" fill-rule="evenodd"><g id="Achirvements" transform="translate(-360.000000, -532.000000)"><g id="features" transform="translate(265.000000, 471.000000)"><g id="1" transform="translate(0.000000, 1.000000)"><g id="Group-2" transform="translate(75.843607, 48.026004)"><g id="repeat" transform="translate(14.000000, 0.000000)"><rect id="bound" x="0" y="0" width="70" height="70"></rect><path d="M35,23.3333333 L23.3333333,23.3333333 C16.8900112,23.3333333 11.6666667,28.5566779 11.6666667,35 L11.6666667,37.9166667 C11.6666667,42.7491581 15.5841751,46.6666667 20.4166667,46.6666667 L20.4166667,52.5 C12.3625141,52.5 5.83333333,45.9708191 5.83333333,37.9166667 L5.83333333,35 C5.83333333,25.3350169 13.6683502,17.5 23.3333333,17.5 L35,17.5 L35,13.7899925 C35,13.4754389 35.1017048,13.1693163 35.2899391,12.9173008 C35.7719133,12.2720144 36.6857385,12.1396238 37.3310251,12.6215981 L45.6640392,18.8456542 C45.7774797,18.9303846 45.8779758,19.031184 45.9623643,19.1448791 C46.4423934,19.7916138 46.3072517,20.7050364 45.660517,21.1850654 L37.3275029,27.3701187 C37.0761277,27.5566981 36.771385,27.6574352 36.4583333,27.6574352 C35.652918,27.6574352 35,27.0045171 35,26.1991019 L35,23.3333333 Z" id="Combined-Shape" fill="#007C88"></path><path d="M35.1700927,46.6666667 L46.6666667,46.6666667 C53.1099888,46.6666667 58.3333333,41.4433221 58.3333333,35 L58.3333333,32.0833333 C58.3333333,27.2508418 54.4158248,23.3333333 49.5833333,23.3333333 L49.5833333,17.5 C57.6374858,17.5 64.1666667,24.0291807 64.1666667,32.0833333 L64.1666667,35 C64.1666667,44.6649831 56.3316498,52.5 46.6666667,52.5 L35.1700927,52.5 L35.1700927,55.3657685 C35.1700927,56.1711838 34.5171747,56.8241018 33.7117594,56.8241018 C33.3987077,56.8241018 33.093965,56.7233648 32.8425898,56.5367854 L24.5095757,50.3517321 C23.862841,49.871703 23.7276993,48.9582806 24.2077284,48.3115456 C24.2921168,48.1978508 24.3926131,48.0970513 24.5060536,48.012321 L32.8390676,41.7882649 C33.4843542,41.3062904 34.3981794,41.4386811 34.8801539,42.0839673 C35.068388,42.3359831 35.1700927,42.6421056 35.1700927,42.9566591 L35.1700927,46.6666667 Z" id="Combined-Shape" fill="#007C88" opacity="0.3"></path></g></g></g></g></g></g></svg> 