<svg width="48" height="49" viewBox="0 0 48 49" fill="none" xmlns="http://www.w3.org/2000/svg">
<rect opacity="0.15" width="48" height="48.0804" fill="#FF6262"/>
<path opacity="0.35" d="M11.8592 17.9285C12.1616 20.1837 13.3452 25.3668 18.0116 30.0409C22.6779 34.7151 27.851 35.9007 30.1038 36.2036C31.7355 36.557 33.5048 36.1081 34.7729 34.8379C36.756 32.8514 29.5726 25.656 27.5895 27.6425L26.3241 28.9099L19.1407 21.7145L20.4047 20.447C22.3878 18.4605 15.2044 11.2651 13.2213 13.2515C11.9532 14.5217 11.5051 16.294 11.8592 17.9285Z" fill="#FF6262"/>
<path d="M13.2285 13.2467L20.4106 20.4407C22.3896 18.4529 22.3896 15.2358 20.4065 13.2494C18.4261 11.2657 15.213 11.2643 13.2285 13.2467Z" fill="#FF6262"/>
<path d="M27.5938 27.6373L34.7758 34.8314C36.7548 32.8449 36.7548 29.6265 34.7717 27.64C32.7899 25.6563 29.5782 25.6549 27.5938 27.6373Z" fill="#FF6262"/>
</svg>
