<svg xmlns="http://www.w3.org/2000/svg" xmlns:xlink="http://www.w3.org/1999/xlink" width="32px" height="38px" viewBox="0 0 32 38"><!-- Generator: Sketch 55.2 (78181) - https://sketchapp.com --><title>bx-globe-alt</title><desc>Created with Sketch.</desc><g id="Page-1" stroke="none" stroke-width="1" fill="none" fill-rule="evenodd"><g id="Why-Choose-Us" transform="translate(-717.000000, -510.000000)" fill="#FFFFFF"><g id="2" transform="translate(686.000000, 482.000000)"><g id="Group-8"><g id="bx-globe-alt" transform="translate(30.851280, 27.958973)"><path d="M17.2712078,31.7142225 L17.2712078,33.9317053 L13.635164,33.9317053 L13.635164,37.5999978 L24.5432952,37.5999978 L24.5432952,33.9317053 L20.9072515,33.9317053 L20.9072515,30.5477055 C22.9897836,29.6387402 24.8838812,28.3419936 26.4903967,26.7253447 C33.5770459,19.5758427 33.5770459,7.93818489 26.4903967,0.785014587 L23.9197137,3.37849736 C29.590124,9.1010336 29.590124,18.4093257 23.9197137,24.1300278 C18.2493035,29.8488958 9.02102452,29.8525641 3.35061431,24.1300278 L0.779931382,26.7235106 C4.18753288,30.1648229 8.81364924,32.0947812 13.635164,32.0865542 C14.8565109,32.0862248 16.0747039,31.9614816 17.2712078,31.7142225 Z" id="Path-Copy"></path><path d="M13.635164,24.7609741 C19.6509984,24.7609741 24.5432952,19.8252866 24.5432952,13.7560967 C24.5432952,7.68690686 19.6509984,2.75121935 13.635164,2.75121935 C7.61932966,2.75121935 2.7270328,7.68690686 2.7270328,13.7560967 C2.7270328,19.8252866 7.61932966,24.7609741 13.635164,24.7609741 Z M13.635164,6.41951181 C17.6457203,6.41951181 20.9072515,9.70997015 20.9072515,13.7560967 C20.9072515,17.8022233 17.6457203,21.0926817 13.635164,21.0926817 C9.62460778,21.0926817 6.36307654,17.8022233 6.36307654,13.7560967 C6.36307654,9.70997015 9.62460778,6.41951181 13.635164,6.41951181 Z" id="Shape" fill-rule="nonzero"></path></g></g></g></g></g></svg>