<svg width="37" height="41" viewBox="0 0 37 41" fill="none" xmlns="http://www.w3.org/2000/svg">
<path fill-rule="evenodd" clip-rule="evenodd" d="M34.8888 17.1582H2.21143C1.45243 17.1582 0.836426 16.5422 0.836426 15.7832C0.836426 15.0242 1.45243 14.4082 2.21143 14.4082H34.8888C35.6478 14.4082 36.2638 15.0242 36.2638 15.7832C36.2638 16.5422 35.6478 17.1582 34.8888 17.1582" fill="#7147E9"/>
<path fill-rule="evenodd" clip-rule="evenodd" d="M26.7024 24.3179C25.9434 24.3179 25.3201 23.7019 25.3201 22.9429C25.3201 22.1839 25.9269 21.5679 26.6859 21.5679H26.7024C27.4614 21.5679 28.0774 22.1839 28.0774 22.9429C28.0774 23.7019 27.4614 24.3179 26.7024 24.3179" fill="#7147E9"/>
<path fill-rule="evenodd" clip-rule="evenodd" d="M18.5669 24.3179C17.8079 24.3179 17.1846 23.7019 17.1846 22.9429C17.1846 22.1839 17.7914 21.5679 18.5504 21.5679H18.5669C19.3259 21.5679 19.9419 22.1839 19.9419 22.9429C19.9419 23.7019 19.3259 24.3179 18.5669 24.3179" fill="#7147E9"/>
<path fill-rule="evenodd" clip-rule="evenodd" d="M10.4144 24.3179C9.65544 24.3179 9.03027 23.7019 9.03027 22.9429C9.03027 22.1839 9.63894 21.5679 10.3979 21.5679H10.4144C11.1734 21.5679 11.7894 22.1839 11.7894 22.9429C11.7894 23.7019 11.1734 24.3179 10.4144 24.3179" fill="#7147E9"/>
<path fill-rule="evenodd" clip-rule="evenodd" d="M26.7024 31.4434C25.9434 31.4434 25.3201 30.8274 25.3201 30.0684C25.3201 29.3094 25.9269 28.6934 26.6859 28.6934H26.7024C27.4614 28.6934 28.0774 29.3094 28.0774 30.0684C28.0774 30.8274 27.4614 31.4434 26.7024 31.4434" fill="#7147E9"/>
<path fill-rule="evenodd" clip-rule="evenodd" d="M18.5669 31.4434C17.8079 31.4434 17.1846 30.8274 17.1846 30.0684C17.1846 29.3094 17.7914 28.6934 18.5504 28.6934H18.5669C19.3259 28.6934 19.9419 29.3094 19.9419 30.0684C19.9419 30.8274 19.3259 31.4434 18.5669 31.4434" fill="#7147E9"/>
<path fill-rule="evenodd" clip-rule="evenodd" d="M10.4144 31.4434C9.65544 31.4434 9.03027 30.8274 9.03027 30.0684C9.03027 29.3094 9.63894 28.6934 10.3979 28.6934H10.4144C11.1734 28.6934 11.7894 29.3094 11.7894 30.0684C11.7894 30.8274 11.1734 31.4434 10.4144 31.4434" fill="#7147E9"/>
<path fill-rule="evenodd" clip-rule="evenodd" d="M25.9548 9.617C25.1958 9.617 24.5798 9.001 24.5798 8.242V2.2085C24.5798 1.4495 25.1958 0.833496 25.9548 0.833496C26.7138 0.833496 27.3298 1.4495 27.3298 2.2085V8.242C27.3298 9.001 26.7138 9.617 25.9548 9.617" fill="#7147E9"/>
<path fill-rule="evenodd" clip-rule="evenodd" d="M11.1448 9.617C10.3858 9.617 9.76978 9.001 9.76978 8.242V2.2085C9.76978 1.4495 10.3858 0.833496 11.1448 0.833496C11.9038 0.833496 12.5198 1.4495 12.5198 2.2085V8.242C12.5198 9.001 11.9038 9.617 11.1448 9.617" fill="#7147E9"/>
<mask id="mask0_79_3028" style="mask-type:luminance" maskUnits="userSpaceOnUse" x="0" y="3" width="37" height="38">
<path fill-rule="evenodd" clip-rule="evenodd" d="M0.666748 3.72852H36.4167V40.2502H0.666748V3.72852Z" fill="white"/>
</mask>
<g mask="url(#mask0_79_3028)">
<path fill-rule="evenodd" clip-rule="evenodd" d="M10.7886 6.47852C6.03475 6.47852 3.41675 9.01402 3.41675 13.6175V30.2073C3.41675 34.9117 6.03475 37.5003 10.7886 37.5003H26.2949C31.0487 37.5003 33.6667 34.9593 33.6667 30.3467V13.6175C33.6741 11.3533 33.0654 9.59335 31.8572 8.38335C30.6142 7.13668 28.6984 6.47852 26.3114 6.47852H10.7886ZM26.2949 40.2503H10.7886C4.54608 40.2503 0.666748 36.4022 0.666748 30.2073V13.6175C0.666748 7.51618 4.54608 3.72852 10.7886 3.72852H26.3114C29.4446 3.72852 32.0351 4.66718 33.8042 6.44002C35.5221 8.16518 36.4259 10.6457 36.4167 13.6212V30.3467C36.4167 36.4553 32.5374 40.2503 26.2949 40.2503V40.2503Z" fill="#7147E9"/>
</g>
</svg>
