<svg width="56" height="56" viewBox="0 0 56 56" fill="none" xmlns="http://www.w3.org/2000/svg">
<path d="M55.3796 29.2571C55.7279 28.5605 55.7279 27.5156 55.3796 26.4707C55.0313 26.1224 55.0313 25.7742 54.683 25.4258L30.302 1.04484C28.9088 -0.348381 26.819 -0.348381 25.4259 1.04484C24.0327 2.43807 24.0327 4.52787 25.4259 5.92101L43.8857 24.3808H3.48302C1.39322 24.3808 0 25.7741 0 27.8639C0 29.9537 1.39322 31.3469 3.48302 31.3469H43.8857L25.4259 49.8067C24.0327 51.1999 24.0327 53.2897 25.4259 54.6829C26.1224 55.3795 27.1673 55.7278 27.864 55.7278C28.5607 55.7278 29.6055 55.3795 30.3021 54.6829L54.6831 30.3019C55.0314 29.9536 55.3797 29.6053 55.3797 29.257L55.3796 29.2571Z" fill="#116466"/>
</svg>
