<svg width="52" height="50" viewBox="0 0 52 50" fill="none" xmlns="http://www.w3.org/2000/svg">
<path d="M28.5432 1.06271C27.8056 1.39164 27.676 1.66076 26.6892 4.71081L25.7622 7.55155H22.8119C20.8383 7.55155 19.7419 7.59142 19.5126 7.67116C18.6753 7.95025 18.2268 8.56823 18.2268 9.44537C18.2268 10.3923 18.3664 10.5418 21.0675 12.4954C22.4132 13.4623 23.5096 14.3195 23.5096 14.3793C23.5096 14.449 23.1109 15.7349 22.6125 17.2499C22.1241 18.765 21.7154 20.1505 21.7154 20.3299C21.7254 21.4761 22.9115 22.4031 23.978 22.124C24.4366 21.9944 24.7256 21.8051 27.6959 19.6321C28.5531 19.0042 29.2907 18.5357 29.3705 18.5656C29.4502 18.5955 30.5466 19.373 31.8225 20.3C34.3542 22.1539 34.723 22.3433 35.4606 22.124C36.2381 21.8848 36.856 21.0974 36.866 20.3299C36.866 20.1505 36.4573 18.765 35.9689 17.2499C35.4706 15.7249 35.0818 14.4291 35.0918 14.3593C35.1117 14.2896 36.1982 13.4523 37.5139 12.5054C40.1952 10.5617 40.3546 10.3923 40.3546 9.4354C40.3546 8.99683 40.2948 8.79748 40.0656 8.43865C39.5572 7.62132 39.4675 7.60138 35.9091 7.57148L32.8092 7.54158L31.8922 4.70085C31.0948 2.23888 30.9254 1.8003 30.6164 1.46141C30.0782 0.873328 29.2907 0.713849 28.5432 1.06271ZM30.3971 5.27896C30.9453 6.9834 31.4038 8.22934 31.5533 8.42869C32.0617 9.10647 31.9919 9.08654 35.5204 9.14634C38.6801 9.19618 38.71 9.19618 38.7399 9.4055C38.7698 9.58491 38.3711 9.91384 36.5171 11.2495C35.2712 12.1466 34.1449 12.9938 34.0053 13.1333C33.6764 13.4523 33.4771 13.9307 33.4771 14.3892C33.4771 14.5886 33.8857 15.994 34.3741 17.5091C34.8725 19.0341 35.2712 20.3199 35.2712 20.3797C35.2712 20.7684 34.8227 20.5192 32.6199 18.9145C30.2177 17.1502 29.819 16.921 29.2708 16.921C28.7425 16.931 28.2641 17.21 25.9018 18.9544C24.6658 19.8614 23.6392 20.609 23.6093 20.609C23.5793 20.609 23.4896 20.5691 23.4099 20.5093C23.2903 20.4395 23.4099 19.971 24.1874 17.5788C24.6957 16.0239 25.1044 14.5886 25.1044 14.3892C25.1044 13.9208 24.905 13.4523 24.5661 13.1134C24.4166 12.9739 23.2903 12.1266 22.0543 11.2295C20.2203 9.91384 19.8216 9.57495 19.8415 9.4055C19.8714 9.19618 19.9113 9.19618 23.061 9.14634C26.1908 9.09651 26.2606 9.09651 26.5696 8.86726C26.749 8.74765 26.9783 8.51839 27.0779 8.36888C27.1876 8.21937 27.686 6.83389 28.1843 5.27896C28.9618 2.87679 29.1213 2.46813 29.2907 2.46813C29.4602 2.46813 29.6196 2.87679 30.3971 5.27896Z" fill="#7836F8"/>
<path d="M47.3816 21.6457C46.664 21.8251 46.1457 22.1242 45.3483 22.8119L44.6406 23.4199L44.0425 22.8717C43.2451 22.1242 42.5773 21.865 41.451 21.865C40.0356 21.865 39.8562 21.9746 36.9058 24.5463L34.3541 26.779L25.3635 26.8188C16.4824 26.8487 16.3728 26.8487 15.5555 27.068C14.5089 27.3471 13.4025 27.8555 12.5951 28.4236C12.2562 28.6728 11.2495 29.6197 10.3624 30.5367C9.48525 31.4537 8.73769 32.1813 8.71776 32.1614C8.69782 32.1415 8.47854 31.8026 8.22935 31.4039C7.70107 30.5866 7.34224 30.3473 6.65449 30.3374C6.23585 30.3374 5.98666 30.4669 4.0131 31.683C2.817 32.4206 1.71061 33.1283 1.55113 33.2678C1.00292 33.7163 0.833472 34.4838 1.14246 35.0919C1.23217 35.2713 3.17583 38.431 5.44842 42.1189C8.26922 46.694 9.6846 48.8968 9.89392 49.0463C10.1232 49.2058 10.3425 49.2656 10.7511 49.2656C11.2694 49.2656 11.389 49.2158 12.8443 48.3287C16.3828 46.1657 16.4725 46.096 16.4027 45.1291C16.3728 44.7204 16.2731 44.4314 16.004 43.9829L15.6352 43.3848L23.5394 43.325C31.2842 43.2752 31.4536 43.2652 32.2809 43.0559C33.3873 42.7668 34.7528 42.0791 35.62 41.3714C36.7364 40.4643 50.7407 28.1844 51.0497 27.8455C51.5281 27.3172 51.9169 26.3803 51.9866 25.6227C52.1461 23.709 50.8703 22.0245 48.9465 21.6158C48.2987 21.4862 48.0295 21.4862 47.3816 21.6457ZM49.2356 23.41C50.2822 23.9382 50.7008 25.2141 50.1725 26.3205C50.043 26.5996 48.0694 28.3837 42.5075 33.2479C38.391 36.8461 34.8226 39.966 34.5734 40.1653C33.9255 40.6836 32.9388 41.192 32.0816 41.4611L31.334 41.6804L22.9613 41.7103L14.5886 41.7402L12.1067 37.7033L9.63476 33.6665L9.89392 33.3575C10.0335 33.1881 10.7212 32.4505 11.4289 31.7129C13.2629 29.7592 14.16 29.1313 15.8046 28.6628L16.5821 28.4336H25.802H35.022L35.5004 28.7127C36.1882 29.1213 36.5071 29.6496 36.547 30.4769C36.5869 31.2045 36.4573 31.5933 35.9788 32.1016C35.3908 32.7395 35.6499 32.7196 29.6096 32.7694L24.0876 32.8193L23.8982 33.0585C23.6491 33.3675 23.6491 33.9057 23.9082 34.1649C24.1076 34.3642 24.1973 34.3742 29.7691 34.3443L35.4207 34.3144L35.9788 34.0552C36.9856 33.5768 37.6035 32.889 38.0122 31.7527C38.2215 31.1846 38.2714 31.1248 42.4577 27.4568C44.7901 25.4134 46.8434 23.6392 47.0029 23.5196C47.6209 23.081 48.508 23.0412 49.2356 23.41ZM42.4178 23.6292C42.7069 23.7788 43.3448 24.3768 43.3448 24.4964C43.3448 24.5861 38.082 29.1811 37.9923 29.1811C37.9424 29.1811 37.8228 28.9918 37.7132 28.7725C37.6135 28.5432 37.2447 28.1046 36.8958 27.7957L36.2779 27.2175L38.082 25.6327C40.3047 23.689 40.2948 23.699 40.7433 23.5296C41.1719 23.3701 42.0092 23.4199 42.4178 23.6292ZM10.7511 38.5207C12.9739 42.1189 14.7979 45.0892 14.8179 45.1291C14.8378 45.169 14.0304 45.7072 13.0237 46.3352C12.017 46.9532 11.11 47.5213 10.9903 47.5911C10.791 47.7207 10.6215 47.4715 6.72426 41.1421C4.49154 37.5239 2.67746 34.5137 2.69739 34.4639C2.73726 34.3443 6.45514 31.992 6.61462 31.982C6.67442 31.982 8.52837 34.9224 10.7511 38.5207Z" fill="#7836F8"/>
</svg>
