<svg width="24" height="24" viewBox="0 0 24 24" fill="none" xmlns="http://www.w3.org/2000/svg">
<path d="M4.25602 16.5938C3.13935 14.7098 2.74875 12.483 3.15755 10.3314C3.56636 8.17983 4.74645 6.25146 6.47628 4.90832C8.20611 3.56517 10.3667 2.89961 12.5525 3.0366C14.7383 3.17358 16.7989 4.10368 18.3475 5.65229C19.8961 7.20089 20.8262 9.26151 20.9632 11.4473C21.1002 13.6331 20.4346 15.7937 19.0915 17.5235C17.7483 19.2533 15.8199 20.4334 13.6684 20.8422C11.5168 21.251 9.29001 20.8604 7.40602 19.7438V19.7438L4.29352 20.625C4.16599 20.6623 4.03079 20.6646 3.90207 20.6317C3.77335 20.5988 3.65586 20.5318 3.56191 20.4379C3.46796 20.3439 3.40101 20.2264 3.36809 20.0977C3.33516 19.969 3.33747 19.8338 3.37477 19.7063L4.25602 16.5938Z" stroke="#685143" stroke-width="2" stroke-linecap="round" stroke-linejoin="round"/>
<path d="M12 13.125C12.6213 13.125 13.125 12.6213 13.125 12C13.125 11.3787 12.6213 10.875 12 10.875C11.3787 10.875 10.875 11.3787 10.875 12C10.875 12.6213 11.3787 13.125 12 13.125Z" fill="#685143"/>
<path d="M7.5 13.125C8.12132 13.125 8.625 12.6213 8.625 12C8.625 11.3787 8.12132 10.875 7.5 10.875C6.87868 10.875 6.375 11.3787 6.375 12C6.375 12.6213 6.87868 13.125 7.5 13.125Z" fill="#685143"/>
<path d="M16.5 13.125C17.1213 13.125 17.625 12.6213 17.625 12C17.625 11.3787 17.1213 10.875 16.5 10.875C15.8787 10.875 15.375 11.3787 15.375 12C15.375 12.6213 15.8787 13.125 16.5 13.125Z" fill="#685143"/>
</svg>
