<svg width="50" height="51" viewBox="0 0 50 51" fill="none" xmlns="http://www.w3.org/2000/svg">
<circle cx="25" cy="25.5" r="25" fill="#F2F2F2"/>
<path opacity="0.5" d="M34 13.5H16C15.6056 13.498 15.2147 13.5898 14.85 13.77C14.4853 13.9502 14.1539 14.2153 13.875 14.55C13.5961 14.8847 13.3752 15.2824 13.225 15.72C13.0748 16.1577 12.9984 16.6267 13 17.1V33.9C12.9984 34.3733 13.0748 34.8423 13.225 35.28C13.3752 35.7176 13.5961 36.1153 13.875 36.45C14.1539 36.7847 14.4853 37.0498 14.85 37.23C15.2147 37.4102 15.6056 37.502 16 37.5H34C34.3944 37.502 34.7853 37.4102 35.15 37.23C35.5147 37.0498 35.8461 36.7847 36.125 36.45C36.4039 36.1153 36.6248 35.7176 36.775 35.28C36.9252 34.8423 37.0016 34.3733 37 33.9V17.1C37.0016 16.6267 36.9252 16.1577 36.775 15.72C36.6248 15.2824 36.4039 14.8847 36.125 14.55C35.8461 14.2153 35.5147 13.9502 35.15 13.77C34.7853 13.5898 34.3944 13.498 34 13.5ZM29.5 32.7H20.5C19.837 32.7 19.2011 32.3839 18.7322 31.8213C18.2634 31.2587 18 30.4956 18 29.7C18 28.9043 18.2634 28.1413 18.7322 27.5787C19.2011 27.0161 19.837 26.7 20.5 26.7H29.5C30.163 26.7 30.7989 27.0161 31.2678 27.5787C31.7366 28.1413 32 28.9043 32 29.7C32 30.4956 31.7366 31.2587 31.2678 31.8213C30.7989 32.3839 30.163 32.7 29.5 32.7Z" fill="#9BBEA2"/>
<path d="M34 13.5H16C14.3431 13.5 13 15.1118 13 17.1V33.8999C13 35.8882 14.3431 37.4999 16 37.4999H34C35.6568 37.4999 36.9999 35.8882 36.9999 33.8999V17.1C36.9999 15.1118 35.6568 13.5 34 13.5Z" stroke="black" stroke-width="1.5" stroke-linecap="round" stroke-linejoin="round"/>
<path d="M29.499 26.6992H20.499C19.1183 26.6992 17.999 28.0424 17.999 29.6992C17.999 31.3561 19.1183 32.6992 20.499 32.6992H29.499C30.8797 32.6992 31.999 31.3561 31.999 29.6992C31.999 28.0424 30.8797 26.6992 29.499 26.6992Z" stroke="black" stroke-width="1.5" stroke-linecap="round" stroke-linejoin="round"/>
<path d="M27.5 26.6992V32.6992" stroke="black" stroke-width="1.5" stroke-linecap="round" stroke-linejoin="round"/>
<path d="M22.501 26.6992V32.6992" stroke="black" stroke-width="1.5" stroke-linecap="round" stroke-linejoin="round"/>
<path d="M19.499 23.1C20.3274 23.1 20.999 22.2941 20.999 21.3C20.999 20.3059 20.3274 19.5 19.499 19.5C18.6706 19.5 17.999 20.3059 17.999 21.3C17.999 22.2941 18.6706 23.1 19.499 23.1Z" fill="black"/>
<path d="M30.5 23.1C31.3284 23.1 32 22.2941 32 21.3C32 20.3059 31.3284 19.5 30.5 19.5C29.6716 19.5 29 20.3059 29 21.3C29 22.2941 29.6716 23.1 30.5 23.1Z" fill="black"/>
</svg>
