<svg width="32" height="32" viewBox="0 0 32 32" fill="none" xmlns="http://www.w3.org/2000/svg">
<path opacity="0.4" d="M16 29.3334C23.3638 29.3334 29.3334 23.3639 29.3334 16.0001C29.3334 8.63628 23.3638 2.66675 16 2.66675C8.63622 2.66675 2.66669 8.63628 2.66669 16.0001C2.66669 23.3639 8.63622 29.3334 16 29.3334Z" stroke="#64B45C" stroke-width="2" stroke-linecap="round" stroke-linejoin="round"/>
<path d="M10.6667 18.6666C10.6667 18.6666 12.6667 21.3333 16 21.3333C19.3334 21.3333 21.3334 18.6666 21.3334 18.6666M20 11.9999H20.0134M10.6667 11.9999H13.3334M20.6667 11.9999C20.6667 12.3681 20.3682 12.6666 20 12.6666C19.6318 12.6666 19.3334 12.3681 19.3334 11.9999C19.3334 11.6317 19.6318 11.3333 20 11.3333C20.3682 11.3333 20.6667 11.6317 20.6667 11.9999Z" stroke="#64B45C" stroke-width="2" stroke-linecap="round" stroke-linejoin="round"/>
</svg>
