<svg width="38" height="47" viewBox="0 0 38 47" fill="none" xmlns="http://www.w3.org/2000/svg">
<path d="M27.138 0.130283C26.2563 0.267429 25.3453 0.56131 24.6008 0.933559C24.0033 1.23724 23.0628 1.86418 22.8865 2.0797C22.769 2.22663 21.7698 2.23643 12.2382 2.23643C5.20467 2.23643 1.63891 2.26582 1.46258 2.33439C0.904206 2.5499 0.94339 1.19806 0.933594 22.3477V41.9202L1.17849 42.1553C1.4136 42.4002 1.43319 42.4002 3.28464 42.4002H5.14589V44.428C5.15568 45.8778 5.18507 46.5145 5.27324 46.6223C5.46916 46.877 5.83161 47.0239 6.08631 46.9651C6.22345 46.9259 6.95816 46.3284 7.72225 45.6329C8.48634 44.9276 9.14267 44.3594 9.17206 44.3594C9.21124 44.3594 9.82839 44.908 10.5435 45.5643C12.2774 47.1708 12.3852 47.2198 12.8946 46.7202L13.1786 46.4361V44.4182V42.4002H22.4261H31.6833L31.9576 42.1651L32.2319 41.93L32.2613 29.2441L32.2809 16.568L32.9274 16.186C36.0328 14.3737 37.7471 10.5533 37.0222 7.06588C36.6499 5.24382 35.9544 3.95074 34.632 2.62827C33.1626 1.15887 31.5168 0.336002 29.538 0.0910988C28.529 -0.0362473 28.147 -0.0362473 27.138 0.130283ZM30.2237 1.8152C33.2213 2.5499 35.4058 5.19484 35.5822 8.30998C35.7095 10.5533 34.6907 12.8847 32.9862 14.2366C31.076 15.7648 28.4702 16.235 26.2563 15.4807C25.0808 15.0692 24.4147 14.648 23.4645 13.6978C22.0441 12.2872 21.3681 10.661 21.3877 8.70182C21.3975 5.98832 22.8277 3.64706 25.218 2.39317C26.7559 1.58989 28.4996 1.38418 30.2237 1.8152ZM21.2114 3.85278C21.2114 3.87237 21.0644 4.17605 20.8783 4.50911C20.2514 5.64545 19.9183 6.81118 19.791 8.23161L19.7224 8.9957H13.7076C8.61369 8.9957 7.64388 9.01529 7.40877 9.14264C6.95816 9.37774 6.86999 9.86755 7.21285 10.3084L7.40877 10.5631L13.688 10.5827L19.9575 10.612L20.173 11.2978C20.4375 12.1108 20.9175 13.0806 21.3681 13.7174L21.7012 14.1876H14.6872C8.73124 14.1876 7.64388 14.2072 7.40877 14.3345C6.95816 14.5696 6.86999 15.0594 7.21285 15.5003L7.40877 15.755H15.3925H23.3665L23.9151 16.1076C24.5812 16.5289 25.5412 16.9403 26.4621 17.1852C27.2457 17.3909 29.636 17.4399 30.2433 17.2538C30.4393 17.195 30.6254 17.1754 30.6548 17.2048C30.6842 17.2342 30.7135 22.5632 30.7135 29.0482V40.8328H21.9461H13.1786V39.1577V37.4728L13.5411 37.0026L13.9035 36.5226H19.791C24.258 36.5128 25.7078 36.4834 25.8253 36.3952C26.2661 36.0621 26.2759 35.494 25.8449 35.1511C25.6 34.965 25.4335 34.9552 20.0653 34.9552H14.5305L14.6089 34.6417C14.7754 33.858 14.6285 32.3397 14.3052 31.4972C14.2366 31.3405 14.5501 31.3307 19.9477 31.3307C24.2873 31.3209 25.7078 31.2915 25.8253 31.2033C26.2661 30.8702 26.2759 30.3021 25.8449 29.9592C25.6 29.7731 25.4237 29.7633 19.3893 29.7633H13.1884L12.5713 29.2931C11.7484 28.6759 10.906 28.3135 9.95574 28.1763C7.93776 27.8825 5.88059 28.7445 4.71486 30.3804C4.04873 31.3209 3.75485 32.1535 3.69608 33.3388C3.6275 34.7887 3.94098 35.8466 4.77364 36.9438L5.14589 37.4434V39.1381V40.8328H3.82342H2.50096V22.3183V3.8038H11.8562C16.9991 3.8038 21.2114 3.82339 21.2114 3.85278ZM10.7786 30.0376C11.6309 30.4392 12.3166 31.1054 12.7182 31.9086C13.0121 32.516 13.0317 32.6139 13.0317 33.6327C13.0317 34.5927 13.0023 34.7691 12.7672 35.2687C12.0227 36.8556 10.2006 37.8254 8.54511 37.5218C7.21285 37.2769 6.15488 36.4736 5.56712 35.2687C5.31242 34.7593 5.29283 34.6123 5.29283 33.6327C5.29283 32.6531 5.31242 32.5062 5.56712 31.9968C6.54672 29.9984 8.84879 29.1363 10.7786 30.0376ZM8.71165 39.1381C9.51492 39.1969 10.5729 39.0499 11.1998 38.7756L11.6113 38.5895V41.4891V44.3986L11.3468 44.1537C11.19 44.0165 10.7296 43.5953 10.2986 43.2035C9.24063 42.2239 9.09369 42.2336 7.97694 43.2524C7.52633 43.6639 7.05612 44.0949 6.93856 44.2027L6.71325 44.3888V41.4989V38.5993L7.35979 38.8344C7.71245 38.9716 8.3296 39.0989 8.71165 39.1381Z" fill="#7836F8"/>
<path d="M28.0588 3.04972C27.8237 3.22604 27.6768 3.55911 27.6768 3.89217C27.6768 4.09789 27.6278 4.19585 27.5298 4.19585C27.0498 4.19585 26.0213 4.98933 25.6882 5.60648C25.3845 6.17465 25.3943 7.31099 25.6882 7.87916C26.0898 8.64325 26.9715 9.17224 28.2743 9.44653C29.6752 9.74041 30.2238 10.1225 30.2238 10.8082C30.2238 11.2098 29.7633 11.6017 29.1266 11.7388C28.0588 11.9837 27.2164 11.6604 26.8245 10.8572C26.4327 10.0833 25.8939 9.85796 25.4433 10.2694C25.0808 10.6123 25.071 10.8963 25.4139 11.5919C25.7861 12.3462 26.3347 12.8458 27.0988 13.12C27.6278 13.316 27.6572 13.3356 27.7062 13.7274C27.7747 14.2172 28.0588 14.4817 28.4996 14.4817C28.9209 14.4817 29.2441 14.1388 29.2441 13.6882C29.2441 13.3649 29.2735 13.3356 29.6654 13.2376C31.3503 12.7772 32.2123 11.2392 31.5952 9.79918C31.1936 8.86856 30.2727 8.26121 28.8131 7.95753C27.8335 7.76161 27.4515 7.59508 27.1968 7.27181C26.6286 6.5469 27.3731 5.63587 28.5192 5.64567C29.1168 5.64567 29.5282 5.84159 29.8515 6.25302C30.4589 7.0465 30.4882 7.06609 30.7919 7.06609C31.1838 7.06609 31.5952 6.70364 31.5952 6.36078C31.5952 6.01791 31.0956 5.16566 30.694 4.83259C30.4001 4.58769 29.8319 4.28402 29.4205 4.15667C29.2931 4.11748 29.2441 3.99993 29.2441 3.75503C29.2441 3.11829 28.529 2.68726 28.0588 3.04972Z" fill="#7836F8"/>
<path d="M7.42836 19.4777C6.96795 19.6639 6.86999 20.33 7.25204 20.7022L7.48714 20.9471H16.5485C21.5249 20.9471 25.6784 20.9178 25.7665 20.8884C26.0016 20.7904 26.2172 20.3006 26.1486 20.0165C26.1192 19.8794 25.9723 19.6835 25.8449 19.5757C25.6 19.3798 25.4237 19.3798 16.617 19.3896C11.6798 19.3896 7.54592 19.4288 7.42836 19.4777Z" fill="#7836F8"/>
<path d="M7.42836 24.6696C6.96795 24.8558 6.86999 25.5219 7.25204 25.8941L7.48714 26.139H16.5485C21.5249 26.139 25.6784 26.1096 25.7665 26.0803C26.0016 25.9823 26.2172 25.4925 26.1486 25.2084C26.1192 25.0713 25.9723 24.8753 25.8449 24.7676C25.6 24.5717 25.4237 24.5717 16.617 24.5815C11.6798 24.5815 7.54592 24.6207 7.42836 24.6696Z" fill="#7836F8"/>
<path d="M10.8766 31.2427C10.7688 31.3014 10.2888 31.899 9.79901 32.5749C9.319 33.2606 8.87818 33.8582 8.839 33.917C8.79002 33.9856 8.53532 33.7798 8.15327 33.3684C7.38918 32.5357 7.06591 32.4378 6.6055 32.8884C6.14509 33.3586 6.24305 33.6035 7.39898 34.9064C8.39818 36.0329 8.66267 36.2093 9.09369 36.0427C9.41696 35.9154 12.0031 32.281 12.0031 31.948C12.0031 31.6639 11.5133 31.1349 11.2488 31.1447C11.1509 31.1447 10.9843 31.1937 10.8766 31.2427Z" fill="#7836F8"/>
</svg>
