<svg width="54" height="51" viewBox="0 0 54 51" fill="none" xmlns="http://www.w3.org/2000/svg">
<path d="M14.3435 41.4193C14.3435 41.4193 11.7556 24.5949 29.361 22.6846C42.4536 21.2637 52.5453 31.9676 52.5453 31.9676C52.5453 31.9676 45.2601 46.1641 30.8802 47.7464C23.5221 48.5552 17.2193 45.1585 17.2193 45.1585" stroke="#00183A" stroke-width="2" stroke-linecap="square" stroke-linejoin="round"/>
<path d="M8.84352 49.5134C8.84352 49.5134 13.349 40.2402 24.2654 35.0923C31.887 31.4976 41.3777 32.6477 41.3777 32.6477M8.14291 32.5159C2.94158 29.4386 1.54004 24.5026 1.54004 19.328C1.54004 9.98913 10.1126 1.81006 10.1126 1.81006C10.1126 1.81006 16.0462 8.02543 17.1185 14.5238C18.3633 22.0689 13.0162 27.4172 12.137 28.0766M9.23456 12.9232C3.71263 25.0734 10.8182 32.8383 9.64625 39.9439" stroke="#00183A" stroke-width="2" stroke-linecap="square" stroke-linejoin="round"/>
<path d="M8.14291 32.5159C2.94158 29.4386 1.54004 24.5026 1.54004 19.328C1.54004 9.98913 10.1126 1.81006 10.1126 1.81006C10.1126 1.81006 16.0462 8.02543 17.1185 14.5238C18.3633 22.0689 13.0162 27.4172 12.137 28.0766M9.23456 12.9232C3.71263 25.0734 10.8182 32.8383 9.64625 39.9439" stroke="#DEB25E" stroke-width="2" stroke-linecap="square" stroke-linejoin="round"/>
</svg>
