<svg width="60" height="60" viewBox="0 0 60 60" fill="none" xmlns="http://www.w3.org/2000/svg">
<g id="creativity 1">
<path id="Vector" d="M44.3627 15.1875C44.1871 15.0129 43.9495 14.9149 43.7018 14.9149C43.4541 14.9149 43.2165 15.0129 43.0408 15.1875L30.4033 27.4406C30.2243 27.6146 30.1218 27.8527 30.1183 28.1023C30.1147 28.352 30.2105 28.5928 30.3846 28.7718C30.5586 28.9509 30.7967 29.0534 31.0463 29.0569C31.296 29.0604 31.5368 28.9646 31.7158 28.7906L44.344 16.5093C44.5211 16.3362 44.6225 16.1 44.626 15.8523C44.6295 15.6046 44.5349 15.3656 44.3627 15.1875Z" fill="#2769A0"/>
<path id="Vector_2" d="M51.2248 24.75H49.7529C49.502 24.7509 49.2572 24.6725 49.0535 24.5261C48.8498 24.3796 48.6976 24.1725 48.6186 23.9344C48.1878 22.6532 47.6287 21.4188 46.9498 20.25L52.7248 14.5406C53.5658 13.6986 54.0382 12.5572 54.0382 11.3672C54.0382 10.1771 53.5658 9.03574 52.7248 8.19374L51.2436 6.75936C50.403 5.92727 49.267 5.46208 48.0842 5.46561C47.4962 5.46497 46.9139 5.58154 46.3714 5.80851C45.829 6.03547 45.3372 6.36828 44.9248 6.78749L39.1123 12.525C38.0401 11.9411 36.9205 11.4488 35.7654 11.0531C35.5283 10.9737 35.3224 10.8211 35.1775 10.6173C35.0326 10.4134 34.9562 10.1688 34.9592 9.91874V8.43749C34.9567 7.62109 34.6306 6.83897 34.0525 6.26256C33.4743 5.68616 32.6912 5.36248 31.8748 5.36249H26.6154C25.799 5.36248 25.0159 5.68616 24.4378 6.26256C23.8596 6.83897 23.5335 7.62109 23.5311 8.43749V9.90936C23.532 10.1603 23.4536 10.405 23.3071 10.6088C23.1607 10.8125 22.9536 10.9647 22.7154 11.0437C21.8274 11.3465 20.9599 11.7066 20.1186 12.1219C19.8952 12.2307 19.6435 12.2675 19.3984 12.2272C19.1532 12.1869 18.9266 12.0715 18.7498 11.8969L17.7186 10.8562C17.1374 10.2803 16.3524 9.95717 15.5342 9.95717C14.716 9.95717 13.9309 10.2803 13.3498 10.8562L9.65605 14.55C9.36863 14.8365 9.14057 15.177 8.98497 15.5518C8.82936 15.9266 8.74926 16.3285 8.74926 16.7344C8.74926 17.1402 8.82936 17.5421 8.98497 17.9169C9.14057 18.2918 9.36863 18.6322 9.65605 18.9187L10.6873 19.9594C10.8654 20.1358 10.9838 20.3636 11.0259 20.6108C11.0679 20.858 11.0315 21.1121 10.9217 21.3375C10.5039 22.1765 10.1467 23.0443 9.85293 23.9344C9.77094 24.1725 9.61666 24.3791 9.41162 24.5253C9.20658 24.6715 8.96101 24.75 8.70918 24.75H7.22793C6.4099 24.75 5.62538 25.0749 5.04695 25.6534C4.46851 26.2318 4.14355 27.0163 4.14355 27.8344V33.0562C4.14355 33.8743 4.46851 34.6588 5.04695 35.2372C5.62538 35.8157 6.4099 36.1406 7.22793 36.1406H8.6998C8.95071 36.1397 9.19549 36.2181 9.39921 36.3645C9.60292 36.511 9.75516 36.7181 9.83418 36.9562C10.1369 37.8443 10.497 38.7118 10.9123 39.5531C11.0221 39.7785 11.0585 40.0326 11.0165 40.2798C10.9745 40.527 10.8561 40.7548 10.6779 40.9312L9.64668 41.9719C9.35158 42.2542 9.11646 42.5932 8.95538 42.9685C8.7943 43.3439 8.71056 43.7478 8.70918 44.1562C8.71319 44.5642 8.79812 44.9674 8.95905 45.3424C9.11997 45.7173 9.3537 46.0566 9.64668 46.3406L13.3404 50.0344C13.9216 50.6103 14.7066 50.9334 15.5248 50.9334C16.343 50.9334 17.1281 50.6103 17.7092 50.0344L18.7498 48.9937C18.9244 48.8161 19.15 48.6971 19.3953 48.6535C19.6405 48.6098 19.8933 48.6435 20.1186 48.75C20.9583 49.1662 21.826 49.5233 22.7154 49.8187C22.9535 49.9007 23.1601 50.055 23.3063 50.26C23.4526 50.4651 23.5311 50.7107 23.5311 50.9625V52.4344C23.5311 53.2524 23.856 54.0369 24.4344 54.6153C25.0129 55.1938 25.7974 55.5187 26.6154 55.5187H31.8748C32.2806 55.52 32.6827 55.4411 33.058 55.2866C33.4333 55.1322 33.7744 54.9052 34.0618 54.6187C34.3493 54.3321 34.5773 53.9917 34.7329 53.6169C34.8885 53.242 34.9686 52.8402 34.9686 52.4344V50.9719C34.965 50.7205 35.0411 50.4745 35.1859 50.269C35.3307 50.0636 35.5369 49.9092 35.7748 49.8281C36.6554 49.5297 37.5138 49.1694 38.3436 48.75C38.5675 48.6409 38.8201 48.6049 39.0656 48.647C39.3112 48.689 39.5374 48.807 39.7123 48.9844L40.7529 50.025C41.3341 50.6009 42.1191 50.924 42.9373 50.924C43.7555 50.924 44.5406 50.6009 45.1217 50.025L48.8154 46.3312C49.3914 45.7501 49.7145 44.965 49.7145 44.1469C49.7145 43.3287 49.3914 42.5436 48.8154 41.9625L47.8123 40.9312C47.6342 40.7548 47.5158 40.527 47.4737 40.2798C47.4317 40.0326 47.4681 39.7785 47.5779 39.5531C47.9987 38.7143 48.359 37.8465 48.6561 36.9562C48.7351 36.7181 48.8873 36.511 49.091 36.3645C49.2947 36.2181 49.5395 36.1397 49.7904 36.1406H51.2623C52.0803 36.1406 52.8649 35.8157 53.4433 35.2372C54.0217 34.6588 54.3467 33.8743 54.3467 33.0562V27.8344C54.3467 27.4261 54.2657 27.022 54.1084 26.6453C53.951 26.2686 53.7205 25.9269 53.4301 25.64C53.1397 25.3531 52.7952 25.1267 52.4167 24.9739C52.0381 24.8211 51.633 24.745 51.2248 24.75ZM42.7873 26.025C43.7225 28.9002 43.7227 31.9977 42.7879 34.873C41.8531 37.7483 40.0315 40.2536 37.5843 42.0292C35.1372 43.8048 32.1905 44.7594 29.167 44.7561C26.1436 44.7529 23.1989 43.7918 20.7557 42.0109C18.3124 40.23 16.4962 37.7208 15.5677 34.8435C14.6391 31.9661 14.6461 28.8686 15.5875 25.9955C16.5289 23.1223 18.3563 20.6213 20.8075 18.8513C23.2587 17.0814 26.2076 16.1335 29.2311 16.1437C31.0088 16.1422 32.7709 16.4761 34.4248 17.1281L23.1748 28.2844C23.0515 28.4051 22.9639 28.5576 22.9217 28.725L20.7748 37.275C20.7262 37.4386 20.7233 37.6124 20.7662 37.7777C20.8092 37.9429 20.8964 38.0932 21.0186 38.2125C21.1054 38.3011 21.2089 38.3715 21.3232 38.4198C21.4374 38.4681 21.5601 38.4932 21.6842 38.4937C21.7589 38.5028 21.8345 38.5028 21.9092 38.4937L30.5529 36.3656C30.7183 36.3305 30.8688 36.2454 30.9842 36.1219L42.3842 24.8719C42.5531 25.2486 42.7032 25.6334 42.8342 26.025H42.7873ZM24.3092 30.7687L28.4529 34.8656L22.9498 36.225L24.3092 30.7687ZM30.2998 34.0594L25.1342 28.95L43.7342 10.575L48.8998 15.6844L30.2998 34.0594ZM48.1123 7.34061C48.8117 7.33368 49.4856 7.60323 49.9873 8.09061L51.4311 9.52499C51.92 10.0153 52.1945 10.6795 52.1945 11.3719C52.1945 12.0643 51.92 12.7284 51.4311 13.2187L50.2686 14.3625L45.0654 9.25311L46.2186 8.10936C46.4603 7.86548 46.748 7.67197 47.065 7.54001C47.382 7.40806 47.722 7.34028 48.0654 7.34061H48.1123ZM52.4811 33.0562C52.4811 33.377 52.3536 33.6846 52.1268 33.9114C51.9 34.1382 51.5924 34.2656 51.2717 34.2656H49.7529C49.1146 34.2736 48.4945 34.48 47.9787 34.8563C47.463 35.2326 47.0772 35.7601 46.8748 36.3656C46.613 37.1692 46.2999 37.9552 45.9373 38.7187C45.6543 39.2951 45.5581 39.9454 45.6623 40.5789C45.7665 41.2125 46.0658 41.7978 46.5186 42.2531L47.5592 43.2937C47.6723 43.4061 47.762 43.5398 47.8233 43.687C47.8845 43.8342 47.9161 43.9921 47.9161 44.1516C47.9161 44.311 47.8845 44.4689 47.8233 44.6161C47.762 44.7633 47.6723 44.897 47.5592 45.0094L43.7904 48.75C43.678 48.8631 43.5444 48.9528 43.3972 49.0141C43.2499 49.0753 43.0921 49.1069 42.9326 49.1069C42.7732 49.1069 42.6153 49.0753 42.4681 49.0141C42.3209 48.9528 42.1872 48.8631 42.0748 48.75L41.0342 47.7094C40.5866 47.2452 40.0037 46.9345 39.3689 46.8217C38.7341 46.7089 38.0799 46.7997 37.4998 47.0812C36.7338 47.4454 35.9446 47.7586 35.1373 48.0187C34.5252 48.2211 33.993 48.6123 33.6174 49.1362C33.2417 49.6601 33.0419 50.2897 33.0467 50.9344V52.4062C33.0543 52.7263 32.9356 53.0366 32.7164 53.2699C32.4971 53.5032 32.1948 53.6409 31.8748 53.6531H26.6154C26.2947 53.6531 25.9871 53.5257 25.7603 53.2989C25.5335 53.0721 25.4061 52.7645 25.4061 52.4437V50.9719C25.4094 50.3275 25.209 49.6986 24.8336 49.175C24.4581 48.6514 23.9268 48.2598 23.3154 48.0562C22.5081 47.7961 21.7189 47.4829 20.9529 47.1187C20.3776 46.8314 19.7262 46.733 19.0917 46.8373C18.4571 46.9417 17.8716 47.2436 17.4186 47.7L16.3779 48.75C16.2655 48.8631 16.1319 48.9528 15.9847 49.0141C15.8374 49.0753 15.6796 49.1069 15.5201 49.1069C15.3607 49.1069 15.2028 49.0753 15.0556 49.0141C14.9084 48.9528 14.7747 48.8631 14.6623 48.75L10.9686 45C10.8544 44.8894 10.764 44.7567 10.7027 44.61C10.6415 44.4634 10.6107 44.3058 10.6123 44.1469C10.6111 43.9866 10.642 43.8277 10.7032 43.6796C10.7643 43.5314 10.8546 43.397 10.9686 43.2844L12.0092 42.2437C12.4669 41.7915 12.7696 41.2059 12.874 40.571C12.9784 39.9361 12.8792 39.2844 12.5904 38.7094C12.2262 37.9434 11.9131 37.1542 11.6529 36.3469C11.4469 35.7371 11.0547 35.2073 10.5316 34.8323C10.0085 34.4572 9.38095 34.2557 8.7373 34.2562H7.22793C6.90718 34.2562 6.59957 34.1288 6.37277 33.902C6.14597 33.6752 6.01855 33.3676 6.01855 33.0469V27.8344C6.01855 27.5136 6.14597 27.206 6.37277 26.9792C6.59957 26.7524 6.90718 26.625 7.22793 26.625H8.6998C9.34413 26.6283 9.97303 26.428 10.4967 26.0525C11.0203 25.677 11.4119 25.1457 11.6154 24.5344C11.8755 23.724 12.1887 22.9317 12.5529 22.1625C12.8409 21.5889 12.9398 20.9388 12.8353 20.3055C12.7309 19.6722 12.4286 19.0883 11.9717 18.6375L10.9686 17.5969C10.7424 17.3686 10.6155 17.0603 10.6155 16.7391C10.6155 16.4178 10.7424 16.1095 10.9686 15.8812L14.6623 12.1875C14.7747 12.0744 14.9084 11.9846 15.0556 11.9234C15.2028 11.8621 15.3607 11.8306 15.5201 11.8306C15.6796 11.8306 15.8374 11.8621 15.9847 11.9234C16.1319 11.9846 16.2655 12.0744 16.3779 12.1875L17.4186 13.2281C17.8724 13.6833 18.4578 13.9843 19.092 14.0886C19.7263 14.1929 20.3772 14.0952 20.9529 13.8094C21.7189 13.4452 22.5081 13.132 23.3154 12.8719C23.926 12.667 24.4565 12.2752 24.8318 11.7518C25.2071 11.2285 25.408 10.6002 25.4061 9.95624V8.43749C25.4061 8.11674 25.5335 7.80913 25.7603 7.58233C25.9871 7.35553 26.2947 7.22811 26.6154 7.22811H31.8748C32.1899 7.2378 32.4889 7.36919 32.7092 7.5947C32.9295 7.8202 33.0538 8.12227 33.0561 8.43749V9.90936C33.0527 10.5537 33.2531 11.1826 33.6285 11.7062C34.004 12.2298 34.5354 12.6214 35.1467 12.825C36.0151 13.1271 36.861 13.4905 37.6779 13.9125L35.8779 15.6844C33.7906 14.7369 31.5234 14.2508 29.2311 14.2594C25.8273 14.2666 22.5131 15.3502 19.7624 17.3549C17.0117 19.3597 14.9655 22.1831 13.9165 25.4212C12.8675 28.6592 12.8694 32.1461 13.9219 35.383C14.9745 38.6199 17.0238 41.4411 19.7766 43.4428C22.5295 45.4446 25.845 46.5245 29.2487 46.5281C32.6524 46.5316 35.9701 45.4586 38.7272 43.4626C41.4842 41.4665 43.5393 38.6496 44.5986 35.4149C45.6579 32.1802 45.6671 28.6933 44.6248 25.4531C44.3874 24.7471 44.1024 24.058 43.7717 23.3906L45.5529 21.6281C46.0793 22.5555 46.5216 23.5282 46.8748 24.5344C47.0809 25.1441 47.473 25.6739 47.9961 26.049C48.5192 26.424 49.1468 26.6255 49.7904 26.625H51.2623C51.5831 26.625 51.8907 26.7524 52.1175 26.9792C52.3443 27.206 52.4717 27.5136 52.4717 27.8344L52.4811 33.0562Z" fill="#2769A0"/>
</g>
</svg>
