<svg width="18" height="17" viewBox="0 0 18 17" fill="none" xmlns="http://www.w3.org/2000/svg">
<path d="M8.16433 0.941859C8.46447 0.0222102 9.76548 0.0222085 10.0656 0.941857L11.3421 4.85295C11.4764 5.26434 11.86 5.54269 12.2927 5.54269H16.414C17.3838 5.54269 17.7858 6.78457 17 7.35295L13.6736 9.75903C13.3215 10.0137 13.1742 10.4665 13.309 10.8795L14.5814 14.7782C14.8818 15.6987 13.8293 16.4662 13.0447 15.8987L9.70105 13.4802C9.35129 13.2272 8.87867 13.2272 8.52891 13.4802L5.18529 15.8987C4.40071 16.4662 3.34814 15.6987 3.64857 14.7782L4.92097 10.8795C5.05578 10.4665 4.90844 10.0137 4.55639 9.75903L1.22993 7.35295C0.444142 6.78457 0.846201 5.54269 1.816 5.54269H5.93722C6.36996 5.54269 6.7536 5.26434 6.88787 4.85295L8.16433 0.941859Z" fill="#FFD232"/>
</svg>
