<svg width="47" height="47" viewBox="0 0 47 47" fill="none" xmlns="http://www.w3.org/2000/svg">
<path fill-rule="evenodd" clip-rule="evenodd" d="M8.69377 31.523C8.71213 29.4576 8.73967 29.3475 9.12521 29.1822C9.22619 29.1363 10.6123 29.118 12.2004 29.1271L12.2355 29.1276C15.0376 29.1639 15.1136 29.1649 15.8998 29.4025C18.6996 30.2562 20.5723 32.184 21.3158 34.9746C21.4903 35.6172 21.5086 36.0211 21.5361 40.6385L21.582 45.623H23.5006H25.4192V43.3373C25.4192 41.9879 25.4559 40.9506 25.511 40.7854C25.6028 40.5283 25.924 40.2988 26.1903 40.2988C26.2545 40.2988 26.4197 40.3814 26.5574 40.4916L26.7961 40.6752V43.6311C26.7961 46.5318 26.7961 46.5777 26.5942 46.7889L26.4014 47H23.4914C20.5998 47 20.5815 47 20.3887 46.7889C20.1962 46.5872 20.1959 46.532 20.1685 41.1946L20.1684 41.1709C20.1317 36.3516 20.1133 35.6906 19.9756 35.2041C19.4432 33.3957 18.2498 31.9453 16.6526 31.165C15.5051 30.5959 15.1654 30.5408 12.5033 30.5041L10.0891 30.4582V32.7072C10.0891 35.0205 10.034 35.452 9.72189 35.6172C9.29963 35.8467 9.11603 35.7365 7.31681 34.176C4.89338 32.0922 4.76486 31.9637 4.76486 31.6424C4.76486 31.3211 5.13205 30.9355 5.43498 30.9355C5.59103 30.9355 6.12346 31.3303 7.16076 32.2299L8.66623 33.515L8.69377 31.523ZM15.2481 9.15196C15.349 8.95918 22.2613 1.14727 22.959 0.431255C23.1242 0.266022 23.2986 0.183403 23.4914 0.183403C23.6842 0.183403 23.8586 0.266022 24.0238 0.431255C24.7215 1.14727 31.6338 8.95918 31.7348 9.15196C31.8817 9.41817 31.744 9.8588 31.4686 10.0057C31.3768 10.0607 30.3211 10.0975 29.0543 10.0975H26.7961V13.3563C26.7961 15.1463 26.8328 16.615 26.8787 16.615C26.9154 16.615 27.301 16.4498 27.7324 16.257C29.6602 15.3666 30.9361 15.1371 34.3051 15.082L36.8938 15.0361V13.1268C36.8938 12.0711 36.9305 11.1072 36.9856 10.9787C37.1141 10.6207 37.4996 10.4096 37.8026 10.5289C38.133 10.6482 46.8813 18.249 46.9547 18.4693C46.9822 18.5703 46.9822 18.7447 46.9547 18.8641C46.918 19.0018 45.4125 20.3695 42.7963 22.6461C38.1048 26.712 37.9047 26.8938 37.7018 26.897C37.6843 26.8973 37.6668 26.8963 37.6465 26.8963C36.9672 26.8963 36.8938 26.6117 36.8938 23.9037V21.6639H34.7916C31.8725 21.6639 30.9729 21.8566 29.5959 22.7746C28.7147 23.3621 27.9895 24.1791 27.5305 25.1063C27.376 25.4151 27.2567 25.644 27.1641 25.8831C26.8383 26.7243 26.8431 27.6935 26.8145 32.7254L26.8144 32.7412C26.7869 38.4719 26.7868 38.5088 26.5942 38.7106C26.1994 39.1328 25.5752 38.885 25.4742 38.2607C25.4467 38.0955 25.41 37.2785 25.3824 36.4432C25.3365 34.7541 25.1897 33.9738 24.6389 32.5418C23.4822 29.54 20.6733 26.8779 17.6164 25.9049C15.9182 25.3633 14.8442 25.2439 11.4936 25.2439C9.19865 25.2439 9.07013 25.2348 8.89572 25.0604C8.72131 24.8859 8.71213 24.7574 8.71213 23.2244C8.71213 22.3156 8.67541 21.5721 8.63869 21.5721C8.58361 21.5721 2.37814 26.9055 1.79982 27.4471C1.7631 27.4838 2.14865 27.8785 2.67189 28.3283C3.88361 29.3748 4.03049 29.54 4.03049 29.8154C4.03049 30.1551 3.69084 30.4764 3.34201 30.4764C3.10334 30.4764 2.80041 30.2561 1.57033 29.182C0.0189621 27.8326 -0.155452 27.6031 0.0923996 27.1992C0.285173 26.8779 8.97834 19.3781 9.23537 19.3139C9.50158 19.2404 9.88713 19.4791 9.99728 19.7912C10.0524 19.9197 10.0891 20.8928 10.0891 21.9484V23.867H12.0994C13.201 23.867 14.532 23.9129 15.0553 23.9588C16.6893 24.124 18.3783 24.6014 19.7369 25.2898L20.1867 25.5193V20.5623C20.1867 15.7246 20.1867 15.6053 20.3703 15.4217C20.6182 15.1738 21.1139 15.183 21.3434 15.4309C21.5086 15.6145 21.5178 15.8256 21.5453 18.8457L21.5729 22.0586L21.9309 21.4436C22.6469 20.2227 24.0238 18.6529 25.0795 17.8635L25.4192 17.6064V13.5398C25.4192 9.40899 25.4467 8.9959 25.768 8.83985C25.8506 8.80313 26.741 8.74805 27.7324 8.72051L29.5408 8.67461L26.5574 5.32403C24.9143 3.47891 23.5373 1.97344 23.4914 1.97344C23.4455 1.97344 22.0686 3.47891 20.4254 5.32403L17.442 8.67461L19.2504 8.72051C20.2418 8.74805 21.1322 8.80313 21.2149 8.84903C21.5086 8.98672 21.582 9.51915 21.5453 11.4836C21.5178 13.2002 21.4994 13.4022 21.3434 13.5766C21.1139 13.8244 20.6182 13.8336 20.3703 13.5857C20.1959 13.4113 20.1867 13.2828 20.1867 11.7498V10.0975H17.9285C16.6617 10.0975 15.6061 10.0607 15.5143 10.0057C15.2389 9.8588 15.1012 9.41817 15.2481 9.15196ZM44.6072 18.1253C43.9903 17.5883 42.9411 16.6749 41.7682 15.6604C39.9231 14.0631 38.3809 12.7596 38.3442 12.7596C38.3074 12.7596 38.2707 13.5031 38.2707 14.4119C38.2707 15.9449 38.2615 16.0734 38.0871 16.2479C37.9127 16.4223 37.7842 16.4314 35.4342 16.4314C32.919 16.4314 31.5145 16.5232 30.5231 16.7527C26.8879 17.5973 23.8494 20.14 22.4266 23.509C22.0961 24.2984 21.784 25.3633 21.7014 26.0242L21.6371 26.4832L22.0961 26.832C23.06 27.5572 24.2809 28.9893 25.0887 30.3203L25.3916 30.8344L25.4467 28.8424C25.4834 27.3186 25.5385 26.6852 25.6762 26.1619C26.3738 23.3988 28.274 21.4527 31.0738 20.599C31.8725 20.3512 31.9551 20.342 34.8283 20.3053C37.7199 20.2686 37.7658 20.2686 38.0137 20.4705L38.2707 20.6633L38.2891 22.692L38.3166 24.7115L41.7865 21.7006C43.6959 20.0482 45.2197 18.6621 45.183 18.6254C45.1664 18.6121 44.9559 18.4289 44.6072 18.1253Z" fill="#7836F8"/>
</svg>
