<?xml version="1.0" encoding="UTF-8"?> <svg xmlns="http://www.w3.org/2000/svg" width="50" height="50" viewBox="0 0 50 50" fill="none"><path d="M42.7505 8.33325H7.25049C6.6982 8.33325 6.25049 8.78097 6.25049 9.33325V33.3332V41.4585C6.25049 41.5424 6.34748 41.589 6.41296 41.5366L14.063 35.4166H42.7505C43.3028 35.4166 43.7505 34.9689 43.7505 34.4166V9.33325C43.7505 8.78097 43.3028 8.33325 42.7505 8.33325Z" stroke="#ED6436" stroke-width="2"></path><mask id="mask0" maskUnits="userSpaceOnUse" x="2" y="2" width="24" height="46"><rect width="22.9167" height="45.8333" transform="matrix(-1 0 0 1 25.0005 2.08325)" fill="black"></rect></mask><g mask="url(#mask0)"><path d="M42.7505 8.33325H7.25049C6.6982 8.33325 6.25049 8.78097 6.25049 9.33325V33.3332V41.4585C6.25049 41.5424 6.34748 41.589 6.41296 41.5366L14.063 35.4166H42.7505C43.3028 35.4166 43.7505 34.9689 43.7505 34.4166V9.33325C43.7505 8.78097 43.3028 8.33325 42.7505 8.33325Z" stroke="#ED6436" stroke-width="2"></path></g></svg> 