<svg width="18" height="18" viewBox="0 0 18 18" fill="none" xmlns="http://www.w3.org/2000/svg">
<path d="M9 16.5C13.1421 16.5 16.5 13.1421 16.5 9C16.5 4.85786 13.1421 1.5 9 1.5C4.85786 1.5 1.5 4.85786 1.5 9C1.5 10.3661 1.86523 11.6468 2.50337 12.75L1.875 16.125L5.25 15.4966C6.35315 16.1348 7.63392 16.5 9 16.5Z" stroke="#333333" stroke-linecap="round" stroke-linejoin="round"/>
<path d="M12.75 9.375C12.9571 9.375 13.125 9.20711 13.125 9C13.125 8.79289 12.9571 8.625 12.75 8.625C12.5429 8.625 12.375 8.79289 12.375 9C12.375 9.20711 12.5429 9.375 12.75 9.375Z" fill="#333333" stroke="#333333" stroke-linecap="round" stroke-linejoin="round"/>
<path d="M9 9.375C9.20711 9.375 9.375 9.20711 9.375 9C9.375 8.79289 9.20711 8.625 9 8.625C8.79289 8.625 8.625 8.79289 8.625 9C8.625 9.20711 8.79289 9.375 9 9.375Z" fill="#333333" stroke="#333333" stroke-linecap="round" stroke-linejoin="round"/>
<path d="M5.25 9.375C5.45711 9.375 5.625 9.20711 5.625 9C5.625 8.79289 5.45711 8.625 5.25 8.625C5.04289 8.625 4.875 8.79289 4.875 9C4.875 9.20711 5.04289 9.375 5.25 9.375Z" fill="#333333" stroke="#333333" stroke-linecap="round" stroke-linejoin="round"/>
</svg>
