<svg width="40" height="39" viewBox="0 0 40 39" fill="none" xmlns="http://www.w3.org/2000/svg">
<g clip-path="url(#clip0_273_24)">
<path d="M34 12V18H30.0478L30.5 13.2619C30.5 13.2619 28.5 13 26.25 13C24 13 22 13.2619 22 13.2619L22.4523 18H17.5478L18 13.2619C18 13.2619 16 13 13.75 13C11.5 13 9.5 13.2619 9.5 13.2619L9.95227 18H6V12C6 10.1144 6 9.17157 6.58579 8.58579C7.17157 8 8.11438 8 9.99997 8H30C31.8856 8 32.8285 8 33.4142 8.58579C34 9.17157 34 10.1144 34 12Z" fill="white"/>
<path d="M3.99979 34H6.99979L7.08809 33.7351C7.52811 32.4151 7.74811 31.755 8.27189 31.3775C8.79566 31 9.49138 31 10.8829 31H29.1168C30.5082 31 31.204 31 31.7277 31.3775C32.2515 31.755 32.4715 32.4151 32.9115 33.7351L32.9998 34H35.9998L36.1803 29.3075C36.3304 25.4045 36.4055 23.4529 35.2253 22.2265C34.0451 21 32.0921 21 28.1862 21H11.8134C7.90748 21 5.95452 21 4.77433 22.2265C3.59413 23.4529 3.66919 25.4044 3.81931 29.3075L3.99979 34Z" fill="white"/>
</g>
<defs>
<clipPath id="clip0_273_24">
<rect width="40" height="39" fill="white"/>
</clipPath>
</defs>
</svg>
