<svg width="50" height="33" viewBox="0 0 50 33" fill="none" xmlns="http://www.w3.org/2000/svg">
<path d="M38.5968 2C44.5391 2 48.7835 6.56137 48.7835 12.1867V12.7526C48.7835 26.0519 37.182 31.1452 37.182 31.1452L35.4842 28.8815C35.4842 28.8815 39.7287 25.7689 39.7287 22.3734C39.7287 22.3734 39.1628 22.3734 38.5968 22.3734C32.9715 22.3734 28.4102 17.812 28.4102 12.1867C28.4102 6.56137 32.9715 2 38.5968 2Z" fill="#F2E3C4" stroke="#F2E3C4" stroke-width="2.26371"/>
<path d="M12.1867 2C18.1289 2 22.3734 6.56137 22.3734 12.1867V12.7526C22.3734 26.0519 10.7719 31.1452 10.7719 31.1452L9.07409 28.8815C9.07409 28.8815 13.3185 25.7689 13.3185 22.3734C13.3185 22.3734 12.7526 22.3734 12.1867 22.3734C6.56137 22.3734 2 17.812 2 12.1867C2 6.56137 6.56137 2 12.1867 2Z" fill="#F2E3C4" stroke="#F2E3C4" stroke-width="2.26371"/>
</svg>
