<svg width="49" height="49" viewBox="0 0 49 49" fill="none" xmlns="http://www.w3.org/2000/svg">
<path d="M29.2571 24.3808L47.7169 5.92098C49.1101 4.52776 49.1101 2.43796 47.7169 1.04482C46.3237 -0.348324 44.2339 -0.348405 42.8408 1.04482L24.3809 19.5047L5.92108 1.04482C4.52786 -0.348405 2.43806 -0.348405 1.04492 1.04482C-0.348225 2.43804 -0.348306 4.52784 1.04492 5.92098L19.5048 24.3808L1.04492 42.8407C-0.348306 44.2339 -0.348306 46.3237 1.04492 47.7168C1.74149 48.4134 2.43814 48.7617 3.48304 48.7617C4.52794 48.7617 5.22451 48.4134 5.92116 47.7168L24.381 29.257L42.8408 47.7168C43.5374 48.4134 44.5823 48.7617 45.279 48.7617C45.9756 48.7617 47.0204 48.4134 47.7171 47.7168C49.1103 46.3236 49.1103 44.2338 47.7171 42.8407L29.2572 24.3808H29.2571Z" fill="#ED6436"/>
</svg>
