<svg width="50" height="51" viewBox="0 0 50 51" fill="none" xmlns="http://www.w3.org/2000/svg">
<circle cx="25" cy="25.5" r="25" fill="#F2F2F2"/>
<path opacity="0.5" d="M13.499 22.2167V14.5455C13.499 14.2682 13.6092 14.0023 13.8052 13.8062C14.0013 13.6101 14.2672 13.5 14.5445 13.5H35.4541C35.7313 13.5 35.9973 13.6101 36.1933 13.8062C36.3894 14.0023 36.4995 14.2682 36.4995 14.5455V22.2167C36.4995 33.1942 27.1817 36.8272 25.326 37.4415C25.1152 37.5195 24.8834 37.5195 24.6726 37.4415C22.8169 36.8272 13.499 33.1942 13.499 22.2167Z" fill="#9BBEA2"/>
<path d="M13.499 22.2167V14.5455C13.499 14.2682 13.6092 14.0023 13.8052 13.8062C14.0013 13.6101 14.2672 13.5 14.5445 13.5H35.4541C35.7313 13.5 35.9973 13.6101 36.1933 13.8062C36.3894 14.0023 36.4995 14.2682 36.4995 14.5455V22.2167C36.4995 33.1942 27.1817 36.8272 25.326 37.4415C25.1152 37.5195 24.8834 37.5195 24.6726 37.4415C22.8169 36.8272 13.499 33.1942 13.499 22.2167Z" stroke="black" stroke-width="1.5" stroke-linecap="round" stroke-linejoin="round"/>
<path d="M24.999 19.7734V25.0008" stroke="black" stroke-width="1.5" stroke-linecap="round" stroke-linejoin="round"/>
<path d="M20.0332 23.3789L24.9992 24.9994" stroke="black" stroke-width="1.5" stroke-linecap="round" stroke-linejoin="round"/>
<path d="M21.9277 29.2342L24.9988 25" stroke="black" stroke-width="1.5" stroke-linecap="round" stroke-linejoin="round"/>
<path d="M28.0701 29.2342L24.999 25" stroke="black" stroke-width="1.5" stroke-linecap="round" stroke-linejoin="round"/>
<path d="M29.965 23.3789L24.999 24.9994" stroke="black" stroke-width="1.5" stroke-linecap="round" stroke-linejoin="round"/>
</svg>
