<svg width="78" height="78" viewBox="0 0 78 78" fill="none" xmlns="http://www.w3.org/2000/svg">
<path fill-rule="evenodd" clip-rule="evenodd" d="M38.4556 8.00182C53.3424 7.86576 67.9968 15.3697 72.6101 29.4265C77.2344 43.5172 69.8201 58.1051 57.766 66.8422C45.6198 75.6461 29.2745 78.4027 17.0627 69.6887C4.67664 60.8503 1.21618 44.3547 6.1827 30.0337C10.8823 16.4821 24.0238 8.13372 38.4556 8.00182Z" fill="#EFFFF4"/>
<path d="M42.5123 40.3757C42.0534 40.8411 41.5065 41.2106 40.9036 41.4628C40.3006 41.715 39.6535 41.8449 38.9999 41.8449C38.3463 41.8449 37.6992 41.715 37.0963 41.4628C36.4933 41.2106 35.9464 40.8411 35.4875 40.3757L17.978 22.6163C16.1439 20.8523 14.927 18.5443 14.5076 16.0344C14.0882 13.5245 14.4887 10.9462 15.6496 8.68175C16.5705 6.95789 17.8787 5.47115 19.4714 4.33845C21.0642 3.20574 22.8979 2.45795 24.8286 2.15387C26.7592 1.84979 28.734 1.99771 30.5978 2.586C32.4616 3.1743 34.1635 4.18692 35.5697 5.54425L38.9999 8.87908L42.4334 5.54425C43.8396 4.18692 45.5415 3.1743 47.4053 2.586C49.2691 1.99771 51.2439 1.84979 53.1746 2.15387C55.1052 2.45795 56.9389 3.20574 58.5317 4.33845C60.1244 5.47115 61.4326 6.95789 62.3535 8.68175C63.5172 10.948 63.9188 13.5292 63.4988 16.042C63.0787 18.5547 61.8593 20.8649 60.0218 22.6295L42.5123 40.3757Z" stroke="#47CD70" stroke-width="3" stroke-linecap="round" stroke-linejoin="round"/>
<path d="M11.8673 76L5.24371 68.1694C3.14459 65.5454 2.00099 62.2851 2.00098 58.9247V41.9151C2.00098 40.6067 2.52072 39.352 3.44587 38.4268C4.37102 37.5017 5.62579 36.9819 6.93415 36.9819C8.24251 36.9819 9.49728 37.5017 10.4224 38.4268C11.3476 39.352 11.8673 40.6067 11.8673 41.9151V54.248" stroke="#47CD70" stroke-width="3" stroke-linecap="round" stroke-linejoin="round"/>
<path d="M26.6664 75.9997V66.1333C26.6677 63.2068 25.8013 60.3456 24.1768 57.9114L20.421 52.2875C20.0992 51.7545 19.6726 51.2923 19.167 50.9288C18.6615 50.5654 18.0874 50.3082 17.4797 50.173C16.8719 50.0377 16.243 50.0271 15.631 50.1418C15.019 50.2566 14.4366 50.4942 13.9191 50.8405C12.9903 51.4633 12.3198 52.4028 12.033 53.4837C11.7461 54.5645 11.8624 55.7129 12.3602 56.7142L16.8066 64.114" stroke="#47CD70" stroke-width="3" stroke-linecap="round" stroke-linejoin="round"/>
<path d="M66.1318 76L72.7554 68.1694C74.8546 65.5454 75.9982 62.2851 75.9982 58.9247V41.9151C75.9982 40.6067 75.4784 39.352 74.5533 38.4268C73.6281 37.5017 72.3734 36.9819 71.065 36.9819C69.7566 36.9819 68.5019 37.5017 67.5767 38.4268C66.6516 39.352 66.1318 40.6067 66.1318 41.9151V54.248" stroke="#47CD70" stroke-width="3" stroke-linecap="round" stroke-linejoin="round"/>
<path d="M51.333 75.9999V66.1336C51.3317 63.207 52.1981 60.3458 53.8226 57.9116L57.5784 52.2812C57.8989 51.7468 58.3245 51.2831 58.8294 50.918C59.3343 50.5529 59.9081 50.2941 60.516 50.1573C61.1239 50.0205 61.7532 50.0085 62.3659 50.122C62.9786 50.2355 63.5618 50.4722 64.0803 50.8177C65.0143 51.44 65.6888 52.382 65.9771 53.4667C66.2654 54.5514 66.1476 55.704 65.6458 56.7079L61.1994 64.1077" stroke="#47CD70" stroke-width="3" stroke-linecap="round" stroke-linejoin="round"/>
</svg>
