<svg width="32" height="32" viewBox="0 0 32 32" fill="none" xmlns="http://www.w3.org/2000/svg">
<path d="M18 0V8H26L30 12V8V4V0H18ZM4 2V8V12L8 8H14V2H4ZM10 12C8.93913 12 7.92172 12.4214 7.17157 13.1716C6.42143 13.9217 6 14.9391 6 16C6 17.0609 6.42143 18.0783 7.17157 18.8284C7.92172 19.5786 8.93913 20 10 20C11.0609 20 12.0783 19.5786 12.8284 18.8284C13.5786 18.0783 14 17.0609 14 16C14 14.9391 13.5786 13.9217 12.8284 13.1716C12.0783 12.4214 11.0609 12 10 12ZM22 12C20.9391 12 19.9217 12.4214 19.1716 13.1716C18.4214 13.9217 18 14.9391 18 16C18 17.0609 18.4214 18.0783 19.1716 18.8284C19.9217 19.5786 20.9391 20 22 20C23.0609 20 24.0783 19.5786 24.8284 18.8284C25.5786 18.0783 26 17.0609 26 16C26 14.9391 25.5786 13.9217 24.8284 13.1716C24.0783 12.4214 23.0609 12 22 12ZM6 24C3.79 24 2 25.79 2 28V30H14V24H6ZM18 24V30H30V28C30 25.79 28.21 24 26 24H18Z" fill="#52B5E9"/>
</svg>
