<svg width="52" height="51" viewBox="0 0 52 51" fill="none" xmlns="http://www.w3.org/2000/svg">
<path d="M27.0233 19.8707C17.7047 20.6445 8.50221 25.8102 2.97591 32.9433M16.4398 47.8134C21.0411 42.6203 28.3671 30.8586 29.0181 24.5925M31.5807 24.8358C35.487 29.231 39.1457 40.7801 39.6476 45.6027M25.9843 1.59619C19.589 1.59619 13.4558 4.13668 8.93367 8.65877C4.41158 13.1809 1.87109 19.3141 1.87109 25.7093C1.87109 32.1046 4.41158 38.2378 8.93367 42.7599C13.4558 47.282 19.589 49.8225 25.9843 49.8225C32.3795 49.8225 38.5127 47.282 43.0348 42.7599C47.5569 38.2378 50.0974 32.1046 50.0974 25.7093C50.0974 19.3141 47.5569 13.1809 43.0348 8.65877C38.5127 4.13668 32.3795 1.59619 25.9843 1.59619Z" stroke="#00183A" stroke-width="2" stroke-linecap="round" stroke-linejoin="round"/>
<path d="M49.5955 30.6328C49.5955 30.532 49.5955 30.532 49.4947 30.4322C45.0743 21.1892 33.4189 19.5813 33.4189 19.5813M32.0127 18.2748C32.7163 16.6669 34.8262 8.02674 33.7203 3.10327M14.832 4.40977C17.7453 5.21317 25.683 13.8545 27.5923 18.5762M30.3686 18.037C29.4965 18.037 28.6601 18.3834 28.0435 19.0001C27.4269 19.6167 27.0804 20.4531 27.0804 21.3251C27.0804 22.1972 27.4269 23.0336 28.0435 23.6502C28.6601 24.2669 29.4965 24.6133 30.3686 24.6133C31.2407 24.6133 32.077 24.2669 32.6937 23.6502C33.3103 23.0336 33.6567 22.1972 33.6567 21.3251C33.6567 20.4531 33.3103 19.6167 32.6937 19.0001C32.077 18.3834 31.2407 18.037 30.3686 18.037Z" stroke="#00183A" stroke-width="2" stroke-linecap="round" stroke-linejoin="round"/>
<path d="M33.6385 21.3516C33.6385 23.1732 32.1722 24.6395 30.3765 24.6395C28.5807 24.6395 27.1144 23.1732 27.1144 21.3516C27.1144 19.5299 28.5807 18.0637 30.3765 18.0637C32.1722 18.0637 33.6385 19.5299 33.6385 21.3516Z" stroke="#DEB25E" stroke-width="2.04918"/>
</svg>
