<svg width="128" height="128" viewBox="0 0 128 128" fill="none" xmlns="http://www.w3.org/2000/svg">
<path d="M79.9995 112H74.1813V103.273H53.8176V112H47.9995C47.6137 112 47.2437 112.153 46.9709 112.426C46.6982 112.699 46.5449 113.069 46.5449 113.455C46.5449 113.84 46.6982 114.21 46.9709 114.483C47.2437 114.756 47.6137 114.909 47.9995 114.909H79.9995C80.3852 114.909 80.7552 114.756 81.028 114.483C81.3008 114.21 81.454 113.84 81.454 113.455C81.454 113.069 81.3008 112.699 81.028 112.426C80.7552 112.153 80.3852 112 79.9995 112Z" fill="#101010"/>
<path d="M4.36328 90.1818C4.3664 92.8813 5.44013 95.4692 7.34891 97.378C9.2577 99.2868 11.8457 100.361 14.5451 100.364H113.454C116.154 100.361 118.742 99.2868 120.65 97.378C122.559 95.4692 123.633 92.8813 123.636 90.1818V88.7273H4.36328V90.1818ZM59.636 93.0909H68.3633C68.7491 93.0909 69.119 93.2442 69.3918 93.517C69.6646 93.7897 69.8178 94.1597 69.8178 94.5455C69.8178 94.9312 69.6646 95.3012 69.3918 95.574C69.119 95.8468 68.7491 96 68.3633 96H59.636C59.2502 96 58.8803 95.8468 58.6075 95.574C58.3347 95.3012 58.1815 94.9312 58.1815 94.5455C58.1815 94.1597 58.3347 93.7897 58.6075 93.517C58.8803 93.2442 59.2502 93.0909 59.636 93.0909Z" fill="#101010"/>
<path d="M113.454 21.8182H14.5454C14.1597 21.8186 13.7899 21.9719 13.5172 22.2446C13.2445 22.5174 13.0912 22.8871 13.0908 23.2728V66.3068L36.7897 42.6081C36.9247 42.4729 37.085 42.3657 37.2615 42.2926C37.4379 42.2195 37.6271 42.1818 37.8181 42.1818C38.0091 42.1818 38.1982 42.2195 38.3747 42.2926C38.5511 42.3657 38.7115 42.4729 38.8465 42.6081L66.4828 70.2444C66.6217 70.3786 66.7326 70.5391 66.8088 70.7166C66.885 70.894 66.9251 71.0849 66.9268 71.278C66.9285 71.4711 66.8917 71.6627 66.8186 71.8414C66.7454 72.0202 66.6374 72.1826 66.5008 72.3192C66.3643 72.4557 66.2019 72.5637 66.0231 72.6369C65.8444 72.71 65.6528 72.7468 65.4597 72.7451C65.2666 72.7435 65.0757 72.7033 64.8982 72.6271C64.7208 72.5509 64.5603 72.4401 64.4261 72.3011L37.8181 45.6933L13.0908 70.4206V77.091H114.909V61.6933L84.3635 31.1478L59.2101 56.3011C58.9358 56.5661 58.5683 56.7127 58.187 56.7094C57.8056 56.7061 57.4408 56.5531 57.1711 56.2834C56.9014 56.0137 56.7484 55.6489 56.7451 55.2675C56.7418 54.8862 56.8884 54.5187 57.1534 54.2444L83.3352 28.0626C83.4702 27.9275 83.6305 27.8203 83.8069 27.7471C83.9834 27.674 84.1725 27.6364 84.3635 27.6364C84.5546 27.6364 84.7437 27.674 84.9201 27.7471C85.0966 27.8203 85.2569 27.9275 85.3919 28.0626L114.909 57.5795V23.2728C114.909 22.8871 114.755 22.5174 114.483 22.2446C114.21 21.9719 113.84 21.8186 113.454 21.8182ZM55.2726 43.6364C53.8342 43.6364 52.4281 43.2099 51.2321 42.4107C50.0361 41.6116 49.104 40.4758 48.5535 39.1468C48.0031 37.8179 47.859 36.3556 48.1397 34.9448C48.4203 33.5341 49.1129 32.2382 50.13 31.2211C51.1472 30.204 52.443 29.5113 53.8538 29.2307C55.2646 28.9501 56.7269 29.0941 58.0558 29.6446C59.3847 30.195 60.5205 31.1272 61.3197 32.3232C62.1188 33.5192 62.5454 34.9253 62.5454 36.3637C62.5431 38.2918 61.7761 40.1404 60.4127 41.5038C59.0493 42.8672 57.2008 43.6341 55.2726 43.6364Z" fill="#101010"/>
<path d="M55.2728 40.7273C57.6828 40.7273 59.6365 38.7736 59.6365 36.3636C59.6365 33.9537 57.6828 32 55.2728 32C52.8628 32 50.9092 33.9537 50.9092 36.3636C50.9092 38.7736 52.8628 40.7273 55.2728 40.7273Z" fill="#101010"/>
<path d="M113.454 13.0909H14.5451C11.8457 13.0941 9.2577 14.1678 7.34891 16.0766C5.44013 17.9854 4.3664 20.5733 4.36328 23.2728V85.8182H123.636V23.2728C123.633 20.5733 122.559 17.9854 120.65 16.0766C118.742 14.1678 116.154 13.0941 113.454 13.0909ZM117.818 78.5455C117.818 78.9313 117.665 79.3012 117.392 79.574C117.119 79.8468 116.749 80 116.363 80H11.636C11.2502 80 10.8803 79.8468 10.6075 79.574C10.3347 79.3012 10.1815 78.9313 10.1815 78.5455V23.2728C10.1827 22.1158 10.6429 21.0067 11.4609 20.1886C12.279 19.3705 13.3882 18.9104 14.5451 18.9091H113.454C114.611 18.9104 115.72 19.3705 116.538 20.1886C117.356 21.0067 117.817 22.1158 117.818 23.2728V78.5455Z" fill="#101010"/>
</svg>
