<svg width="90" height="91" viewBox="0 0 90 91" fill="none" xmlns="http://www.w3.org/2000/svg">
<path d="M47.4896 81.9962V90.2282H46.1456V83.1602H42.0416V81.9962H47.4896Z" fill="#101010"/>
<path d="M37.8382 81.3974L35.519 89.2959L29.3936 87.4973L29.7181 86.392L34.554 87.8119L35.1997 85.6128L30.8705 84.3416L31.195 83.2363L35.5242 84.5074L36.2241 82.1241L31.3191 80.6838L31.6437 79.5785L37.8382 81.3974Z" fill="#101010"/>
<path d="M28.9847 78.4754L21.8186 83.6554L20.375 82.7277L22.0999 74.0508L23.3113 74.8294L22.8955 76.8302L26.1764 78.9387L27.8238 77.7294L28.9847 78.4754ZM25.1967 79.6642L22.6527 78.0293L22.126 80.5579C22.1073 80.6315 22.0835 80.7351 22.0547 80.8687C22.0258 81.0023 21.9939 81.1482 21.9588 81.3064C21.917 81.4602 21.8786 81.6162 21.8435 81.7743C21.7974 81.9349 21.7566 82.0798 21.721 82.2091L21.7816 82.248C21.9042 82.1461 22.0519 82.0271 22.225 81.8911C22.398 81.755 22.5667 81.6257 22.7311 81.5031C22.8887 81.3762 23.0202 81.2752 23.1254 81.2002L25.1967 79.6642Z" fill="#101010"/>
<path d="M19.83 71.9087L13.6087 77.2995L10.7718 74.0256C10.3894 73.5842 10.151 73.1503 10.0568 72.7239C9.96249 72.2975 9.99457 71.8886 10.153 71.4973C10.3054 71.1112 10.569 70.7557 10.9438 70.4309C11.361 70.0694 11.805 69.8488 12.2757 69.7691C12.7465 69.6893 13.2037 69.7589 13.6474 69.9778L15.0993 66.4491L16.058 67.5555L14.6763 70.817L16.5466 72.9754L18.9499 70.8929L19.83 71.9087ZM15.6941 73.7141L13.8081 71.5375C13.5252 71.211 13.2111 71.0439 12.8657 71.0363C12.515 71.0225 12.1674 71.165 11.8228 71.4636C11.6112 71.6469 11.4669 71.8408 11.3899 72.0451C11.3068 72.2547 11.2915 72.4691 11.3439 72.6884C11.3962 72.9076 11.5193 73.1291 11.7132 73.3528L13.5992 75.5294L15.6941 73.7141Z" fill="#101010"/>
<path d="M13.5435 63.81L6.05545 67.2297L5.51707 66.0508L8.65047 60.4906C8.6742 60.427 8.71445 60.3515 8.77123 60.264C8.82469 60.1692 8.87982 60.0781 8.9366 59.9906C8.99339 59.9031 9.04226 59.8368 9.08323 59.7917L9.05831 59.7371C8.94915 59.787 8.84363 59.8352 8.74176 59.8817C8.63988 59.9282 8.538 59.9748 8.43612 60.0213L3.74242 62.1648L3.20404 60.9859L10.6921 57.5662L11.2106 58.7015L8.04253 64.3302C7.98179 64.4283 7.90587 64.5509 7.81476 64.698C7.71638 64.8485 7.64077 64.9622 7.58794 65.0391L7.61286 65.0937C7.71474 65.0471 7.82026 64.9989 7.92942 64.9491C8.03129 64.9026 8.14045 64.8527 8.25688 64.7995L13.0052 62.6311L13.5435 63.81Z" fill="#101010"/>
<path d="M6.73701 51.3747C6.77913 51.6677 6.75336 51.9381 6.65968 52.186C6.55694 52.427 6.40439 52.6308 6.20202 52.7973C5.9906 52.957 5.73839 53.0579 5.44541 53.1001C5.1445 53.1433 4.87408 53.1176 4.63414 53.0227C4.38515 52.9211 4.18137 52.7686 4.02279 52.5651C3.85516 52.3548 3.75028 52.1032 3.70815 51.8102C3.66489 51.5093 3.69463 51.2383 3.79736 50.9972C3.89104 50.7494 4.0436 50.5456 4.25502 50.3859C4.45738 50.2194 4.70902 50.1145 5.00992 50.0712C5.30291 50.0291 5.5739 50.0588 5.8229 50.1604C6.06283 50.2552 6.26662 50.4078 6.43425 50.6181C6.59282 50.8216 6.69374 51.0738 6.73701 51.3747Z" fill="#101010"/>
<path d="M8.71824 44.7722L0.570028 43.6007L0.868889 41.522L6.03721 40.6527C6.18658 40.6257 6.35574 40.6015 6.5447 40.5802C6.73366 40.5589 6.91413 40.5404 7.08611 40.5247C7.25923 40.5011 7.41085 40.4865 7.54096 40.481L7.55462 40.386C7.43812 40.353 7.29957 40.3048 7.13897 40.2413C6.97838 40.1778 6.80986 40.1132 6.63343 40.0474C6.45813 39.9737 6.29471 39.9017 6.14317 39.8314L1.4427 37.5311L1.73644 35.4881L9.88465 36.6596L9.69509 37.9781L5.22901 37.3359C4.92811 37.2927 4.61589 37.2438 4.29237 37.1892C3.96885 37.1346 3.68096 37.0851 3.4287 37.0407C3.17645 36.9964 3.01469 36.9691 2.94342 36.9588L2.92976 37.0539C3.01458 37.0822 3.15934 37.1434 3.36404 37.2375C3.56195 37.3226 3.77513 37.4138 4.00358 37.5113C4.23203 37.6088 4.42937 37.6978 4.59561 37.7783L9.38256 40.1517L9.21349 41.3276L3.96366 42.258C3.80637 42.2838 3.62081 42.3097 3.40695 42.3355C3.1931 42.3614 2.97529 42.3866 2.75352 42.4113C2.53175 42.436 2.33091 42.4556 2.15101 42.4702L2.13735 42.5652C2.32853 42.5846 2.5627 42.6142 2.83985 42.6541C3.11814 42.686 3.40038 42.7185 3.68659 42.7516C3.96488 42.7835 4.21488 42.8154 4.4366 42.8473L8.90268 43.4894L8.71824 44.7722Z" fill="#101010"/>
<path d="M12.4123 30.7252C12.06 31.4965 11.6124 32.1012 11.0693 32.5392C10.5296 32.9699 9.90255 33.2068 9.18809 33.2499C8.47694 33.2858 7.68839 33.1059 6.82242 32.7105C5.94917 32.3117 5.29687 31.8335 4.86552 31.2759C4.43021 30.7077 4.1986 30.0786 4.17069 29.3887C4.1461 28.6915 4.30995 27.9572 4.66222 27.1858C5.02114 26.3999 5.47045 25.7916 6.01015 25.3609C6.54985 24.9301 7.17527 24.6969 7.88641 24.661C8.5936 24.6146 9.38382 24.7908 10.2571 25.1896C11.123 25.5851 11.7737 26.0669 12.209 26.6351C12.6476 27.196 12.8809 27.8214 12.9088 28.5114C12.9367 29.2013 12.7712 29.9392 12.4123 30.7252ZM11.3753 30.2516C11.5581 29.8513 11.6647 29.4735 11.6951 29.118C11.7289 28.7552 11.6811 28.4168 11.5519 28.1028C11.426 27.7814 11.217 27.4881 10.9248 27.2227C10.636 26.9501 10.266 26.7108 9.81478 26.5047L9.57464 26.3951C9.10891 26.1824 8.67845 26.0561 8.28325 26.0164C7.89138 25.9693 7.5328 26.0035 7.20751 26.1187C6.88555 26.2268 6.59853 26.4123 6.34648 26.6754C6.09774 26.9311 5.88198 27.2592 5.6992 27.6594C5.51974 28.0524 5.41314 28.4302 5.37939 28.793C5.34897 29.1485 5.3967 29.4869 5.52259 29.8082C5.6518 30.1223 5.86249 30.412 6.15466 30.6773C6.44684 30.9427 6.82579 31.1817 7.29152 31.3944L7.53166 31.5041C7.98284 31.7101 8.40436 31.8367 8.79624 31.8837C9.18811 31.9307 9.54503 31.9002 9.86699 31.7922C10.1923 31.6769 10.4793 31.4914 10.728 31.2356C10.9801 30.9726 11.1958 30.6445 11.3753 30.2516Z" fill="#101010"/>
<path d="M15.6925 24.5739L9.47122 19.1831L12.3081 15.9092C12.6905 15.4679 13.0861 15.1702 13.4947 15.0162C13.9034 14.8622 14.3127 14.8358 14.7226 14.9369C15.1264 15.0328 15.5158 15.2431 15.8906 15.5679C16.3078 15.9294 16.5893 16.3375 16.7353 16.7921C16.8812 17.2467 16.8774 17.7092 16.7239 18.1795L20.4233 19.1144L19.4645 20.2208L16.0397 19.3173L14.1694 21.4758L16.5727 23.5582L15.6925 24.5739ZM13.3169 20.7371L15.2029 18.5605C15.4858 18.234 15.6065 17.8993 15.5649 17.5563C15.5286 17.2073 15.3382 16.8835 14.9936 16.5849C14.7819 16.4015 14.5695 16.2863 14.3563 16.2391C14.1371 16.1867 13.9227 16.2021 13.7131 16.2851C13.5035 16.3682 13.3018 16.5215 13.108 16.7452L11.222 18.9218L13.3169 20.7371Z" fill="#101010"/>
<path d="M22.9521 17.1117L18.5016 10.1865L23.8721 6.73501L24.4949 7.70413L20.255 10.429L21.4942 12.3571L25.2899 9.91774L25.9127 10.8869L22.117 13.3262L23.4599 15.4159L27.7604 12.6522L28.3832 13.6213L22.9521 17.1117Z" fill="#101010"/>
<path d="M34.1564 8.69321C33.8724 8.7766 33.6011 8.78957 33.3424 8.73212C33.0891 8.66474 32.8657 8.54274 32.6721 8.36613C32.4839 8.17959 32.3482 7.94431 32.2648 7.6603C32.1791 7.36862 32.1662 7.09728 32.2259 6.84629C32.291 6.58538 32.413 6.36196 32.5919 6.17603C32.7761 5.98018 33.0103 5.84056 33.2943 5.75716C33.586 5.67152 33.8584 5.66238 34.1117 5.72977C34.3704 5.78722 34.5938 5.90922 34.7819 6.09576C34.9755 6.27237 35.1152 6.50652 35.2008 6.7982C35.2842 7.08221 35.2933 7.35468 35.2282 7.6156C35.1685 7.86658 35.0465 8.09 34.8622 8.28586C34.6834 8.47178 34.4481 8.60757 34.1564 8.69321Z" fill="#101010"/>
<path d="M42.8141 9V0.767999H44.1581V7.836L48.2621 7.836V9L42.8141 9Z" fill="#101010"/>
<path d="M52.3103 10.313L54.6295 2.4144L60.7549 4.21298L60.4303 5.31832L55.5945 3.89839L54.9487 6.09755L59.278 7.36872L58.9534 8.47406L54.6242 7.20288L53.9244 9.58626L58.8293 11.0265L58.5047 12.1318L52.3103 10.313Z" fill="#101010"/>
<path d="M61.1657 13.2348L68.3318 8.05482L69.7754 8.98256L68.0505 17.6594L66.8391 16.8809L67.2549 14.8801L63.974 12.7716L62.3266 13.9809L61.1657 13.2348ZM64.9537 12.0461L67.4977 13.681L68.0244 11.1523C68.0431 11.0788 68.0669 10.9752 68.0957 10.8416C68.1245 10.7079 68.1565 10.562 68.1916 10.4039C68.2334 10.2501 68.2718 10.0941 68.3069 9.93594C68.353 9.77539 68.3938 9.63046 68.4294 9.50115L68.3688 9.46223C68.2462 9.56415 68.0984 9.68313 67.9254 9.81919C67.7524 9.95524 67.5837 10.0846 67.4193 10.2072C67.2617 10.3341 67.1302 10.435 67.025 10.51L64.9537 12.0461Z" fill="#101010"/>
<path d="M70.3214 19.8016L76.5427 14.4108L79.3795 17.6847C79.762 18.1261 80.0003 18.5599 80.0946 18.9864C80.1889 19.4128 80.1568 19.8217 79.9984 20.213C79.846 20.5991 79.5824 20.9545 79.2075 21.2793C78.7903 21.6408 78.3464 21.8614 77.8756 21.9412C77.4049 22.021 76.9476 21.9514 76.5039 21.7325L75.0521 25.2611L74.0934 24.1547L75.4751 20.8933L73.6048 18.7349L71.2015 20.8173L70.3214 19.8016ZM74.4573 17.9962L76.3433 20.1727C76.6262 20.4992 76.9403 20.6663 77.2857 20.674C77.6363 20.6877 77.984 20.5453 78.3286 20.2467C78.5402 20.0633 78.6845 19.8695 78.7615 19.6651C78.8446 19.4556 78.8599 19.2412 78.8075 19.0219C78.7551 18.8027 78.632 18.5812 78.4382 18.3575L76.5522 16.1809L74.4573 17.9962Z" fill="#101010"/>
<path d="M76.6078 27.9002L84.0959 24.4806L84.6343 25.6594L81.5009 31.2196C81.4772 31.2832 81.4369 31.3587 81.3801 31.4462C81.3267 31.541 81.2715 31.6321 81.2148 31.7196C81.158 31.8071 81.1091 31.8734 81.0681 31.9185L81.0931 31.9731C81.2022 31.9232 81.3077 31.875 81.4096 31.8285C81.5115 31.782 81.6134 31.7355 81.7152 31.6889L86.4089 29.5454L86.9473 30.7243L79.4592 34.144L78.9408 33.0087L82.1088 27.38C82.1696 27.2819 82.2455 27.1593 82.3366 27.0122C82.435 26.8617 82.5106 26.748 82.5634 26.6711L82.5385 26.6166C82.4366 26.6631 82.3311 26.7113 82.222 26.7611C82.1201 26.8076 82.0109 26.8575 81.8945 26.9107L77.1462 29.0791L76.6078 27.9002Z" fill="#101010"/>
<path d="M83.4134 40.3355C83.3713 40.0425 83.397 39.7721 83.4907 39.5242C83.5935 39.2832 83.746 39.0794 83.9484 38.9129C84.1598 38.7532 84.412 38.6523 84.705 38.6101C85.0059 38.5669 85.2763 38.5926 85.5162 38.6875C85.7652 38.7891 85.969 38.9416 86.1276 39.1451C86.2952 39.3554 86.4001 39.607 86.4422 39.9C86.4855 40.2009 86.4558 40.4719 86.353 40.713C86.2593 40.9608 86.1068 41.1646 85.8954 41.3243C85.693 41.4908 85.4414 41.5957 85.1405 41.639C84.8475 41.6811 84.5765 41.6514 84.3275 41.5498C84.0876 41.455 83.8838 41.3024 83.7161 41.0921C83.5576 40.8886 83.4566 40.6364 83.4134 40.3355Z" fill="#101010"/>
<path d="M81.4322 46.9381L89.5804 48.1097L89.2815 50.1883L84.1132 51.0576C83.9638 51.0846 83.7947 51.1088 83.6057 51.1301C83.4167 51.1514 83.2363 51.1699 83.0643 51.1856C82.8912 51.2092 82.7395 51.2238 82.6094 51.2293L82.5958 51.3244C82.7123 51.3573 82.8508 51.4055 83.0114 51.469C83.172 51.5325 83.3405 51.5971 83.517 51.6629C83.6923 51.7366 83.8557 51.8086 84.0072 51.8789L88.7077 54.1792L88.4139 56.2222L80.2657 55.0507L80.4553 53.7323L84.9214 54.3744C85.2223 54.4176 85.5345 54.4666 85.858 54.5212C86.1815 54.5758 86.4694 54.6252 86.7217 54.6696C86.9739 54.7139 87.1357 54.7412 87.207 54.7515L87.2206 54.6565C87.1358 54.6281 86.991 54.5669 86.7864 54.4728C86.5884 54.3878 86.3753 54.2965 86.1468 54.199C85.9184 54.1015 85.721 54.0125 85.5548 53.932L80.7678 51.5586L80.9369 50.3827L86.1867 49.4524C86.344 49.4265 86.5296 49.4006 86.7434 49.3748C86.9573 49.349 87.1751 49.3237 87.3969 49.299C87.6186 49.2743 87.8195 49.2547 87.9994 49.2402L88.013 49.1451C87.8219 49.1257 87.5877 49.0961 87.3105 49.0563C87.0323 49.0243 86.75 48.9918 86.4638 48.9588C86.1855 48.9268 85.9355 48.8949 85.7138 48.8631L81.2477 48.2209L81.4322 46.9381Z" fill="#101010"/>
<path d="M77.7391 60.985C78.0914 60.2137 78.539 59.609 79.082 59.171C79.6217 58.7403 80.2488 58.5034 80.9633 58.4603C81.6744 58.4244 82.463 58.6043 83.3289 58.9998C84.2022 59.3986 84.8545 59.8767 85.2859 60.4343C85.7212 61.0025 85.9528 61.6316 85.9807 62.3215C86.0053 63.0187 85.8414 63.753 85.4891 64.5244C85.1302 65.3103 84.6809 65.9186 84.1412 66.3493C83.6015 66.7801 82.9761 67.0133 82.265 67.0492C81.5578 67.0956 80.7675 66.9194 79.8943 66.5206C79.0283 66.1251 78.3777 65.6433 77.9424 65.0751C77.5037 64.5142 77.2705 63.8888 77.2426 63.1988C77.2147 62.5089 77.3802 61.771 77.7391 60.985ZM78.7761 61.4586C78.5933 61.8589 78.4867 62.2367 78.4563 62.5922C78.4225 62.955 78.4702 63.2934 78.5995 63.6074C78.7253 63.9288 78.9344 64.2221 79.2265 64.4875C79.5154 64.7601 79.8854 64.9994 80.3366 65.2055L80.5767 65.3151C81.0425 65.5278 81.4729 65.6541 81.8681 65.6938C82.26 65.7409 82.6186 65.7067 82.9439 65.5915C83.2658 65.4834 83.5528 65.2979 83.8049 65.0348C84.0536 64.7791 84.2694 64.451 84.4522 64.0508C84.6316 63.6578 84.7382 63.28 84.772 62.9172C84.8024 62.5617 84.7547 62.2233 84.6288 61.902C84.4996 61.5879 84.2889 61.2982 83.9967 61.0329C83.7045 60.7675 83.3256 60.5285 82.8598 60.3158L82.6197 60.2061C82.1685 60.0001 81.747 59.8736 81.3551 59.8265C80.9633 59.7795 80.6063 59.81 80.2844 59.918C79.9591 60.0333 79.6721 60.2188 79.4233 60.4746C79.1713 60.7376 78.9555 61.0657 78.7761 61.4586Z" fill="#101010"/>
<path d="M74.4569 67.1363L80.6782 72.5271L77.8413 75.801C77.4589 76.2423 77.0633 76.54 76.6547 76.694C76.246 76.848 75.8367 76.8744 75.4269 76.7733C75.023 76.6774 74.6337 76.4671 74.2588 76.1423C73.8416 75.7808 73.5601 75.3728 73.4141 74.9181C73.2682 74.4635 73.272 74.0011 73.4255 73.5307L69.7262 72.5958L70.6849 71.4894L74.1097 72.3929L75.98 70.2344L73.5767 68.152L74.4569 67.1363ZM76.8325 70.9731L74.9465 73.1497C74.6636 73.4762 74.5429 73.8109 74.5845 74.1539C74.6208 74.5029 74.8112 74.8267 75.1559 75.1253C75.3675 75.3087 75.5799 75.424 75.7931 75.4711C76.0123 75.5235 76.2268 75.5081 76.4363 75.4251C76.6459 75.342 76.8476 75.1887 77.0414 74.965L78.9274 72.7884L76.8325 70.9731Z" fill="#101010"/>
<path d="M67.1983 74.5986L71.6488 81.5238L66.2783 84.9753L65.6555 84.0061L69.8954 81.2813L68.6562 79.3531L64.8605 81.7925L64.2377 80.8234L68.0334 78.384L66.6905 76.2944L62.39 79.0581L61.7671 78.089L67.1983 74.5986Z" fill="#101010"/>
<path d="M55.994 83.0171C56.278 82.9337 56.5493 82.9207 56.808 82.9781C57.0612 83.0455 57.2847 83.1675 57.4783 83.3441C57.6664 83.5307 57.8022 83.766 57.8856 84.05C57.9713 84.3416 57.9842 84.613 57.9245 84.864C57.8594 85.1249 57.7374 85.3483 57.5585 85.5342C57.3743 85.7301 57.1401 85.8697 56.8561 85.9531C56.5644 86.0387 56.2919 86.0479 56.0387 85.9805C55.78 85.923 55.5566 85.801 55.3684 85.6145C55.1748 85.4379 55.0352 85.2037 54.9496 84.9121C54.8662 84.6281 54.857 84.3556 54.9222 84.0947C54.9819 83.8437 55.1039 83.6203 55.2882 83.4244C55.467 83.2385 55.7023 83.1027 55.994 83.0171Z" fill="#101010"/>
</svg>
