<svg width="36" height="53" viewBox="0 0 36 53" fill="none" xmlns="http://www.w3.org/2000/svg">
<path d="M17.5311 50.69L16.7083 51.2584L17.5311 52.4495L18.3539 51.2584L17.5311 50.69ZM33.0623 17.6278C33.0623 19.683 32.1104 22.7225 30.5637 26.243C29.0351 29.7225 26.9891 33.534 24.9317 37.0807C22.8762 40.6241 20.8193 43.8861 19.2755 46.2632C18.5038 47.4514 17.8611 48.4174 17.4116 49.0858C17.1869 49.42 17.0106 49.6797 16.8907 49.8555C16.8307 49.9434 16.7849 50.0104 16.7541 50.0551C16.7388 50.0775 16.7272 50.0943 16.7195 50.1055C16.7157 50.111 16.7128 50.1152 16.7109 50.1179C16.71 50.1192 16.7093 50.1202 16.7089 50.1209C16.7087 50.1212 16.7085 50.1214 16.7084 50.1216C16.7083 50.1217 16.7083 50.1217 17.5311 50.69C18.3539 51.2584 18.354 51.2582 18.3542 51.2579C18.3544 51.2577 18.3546 51.2574 18.3549 51.257C18.3555 51.2561 18.3563 51.255 18.3573 51.2534C18.3595 51.2503 18.3626 51.2458 18.3667 51.2398C18.3749 51.2279 18.3871 51.2102 18.403 51.1871C18.4348 51.1407 18.4818 51.0721 18.5429 50.9825C18.6652 50.8033 18.844 50.5399 19.0713 50.2018C19.5259 49.5258 20.1746 48.5507 20.9528 47.3525C22.5085 44.957 24.5844 41.6652 26.6617 38.0843C28.7371 34.5066 30.8239 30.6231 32.3948 27.0475C33.9477 23.5129 35.0623 20.1373 35.0623 17.6278H33.0623ZM17.5311 50.69C18.3539 50.1217 18.3539 50.1217 18.3538 50.1216C18.3537 50.1214 18.3536 50.1212 18.3534 50.1209C18.3529 50.1202 18.3523 50.1192 18.3513 50.1179C18.3494 50.1152 18.3466 50.111 18.3427 50.1055C18.3351 50.0943 18.3235 50.0775 18.3081 50.0551C18.2774 50.0104 18.2316 49.9434 18.1716 49.8555C18.0517 49.6797 17.8754 49.42 17.6507 49.0858C17.2012 48.4174 16.5584 47.4514 15.7868 46.2632C14.243 43.8861 12.1861 40.6241 10.1306 37.0807C8.07317 33.534 6.02719 29.7225 4.49853 26.243C2.95182 22.7225 2 19.683 2 17.6278H0C0 20.1373 1.11457 23.5129 2.66745 27.0475C4.23838 30.6231 6.32518 34.5066 8.40057 38.0843C10.4779 41.6652 12.5537 44.957 14.1095 47.3525C14.8876 48.5507 15.5364 49.5258 15.991 50.2018C16.2183 50.5399 16.3971 50.8033 16.5193 50.9825C16.5805 51.0721 16.6275 51.1407 16.6593 51.1871C16.6752 51.2102 16.6873 51.2279 16.6956 51.2398C16.6997 51.2458 16.7028 51.2503 16.7049 51.2534C16.706 51.255 16.7068 51.2561 16.7074 51.257C16.7077 51.2574 16.7079 51.2577 16.708 51.2579C16.7082 51.2582 16.7083 51.2584 17.5311 50.69ZM2 17.6278C2 9.05044 8.95382 2.09662 17.5311 2.09662V0.0966187C7.84925 0.0966187 0 7.94587 0 17.6278H2ZM17.5311 2.09662C26.1084 2.09662 33.0623 9.05044 33.0623 17.6278H35.0623C35.0623 7.94587 27.213 0.0966187 17.5311 0.0966187V2.09662Z" fill="#00183A"/>
<path d="M17.5305 8.81116C15.1922 8.81116 12.9496 9.74005 11.2962 11.3935C9.64276 13.0469 8.71387 15.2895 8.71387 17.6278C8.71387 19.9661 9.64276 22.2086 11.2962 23.862C12.9496 25.5155 15.1922 26.4444 17.5305 26.4444C19.8688 26.4444 22.1113 25.5155 23.7647 23.862C25.4182 22.2086 26.3471 19.9661 26.3471 17.6278C26.3471 15.2895 25.4182 13.0469 23.7647 11.3935C22.1113 9.74005 19.8688 8.81116 17.5305 8.81116Z" stroke="#DEB25E" stroke-width="2"/>
</svg>
