<?xml version="1.0" encoding="UTF-8"?> <svg xmlns="http://www.w3.org/2000/svg" xmlns:xlink="http://www.w3.org/1999/xlink" width="56px" height="44px" viewBox="0 0 56 44"><!-- Generator: Sketch 55.2 (78181) - https://sketchapp.com --><title>thunder-move</title><desc>Created with Sketch.</desc><g id="Page-1" stroke="none" stroke-width="1" fill="none" fill-rule="evenodd"><g id="Achirvements" transform="translate(-672.000000, -528.000000)"><g id="features" transform="translate(265.000000, 471.000000)"><g id="2" transform="translate(310.000000, 0.000000)"><g id="Group-3"><g transform="translate(47.631641, 47.631641)" id="thunder-move"><g transform="translate(47.178003, 0.000000)"><rect id="Rectangle-10" x="0" y="0" width="62.4201237" height="62.4201237"></rect><path d="M42.5862275,51.8579714 L57.7975232,29.0410279 C58.395103,28.144658 58.1528859,26.9335723 57.256516,26.3359925 C56.9360912,26.1223757 56.5596047,26.0083849 56.1745019,26.0083849 L44.2142543,26.0083849 L44.2142543,11.6441665 C44.2142543,10.5668639 43.3409281,9.69353762 42.2636255,9.69353762 C41.6114264,9.69353762 41.002379,10.0194899 40.6406042,10.5621523 L25.4293085,33.3790959 C24.8317285,34.2754658 25.0739457,35.4865514 25.9703156,36.0841313 C26.2907405,36.297748 26.667227,36.4117388 27.0523297,36.4117388 L39.0125773,36.4117388 L39.0125773,50.7759573 C39.0125773,51.8532598 39.8859035,52.7265862 40.9632062,52.7265862 C41.6154052,52.7265862 42.2244527,52.4006338 42.5862275,51.8579714 Z" id="Path-3" fill="#FF5949"></path><path d="M11.7037732,13.0041924 L24.7079656,13.0041924 C26.8625707,13.0041924 28.6092234,14.750845 28.6092234,16.9054502 C28.6092234,19.0600553 26.8625707,20.8067079 24.7079656,20.8067079 L11.7037732,20.8067079 C9.54916806,20.8067079 7.80251547,19.0600553 7.80251547,16.9054502 C7.80251547,14.750845 9.54916806,13.0041924 11.7037732,13.0041924 Z M11.7037732,44.2142543 L24.7079656,44.2142543 C26.8625707,44.2142543 28.6092234,45.960907 28.6092234,48.1155121 C28.6092234,50.2701171 26.8625707,52.0167698 24.7079656,52.0167698 L11.7037732,52.0167698 C9.54916806,52.0167698 7.80251547,50.2701171 7.80251547,48.1155121 C7.80251547,45.960907 9.54916806,44.2142543 11.7037732,44.2142543 Z M6.50209622,28.6092234 L16.9054502,28.6092234 C19.0600553,28.6092234 20.8067079,30.355876 20.8067079,32.5104811 C20.8067079,34.6650862 19.0600553,36.4117388 16.9054502,36.4117388 L6.50209622,36.4117388 C4.34749108,36.4117388 2.60083849,34.6650862 2.60083849,32.5104811 C2.60083849,30.355876 4.34749108,28.6092234 6.50209622,28.6092234 Z" id="Combined-Shape" fill="#FF5949" fill-rule="nonzero" opacity="0.3"></path></g></g></g></g></g></g></g></svg> 