<svg width="22" height="22" viewBox="0 0 22 22" fill="none" xmlns="http://www.w3.org/2000/svg">
<path d="M6.2334 8.25991L6.2434 8.2488" stroke="black" stroke-linecap="round" stroke-linejoin="round"/>
<path d="M10.2666 8.25991L10.2766 8.2488" stroke="black" stroke-linecap="round" stroke-linejoin="round"/>
<path d="M6.2334 12.2939L6.2434 12.2828" stroke="black" stroke-linecap="round" stroke-linejoin="round"/>
<path d="M10.2666 12.2939L10.2766 12.2828" stroke="black" stroke-linecap="round" stroke-linejoin="round"/>
<path d="M6.2334 16.3263L6.2434 16.3152" stroke="black" stroke-linecap="round" stroke-linejoin="round"/>
<path d="M10.2666 16.3263L10.2766 16.3152" stroke="black" stroke-linecap="round" stroke-linejoin="round"/>
<path d="M14.3006 20.3497H2.80058C2.46921 20.3497 2.20058 20.0811 2.20058 19.7497V4.81637C2.20058 4.48499 2.46921 4.21637 2.80058 4.21637H8.25058V2.7997C8.25058 2.46833 8.51921 2.1997 8.85058 2.1997H13.7006C14.032 2.1997 14.3006 2.46833 14.3006 2.7997V8.2497M14.3006 20.3497H19.7506C20.082 20.3497 20.3506 20.0811 20.3506 19.7497V8.8497C20.3506 8.51833 20.082 8.2497 19.7506 8.2497H14.3006M14.3006 20.3497V16.3164M14.3006 8.2497V12.283M14.3006 12.283H16.3173M14.3006 12.283V16.3164M14.3006 16.3164H16.3173" stroke="black" stroke-linecap="round" stroke-linejoin="round"/>
</svg>
