<svg width="42" height="42" viewBox="0 0 42 42" fill="none" xmlns="http://www.w3.org/2000/svg">
<path d="M35 21V38.5H7V21" stroke="white" stroke-width="3" stroke-linecap="round" stroke-linejoin="round"/>
<path d="M38.5 12.25H3.5V21H38.5V12.25Z" stroke="white" stroke-width="3" stroke-linecap="round" stroke-linejoin="round"/>
<path d="M21 40.0885V12.25" stroke="url(#paint0_linear_2043_4714)" stroke-width="3" stroke-linecap="round" stroke-linejoin="round"/>
<path d="M21 12.25H13.125C11.9647 12.25 10.8519 11.7891 10.0314 10.9686C9.21094 10.1481 8.75 9.03532 8.75 7.875C8.75 6.71468 9.21094 5.60188 10.0314 4.78141C10.8519 3.96094 11.9647 3.5 13.125 3.5C19.25 3.5 21 12.25 21 12.25Z" stroke="url(#paint1_linear_2043_4714)" stroke-width="3" stroke-linecap="round" stroke-linejoin="round"/>
<path d="M21 12.25H28.875C30.0353 12.25 31.1481 11.7891 31.9686 10.9686C32.7891 10.1481 33.25 9.03532 33.25 7.875C33.25 6.71468 32.7891 5.60188 31.9686 4.78141C31.1481 3.96094 30.0353 3.5 28.875 3.5C22.75 3.5 21 12.25 21 12.25Z" stroke="url(#paint2_linear_2043_4714)" stroke-width="3" stroke-linecap="round" stroke-linejoin="round"/>
<defs>
<linearGradient id="paint0_linear_2043_4714" x1="21.5" y1="12.25" x2="21.5" y2="40.0885" gradientUnits="userSpaceOnUse">
<stop stop-color="white"/>
<stop offset="0.9998" stop-color="#58CE76"/>
<stop offset="0.9999" stop-color="#AD68F3"/>
<stop offset="1" stop-color="#58CE76"/>
</linearGradient>
<linearGradient id="paint1_linear_2043_4714" x1="14.875" y1="3.5" x2="14.875" y2="12.25" gradientUnits="userSpaceOnUse">
<stop stop-color="white"/>
<stop offset="0.9998" stop-color="#58CE76"/>
<stop offset="0.9999" stop-color="#AD68F3"/>
<stop offset="1" stop-color="#58CE76"/>
</linearGradient>
<linearGradient id="paint2_linear_2043_4714" x1="27.125" y1="3.5" x2="27.125" y2="12.25" gradientUnits="userSpaceOnUse">
<stop stop-color="white"/>
<stop offset="0.9998" stop-color="#58CE76"/>
<stop offset="0.9999" stop-color="#AD68F3"/>
<stop offset="1" stop-color="#58CE76"/>
</linearGradient>
</defs>
</svg>
