<svg width="70" height="70" viewBox="0 0 70 70" fill="none" xmlns="http://www.w3.org/2000/svg">
<path d="M60.9899 34.1938H59.0866V31.5513C57.766 -0.396406 12.2343 -0.398277 10.9134 31.5515V34.1938H9.01008C7.78124 34.195 6.60307 34.6837 5.7341 35.5526C4.86513 36.4214 4.37634 37.5995 4.375 38.8284V44.515C4.3763 45.744 4.86504 46.9222 5.73399 47.7913C6.60294 48.6603 7.78113 49.1492 9.01008 49.1507H10.9134V54.503C10.9151 56.0231 11.5197 57.4805 12.5946 58.5554C13.6695 59.6303 15.1269 60.2349 16.6471 60.2366H26.409C26.6164 60.901 27.0301 61.482 27.5901 61.8953C28.1501 62.3087 28.8272 62.5328 29.5232 62.5352H34.1364C38.4964 62.4391 38.4939 55.8429 34.1363 55.7495H29.5232C28.8271 55.7519 28.1498 55.9761 27.5897 56.3897C27.0296 56.8032 26.6159 57.3845 26.4087 58.0491H16.6471C15.7069 58.0481 14.8055 57.6742 14.1407 57.0093C13.4759 56.3445 13.102 55.4432 13.1009 54.503V52.0243C16.1403 53.9733 20.6134 51.8728 20.5451 48.1048L20.5452 35.2395C20.5418 34.6008 20.4075 33.9695 20.1505 33.3847C19.8935 32.7999 19.5192 32.2741 19.0509 31.8397C18.5826 31.4053 18.0301 31.0716 17.4277 30.8593C16.8253 30.6469 16.1857 30.5603 15.5485 30.605C14.6862 30.6078 13.8422 30.8534 13.1129 31.3137C13.1726 25.5481 15.5048 20.0389 19.6029 15.9829C23.701 11.9269 29.234 9.65178 34.9999 9.65177C40.7659 9.65176 46.2989 11.9269 50.397 15.9828C54.4952 20.0388 56.8274 25.548 56.887 31.3136C56.1578 30.8534 55.3137 30.6078 54.4514 30.605C53.8142 30.5603 53.1746 30.6469 52.5722 30.8592C51.9698 31.0716 51.4173 31.4053 50.949 31.8397C50.4807 32.2741 50.1064 32.7999 49.8494 33.3847C49.5924 33.9695 49.4581 34.6008 49.4548 35.2395V48.105C49.5016 49.2609 49.9614 50.3616 50.7507 51.2074C51.54 52.0532 52.6064 52.5879 53.7563 52.7144C54.9062 52.841 56.0633 52.551 57.0176 51.897C57.9719 51.2431 58.6601 50.2687 58.9571 49.1506L60.9899 49.1507C62.2189 49.1492 63.3971 48.6604 64.266 47.7913C65.135 46.9222 65.6237 45.744 65.625 44.515V38.8284C65.6237 37.5995 65.1349 36.4214 64.2659 35.5526C63.3969 34.6837 62.2188 34.195 60.9899 34.1938ZM10.9134 46.9632H9.01008C8.36109 46.9624 7.73891 46.7042 7.28005 46.2452C6.82119 45.7863 6.56314 45.164 6.5625 44.515V38.8284C6.56336 38.1796 6.82152 37.5576 7.28036 37.0988C7.7392 36.6401 8.36126 36.3821 9.01008 36.3813H10.9134V46.9632ZM29.5232 57.937H34.1364C34.2987 57.9405 34.4583 57.9789 34.6044 58.0495C34.7506 58.1201 34.8799 58.2212 34.9836 58.3461C35.0872 58.4709 35.1629 58.6166 35.2054 58.7732C35.248 58.9299 35.2564 59.0938 35.2301 59.254C35.2299 59.5439 35.1145 59.822 34.9095 60.027C34.7045 60.2321 34.4264 60.3474 34.1364 60.3477H29.5232C29.361 60.3441 29.2014 60.3057 29.0552 60.2351C28.9091 60.1645 28.7798 60.0634 28.6761 59.9386C28.5724 59.8137 28.4968 59.668 28.4542 59.5114C28.4117 59.3548 28.4032 59.1909 28.4295 59.0307C28.4298 58.7407 28.5451 58.4627 28.7502 58.2576C28.9552 58.0526 29.2333 57.9373 29.5232 57.937ZM15.5486 32.7925C15.8974 32.749 16.2516 32.7795 16.5878 32.8822C16.9241 32.9848 17.2349 33.1572 17.5 33.3882C17.7651 33.6191 17.9785 33.9034 18.1263 34.2224C18.2741 34.5414 18.353 34.888 18.3577 35.2395V48.105C18.33 51.3704 13.1294 51.3748 13.1009 48.1049C13.0926 48.0865 13.1069 35.3172 13.1009 35.2876C13.0952 34.9623 13.1542 34.6392 13.2746 34.337C13.395 34.0348 13.5743 33.7596 13.8021 33.5273C14.0299 33.2951 14.3016 33.1106 14.6015 32.9844C14.9013 32.8582 15.2233 32.793 15.5486 32.7925ZM56.899 48.105C56.8943 48.4565 56.8155 48.8031 56.6677 49.1221C56.5199 49.4411 56.3065 49.7254 56.0414 49.9563C55.7763 50.1872 55.4654 50.3597 55.1292 50.4623C54.7929 50.5649 54.4388 50.5955 54.0899 50.552C53.4411 50.5513 52.819 50.2933 52.3602 49.8345C51.9013 49.3758 51.6432 48.7538 51.6423 48.105V35.2395C51.6432 34.5907 51.9013 33.9687 52.3602 33.51C52.819 33.0512 53.4411 32.7932 54.0899 32.7925C54.4428 32.7485 54.801 32.7803 55.1406 32.8858C55.4802 32.9913 55.7934 33.168 56.0593 33.4042C56.3251 33.6403 56.5376 33.9305 56.6824 34.2553C56.8272 34.58 56.9011 34.932 56.8991 35.2876C56.8991 35.2876 56.9069 48.0588 56.899 48.105ZM63.4375 44.515C63.4369 45.164 63.1788 45.7863 62.7199 46.2452C62.2611 46.7042 61.6389 46.9624 60.9899 46.9632H59.0866C59.0901 44.394 59.084 38.9104 59.0866 36.3813H60.99C61.6388 36.3821 62.2608 36.6401 62.7196 37.0988C63.1785 37.5576 63.4366 38.1796 63.4375 38.8284V44.515Z" fill="black"/>
<path d="M35 22.1836C32.9202 22.1817 30.8871 22.7997 29.1603 23.9588C27.4335 25.118 26.0914 26.7655 25.3055 28.6911C24.5195 30.6166 24.3254 32.7327 24.7479 34.7691C25.1704 36.8055 26.1904 38.6697 27.6775 40.1237V46.2493C27.6808 46.4634 27.7465 46.6719 27.8665 46.8493C27.9865 47.0267 28.1556 47.1652 28.3531 47.2479C28.5506 47.3307 28.768 47.354 28.9785 47.3151C29.1891 47.2762 29.3838 47.1768 29.5387 47.029L33.604 43.0279C35.025 43.2192 36.4701 43.1166 37.8499 42.7265C39.2296 42.3363 40.5145 41.6669 41.6249 40.7597C42.7352 39.8525 43.6474 38.7269 44.3048 37.4527C44.9623 36.1785 45.3509 34.7828 45.4467 33.3521C45.5426 31.9215 45.3435 30.4864 44.8618 29.1359C44.3802 27.7854 43.6263 26.5482 42.6468 25.5011C41.6673 24.4539 40.4832 23.6191 39.1678 23.0485C37.8524 22.4778 36.4338 22.1834 35 22.1836ZM33.4389 40.7838C33.2649 40.7508 33.0855 40.7604 32.916 40.8118C32.7465 40.8631 32.5919 40.9546 32.4654 41.0786L29.865 43.6378V39.6494C29.8651 39.4953 29.8325 39.3429 29.7695 39.2023C29.7064 39.0616 29.6143 38.9359 29.4992 38.8334C28.6266 38.0573 27.9278 37.1058 27.4484 36.041C26.969 34.9761 26.7198 33.8221 26.7173 32.6544C27.1045 21.6941 42.895 21.6919 43.2827 32.6545C43.2838 33.8746 43.0149 35.0799 42.4954 36.184C41.9759 37.288 41.2186 38.2634 40.2778 39.0404C39.337 39.8173 38.2359 40.3766 37.0536 40.678C35.8713 40.9794 34.6369 41.0155 33.4389 40.7838Z" fill="black"/>
<path d="M31.0586 31.6973C30.757 31.7016 30.4693 31.8245 30.2576 32.0393C30.0459 32.2541 29.9272 32.5436 29.9272 32.8452C29.9273 33.1468 30.0459 33.4363 30.2577 33.651C30.4694 33.8658 30.7571 33.9887 31.0587 33.993C31.3602 33.9887 31.648 33.8658 31.8597 33.651C32.0714 33.4362 32.19 33.1467 32.19 32.8451C32.19 32.5435 32.0713 32.2541 31.8596 32.0393C31.6479 31.8245 31.3602 31.7016 31.0586 31.6973Z" fill="black"/>
<path d="M35 31.6973C34.6984 31.7016 34.4107 31.8245 34.199 32.0393C33.9873 32.2541 33.8686 32.5436 33.8687 32.8452C33.8687 33.1468 33.9873 33.4363 34.1991 33.651C34.4108 33.8658 34.6985 33.9887 35.0001 33.993C35.3016 33.9887 35.5894 33.8658 35.8011 33.651C36.0128 33.4362 36.1314 33.1467 36.1314 32.8451C36.1314 32.5435 36.0127 32.2541 35.801 32.0393C35.5893 31.8245 35.3016 31.7016 35 31.6973Z" fill="black"/>
<path d="M38.9414 31.6973C38.6399 31.7016 38.3521 31.8245 38.1404 32.0393C37.9287 32.2541 37.81 32.5436 37.8101 32.8452C37.8101 33.1468 37.9288 33.4363 38.1405 33.651C38.3522 33.8658 38.6399 33.9887 38.9415 33.993C39.243 33.9887 39.5308 33.8658 39.7425 33.651C39.9542 33.4362 40.0728 33.1467 40.0728 32.8451C40.0728 32.5435 39.9541 32.2541 39.7424 32.0393C39.5307 31.8245 39.243 31.7016 38.9414 31.6973Z" fill="black"/>
</svg>
