<svg width="311" height="261" viewBox="0 0 311 261" fill="none" xmlns="http://www.w3.org/2000/svg">
<path d="M-97 224.649C-97 224.649 -80.8 276.199 -39.149 255.319C2.502 234.439 -15.052 176.988 50.79 190.973C116.632 204.958 138.872 198.731 147.173 145.883C155.474 93.0344 151.29 63.9951 230.866 79.2935C310.442 94.592 334.103 4.86677 285.51 -30.9467" stroke="white" stroke-width="0.5" stroke-miterlimit="10"/>
<path d="M-96.8047 221.565C-96.8047 221.565 -80.7237 272.564 -39.3547 251.733C2.00732 230.914 -15.3077 173.829 50.1453 187.68C80.3743 194.079 101.384 196.216 116.077 191.513C133.157 186.025 141.651 171.227 146.14 143.041C154.54 90.6619 150.535 61.8547 229.568 76.9796C308.658 92.081 332.231 2.9403 284.067 -32.8146" stroke="white" stroke-width="0.5" stroke-miterlimit="10"/>
<path d="M-96.6113 218.482C-96.6113 218.482 -80.6493 268.93 -39.5623 248.148C1.51168 227.391 -15.5653 170.671 49.4987 184.387C79.5387 190.726 100.447 192.852 115.103 188.218C132.107 182.798 140.594 168.14 145.106 140.199C153.606 88.2901 149.779 59.715 228.27 74.6663C306.874 89.5719 330.359 1.01566 282.624 -34.6807" stroke="white" stroke-width="0.5" stroke-miterlimit="10"/>
<path d="M-96.416 215.399C-96.416 215.399 -80.574 265.297 -39.768 244.562C1.01699 223.868 -15.821 167.512 48.854 181.095C78.705 187.373 99.512 189.488 114.131 184.921C131.059 179.569 139.538 165.052 144.074 137.357C152.674 85.9175 149.025 57.5734 226.973 72.3523C305.09 87.0598 328.487 -0.910897 281.181 -36.5476" stroke="white" stroke-width="0.5" stroke-miterlimit="10"/>
<path d="M-96.2227 212.315C-96.2227 212.315 -80.4997 261.661 -39.9757 240.974C0.520344 220.342 -16.0777 164.351 48.2074 177.799C77.8704 184.016 98.5843 186.156 113.156 181.622C130.019 176.377 138.419 161.95 143.038 134.515C151.624 83.5219 148.268 55.4323 225.673 70.0376C303.305 84.5493 326.613 -2.83697 279.737 -38.4141" stroke="white" stroke-width="0.5" stroke-miterlimit="10"/>
<path d="M-96.0273 209.232C-96.0273 209.232 -80.4233 258.026 -40.1823 237.389C0.0256615 216.819 -16.3343 161.193 47.5617 174.507C77.0357 180.662 97.6507 182.799 112.184 178.325C128.973 173.158 137.348 158.858 142.006 131.672C150.663 81.1437 147.514 53.2915 224.376 67.7233C301.522 82.0391 324.742 -4.76272 278.295 -40.2812" stroke="white" stroke-width="0.5" stroke-miterlimit="10"/>
<path d="M-95.832 206.149C-95.832 206.149 -80.347 254.391 -40.388 233.803C-0.469028 213.294 -16.59 158.034 46.917 171.214C76.202 177.308 96.717 179.443 111.211 175.029C127.927 169.938 136.277 155.766 140.973 128.83C149.701 78.765 146.759 51.1512 223.079 65.4085C299.74 79.5273 322.871 -6.68895 276.852 -42.1489" stroke="white" stroke-width="0.5" stroke-miterlimit="10"/>
<path d="M-95.6387 203.066C-95.6387 203.066 -80.2727 250.757 -40.5957 230.216C-0.964668 209.769 -16.8477 154.874 46.2713 167.92C75.3683 173.954 95.7833 176.086 110.238 171.731C126.88 166.718 135.206 152.673 139.94 125.987C148.739 76.3846 146.004 49.0082 221.781 63.094C297.956 77.017 320.999 -8.61481 275.409 -44.0162" stroke="white" stroke-width="0.5" stroke-miterlimit="10"/>
<path d="M-95.4434 199.982C-95.4434 199.982 -80.1974 247.122 -40.8014 226.631C-1.45936 206.245 -17.1034 151.715 45.6266 164.627C74.5346 170.599 94.8506 172.729 109.266 168.435C125.835 163.498 134.135 149.582 138.907 123.145C147.778 74.0051 145.249 46.8682 220.483 60.7795C296.172 74.5055 319.127 -10.5408 273.966 -45.8837" stroke="white" stroke-width="0.5" stroke-miterlimit="10"/>
<path d="M-95.248 196.898C-95.248 196.898 -80.121 243.487 -41.007 223.044C-1.95304 202.721 -17.359 148.556 44.982 161.333C73.702 167.245 93.9179 169.373 108.294 165.138C124.789 160.278 133.065 146.489 137.875 120.303C146.817 71.626 144.495 44.7276 219.187 58.4653C294.39 71.9954 317.257 -12.4664 272.525 -47.7507" stroke="white" stroke-width="0.5" stroke-miterlimit="10"/>
<path d="M-95.0547 193.816C-95.0547 193.816 -80.0467 239.852 -41.2147 219.459C-2.44968 199.197 -17.6167 145.397 44.3353 158.04C72.8663 163.892 92.9823 166.016 107.319 161.841C123.74 157.059 131.991 143.397 136.84 117.461C145.854 69.2457 143.712 42.7487 217.887 56.151C292.578 69.6471 315.382 -14.3931 271.08 -49.6178" stroke="white" stroke-width="0.5" stroke-miterlimit="10"/>
<path d="M-94.8594 190.732C-94.8594 190.732 -79.9704 236.219 -41.4204 215.872C-2.94437 195.672 -17.8724 142.237 43.6906 154.746C72.0326 160.537 92.0496 162.66 106.348 158.544C122.695 153.838 130.922 140.304 135.809 114.619C144.894 66.8661 142.957 40.6235 216.592 53.8374C290.795 67.1535 313.513 -16.3182 269.64 -51.4833" stroke="white" stroke-width="0.5" stroke-miterlimit="10"/>
<path d="M-94.666 187.649C-94.666 187.649 -79.897 232.584 -41.628 212.286C-3.44001 192.148 -18.13 139.078 43.044 151.453C71.198 157.183 91.114 159.303 105.373 155.247C121.646 150.618 129.849 137.211 134.773 111.777C143.93 64.4856 142.197 38.4985 215.291 51.5229C289.006 64.6581 311.638 -18.2441 268.194 -53.3506" stroke="white" stroke-width="0.5" stroke-miterlimit="10"/>
<path d="M-94.4707 184.566C-94.4707 184.566 -79.8207 228.949 -41.8337 208.701C-3.9347 188.624 -18.3847 135.921 42.3993 148.159C70.3643 153.827 90.1803 155.946 104.401 151.949C120.6 147.397 128.778 134.118 133.741 108.934C142.969 62.104 141.44 36.3724 213.995 49.2084C287.222 62.1636 309.768 -20.17 266.752 -55.218" stroke="white" stroke-width="0.5" stroke-miterlimit="10"/>
<path d="M-94.2773 181.483C-94.2773 181.483 -79.7463 225.315 -42.0423 205.115C-4.43134 185.101 -18.6433 132.761 41.7517 144.867C69.5287 150.474 89.2447 152.589 103.426 148.652C119.551 144.177 127.705 131.026 132.706 106.091C142.006 59.7225 140.681 34.2474 212.695 46.8939C285.434 59.6682 307.894 -22.0959 265.307 -57.0853" stroke="white" stroke-width="0.5" stroke-miterlimit="10"/>
<path d="M-94.082 178.399C-94.082 178.399 -79.67 221.679 -42.248 201.527C-4.92603 181.576 -18.899 129.6 41.107 141.572C68.695 147.118 88.311 149.231 102.454 145.354C118.505 140.954 126.635 127.931 131.674 103.248C141.046 57.34 139.925 32.1205 211.399 44.5785C283.649 57.1718 306.023 -24.0227 263.866 -58.9536" stroke="white" stroke-width="0.5" stroke-miterlimit="10"/>
<path d="M-93.8887 175.316C-93.8887 175.316 -79.5967 218.045 -42.4557 197.942C-5.42167 178.052 -19.1567 126.443 40.4613 138.279C67.8603 143.765 87.3763 145.874 101.48 142.057C117.456 137.734 125.563 124.838 130.64 100.406C140.083 54.9586 139.167 29.9946 210.1 42.2642C281.862 54.6775 304.15 -25.9496 262.422 -60.8208" stroke="white" stroke-width="0.5" stroke-miterlimit="10"/>
<path d="M-93.6934 172.233C-93.6934 172.233 -79.5204 214.41 -42.6614 194.356C-5.91636 174.528 -19.4123 123.284 39.8167 134.986C67.0277 140.411 86.4426 142.517 100.509 138.761C116.411 134.515 124.493 121.746 129.608 97.5654C139.123 52.5793 138.411 27.8708 208.803 39.952C280.078 52.1843 302.279 -27.8732 260.98 -62.6848" stroke="white" stroke-width="0.5" stroke-miterlimit="10"/>
<path d="M-93.498 169.149C-93.498 169.149 -79.444 210.777 -42.867 190.769C-6.41104 171.003 -19.668 120.124 39.172 131.692C66.194 137.056 85.5089 139.159 99.5359 135.463C115.364 131.292 123.422 118.652 128.575 94.7214C138.162 50.1952 137.654 25.7433 207.506 37.636C278.293 49.6874 300.408 -29.8005 259.538 -64.5536" stroke="white" stroke-width="0.5" stroke-miterlimit="10"/>
<path d="M-93.3047 166.066C-93.3047 166.066 -79.3697 207.142 -43.0747 187.184C-6.90668 167.479 -19.9257 116.965 38.5253 128.399C65.3583 133.702 84.5733 135.802 98.5623 132.167C114.315 128.072 122.35 115.559 127.541 91.8799C137.201 47.8136 136.896 23.6183 206.207 35.3226C276.506 47.193 298.535 -31.7254 258.094 -66.4199" stroke="white" stroke-width="0.5" stroke-miterlimit="10"/>
<path d="M-93.1094 162.983C-93.1094 162.983 -79.2934 203.508 -43.2804 183.598C-7.40137 163.955 -20.1804 113.807 37.8806 125.107C64.5256 130.349 83.6396 132.446 97.5896 128.87C113.269 124.851 121.28 112.466 126.509 89.0378C136.241 45.4314 136.141 21.4926 204.911 33.0085C274.722 44.6979 296.665 -33.6509 256.652 -68.2869" stroke="white" stroke-width="0.5" stroke-miterlimit="10"/>
<path d="M-92.9141 159.899C-92.9141 159.899 -79.2571 199.792 -43.4861 180.011C-7.93406 160.351 -20.4361 110.646 37.2359 121.812C63.6919 126.992 82.7059 129.087 96.6169 125.572C112.221 121.629 120.209 109.371 125.475 86.1942C135.279 43.0467 135.383 19.3655 203.612 30.693C272.935 42.2024 294.791 -35.5779 255.208 -70.1553" stroke="white" stroke-width="0.5" stroke-miterlimit="10"/>
<path d="M-92.7207 156.816C-92.7207 156.816 -79.1847 196.154 -43.6947 176.425C-8.4327 156.823 -20.6947 107.487 36.5883 118.519C62.8563 123.638 81.7683 125.73 95.6423 122.276C111.171 118.408 119.136 106.277 124.44 83.3526C134.316 40.6639 134.624 17.2404 202.313 28.3794C271.149 39.7068 292.918 -37.5029 253.764 -72.0217" stroke="white" stroke-width="0.5" stroke-miterlimit="10"/>
<path d="M-92.5254 153.733C-92.5254 153.733 -79.1104 192.517 -43.9004 172.84C-8.92939 153.297 -20.9504 104.329 35.9436 115.226C62.0226 120.285 80.8346 122.374 94.6696 118.979C110.124 115.187 118.066 103.183 123.408 80.5116C133.357 38.2817 133.868 15.1148 201.016 26.0664C269.364 37.2129 291.047 -39.4283 252.322 -73.8865" stroke="white" stroke-width="0.5" stroke-miterlimit="10"/>
<path d="M-92.332 150.65C-92.332 150.65 -79.038 188.879 -44.108 169.254C-9.42703 149.768 -21.208 101.17 35.297 111.933C61.187 116.931 79.899 119.017 93.696 115.682C109.075 111.966 116.995 100.09 122.374 77.6696C132.395 35.8986 133.111 12.9893 199.717 23.7525C267.578 34.7179 289.174 -41.3537 250.878 -75.7533" stroke="white" stroke-width="0.5" stroke-miterlimit="10"/>
<path d="M-92.1367 147.567C-92.1367 147.567 -78.9637 185.241 -44.3137 165.667C-9.92371 146.24 -21.4637 98.0102 34.6523 108.639C60.3543 113.576 78.9643 115.658 92.7233 112.385C108.027 108.744 115.924 96.9946 121.341 74.8262C131.435 33.513 132.354 10.8613 198.42 21.4372C265.793 32.2216 287.303 -43.2804 249.436 -77.6215" stroke="white" stroke-width="0.5" stroke-miterlimit="10"/>
<path d="M-91.9434 144.483C-91.9434 144.483 -78.8914 181.603 -44.5214 162.081C-10.4214 142.713 -21.7204 94.8514 34.0056 105.346C59.5186 110.222 78.0286 112.301 91.7496 109.088C106.979 105.522 114.853 93.9007 120.307 71.9847C130.474 31.1282 131.597 8.73632 197.121 19.1237C264.007 29.7272 285.429 -45.2053 247.992 -79.4878" stroke="white" stroke-width="0.5" stroke-miterlimit="10"/>
<path d="M-91.748 141.399C-91.748 141.399 -78.8171 177.964 -44.7271 158.495C-10.9181 139.186 -21.976 91.6917 33.362 102.052C58.687 106.868 77.095 108.943 90.778 105.79C105.932 102.3 113.784 90.8049 119.275 69.1412C129.515 28.7425 130.841 6.60823 195.825 16.8072C262.224 27.2286 283.559 -47.1332 246.551 -81.3572" stroke="white" stroke-width="0.5" stroke-miterlimit="10"/>
<path d="M-91.5547 138.316C-91.5547 138.316 -78.7457 174.326 -44.9347 154.908C-11.4157 135.658 -22.2337 88.5317 32.7153 98.7573C57.8513 103.512 76.1583 105.584 89.8043 102.492C104.883 99.0756 112.712 87.7088 118.241 66.2974C128.554 26.3554 130.084 4.47981 194.526 14.4914C260.437 24.7319 281.686 -49.0604 245.106 -83.2258" stroke="white" stroke-width="0.5" stroke-miterlimit="10"/>
<path d="M-91.3594 135.233C-91.3594 135.233 -78.6714 170.689 -45.1404 151.322C-11.9124 132.131 -22.4904 85.373 32.0696 95.4655C57.0166 100.158 75.2236 102.227 88.8306 99.1969C103.835 95.8551 111.642 84.6161 117.207 63.4581C127.593 23.9728 129.327 2.35591 193.228 12.1801C258.652 22.2385 279.814 -50.9831 243.663 -85.09" stroke="white" stroke-width="0.5" stroke-miterlimit="10"/>
<path d="M-91.1641 132.15C-91.1641 132.15 -78.5971 167.051 -45.3471 147.737C-12.4091 128.604 -22.7461 82.2143 31.4249 92.1716C56.1839 96.8037 74.2889 98.868 87.8589 95.8988C102.787 92.6315 110.573 81.5202 116.175 60.6145C126.635 21.5849 128.571 0.227778 191.931 9.86462C256.868 19.7421 277.943 -52.91 242.221 -86.9573" stroke="white" stroke-width="0.5" stroke-miterlimit="10"/>
<path d="M-90.9707 129.067C-90.9707 129.067 -78.5247 163.413 -45.5547 144.151C-12.9067 125.077 -23.0037 79.0559 30.7783 88.8791C55.3483 93.4505 73.3523 95.5105 86.8843 92.6031C101.737 89.4114 109.5 78.4257 115.14 57.7733C125.673 19.1994 127.813 -1.89796 190.631 7.5515C255.081 17.2469 276.069 -54.8356 240.776 -88.8232" stroke="white" stroke-width="0.5" stroke-miterlimit="10"/>
<path d="M-90.7754 125.984C-90.7754 125.984 -78.4504 159.777 -45.7604 140.565C-13.4034 121.55 -23.2594 75.8961 30.1336 85.5851C54.5156 90.0959 72.4176 92.1527 85.9126 89.3049C100.69 86.1867 108.432 75.3287 114.109 54.9297C124.716 16.8114 127.059 -4.0272 189.336 5.23595C253.299 14.7493 274.199 -56.7626 239.336 -90.6917" stroke="white" stroke-width="0.5" stroke-miterlimit="10"/>
<path d="M-90.5801 122.9C-90.5801 122.9 -78.3761 156.138 -45.9661 136.978C-13.8991 118.022 -23.5151 72.7363 29.4889 82.2911C53.6819 86.7401 71.4829 88.7938 84.9399 86.0077C99.6419 82.964 107.362 72.2338 113.076 52.0872C123.757 14.4234 126.303 -6.15439 188.038 2.9214C251.514 12.2538 272.327 -58.6886 237.893 -92.5591" stroke="white" stroke-width="0.5" stroke-miterlimit="10"/>
<path d="M-90.3867 119.816C-90.3867 119.816 -78.3047 152.5 -46.1737 133.392C-14.3977 114.494 -23.7717 69.5772 28.8423 78.998C52.8463 83.3863 70.5463 85.4346 83.9663 82.7102C98.5923 79.741 106.291 69.1376 112.041 49.2443C122.797 12.0351 125.545 -8.2829 186.739 0.606579C249.728 9.75689 270.454 -60.6148 236.449 -94.4268" stroke="white" stroke-width="0.5" stroke-miterlimit="10"/>
<path d="M-90.1914 116.733C-90.1914 116.733 -78.2304 148.863 -46.3794 129.806C-14.8934 110.967 -24.0274 66.4179 28.1976 75.7045C52.0136 80.0321 69.6116 82.0762 82.9936 79.4136C97.5436 76.5178 105.223 66.041 111.009 46.4033C121.839 9.64871 124.79 -10.4085 185.442 -1.7064C247.944 7.26186 268.583 -62.5392 235.006 -96.2926" stroke="white" stroke-width="0.5" stroke-miterlimit="10"/>
<path d="M-89.998 113.65C-89.998 113.65 -78.1581 145.225 -46.5871 126.22C-15.3921 107.44 -24.2851 63.259 27.5519 72.4115C51.1789 76.6784 68.675 78.7182 82.021 76.1163C96.496 73.2951 104.153 62.945 109.976 43.5606C120.88 7.25954 124.034 -12.5369 184.145 -4.02105C246.161 4.76517 266.712 -64.4653 233.564 -98.1591" stroke="white" stroke-width="0.5" stroke-miterlimit="10"/>
<path d="M-89.8027 110.567C-89.8027 110.567 -78.0837 141.589 -46.7927 122.635C-15.8877 103.914 -24.5407 60.1005 26.9073 69.1188C50.3463 73.324 67.7403 75.3606 81.0483 72.8204C95.4473 70.0727 103.084 59.8492 108.943 40.7193C119.922 4.87073 123.279 -14.6638 182.847 -6.33427C244.376 2.26883 264.84 -66.391 232.121 -100.025" stroke="white" stroke-width="0.5" stroke-miterlimit="10"/>
<path d="M-89.6094 107.483C-89.6094 107.483 -78.0114 137.95 -47.0004 119.048C-16.3864 100.387 -24.7984 56.941 26.2606 65.8251C49.5106 69.9697 66.8036 72.0009 80.0746 69.5225C94.3976 66.8482 102.014 56.7525 107.909 37.876C118.964 2.47985 122.522 -16.7928 181.548 -8.64957C242.591 -0.228516 262.966 -68.3177 230.677 -101.893" stroke="white" stroke-width="0.5" stroke-miterlimit="10"/>
<path d="M-89.4141 104.4C-89.4141 104.4 -77.9371 134.313 -47.2071 115.461C-16.8831 96.8594 -25.0381 53.6725 25.6149 62.5311C48.6839 66.566 65.8669 68.642 79.1009 66.2253C93.3479 63.6245 100.944 53.6555 106.875 35.0333C118.005 0.0896953 121.765 -18.921 180.25 -10.9641C240.806 -2.72513 261.094 -70.2437 229.234 -103.761" stroke="white" stroke-width="0.5" stroke-miterlimit="10"/>
<path d="M-89.2207 101.316C-89.2207 101.316 -77.8657 130.675 -47.4147 111.875C-17.3807 93.333 -25.2947 50.5112 24.9693 59.2378C47.8493 63.2099 64.9313 65.2827 78.1283 62.9288C92.2993 60.4014 99.8753 50.5591 105.842 32.1914C117.048 -2.3008 121.01 -21.0496 178.952 -13.278C239.022 -5.22209 259.222 -72.1689 227.791 -105.627" stroke="white" stroke-width="0.5" stroke-miterlimit="10"/>
<path d="M-89.0254 98.2337C-89.0254 98.2337 -77.7914 127.039 -47.6204 108.29C-17.8774 89.8062 -25.5504 47.3507 24.3236 55.9453C47.0156 59.8556 63.9946 61.9241 77.1546 59.632C91.2486 57.1771 98.8056 47.4614 104.809 29.3503C116.091 -4.69054 120.254 -23.1764 177.655 -15.5911C237.238 -7.71722 257.351 -74.0934 226.349 -107.493" stroke="white" stroke-width="0.5" stroke-miterlimit="10"/>
<path d="M-88.8301 95.1506C-88.8301 95.1506 -77.7171 123.402 -47.8261 104.703C-18.3731 86.2792 -25.8061 44.1889 23.6789 52.6514C46.1819 56.5 63.0589 58.5643 76.1829 56.335C90.2009 53.9535 97.7379 44.3645 103.776 26.5078C115.134 -7.08268 119.499 -25.3056 176.357 -17.9055C235.454 -10.2148 255.479 -76.0193 224.905 -109.36" stroke="white" stroke-width="0.5" stroke-miterlimit="10"/>
<path d="M-88.6367 92.0675C-88.6367 92.0675 -77.6447 119.765 -48.0337 101.118C-18.8717 82.7533 -26.0637 41.0281 23.0323 49.3586C45.3473 53.1454 62.1223 55.2054 75.2083 53.0379C89.1503 50.7288 96.6683 41.2665 102.741 23.6654C114.176 -9.47484 118.741 -27.4337 175.058 -20.2199C233.669 -12.7123 253.605 -77.9451 223.461 -111.227" stroke="white" stroke-width="0.5" stroke-miterlimit="10"/>
<path d="M-88.4414 88.9835C-88.4414 88.9835 -77.5704 116.127 -48.2394 97.5312C-19.3674 79.2263 -26.3194 37.8652 22.3876 46.0638C44.5136 49.7878 61.1866 51.8446 74.2356 49.7399C88.1016 47.5031 95.6006 38.1676 101.709 20.8219C113.221 -11.869 117.987 -29.5639 173.761 -22.5353C231.886 -15.2108 251.734 -79.873 222.019 -113.095" stroke="white" stroke-width="0.5" stroke-miterlimit="10"/>
<path d="M-88.2461 85.9006C-88.2461 85.9006 -77.4961 112.49 -48.4451 93.9448C-19.8631 75.6995 -26.5741 34.7035 21.7429 42.7701C43.6809 46.4323 60.2509 48.4849 73.2639 46.4419C87.0529 44.2776 94.5339 35.0687 100.677 17.9786C112.266 -14.2631 117.233 -31.695 172.464 -24.8507C230.103 -17.7093 249.863 -81.7998 220.577 -114.963" stroke="white" stroke-width="0.5" stroke-miterlimit="10"/>
<path d="M-88.0527 82.8169C-88.0527 82.8169 -77.4237 108.853 -48.6527 90.3586C-20.3617 72.1729 -26.8317 31.5422 21.0963 39.4767C42.8453 43.0772 59.3133 45.1255 72.2893 43.1453C86.0013 41.0534 93.4643 31.9712 99.6423 15.1365C111.309 -16.6569 116.476 -33.8237 171.165 -27.1646C228.318 -20.2063 247.99 -83.7251 219.133 -116.83" stroke="white" stroke-width="0.5" stroke-miterlimit="10"/>
<path d="M-87.8574 79.734C-87.8574 79.734 -77.3504 105.216 -48.8584 86.7732C-20.8574 68.6471 -27.0874 28.3815 20.4526 36.184C42.0136 39.7228 58.3786 41.7657 71.3186 39.8494C84.9546 37.8299 92.3996 28.8733 98.6116 12.2953C110.357 -19.05 115.724 -35.9517 169.87 -29.4789C226.538 -22.7038 246.121 -85.6509 217.693 -118.697" stroke="white" stroke-width="0.5" stroke-miterlimit="10"/>
<path d="M-87.6641 76.6506C-87.6641 76.6506 -77.2781 101.58 -49.0671 83.1874C-21.3571 65.121 -27.3451 25.2205 19.8049 32.891C41.1769 36.368 57.4399 38.4057 70.3429 36.5522C83.9019 34.6039 91.3289 25.7751 97.5749 9.45364C109.399 -21.4445 114.965 -38.0811 168.569 -31.7925C224.751 -25.2004 244.245 -87.5759 216.247 -120.563" stroke="white" stroke-width="0.5" stroke-miterlimit="10"/>
<path d="M-87.4688 73.5678C-87.4688 73.5678 -77.2038 97.9431 -49.2728 79.6009C-21.8528 61.5942 -27.6008 22.0588 19.1602 29.5973C40.3442 33.0126 56.5042 35.046 69.3712 33.2553C82.8532 31.3784 90.2632 22.6763 96.5432 6.61138C108.446 -23.8396 114.211 -40.2112 167.272 -34.1067C222.968 -27.6988 242.374 -89.5015 214.805 -122.43" stroke="white" stroke-width="0.5" stroke-miterlimit="10"/>
<path d="M-87.2754 70.4838C-87.2754 70.4838 -77.1314 94.3065 -49.4804 76.0144C-22.3504 58.0672 -27.8584 18.8971 18.5136 26.3036C39.5086 29.6571 55.5666 31.6852 68.3966 29.9573C81.8026 28.1528 89.1956 19.5763 95.5086 3.76793C107.492 -26.237 113.455 -42.3424 165.974 -36.4221C221.185 -30.1984 240.502 -91.4283 213.361 -124.298" stroke="white" stroke-width="0.5" stroke-miterlimit="10"/>
<path d="M-87.0801 67.4002C-87.0801 67.4002 -77.0571 90.6693 -49.6861 72.4283C-22.8471 54.5418 -28.1131 15.7369 17.8689 23.0103C38.6759 26.3021 54.6309 28.3248 67.4249 26.6608C80.7529 24.9266 88.1299 16.4768 94.4759 0.926046C106.539 -28.6339 112.701 -44.4721 164.676 -38.7359C219.402 -32.6954 238.63 -93.3536 211.918 -126.165" stroke="white" stroke-width="0.5" stroke-miterlimit="10"/>
<path d="M-86.8867 64.3173C-86.8867 64.3173 -76.9847 87.0329 -49.8937 68.8419C-23.3447 51.015 -28.3707 12.5752 17.2223 19.7166C37.8403 22.9466 53.6923 24.9641 66.4503 23.3629C79.7023 21.7 87.0623 13.3769 93.4413 -1.91731C105.585 -31.0322 111.944 -46.6032 163.376 -41.0513C217.616 -35.1959 236.756 -95.2813 210.473 -128.033" stroke="white" stroke-width="0.5" stroke-miterlimit="10"/>
<path d="M-86.6914 61.2344C-86.6914 61.2344 -76.9104 83.3974 -50.0994 65.2565C-23.8404 47.4903 -28.6264 9.41456 16.5776 16.4239C37.0076 19.5912 52.7566 21.6033 65.4786 20.067C78.6536 18.4755 85.9986 10.278 92.4096 -4.75857C104.635 -33.4295 111.192 -48.7333 162.081 -43.3645C215.836 -37.6933 234.887 -97.206 209.033 -129.899" stroke="white" stroke-width="0.5" stroke-miterlimit="10"/>
<path d="M-86.4961 58.1511C-86.4961 58.1511 -76.8361 79.7605 -50.3051 61.6707C-24.3371 43.9641 -28.8821 6.25359 15.9329 13.131C36.1739 16.2364 51.8209 18.2432 64.5059 16.7698C77.6039 15.2495 84.9329 7.17766 91.3769 -7.60017C103.684 -35.8272 110.437 -50.8637 160.783 -45.678C214.053 -40.191 233.014 -99.131 207.59 -131.764" stroke="white" stroke-width="0.5" stroke-miterlimit="10"/>
<path d="M-86.3027 55.0683C-86.3027 55.0683 -76.7647 76.1252 -50.5127 58.0854C-24.8347 40.4395 -29.1397 3.09303 15.2863 9.83839C35.3383 12.8821 50.8823 14.8825 63.5323 13.474C76.5533 12.024 83.8683 4.07886 90.3433 -10.4413C102.733 -38.2255 109.682 -52.9937 159.485 -47.9911C212.27 -42.6894 231.142 -101.055 206.147 -133.63" stroke="white" stroke-width="0.5" stroke-miterlimit="10"/>
<path d="M-86.1074 51.9842C-86.1074 51.9842 -76.6904 72.4875 -50.7184 54.4978C-25.3304 36.9115 -29.3954 -0.068739 14.6426 6.54354C34.5066 9.52551 49.9476 11.5206 62.5606 10.1749C75.5036 8.79627 82.8046 0.976715 89.3106 -13.2848C101.784 -40.6261 108.929 -55.126 158.188 -50.3065C210.488 -45.189 229.271 -102.982 204.705 -135.499" stroke="white" stroke-width="0.5" stroke-miterlimit="10"/>
<path d="M-85.9121 48.9007C-85.9121 48.9007 -76.6161 68.8515 -50.9251 50.9118C-25.8271 33.3862 -29.6511 -3.22995 13.9969 3.24925C33.6719 6.17054 49.0099 8.15817 61.5879 6.87745C74.4539 5.56798 81.7409 -2.12595 88.2779 -16.1287C100.836 -43.0282 108.175 -57.2599 156.891 -52.6225C208.707 -47.6901 227.4 -104.91 203.263 -137.367" stroke="white" stroke-width="0.5" stroke-miterlimit="10"/>
<path d="M-85.7188 45.8174C-85.7188 45.8174 -76.5438 65.2157 -51.1328 47.326C-26.3248 29.8611 -29.9087 -6.39097 13.3512 -0.043772C32.8372 2.81577 48.0722 4.797 60.6142 3.58122C73.4032 2.34201 80.6762 -5.22629 87.2442 -18.9704C99.8872 -45.4291 107.42 -59.3904 155.592 -54.9361C206.923 -50.189 225.527 -106.836 201.818 -139.234" stroke="white" stroke-width="0.5" stroke-miterlimit="10"/>
<path d="M-85.5234 42.7347C-85.5234 42.7347 -76.4694 61.5804 -51.3384 43.7397C-26.8214 26.3355 -30.1644 -9.5514 12.7056 -3.33621C32.0036 -0.538423 47.1356 1.43536 59.6416 0.28452C72.3536 -0.885485 79.6136 -8.3271 86.2116 -21.8125C98.9406 -47.8305 106.667 -61.5235 154.296 -57.2501C205.143 -52.6883 223.656 -108.761 200.377 -141.101" stroke="white" stroke-width="0.5" stroke-miterlimit="10"/>
<path d="M-85.3281 39.6516C-85.3281 39.6516 -76.3951 57.9448 -51.5441 40.1541C-27.3171 22.8106 -30.4211 -12.7122 12.0599 -6.6301C31.1689 -3.89405 46.1979 -1.92664 58.6679 -3.01255C71.3029 -4.11335 78.5509 -11.4283 85.1779 -24.655C97.9929 -50.2333 105.912 -63.6559 152.997 -59.5646C203.359 -55.189 221.783 -110.687 198.933 -142.968" stroke="white" stroke-width="0.5" stroke-miterlimit="10"/>
<path d="M-85.1348 36.5672C-85.1348 36.5672 -76.3228 54.3079 -51.7518 36.5672C-27.8148 19.2844 -30.6778 -15.8732 11.4142 -9.92422C30.3352 -7.24886 45.2602 -5.28892 57.6952 -6.30988C70.2522 -7.34148 77.4892 -14.5297 84.1442 -27.4966C97.0472 -52.6363 105.158 -65.7874 151.698 -61.8782C201.576 -57.6889 219.91 -112.612 197.489 -144.835" stroke="white" stroke-width="0.5" stroke-miterlimit="10"/>
<path d="M-84.9395 33.4844C-84.9395 33.4844 -76.2485 50.6725 -51.9575 32.9819C-28.3105 15.7598 -30.9335 -19.0327 10.7695 -13.2168C29.5005 -10.6042 44.3235 -8.65065 56.7225 -9.60667C69.2015 -10.5691 76.4275 -17.6317 83.1115 -30.3389C96.1035 -55.0399 104.405 -67.9206 150.402 -64.1923C199.796 -60.1894 218.04 -114.538 196.048 -146.701" stroke="white" stroke-width="0.5" stroke-miterlimit="10"/>
<path d="M-84.7461 30.401C-84.7461 30.401 -76.1761 47.0366 -52.1651 29.395C-28.8081 12.2346 -31.1911 -22.1949 10.1229 -16.5109C28.6659 -13.9601 43.3849 -12.014 55.7489 -12.9051C68.1509 -13.7983 75.3669 -20.7353 82.0779 -33.1827C95.1589 -57.4451 103.651 -70.0554 149.103 -66.5081C198.013 -62.6915 216.167 -116.465 194.604 -148.569" stroke="white" stroke-width="0.5" stroke-miterlimit="10"/>
<path d="M-84.5508 27.3179C-84.5508 27.3179 -76.1008 43.4009 -52.3708 25.8093C-29.3048 8.70959 -31.4468 -25.3547 9.47822 -19.8038C27.8332 -17.3137 42.4482 -15.3772 54.7762 -16.2012C67.1002 -17.0252 74.3062 -23.8366 81.0442 -36.0242C94.2162 -59.8501 102.896 -72.189 147.805 -68.8216C196.231 -65.1913 214.295 -118.39 193.161 -150.436" stroke="white" stroke-width="0.5" stroke-miterlimit="10"/>
<path d="M-84.3574 24.2348C-84.3574 24.2348 -76.0284 39.7653 -52.5794 22.2237C-29.8034 5.18469 -31.7054 -28.5144 8.83057 -23.0966C26.9966 -20.6683 41.5086 -18.7392 53.8006 -19.4983C66.0476 -20.2541 73.2446 -26.9388 80.0086 -38.8667C93.2726 -62.2551 102.141 -74.3224 146.505 -71.136C194.447 -67.6931 212.42 -120.317 191.715 -152.303" stroke="white" stroke-width="0.5" stroke-miterlimit="10"/>
<path d="M-84.1621 21.1519C-84.1621 21.1519 -75.9541 36.131 -52.7851 18.6373C-30.2991 1.66 -31.9611 -31.6761 8.18689 -26.3903C26.1639 -24.0237 40.5729 -22.1021 52.8299 -22.7951C64.9989 -23.4829 72.1879 -30.0408 78.9779 -41.7079C92.3349 -64.6608 101.39 -76.4556 145.209 -73.4502C192.668 -70.1947 210.55 -122.242 190.274 -154.17" stroke="white" stroke-width="0.5" stroke-miterlimit="10"/>
<path d="M-83.9688 18.0677C-83.9688 18.0677 -75.8818 32.4942 -52.9928 15.0506C-30.7968 -1.86495 -32.2188 -34.837 7.54025 -29.6842C25.3292 -27.3794 39.6343 -25.4663 51.8553 -26.0933C63.9463 -26.7129 71.1282 -33.1442 77.9432 -44.5515C91.3952 -67.068 100.635 -78.5924 143.91 -75.7648C190.885 -72.6966 208.677 -124.168 188.83 -156.036" stroke="white" stroke-width="0.5" stroke-miterlimit="10"/>
<path d="M-83.7734 14.9842C-83.7734 14.9842 -75.8074 28.8593 -53.1984 11.4646C-31.2924 -5.39024 -32.4744 -37.9971 6.89556 -32.9774C24.4956 -30.7332 38.6976 -28.8297 50.8836 -29.3897C62.8976 -29.9412 70.0726 -36.2468 76.9116 -47.3933C90.4586 -69.4754 99.8836 -80.7262 142.614 -78.0796C189.106 -75.1987 206.807 -126.094 187.389 -157.904" stroke="white" stroke-width="0.5" stroke-miterlimit="10"/>
<path d="M-83.5781 11.9011C-83.5781 11.9011 -75.7321 25.2247 -53.4041 7.87906C-31.7871 -8.91408 -32.7301 -41.1568 6.25087 -36.2713C23.6619 -34.0889 37.7609 -32.1939 49.9109 -32.6868C61.8469 -33.1712 69.0159 -39.3491 75.8779 -50.2358C89.5229 -71.8825 99.1299 -82.8629 141.316 -80.394C187.324 -77.7016 204.935 -128.02 185.946 -159.771" stroke="white" stroke-width="0.5" stroke-miterlimit="10"/>
<path d="M-83.3848 8.81828C-83.3848 8.81828 -75.6598 21.5904 -53.6118 4.29262C-32.2858 -12.4388 -32.9888 -44.3174 5.60323 -39.5639C22.8262 -37.4432 36.8212 -35.5567 48.9362 -35.9836C60.7942 -36.401 67.9592 -42.4522 74.8432 -53.0781C88.5862 -74.2904 98.3762 -84.9982 140.016 -82.7082C185.541 -80.2043 203.061 -129.946 184.501 -161.638" stroke="white" stroke-width="0.5" stroke-miterlimit="10"/>
<path d="M-83.1895 5.73522C-83.1895 5.73522 -75.5855 17.9559 -53.8175 0.707081C-32.7805 -15.9626 -33.2435 -47.4771 4.95954 -42.8567C21.9935 -40.7967 35.9285 -38.1373 47.9645 -39.2796C59.7025 -40.3943 66.9056 -45.5534 73.8116 -55.9194C87.6556 -76.6985 97.6245 -87.1338 138.721 -85.0216C183.763 -82.7071 201.191 -131.871 183.061 -163.505" stroke="white" stroke-width="0.5" stroke-miterlimit="10"/>
<path d="M-82.9941 2.65121C-82.9941 2.65121 -75.5101 14.3204 -54.0231 -2.87944C-33.2761 -19.4873 -33.4991 -50.6367 4.31486 -46.1504C21.1599 -44.1522 34.9879 -41.5013 46.9929 -42.5776C58.6569 -43.6231 65.8528 -48.6576 72.7798 -58.7618C86.7258 -79.1065 96.8739 -89.2703 137.424 -87.3359C181.983 -85.2099 199.32 -133.798 181.619 -165.372" stroke="white" stroke-width="0.5" stroke-miterlimit="10"/>
<path d="M-82.8008 -0.432305C-82.8008 -0.432305 -75.4378 10.6854 -54.2318 -6.46651C-33.7748 -23.0116 -33.7588 -53.7979 3.66721 -49.4458C20.3232 -47.5082 34.0442 -44.868 46.0172 -45.8762C57.6072 -46.8524 64.7972 -51.7613 71.7432 -61.6058C85.7922 -81.5171 96.1172 -91.4084 136.123 -89.6518C180.2 -87.7164 197.445 -135.725 180.172 -167.24" stroke="white" stroke-width="0.5" stroke-miterlimit="10"/>
<path d="M-82.6055 -3.51523C-82.6055 -3.51523 -75.3625 7.05101 -54.4375 -10.0519C-34.2705 -26.5353 -34.0145 -56.9575 3.02253 -52.7385C19.4905 -50.8626 33.1035 -48.232 45.0455 -49.1731C56.5615 -50.0801 63.7465 -54.8645 70.7115 -64.4481C84.8665 -83.9262 95.3665 -93.546 134.827 -91.9661C178.421 -90.2201 195.575 -137.651 178.731 -169.107" stroke="white" stroke-width="0.5" stroke-miterlimit="10"/>
</svg>
