<svg width="50" height="51" viewBox="0 0 50 51" fill="none" xmlns="http://www.w3.org/2000/svg">
<circle cx="25" cy="25.5" r="25" fill="#F2F2F2"/>
<path opacity="0.5" d="M18.4545 37.5H14.0909C13.8016 37.5 13.5241 37.3851 13.3195 37.1805C13.1149 36.9759 13 36.6984 13 36.4091V14.5909C13 14.3016 13.1149 14.0241 13.3195 13.8195C13.5241 13.6149 13.8016 13.5 14.0909 13.5H18.4545V37.5Z" fill="#9BBEA2"/>
<path d="M22.8184 23.3184H31.5456" stroke="black" stroke-width="2" stroke-linecap="round" stroke-linejoin="round"/>
<path d="M22.8184 27.6816H31.5456" stroke="black" stroke-width="2" stroke-linecap="round" stroke-linejoin="round"/>
<path d="M35.9091 13.5H14.0909C13.4884 13.5 13 13.9884 13 14.5909V36.4091C13 37.0116 13.4884 37.5 14.0909 37.5H35.9091C36.5116 37.5 37 37.0116 37 36.4091V14.5909C37 13.9884 36.5116 13.5 35.9091 13.5Z" stroke="black" stroke-width="2" stroke-linecap="round" stroke-linejoin="round"/>
<path d="M18.4541 13.5V37.5" stroke="black" stroke-width="2" stroke-linecap="round" stroke-linejoin="round"/>
</svg>
