<svg width="56" height="70" viewBox="0 0 56 70" fill="none" xmlns="http://www.w3.org/2000/svg">
<path d="M53.9864 31.8693L5.22449 0.522331C4.17959 -0.17424 2.78637 -0.17424 1.74147 0.522331C0.696571 0.870659 0 1.91556 0 3.3087V66.0026C0 67.3958 0.696571 68.4407 1.74147 69.1373C2.43804 69.4856 2.78637 69.4856 3.48294 69.4856C4.17951 69.4856 4.87616 69.1373 5.22441 68.789L53.9863 37.4421C55.0312 36.7455 55.7278 35.7006 55.7278 34.6557C55.7278 33.6108 55.0313 32.2175 53.9864 31.8693ZM6.96596 59.7332L49.5 34.6557L6.96596 9.57809L45.9755 34.6556L6.96596 59.7332Z" fill="#ED6436"/>
</svg>
