<svg width="50" height="50" viewBox="0 0 50 50" fill="none" xmlns="http://www.w3.org/2000/svg">
<circle cx="25.0001" cy="25" r="25" fill="#F2F2F2"/>
<path opacity="0.5" d="M25.0001 37C23.4088 37 21.8827 36.3679 20.7575 35.2426C19.6323 34.1174 19.0001 32.5913 19.0001 31C19.0001 29.4087 19.6323 27.8826 20.7575 26.7574C21.8827 25.6321 23.4088 25 25.0001 25C26.5914 25 28.1175 24.3679 29.2428 23.2426C30.368 22.1174 31.0001 20.5913 31.0001 19C31.0001 17.4087 30.368 15.8826 29.2428 14.7574C28.1175 13.6321 26.5914 13 25.0001 13C28.1827 13 31.235 14.2643 33.4854 16.5147C35.7358 18.7652 37.0001 21.8174 37.0001 25C37.0001 28.1826 35.7358 31.2348 33.4854 33.4853C31.235 35.7357 28.1827 37 25.0001 37Z" fill="#9BBEA2"/>
<path d="M25.0001 37C31.6275 37 37.0001 31.6274 37.0001 25C37.0001 18.3726 31.6275 13 25.0001 13C18.3727 13 13.0001 18.3726 13.0001 25C13.0001 31.6274 18.3727 37 25.0001 37Z" stroke="black" stroke-width="1.5" stroke-linecap="round" stroke-linejoin="round"/>
<path d="M25.0001 32.5C25.8285 32.5 26.5001 31.8284 26.5001 31C26.5001 30.1716 25.8285 29.5 25.0001 29.5C24.1717 29.5 23.5001 30.1716 23.5001 31C23.5001 31.8284 24.1717 32.5 25.0001 32.5Z" fill="black"/>
<path d="M25.0001 37C23.4088 37 21.8827 36.3679 20.7575 35.2426C19.6323 34.1174 19.0001 32.5913 19.0001 31C19.0001 29.4087 19.6323 27.8826 20.7575 26.7574C21.8827 25.6321 23.4088 25 25.0001 25C26.5914 25 28.1175 24.3679 29.2428 23.2426C30.368 22.1174 31.0001 20.5913 31.0001 19C31.0001 17.4087 30.368 15.8826 29.2428 14.7574C28.1175 13.6321 26.5914 13 25.0001 13" stroke="black" stroke-width="1.5" stroke-linecap="round" stroke-linejoin="round"/>
<path d="M25.0001 20.5C25.8285 20.5 26.5001 19.8284 26.5001 19C26.5001 18.1716 25.8285 17.5 25.0001 17.5C24.1717 17.5 23.5001 18.1716 23.5001 19C23.5001 19.8284 24.1717 20.5 25.0001 20.5Z" fill="black"/>
</svg>
