<svg width="50" height="51" viewBox="0 0 50 51" fill="none" xmlns="http://www.w3.org/2000/svg">
<circle cx="25" cy="25.5" r="25" fill="#F2F2F2"/>
<path opacity="0.5" d="M35.9091 13.5H19.9955C19.8538 13.4995 19.7134 13.527 19.5824 13.5808C19.4514 13.6346 19.3322 13.7137 19.2318 13.8136L13.3136 19.7318C13.2137 19.8322 13.1346 19.9514 13.0808 20.0824C13.027 20.2134 12.9995 20.3538 13 20.4955V36.4091C13 36.6984 13.1149 36.9759 13.3195 37.1805C13.5241 37.3851 13.8016 37.5 14.0909 37.5H35.9091C36.1984 37.5 36.4759 37.3851 36.6805 37.1805C36.8851 36.9759 37 36.6984 37 36.4091V14.5909C37 14.3016 36.8851 14.0241 36.6805 13.8195C36.4759 13.6149 36.1984 13.5 35.9091 13.5ZM25 32.0455C24.2448 32.0455 23.5066 31.8215 22.8787 31.402C22.2508 30.9824 21.7615 30.3861 21.4725 29.6884C21.1835 28.9907 21.1079 28.223 21.2552 27.4824C21.4025 26.7417 21.7662 26.0614 22.3001 25.5274C22.8341 24.9934 23.5145 24.6298 24.2551 24.4825C24.9958 24.3351 25.7635 24.4107 26.4612 24.6997C27.1588 24.9887 27.7552 25.4781 28.1747 26.106C28.5942 26.7339 28.8182 27.4721 28.8182 28.2273C28.8182 29.2399 28.4159 30.2111 27.6999 30.9271C26.9838 31.6432 26.0126 32.0455 25 32.0455Z" fill="#9BBEA2"/>
<path d="M13 20.4955V36.4091C13 36.6984 13.1149 36.9759 13.3195 37.1805C13.5241 37.3851 13.8016 37.5 14.0909 37.5H35.9091C36.1984 37.5 36.4759 37.3851 36.6805 37.1805C36.8851 36.9759 37 36.6984 37 36.4091V14.5909C37 14.3016 36.8851 14.0241 36.6805 13.8195C36.4759 13.6149 36.1984 13.5 35.9091 13.5H19.9955C19.8538 13.4995 19.7134 13.527 19.5824 13.5808C19.4514 13.6346 19.3322 13.7137 19.2318 13.8136L13.3136 19.7318C13.2137 19.8322 13.1346 19.9514 13.0808 20.0824C13.027 20.2134 12.9995 20.3538 13 20.4955V20.4955Z" stroke="black" stroke-width="1.5" stroke-linecap="round" stroke-linejoin="round"/>
<path d="M24.9998 32.0446C27.1085 32.0446 28.818 30.3351 28.818 28.2264C28.818 26.1177 27.1085 24.4082 24.9998 24.4082C22.8911 24.4082 21.1816 26.1177 21.1816 28.2264C21.1816 30.3351 22.8911 32.0446 24.9998 32.0446Z" stroke="black" stroke-width="1.5" stroke-linecap="round" stroke-linejoin="round"/>
<path d="M20.6367 18.9545H29.364V13.5" stroke="black" stroke-width="1.5" stroke-linecap="round" stroke-linejoin="round"/>
</svg>
