<svg width="86" height="86" viewBox="0 0 86 86" fill="none" xmlns="http://www.w3.org/2000/svg">
<path opacity="0.35" d="M52.098 61.8525H38.8107C36.4959 61.8525 34.6211 59.9776 34.6211 57.6629V37.0333C34.6211 35.481 35.1951 33.9833 36.2341 32.829L41.3768 27.1165L42.1708 22.3362C42.529 20.1827 45.093 19.2673 46.7605 20.6771C48.1116 21.8188 49.2847 23.5135 49.2847 25.956C49.2847 29.6554 47.1899 34.6201 47.1899 34.6201H57.6639C61.135 34.6201 63.9483 37.4334 63.9483 40.9045V43.6948C63.9483 44.6165 63.7451 45.5277 63.3534 46.3614L57.7875 58.2348C56.7527 60.4427 54.5364 61.8525 52.098 61.8525Z" fill="#FF6262"/>
<path d="M27.2887 34.6211H31.4783C33.2128 34.6211 34.6205 36.0288 34.6205 37.7633V58.7113C34.6205 60.4458 33.2128 61.8535 31.4783 61.8535H27.2887C25.5542 61.8535 24.1465 60.4458 24.1465 58.7113V37.7633C24.1465 36.0288 25.5542 34.6211 27.2887 34.6211Z" fill="#FF6262"/>
<rect opacity="0.1" width="86" height="86" fill="#FF6262"/>
</svg>
