<svg width="64" height="64" viewBox="0 0 64 64" fill="none" xmlns="http://www.w3.org/2000/svg">
<g id="teamwork">
<path id="Vector" d="M57.8091 2.69995H37.8091V10.526C38.5425 9.85315 39.4558 9.40835 40.4377 9.2458C41.4195 9.08325 42.4275 9.20999 43.3386 9.61055C44.2496 10.0111 45.0244 10.6682 45.5684 11.5016C46.1124 12.335 46.402 13.3087 46.402 14.304C46.402 15.2992 46.1124 16.2729 45.5684 17.1063C45.0244 17.9397 44.2496 18.5968 43.3386 18.9974C42.4275 19.3979 41.4195 19.5247 40.4377 19.3621C39.4558 19.1996 38.5425 18.7548 37.8091 18.082V25.9069H45.6301C44.9573 26.6403 44.5125 27.5537 44.3499 28.5355C44.1874 29.5174 44.3141 30.5254 44.7147 31.4364C45.1152 32.3475 45.7723 33.1223 46.6057 33.6663C47.4391 34.2102 48.4129 34.4999 49.4081 34.4999C50.4033 34.4999 51.377 34.2102 52.2104 33.6663C53.0439 33.1223 53.7009 32.3475 54.1015 31.4364C54.502 30.5254 54.6288 29.5174 54.4662 28.5355C54.3037 27.5537 53.8589 26.6403 53.1861 25.9069H61.0001V5.89995C61.0001 5.05282 60.6642 4.24024 60.066 3.64039C59.4678 3.04053 58.6562 2.70233 57.8091 2.69995Z" fill="#05977D"/>
<path id="Vector_2" d="M49.4 36.805H41.589C41.3949 36.8052 41.205 36.8619 41.0425 36.9682C40.88 37.0745 40.752 37.2257 40.6741 37.4036C40.5962 37.5814 40.5717 37.778 40.6036 37.9695C40.6356 38.161 40.7226 38.3391 40.854 38.482C41.395 39.0725 41.7525 39.8077 41.8829 40.5979C42.0133 41.3881 41.911 42.1991 41.5884 42.9322C41.2658 43.6652 40.7369 44.2886 40.0662 44.7262C39.3955 45.1638 38.6119 45.3969 37.811 45.3969C37.0101 45.3969 36.2265 45.1638 35.5558 44.7262C34.8851 44.2886 34.3562 43.6652 34.0336 42.9322C33.711 42.1991 33.6087 41.3881 33.7391 40.5979C33.8695 39.8077 34.227 39.0725 34.768 38.482C34.8995 38.339 34.9865 38.1609 35.0184 37.9693C35.0503 37.7777 35.0258 37.581 34.9477 37.4031C34.8697 37.2252 34.7415 37.074 34.5789 36.9677C34.4163 36.8615 34.2262 36.805 34.032 36.805H27.207V31.813C28.1395 32.2215 29.1591 32.3913 30.1737 32.3069C31.1883 32.2225 32.1658 31.8866 33.018 31.3296C33.8702 30.7726 34.5702 30.012 35.0546 29.1165C35.5391 28.2211 35.7928 27.2191 35.7928 26.201C35.7928 25.1829 35.5391 24.1809 35.0546 23.2854C34.5702 22.39 33.8702 21.6294 33.018 21.0724C32.1658 20.5154 31.1883 20.1795 30.1737 20.0951C29.1591 20.0107 28.1395 20.1804 27.207 20.589V14.6C27.207 14.3348 27.1016 14.0804 26.9141 13.8929C26.7266 13.7053 26.4722 13.6 26.207 13.6H6.2C5.08674 13.6021 4.01968 14.0453 3.23249 14.8325C2.44529 15.6197 2.00211 16.6867 2 17.8V57.809C2.00238 58.9213 2.44593 59.9873 3.23333 60.773C4.02072 61.5587 5.08765 62 6.2 62H46.211C47.3214 61.9971 48.3855 61.5545 49.1706 60.7691C49.9556 59.9837 50.3976 58.9194 50.4 57.809V37.809C50.4005 37.6773 50.375 37.5469 50.325 37.4251C50.275 37.3033 50.2014 37.1926 50.1085 37.0993C50.0156 37.006 49.9052 36.932 49.7836 36.8815C49.662 36.831 49.5317 36.805 49.4 36.805ZM4 17.8C4.00132 17.2169 4.23353 16.6581 4.64582 16.2458C5.05812 15.8335 5.61693 15.6013 6.2 15.6H25.2V22.425C25.1998 22.6194 25.2563 22.8097 25.3626 22.9725C25.4688 23.1353 25.6203 23.2636 25.7983 23.3417C25.9764 23.4198 26.1733 23.4443 26.3651 23.4122C26.5568 23.3801 26.7351 23.2928 26.878 23.161C27.4685 22.6198 28.2037 22.2622 28.9939 22.1316C29.7841 22.0011 30.5953 22.1034 31.3284 22.4259C32.0615 22.7485 32.685 23.2774 33.1227 23.9481C33.5604 24.6189 33.7934 25.4025 33.7934 26.2035C33.7934 27.0044 33.5604 27.7881 33.1227 28.4588C32.685 29.1296 32.0615 29.6585 31.3284 29.981C30.5953 30.3036 29.7841 30.4058 28.9939 30.2753C28.2037 30.1448 27.4685 29.7871 26.878 29.246C26.7351 29.1142 26.557 29.0269 26.3653 28.9948C26.1737 28.9627 25.9768 28.9871 25.7988 29.0651C25.6208 29.143 25.4693 29.2712 25.363 29.4338C25.2567 29.5965 25.2 29.7866 25.2 29.981V36.807H20.216C20.6243 35.8745 20.7939 34.8549 20.7093 33.8405C20.6248 32.826 20.2888 31.8486 19.7318 30.9966C19.1747 30.1445 18.4141 29.4447 17.5188 28.9603C16.6234 28.476 15.6215 28.2223 14.6035 28.2223C13.5855 28.2223 12.5836 28.476 11.6882 28.9603C10.7929 29.4447 10.0323 30.1445 9.47524 30.9966C8.91819 31.8486 8.58221 32.826 8.49767 33.8405C8.41312 34.8549 8.58267 35.8745 8.991 36.807H4V17.8ZM4 57.809V38.809H10.826C11.0205 38.8091 11.2109 38.7526 11.3738 38.6462C11.5366 38.5398 11.6649 38.3882 11.7429 38.21C11.8209 38.0318 11.8453 37.8347 11.813 37.6429C11.7807 37.451 11.6931 37.2728 11.561 37.13C10.8614 36.3727 10.4742 35.3789 10.477 34.348C10.4685 33.8007 10.5689 33.2571 10.7725 32.749C10.976 32.2409 11.2786 31.7784 11.6626 31.3883C12.0467 30.9983 12.5045 30.6885 13.0093 30.4771C13.5142 30.2656 14.0561 30.1567 14.6035 30.1567C15.1509 30.1567 15.6928 30.2656 16.1977 30.4771C16.7025 30.6885 17.1603 30.9983 17.5444 31.3883C17.9284 31.7784 18.231 32.2409 18.4345 32.749C18.6381 33.2571 18.7385 33.8007 18.73 34.348C18.7325 35.3791 18.3453 36.3732 17.646 37.131C17.5142 37.2739 17.4269 37.4521 17.3948 37.6439C17.3627 37.8356 17.3872 38.0326 17.4653 38.2107C17.5434 38.3887 17.6717 38.5401 17.8345 38.6464C17.9973 38.7527 18.1876 38.8092 18.382 38.809H25.207V43.8C24.2743 43.3912 23.2545 43.2212 22.2396 43.3055C21.2248 43.3898 20.247 43.7257 19.3945 44.2828C18.5421 44.8398 17.8419 45.6006 17.3573 46.4962C16.8727 47.3919 16.6189 48.3941 16.6189 49.4125C16.6189 50.4308 16.8727 51.4331 17.3573 52.3287C17.8419 53.2244 18.5421 53.9851 19.3945 54.5422C20.247 55.0993 21.2248 55.4352 22.2396 55.5194C23.2545 55.6037 24.2743 55.4338 25.207 55.025V60H6.2C5.61808 60 5.05986 59.7694 4.64754 59.3588C4.23522 58.9482 4.00238 58.3909 4 57.809ZM48.4 57.809C48.3992 58.3895 48.1684 58.946 47.7581 59.3567C47.3478 59.7673 46.7915 59.9987 46.211 60H27.211V53.186C27.211 52.9916 27.1543 52.8015 27.048 52.6388C26.9417 52.4762 26.7902 52.348 26.6122 52.2701C26.4342 52.1921 26.2373 52.1677 26.0457 52.1998C25.854 52.2319 25.6759 52.3192 25.533 52.451C24.9425 52.9925 24.2071 53.3504 23.4166 53.4812C22.6261 53.6119 21.8147 53.5097 21.0812 53.1872C20.3478 52.8646 19.7241 52.3356 19.2862 51.6646C18.8483 50.9936 18.6151 50.2097 18.6151 49.4085C18.6151 48.6072 18.8483 47.8233 19.2862 47.1524C19.7241 46.4814 20.3478 45.9523 21.0812 45.6298C21.8147 45.3072 22.6261 45.2051 23.4166 45.3358C24.2071 45.4665 24.9425 45.8245 25.533 46.366C25.6759 46.4978 25.8542 46.5851 26.0459 46.6172C26.2377 46.6493 26.4346 46.6248 26.6127 46.5467C26.7907 46.4686 26.9422 46.3403 27.0484 46.1775C27.1547 46.0147 27.2112 45.8244 27.211 45.63V38.805H32.2C31.7912 39.7376 31.6212 40.7575 31.7055 41.7723C31.7898 42.7872 32.1257 43.765 32.6828 44.6175C33.2399 45.4699 34.0006 46.1701 34.8962 46.6547C35.7919 47.1393 36.7942 47.3931 37.8125 47.3931C38.8308 47.3931 39.8331 47.1393 40.7288 46.6547C41.6244 46.1701 42.3851 45.4699 42.9422 44.6175C43.4993 43.765 43.8352 42.7872 43.9195 41.7723C44.0038 40.7575 43.8338 39.7376 43.425 38.805H48.4V57.809Z" fill="#05977D"/>
</g>
</svg>
