<svg width="46" height="46" viewBox="0 0 46 46" fill="none" xmlns="http://www.w3.org/2000/svg">
<path d="M7.79339 0H0V7.79339H7.79339V0Z" fill="#BBE0D9"/>
<path d="M38.2066 0H30.6033V7.79339H38.2066V0Z" fill="#BBE0D9"/>
<path d="M7.79339 15.2065H0V22.9999H7.79339V15.2065Z" fill="#BBE0D9"/>
<path d="M22.8099 15.2065H15.2066V22.9999H22.8099V15.2065Z" fill="#BBE0D9"/>
<path d="M7.79339 30.4133H0V38.0166H7.79339V30.4133Z" fill="#BBE0D9"/>
<path d="M43.9091 32.8842C43.9091 31.1735 42.5785 29.6528 40.6777 29.6528H35.5454C33.8347 29.6528 32.314 30.9834 32.314 32.8842V34.7851H30.4132V45.6198H46V34.7851H43.9091V32.8842ZM35.3554 34.7851V32.8842C35.3554 32.6942 35.3554 32.6942 35.5454 32.6942H40.6777C40.8678 32.6942 40.8678 32.6942 40.8678 32.8842V34.7851H35.3554Z" fill="#BBE0D9"/>
<path d="M22.8099 0H15.2066V7.79339H22.8099V0Z" fill="#16A571"/>
<path d="M38.2066 15.2065H30.6033V22.9999H38.2066V15.2065Z" fill="#16A571"/>
<path d="M22.8099 30.4133H15.2066V38.0166H22.8099V30.4133Z" fill="#16A571"/>
</svg>
