<svg width="42" height="42" viewBox="0 0 42 42" fill="none" xmlns="http://www.w3.org/2000/svg">
<path d="M31.4999 12.53C31.3949 12.5125 31.2724 12.5125 31.1674 12.53C28.7524 12.4425 26.8274 10.465 26.8274 8.015C26.8274 5.5125 28.8399 3.5 31.3424 3.5C33.8449 3.5 35.8574 5.53 35.8574 8.015C35.8399 10.465 33.9149 12.4425 31.4999 12.53Z" stroke="#111111" stroke-width="2.5" stroke-linecap="round" stroke-linejoin="round"/>
<path d="M29.6973 25.27C32.0948 25.6725 34.7373 25.2525 36.5923 24.01C39.0598 22.365 39.0598 19.67 36.5923 18.025C34.7198 16.7825 32.0423 16.3625 29.6448 16.7825" stroke="#111111" stroke-width="2.5" stroke-linecap="round" stroke-linejoin="round"/>
<path d="M10.4476 12.53C10.5526 12.5125 10.6751 12.5125 10.7801 12.53C13.1951 12.4425 15.1201 10.465 15.1201 8.015C15.1201 5.5125 13.1076 3.5 10.6051 3.5C8.10259 3.5 6.09009 5.53 6.09009 8.015C6.10759 10.465 8.03259 12.4425 10.4476 12.53Z" stroke="#111111" stroke-width="2.5" stroke-linecap="round" stroke-linejoin="round"/>
<path d="M12.25 25.27C9.85252 25.6725 7.21002 25.2525 5.35502 24.01C2.88752 22.365 2.88752 19.67 5.35502 18.025C7.22752 16.7825 9.90501 16.3625 12.3025 16.7825" stroke="#111111" stroke-width="2.5" stroke-linecap="round" stroke-linejoin="round"/>
<path d="M20.9999 25.6025C20.8949 25.585 20.7724 25.585 20.6674 25.6025C18.2524 25.515 16.3274 23.5375 16.3274 21.0875C16.3274 18.585 18.3399 16.5725 20.8424 16.5725C23.3449 16.5725 25.3574 18.6025 25.3574 21.0875C25.3399 23.5375 23.4149 25.5325 20.9999 25.6025Z" stroke="#111111" stroke-width="2.5" stroke-linecap="round" stroke-linejoin="round"/>
<path d="M15.9075 31.115C13.44 32.76 13.44 35.455 15.9075 37.1C18.7075 38.9725 23.2925 38.9725 26.0925 37.1C28.56 35.455 28.56 32.76 26.0925 31.115C23.31 29.26 18.7075 29.26 15.9075 31.115Z" stroke="#111111" stroke-width="2.5" stroke-linecap="round" stroke-linejoin="round"/>
</svg>
