<svg width="81" height="81" viewBox="0 0 81 81" fill="none" xmlns="http://www.w3.org/2000/svg">
<path d="M40.1241 -0.000114441C17.9639 -0.000114441 0 17.9638 0 40.124C0 62.2841 17.9639 80.248 40.1241 80.248C62.2801 80.248 80.2482 62.2841 80.2482 40.1198C80.2482 17.9638 62.2801 -0.000114441 40.1241 -0.000114441V-0.000114441ZM40.1241 71.8847C22.5824 71.8847 8.35918 57.6658 8.35918 40.1198C8.35918 22.5738 22.5781 8.35907 40.1241 8.35907C57.6658 8.35907 71.8931 22.578 71.8931 40.124C71.8931 57.6699 57.6658 71.8847 40.1241 71.8847V71.8847ZM29.6793 39.0791C33.14 39.0791 35.9445 35.8064 35.9445 31.7648C35.9445 27.7232 33.1358 24.4505 29.6751 24.4505C26.2144 24.4505 23.4057 27.7232 23.4057 31.7648C23.4057 35.8064 26.2144 39.0791 29.6793 39.0791V39.0791ZM50.5731 39.0791C54.038 39.0791 56.8424 35.8064 56.8424 31.7648C56.8424 27.7232 54.0338 24.4505 50.5731 24.4505C47.1123 24.4505 44.3037 27.7273 44.3037 31.7648C44.3037 35.8023 47.1123 39.0791 50.5731 39.0791ZM58.2677 45.7079C56.7504 44.9305 54.8613 45.5281 54.0546 47.0454C53.9125 47.3212 50.4225 53.7035 40.1282 53.7035C29.8841 53.7035 26.3732 47.3797 26.1976 47.0496C25.4118 45.524 23.5562 44.9013 22.0013 45.6745C20.4549 46.4519 19.8279 48.3327 20.6011 49.8833C20.8101 50.2971 25.8173 59.9729 40.1282 59.9729C54.4433 59.9729 59.442 50.2929 59.6469 49.8792C60.4159 48.3453 59.7973 46.4937 58.2676 45.7079H58.2677Z" fill="#DFA245"/>
</svg>
