<svg xmlns="http://www.w3.org/2000/svg" xmlns:xlink="http://www.w3.org/1999/xlink" width="51px" height="35px" viewBox="0 0 51 35"><!-- Generator: Sketch 55.2 (78181) - https://sketchapp.com --><title>web design icon</title><desc>Created with Sketch.</desc><g id="Page-1" stroke="none" stroke-width="1" fill="none" fill-rule="evenodd"><g id="Services-" transform="translate(-710.000000, -696.000000)" fill="#FFFFFF" fill-rule="nonzero"><g id="Group-6" transform="translate(265.000000, 637.000000)"><g id="Group-5" transform="translate(445.000000, 59.000000)"><g id="web-design-icon"><path d="M9.35090979,23.7767438 L4.98242355,22.3899229 C8.65856378,10.8100811 15.5843708,4.75 25.5,4.75 C35.4156292,4.75 42.3414361,10.8100811 46.0175765,22.3899229 L41.6490901,23.7767438 C38.535107,13.9676966 33.2386918,9.33333333 25.5,9.33333333 C17.7613083,9.33333333 12.464893,13.9676966 9.35090979,23.7767438 Z M25.5,9.33333333 C26.7656524,9.33333333 27.7916667,8.30731922 27.7916667,7.04166667 C27.7916667,5.77601411 26.7656524,4.75 25.5,4.75 C24.2343476,4.75 23.2083333,5.77601411 23.2083333,7.04166667 C23.2083333,8.30731922 24.2343476,9.33333333 25.5,9.33333333 Z" id="Combined-Shape" opacity="0.300000012"></path><path d="M11.1368316,4.75 L19.0162006,4.75 C19.9599924,2.07976749 22.5065819,0.166666667 25.5,0.166666667 C28.4934181,0.166666667 31.0400077,2.07976749 31.9837994,4.75 L39.8631684,4.75 C40.6556483,3.38003853 42.1368528,2.45833333 43.8333333,2.45833333 C46.3646384,2.45833333 48.4166667,4.51036156 48.4166667,7.04166667 C48.4166667,9.57297177 46.3646384,11.625 43.8333333,11.625 C42.1368528,11.625 40.6556483,10.7032948 39.8631684,9.33333333 L31.9837994,9.33333333 C31.0400077,12.0035658 28.4934181,13.9166667 25.5,13.9166667 C22.5065819,13.9166667 19.9599924,12.0035658 19.0162006,9.33333333 L11.1368316,9.33333333 C10.3443517,10.7032948 8.86314708,11.625 7.16666667,11.625 C4.63536156,11.625 2.58333333,9.57297177 2.58333333,7.04166667 C2.58333333,4.51036156 4.63536156,2.45833333 7.16666667,2.45833333 C8.86314708,2.45833333 10.3443517,3.38003853 11.1368316,4.75 Z M25.5,9.33333333 C26.7656524,9.33333333 27.7916667,8.30731922 27.7916667,7.04166667 C27.7916667,5.77601411 26.7656524,4.75 25.5,4.75 C24.2343476,4.75 23.2083333,5.77601411 23.2083333,7.04166667 C23.2083333,8.30731922 24.2343476,9.33333333 25.5,9.33333333 Z" id="Combined-Shape"></path><path d="M7.16666667,34.5416667 C3.36970901,34.5416667 0.291666667,31.4636242 0.291666667,27.6666667 C0.291666667,23.8697091 3.36970901,20.7916667 7.16666667,20.7916667 C10.9636243,20.7916667 14.0416667,23.8697091 14.0416667,27.6666667 C14.0416667,31.4636242 10.9636243,34.5416667 7.16666667,34.5416667 Z M7.16666667,29.9583333 C8.43231922,29.9583333 9.45833333,28.9323191 9.45833333,27.6666667 C9.45833333,26.4010142 8.43231922,25.375 7.16666667,25.375 C5.90101411,25.375 4.875,26.4010142 4.875,27.6666667 C4.875,28.9323191 5.90101411,29.9583333 7.16666667,29.9583333 Z" id="Combined-Shape"></path><path d="M43.8333333,34.5416667 C40.0363758,34.5416667 36.9583333,31.4636242 36.9583333,27.6666667 C36.9583333,23.8697091 40.0363758,20.7916667 43.8333333,20.7916667 C47.6302909,20.7916667 50.7083333,23.8697091 50.7083333,27.6666667 C50.7083333,31.4636242 47.6302909,34.5416667 43.8333333,34.5416667 Z M43.8333333,29.9583333 C45.0989858,29.9583333 46.125,28.9323191 46.125,27.6666667 C46.125,26.4010142 45.0989858,25.375 43.8333333,25.375 C42.5676809,25.375 41.5416667,26.4010142 41.5416667,27.6666667 C41.5416667,28.9323191 42.5676809,29.9583333 43.8333333,29.9583333 Z" id="Combined-Shape"></path></g></g></g></g></g></svg>