<svg width="27" height="22" viewBox="0 0 27 22" fill="none" xmlns="http://www.w3.org/2000/svg">
<path d="M10.5139 1.82027C9.45894 2.44393 7.14234 3.95719 6.97988 5.31126C6.22774 11.3474 16.6775 21.105 23.1399 20.4027C24.6021 20.251 26.2167 18.0897 26.8806 17.1027C26.973 16.966 27.0129 16.804 26.9936 16.6433C26.9742 16.4826 26.8969 16.3329 26.7743 16.2187L23.876 13.5087C23.805 13.4418 23.7205 13.3888 23.6273 13.3525C23.5342 13.3163 23.4343 13.2977 23.3335 13.2977C23.2326 13.2977 23.1327 13.3163 23.0396 13.3525C22.9465 13.3888 22.862 13.4418 22.7909 13.5087L21.1603 15.0501C20.9778 15.2205 20.8354 15.3478 20.727 15.4246C19.3672 15.5595 16.8279 14.8028 14.8904 12.9899C12.9529 11.177 12.1446 8.80974 12.283 7.53807C12.3793 7.43694 12.5116 7.30584 12.6942 7.13541L14.3509 5.64275C14.4223 5.57629 14.4789 5.49733 14.5175 5.4104C14.5562 5.32347 14.5761 5.23027 14.5761 5.13615C14.5761 5.04202 14.5562 4.94883 14.5175 4.86189C14.4789 4.77496 14.4223 4.696 14.3509 4.62954L11.4626 1.92141C11.3405 1.80616 11.1799 1.73331 11.0074 1.71492C10.8348 1.69653 10.6608 1.7337 10.5139 1.82027Z" fill="#222424"/>
<g clip-path="url(#clip0_138_1315)">
<path d="M9.74441 1.82052C8.68941 2.44417 6.37281 3.95743 6.21035 5.3115C5.4582 11.3477 15.908 21.1052 22.3704 20.4029C23.8326 20.2512 25.4472 18.0899 26.111 17.1029C26.2035 16.9662 26.2433 16.8042 26.224 16.6435C26.2047 16.4829 26.1274 16.3331 26.0047 16.219L23.1065 13.509C23.0354 13.4421 22.9509 13.389 22.8578 13.3528C22.7647 13.3166 22.6648 13.2979 22.5639 13.2979C22.4631 13.2979 22.3632 13.3166 22.2701 13.3528C22.1769 13.389 22.0924 13.4421 22.0214 13.509L20.3907 15.0503C20.2082 15.2207 20.0658 15.3481 19.9575 15.4249C18.5976 15.5597 16.0584 14.8031 14.1209 12.9902C12.1834 11.1773 11.3751 8.80998 11.5135 7.53832C11.6097 7.43718 11.7421 7.30609 11.9246 7.13566L13.5813 5.643C13.6527 5.57654 13.7094 5.49758 13.748 5.41065C13.7866 5.32371 13.8065 5.23052 13.8065 5.13639C13.8065 5.04227 13.7866 4.94907 13.748 4.86214C13.7094 4.77521 13.6527 4.69625 13.5813 4.62979L10.6931 1.92165C10.571 1.8064 10.4104 1.73356 10.2378 1.71517C10.0653 1.69677 9.89123 1.73394 9.74441 1.82052Z" fill="#222424"/>
</g>
<defs>
<clipPath id="clip0_138_1315">
<rect width="20.0571" height="19.2903" fill="white" transform="translate(6.17188 1.70972)"/>
</clipPath>
</defs>
</svg>
