<?xml version="1.0" encoding="UTF-8"?> <svg xmlns="http://www.w3.org/2000/svg" width="50" height="50" viewBox="0 0 50 50" fill="none"><path d="M26.452 42.2108L27.1877 42.8881L26.452 42.2108ZM23.549 42.2108L22.8134 42.8881L23.549 42.2108ZM38.5838 20.8333C38.5838 22.2365 38.0649 23.9742 37.1466 25.9171C36.2363 27.8429 34.9745 29.8862 33.5817 31.8768C30.7969 35.8573 27.548 39.5439 25.7163 41.5334L27.1877 42.8881C29.0445 40.8712 32.3616 37.1097 35.2205 33.0233C36.6497 30.9806 37.9792 28.8358 38.9548 26.7717C39.9224 24.7247 40.5838 22.6708 40.5838 20.8333H38.5838ZM24.2847 41.5334C22.453 39.5439 19.2041 35.8573 16.4193 31.8768C15.0266 29.8862 13.7647 27.8429 12.8544 25.9171C11.9361 23.9742 11.4172 22.2365 11.4172 20.8333H9.41718C9.41718 22.6708 10.0787 24.7247 11.0462 26.7717C12.0219 28.8358 13.3513 30.9806 14.7805 33.0233C17.6395 37.1097 20.9565 40.8712 22.8134 42.8881L24.2847 41.5334ZM11.4172 20.8333C11.4172 13.3315 17.4986 7.25 25.0005 7.25V5.25C16.3941 5.25 9.41718 12.2269 9.41718 20.8333H11.4172ZM25.0005 7.25C32.5024 7.25 38.5838 13.3315 38.5838 20.8333H40.5838C40.5838 12.2269 33.6069 5.25 25.0005 5.25V7.25ZM25.7163 41.5334C25.3226 41.961 24.6784 41.961 24.2847 41.5334L22.8134 42.8881C23.9993 44.1762 26.0018 44.1762 27.1877 42.8881L25.7163 41.5334Z" fill="#ED6436"></path><path d="M31.2505 20.8333C31.2505 24.285 28.4523 27.0833 25.0005 27.0833C21.5487 27.0833 18.7505 24.285 18.7505 20.8333C18.7505 17.3815 21.5487 14.5833 25.0005 14.5833C28.4523 14.5833 31.2505 17.3815 31.2505 20.8333Z" stroke="#ED6436" stroke-width="2"></path></svg> 