<svg width="16" height="22" viewBox="0 0 16 22" fill="none" xmlns="http://www.w3.org/2000/svg">
<path d="M7.03395 0.387796C5.25422 0.617035 3.61621 1.41728 2.34915 2.68018C1.26131 3.76802 0.531918 5.10176 0.190145 6.62724C-0.20998 8.4278 0.019258 10.12 0.961218 12.304C2.07407 14.8923 4.42897 18.1725 7.22567 21.0317C7.9634 21.782 7.99258 21.7945 8.32185 21.4902C8.65112 21.1901 9.85983 19.8897 10.4809 19.1687C13.7235 15.4008 15.5783 12.0206 15.9409 9.23639C16.2702 6.68143 15.199 3.94724 13.2025 2.25921C12.2689 1.4673 11.1352 0.879616 9.9807 0.583691C9.09292 0.354452 7.90505 0.279428 7.03395 0.387796ZM8.77199 1.038C10.9643 1.28391 12.8941 2.45511 14.1195 4.29318C15.1198 5.78948 15.5366 7.74842 15.2282 9.49897C14.7363 12.3165 12.5523 15.9343 9.0179 19.7938C8.6928 20.1481 8.33018 20.5316 8.21348 20.6483L8.00091 20.8525L7.78835 20.6483C7.67164 20.5316 7.30903 20.1481 6.98393 19.7938C3.43699 15.9176 1.29466 12.3665 0.765324 9.47813C0.652789 8.8571 0.661125 7.6859 0.781996 7.03153C1.21546 4.71831 2.65758 2.81355 4.77074 1.75489C5.97528 1.15053 7.43824 0.89212 8.77199 1.038Z" fill="#7230FF"/>
<path d="M7.5198 4.69317C7.26972 4.72651 6.76539 4.86822 6.52365 4.97659C4.51469 5.86437 3.73111 8.32763 4.85646 10.2157C5.12738 10.6659 5.66505 11.2035 6.11519 11.4744C7.55731 12.333 9.40372 12.1038 10.5874 10.9201C11.0542 10.4533 11.3835 9.86561 11.5669 9.18207C11.6794 8.75277 11.6753 7.88166 11.5544 7.43569C11.1709 6.01858 10.0456 4.97242 8.64515 4.72651C8.30754 4.66816 7.81989 4.65566 7.5198 4.69317ZM8.54928 5.38922C8.97442 5.47258 9.27868 5.59345 9.63295 5.82685C10.0539 6.10194 10.4499 6.54375 10.6624 6.96888C10.9167 7.48571 10.9792 7.76079 10.975 8.37348C10.9709 8.81945 10.9542 8.94449 10.8625 9.22792C10.7041 9.70723 10.4874 10.0532 10.1039 10.4366C9.72048 10.8201 9.37454 11.0368 8.89522 11.1952C8.6118 11.2869 8.48676 11.3036 8.04079 11.3077C7.4281 11.3119 7.15301 11.2494 6.63619 10.9951C6.03183 10.695 5.43998 10.0448 5.20657 9.42381C4.88564 8.57354 4.96066 7.59407 5.40247 6.83133C5.59836 6.4979 6.14437 5.94356 6.46947 5.75183C7.103 5.38088 7.83656 5.25168 8.54928 5.38922Z" fill="#7230FF"/>
</svg>
