<svg width="53" height="53" viewBox="0 0 53 53" fill="none" xmlns="http://www.w3.org/2000/svg">
<path d="M32.2108 36.8535C32.2108 36.8535 36.4493 34.4274 37.5582 33.8436C38.6648 33.2586 39.8109 33.1103 40.5071 33.5361C41.561 34.1809 50.4124 40.0691 51.1577 40.5907C51.903 41.1135 52.2619 42.6053 51.2367 44.0659C50.2163 45.5278 45.5076 51.3059 43.5122 51.2437C41.5144 51.1791 33.2061 50.9961 17.5394 35.3258C1.8775 19.6591 1.69207 11.3484 1.62747 9.35061C1.56407 7.3528 7.34218 2.64417 8.80286 1.62254C10.2659 0.602094 11.7601 0.986106 12.2793 1.70388C12.8691 2.52095 18.6891 11.3448 19.3303 12.3557C19.7693 13.0472 19.6078 14.1992 19.0228 15.307C18.4414 16.4171 16.0141 20.6544 16.0141 20.6544C16.0141 20.6544 17.7248 23.5722 23.5089 29.3551C29.2942 35.1392 32.2108 36.8535 32.2108 36.8535Z" stroke="#00183A" stroke-width="2"/>
<path d="M35.1231 26.1215H37.5157C37.5157 20.1842 32.685 15.3548 26.749 15.3548V17.7474C31.3667 17.7474 35.1231 21.5049 35.1231 26.1215Z" fill="#DEB25E"/>
<path d="M41.6525 26.1215H44.0451C44.0451 16.5834 36.2859 8.82539 26.749 8.82539V11.218C34.9676 11.218 41.6525 17.9041 41.6525 26.1215Z" fill="#DEB25E"/>
<path d="M48.2824 26.1215H50.675C50.675 12.9287 39.9418 2.19552 26.749 2.19552V4.58811C38.6223 4.58811 48.2824 14.2482 48.2824 26.1215Z" fill="#DEB25E"/>
</svg>
