<svg width="80" height="85" viewBox="0 0 80 85" fill="none" xmlns="http://www.w3.org/2000/svg">
<path d="M78.946 76.5026L73.2326 59.358H66.9632L70.4448 76.0764H9.14694L12.6286 59.358H6.35918L0.64147 76.5026C-0.808815 80.8662 1.76163 84.4355 6.35918 84.4355H73.2327C77.8302 84.4355 80.4007 80.8662 78.9461 76.5026H78.946ZM60.6938 21.7417C60.6938 10.2018 51.3398 0.843712 39.7958 0.843712C28.2518 0.843712 18.8979 10.2018 18.8979 21.7417C18.8979 41.6992 39.7958 63.5376 39.7958 63.5376C39.7958 63.5376 60.6938 41.6992 60.6938 21.7417ZM28.5109 21.9924C28.5109 15.7607 33.5599 10.7117 39.7958 10.7117C46.0318 10.7117 51.0807 15.7607 51.0807 21.9924C51.0807 28.2284 46.0276 33.2773 39.7958 33.2773C33.5641 33.2773 28.5109 28.2242 28.5109 21.9924Z" fill="white"/>
</svg>
