<svg width="42" height="42" viewBox="0 0 42 42" fill="none" xmlns="http://www.w3.org/2000/svg">
<path d="M21 11.27V17.0975" stroke="#111111" stroke-width="2.5" stroke-miterlimit="10" stroke-linecap="round"/>
<path d="M21.0351 3.5C14.5951 3.5 9.38007 8.715 9.38007 15.155V18.83C9.38007 20.02 8.89007 21.805 8.27757 22.82L6.05507 26.53C4.69007 28.8225 5.63506 31.3775 8.15506 32.2175C16.5201 35 25.5676 35 33.9326 32.2175C36.2951 31.43 37.3101 28.665 36.0326 26.53L33.8101 22.82C33.1976 21.805 32.7076 20.0025 32.7076 18.83V15.155C32.6901 8.75 27.4401 3.5 21.0351 3.5Z" stroke="#111111" stroke-width="2.5" stroke-miterlimit="10" stroke-linecap="round"/>
<path d="M26.8276 32.935C26.8276 36.1375 24.2026 38.7625 21.0001 38.7625C19.4076 38.7625 17.9376 38.0975 16.8876 37.0475C15.8376 35.9975 15.1726 34.5275 15.1726 32.935" stroke="#111111" stroke-width="2.5" stroke-miterlimit="10"/>
</svg>
