<svg width="60" height="60" viewBox="0 0 60 60" fill="none" xmlns="http://www.w3.org/2000/svg">
<g id="quality">
<path id="Vector" d="M10.8984 12.7149L12.6445 16.3242L16.6054 16.8633C17.3906 16.9688 17.6718 17.9414 17.1327 18.457L14.2382 21.2344L14.9531 25.1719C15.0937 25.9453 14.2734 26.5313 13.5937 26.1563L10.0663 24.2578L6.53899 26.1563C5.8593 26.5195 5.00383 25.957 5.19133 25.1133L5.89446 21.2227L2.99993 18.4453C2.43743 17.9063 2.74212 16.9453 3.53899 16.8399L7.48821 16.3008L9.2343 12.6914C9.56243 12 10.5702 12.0117 10.8984 12.7149ZM11.1796 17.5899L10.0663 15.2695L8.94133 17.5899C8.81243 17.8594 8.5429 18.0703 8.22649 18.1172L5.68352 18.457L7.5468 20.2383C7.75774 20.4492 7.87493 20.7539 7.81633 21.0703L7.3593 23.6016L9.6093 22.3945C9.87883 22.2539 10.2187 22.2305 10.4999 22.3945L12.7616 23.6133L12.3163 21.1289C12.246 20.8242 12.3281 20.4844 12.5741 20.2383L14.4374 18.457L11.9179 18.1172C11.6132 18.082 11.3202 17.8828 11.1796 17.5899ZM30.8437 4.21876L32.5898 7.82813L36.5624 8.3672C37.3476 8.47267 37.6288 9.44532 37.0898 9.97267L34.1952 12.75L34.9101 16.6875C35.0507 17.4609 34.2304 18.0469 33.5507 17.6719L29.9999 15.7734L26.4726 17.6719C25.7929 18.0352 24.9374 17.4727 25.1249 16.6289L25.8281 12.7383L22.9218 9.96095C22.3593 9.42188 22.664 8.46095 23.4609 8.35548L27.4101 7.81642L29.1562 4.21876C29.5077 3.50392 30.5038 3.51563 30.8437 4.21876ZM31.1249 9.09376L29.9999 6.77345L28.8866 9.09376C28.7577 9.36329 28.4882 9.57423 28.1718 9.6211L25.6171 9.96095L27.4804 11.7422C27.7031 11.9531 27.8085 12.2578 27.7499 12.5742L27.2929 15.1055L29.5546 13.8984C29.8241 13.7578 30.1523 13.7344 30.4452 13.8984L32.707 15.1172L32.2616 12.6328C32.1913 12.3281 32.2734 11.9883 32.5195 11.7422L34.3827 9.96095L31.8632 9.60938C31.5468 9.58595 31.2656 9.38673 31.1249 9.09376ZM50.7773 12.7149L52.5234 16.3242L56.4843 16.8633C57.2695 16.9688 57.5624 17.9414 57.0116 18.457L54.1171 21.2344L54.832 25.1719C54.9726 25.9453 54.1523 26.5313 53.4726 26.1563L49.9452 24.2578L46.4179 26.1563C45.7382 26.5195 44.8827 25.957 45.0585 25.1133L45.7616 21.2227L42.8671 18.4453C42.3046 17.9063 42.6093 16.9453 43.4062 16.8399L47.3554 16.3008L49.1015 12.6914C49.4413 12 50.4491 12.0117 50.7773 12.7149ZM51.0585 17.5899L49.9452 15.2695L48.8202 17.5899C48.6913 17.8594 48.4335 18.0703 48.1054 18.1172L45.5624 18.457L47.414 20.2383C47.6249 20.4492 47.7421 20.7539 47.6835 21.0703L47.2265 23.6016L49.4882 22.3945C49.7577 22.2539 50.0976 22.2305 50.3788 22.3945L52.6523 23.6133L52.207 21.1289C52.1366 20.8242 52.2187 20.4844 52.4648 20.2383L54.3163 18.457L51.7968 18.1172C51.4921 18.082 51.1992 17.8828 51.0585 17.5899ZM25.6523 36.6445C25.3945 36.1992 25.5468 35.625 25.9921 35.3672C26.4374 35.1094 27.0116 35.2617 27.2695 35.707L28.4999 37.8399L32.871 33.4688C33.2343 33.1055 33.832 33.1055 34.1952 33.4688C34.5585 33.832 34.5585 34.4297 34.1952 34.793L28.957 40.0313C28.5234 40.4649 27.7968 40.3711 27.4921 39.8438L25.6523 36.6445ZM29.9999 26.7422C35.0976 26.7422 39.2343 30.8789 39.2343 35.9766C39.2343 41.0742 35.0976 45.2109 29.9999 45.2109C24.9023 45.2109 20.7656 41.0742 20.7656 35.9766C20.7656 30.8789 24.9023 26.7422 29.9999 26.7422ZM35.2031 30.7734C32.332 27.9024 27.6679 27.9024 24.7968 30.7734C21.9257 33.6445 21.9257 38.3086 24.7968 41.1797C27.6679 44.0508 32.332 44.0508 35.2031 41.1797C38.0741 38.2969 38.0741 33.6445 35.2031 30.7734ZM29.9999 20.9414C38.2968 20.9414 45.0234 27.668 45.0234 35.9649C45.0234 39.1055 44.0624 42.0234 42.4101 44.4375L46.8984 52.207C47.332 52.9336 46.7343 53.7539 45.9609 53.6367L41.3671 52.9102L38.9062 55.9336C38.4726 56.4961 37.664 56.4024 37.3476 55.8399L34.207 50.4024C31.4648 51.1992 28.5234 51.1992 25.7929 50.4024L22.6523 55.8399C22.3359 56.4024 21.5273 56.4961 21.0937 55.9336L18.6327 52.9102L14.039 53.6367C13.2538 53.7656 12.7031 52.9102 13.0781 52.2422L17.5898 44.4375C13.5116 38.4727 14.2734 30.4453 19.3827 25.3359C22.0898 22.6289 25.8515 20.9414 29.9999 20.9414ZM41.1679 46.0195C39.7382 47.6133 37.9804 48.8906 35.9882 49.7578L38.2851 53.7305L40.2538 51.3164C40.4765 51.0352 40.8163 50.9297 41.1445 50.9883L44.3085 51.4922L41.1679 46.0195ZM23.9999 49.7578C22.0195 48.8906 20.2616 47.6133 18.832 46.0313L15.6796 51.4922L18.8437 50.9883C19.1601 50.9297 19.5116 51.0469 19.7343 51.3164L21.7031 53.7305L23.9999 49.7578ZM39.3046 26.6719C34.1718 21.5391 25.8398 21.5391 20.707 26.6719C15.5741 31.8047 15.5741 40.1367 20.707 45.2695C25.8515 50.4024 34.1718 50.4024 39.3046 45.2695C44.4374 40.1367 44.4374 31.8047 39.3046 26.6719Z" fill="#F94144"/>
</g>
</svg>
