<svg width="51" height="51" viewBox="0 0 51 51" fill="none" xmlns="http://www.w3.org/2000/svg">
<path d="M16.2862 0.318684C15.838 0.478059 15.2503 0.946223 14.9913 1.31478C14.6526 1.82279 14.5431 2.25111 14.5431 3.09779V3.8847H13.4673C12.1325 3.8847 11.6743 4.07396 11.2062 4.83099C10.9173 5.29915 10.9073 5.35892 10.8775 6.67376C10.8376 8.23763 10.9372 8.63607 11.4751 8.96478C11.7939 9.15403 11.9632 9.164 17.362 9.164C23.498 9.164 23.3286 9.18392 23.6773 8.53646C23.8267 8.27747 23.8565 7.96868 23.8565 6.77337C23.8565 5.19954 23.8067 5.01029 23.239 4.44251C22.7808 3.97435 22.4321 3.8847 21.1372 3.8847H19.9519L19.9021 3.00814C19.8722 2.53001 19.7825 1.98216 19.7028 1.78294C19.4837 1.28489 18.9657 0.727083 18.4876 0.478059C18.0095 0.229036 16.7544 0.139387 16.2862 0.318684ZM17.9995 1.59368C18.5274 1.91243 18.6669 2.22122 18.6769 3.07786V3.83489L17.2126 3.86478L15.7384 3.89466V3.16751C15.7384 2.30091 15.9376 1.84271 16.4456 1.57376C16.8939 1.3347 17.5911 1.34466 17.9995 1.59368ZM22.3226 5.2095C22.6413 5.44857 22.711 5.76732 22.711 6.86302V7.96868H17.372H12.0329L12.0728 6.71361C12.1026 5.53821 12.1126 5.44857 12.3417 5.26927C12.5608 5.08997 12.79 5.08001 17.372 5.08001C20.9778 5.08997 22.203 5.11986 22.3226 5.2095Z" fill="#7836F8"/>
<path d="M3.43652 6.41488C2.33086 6.76352 1.54395 7.45082 1.05586 8.46684L0.74707 9.1143V28.5381V47.962L1.01602 48.5297C1.38457 49.3266 2.08184 50.0438 2.87871 50.4323L3.53613 50.751L17.0332 50.7809C27.0141 50.8008 30.6697 50.7809 31.0781 50.7012C32.2535 50.4522 33.3393 49.5358 33.7875 48.4301L34.0166 47.8623L34.0465 41.7961C34.0664 36.228 34.0564 35.72 33.907 35.5506C33.6879 35.3116 33.2496 35.3116 33.0404 35.5407C32.891 35.7 32.8711 36.3475 32.8512 41.7364C32.8213 47.693 32.8213 47.7627 32.6021 48.1612C32.3531 48.6293 31.865 49.1075 31.377 49.3664C31.0383 49.5457 30.5004 49.5557 17.3818 49.5557H3.73535L3.32695 49.3366C2.79902 49.0577 2.26113 48.45 2.05195 47.9022C1.90254 47.4938 1.89258 45.9797 1.9125 28.3887C1.94238 9.81156 1.95234 9.30356 2.13164 8.92504C2.3707 8.45688 2.87871 7.94887 3.3668 7.69984C3.68555 7.55043 4.07402 7.51059 6.08613 7.47074C8.63613 7.42094 8.76562 7.39106 8.76562 6.86313C8.76562 6.29535 8.67598 6.27543 6.1459 6.28539C4.57207 6.28539 3.70547 6.32523 3.43652 6.41488Z" fill="#7836F8"/>
<path d="M26.1872 6.39494C25.8784 6.634 25.8585 6.94279 26.1374 7.2217L26.3864 7.47072H28.6077C30.6298 7.47072 30.8689 7.49064 31.2773 7.6799C31.8251 7.92893 32.3232 8.38713 32.6021 8.91506C32.8112 9.29357 32.8212 9.45295 32.8511 12.501C32.881 15.2502 32.9009 15.7084 33.0404 15.8578C33.2495 16.0969 33.6878 16.0869 33.907 15.8479C34.0663 15.6785 34.0763 15.3697 34.0464 12.3815L34.0165 9.11428L33.6978 8.45686C33.3093 7.65998 32.5921 6.96272 31.7952 6.59416C31.2374 6.32522 31.1976 6.32522 28.787 6.29533C26.8945 6.27541 26.3068 6.29533 26.1872 6.39494Z" fill="#7836F8"/>
<path d="M13.6067 12.9891C12.3715 13.4473 11.734 14.7721 12.1424 16.0172L12.2918 16.4455L10.6582 18.0791L9.03461 19.7027L8.7059 19.5633C7.66996 19.135 6.29536 19.6928 5.78735 20.7486C5.53832 21.2566 5.50844 22.1531 5.70766 22.6412C6.04633 23.448 7.00258 24.1055 7.82934 24.1055C8.71586 24.1055 9.55258 23.5875 9.97094 22.7906C10.2598 22.2229 10.2997 21.7148 10.1104 21.0674L9.94106 20.4896L11.5647 18.866L13.1784 17.2523L13.537 17.4018C13.7959 17.5113 14.0948 17.5412 14.6028 17.5014L15.31 17.4516L16.8639 19.0055L18.4278 20.5693L18.2684 21.0176C17.9795 21.8443 18.1987 22.7607 18.8362 23.3982C19.3442 23.9062 19.6928 24.0457 20.4797 24.0557C21.0873 24.0557 21.2467 24.0158 21.675 23.7568C22.6313 23.1592 23.0497 21.9738 22.6612 20.9578L22.4819 20.4996L24.1055 18.876L25.7291 17.2523L26.0579 17.3918C26.4762 17.5711 27.4026 17.5711 27.8209 17.4018C28.3389 17.1826 28.7971 16.7244 29.0461 16.1865C29.4446 15.3398 29.325 14.4533 28.7075 13.7461C28.07 12.9891 27.1934 12.7201 26.277 12.9891C25.002 13.3576 24.2948 14.7422 24.743 16.0072L24.8825 16.4057L23.2289 18.0492L21.5655 19.7027L21.2666 19.5633C20.8582 19.384 20.0913 19.3939 19.653 19.5732L19.2844 19.7326L17.7504 18.1986L16.2164 16.6646L16.4157 16.2762C16.6846 15.7283 16.7444 15.31 16.6248 14.7422C16.336 13.4074 14.8319 12.5309 13.6067 12.9891ZM14.9215 14.2441C15.4694 14.5828 15.6586 15.3697 15.31 15.8379C14.4832 16.9236 12.77 16.0371 13.2879 14.802C13.4473 14.4135 13.9553 14.0449 14.3438 14.0449C14.4832 14.0449 14.7422 14.1346 14.9215 14.2441ZM27.7014 14.4035C28.4584 15.1307 27.9704 16.3359 26.9245 16.3359C26.5459 16.3359 26.4264 16.2861 26.1375 15.9973C25.0916 14.9514 26.6356 13.3875 27.7014 14.4035ZM8.64614 20.9578C8.96489 21.2566 9.01469 21.3562 9.01469 21.7547C9.01469 22.1133 8.95493 22.2627 8.72582 22.5018C7.97875 23.2787 6.77348 22.8105 6.77348 21.7447C6.77348 21.3662 6.82329 21.2467 7.11215 20.9578C7.59028 20.4797 8.11821 20.4797 8.64614 20.9578ZM21.2866 20.9379C21.426 21.0873 21.5555 21.3463 21.5854 21.5854C21.7547 22.8504 20.1411 23.4082 19.4836 22.3125C19.1748 21.7846 19.3741 21.0674 19.902 20.7686C20.2905 20.5494 20.9778 20.6291 21.2866 20.9379Z" fill="#7836F8"/>
<path d="M38.519 16.0969C36.5268 16.5352 35.0028 17.3719 33.5585 18.8162C32.0743 20.3103 31.2376 21.8543 30.8192 23.9162C30.5702 25.1414 30.6599 27.2432 31.0184 28.4186C32.164 32.2635 35.3714 35.0027 39.3259 35.5107L39.8438 35.5805V36.7658V37.9512H39.0071C38.3597 37.9512 38.1206 37.991 37.9612 38.1205L37.7421 38.2998L37.772 43.6289C37.8018 49.5357 37.7819 49.2867 38.4692 49.9939C39.047 50.5816 39.4852 50.751 40.4913 50.751C41.1786 50.751 41.4675 50.7012 41.7364 50.5617C42.2245 50.3027 42.7126 49.8246 42.9616 49.3564C43.1808 48.968 43.1808 48.8783 43.2106 43.6588C43.2405 37.3734 43.37 37.9512 41.9356 37.9512H41.0392V36.7658V35.5805L41.6667 35.5107C42.5134 35.4111 43.8282 35.0227 44.6948 34.6143C45.7308 34.1262 46.5575 33.5385 47.4241 32.6818C48.6593 31.4367 49.4263 30.1418 49.9642 28.3389C50.2132 27.5221 50.2431 27.293 50.2431 25.7988C50.2431 24.3844 50.2132 24.0357 50.014 23.3086C49.0976 19.892 46.5675 17.2922 43.1708 16.2762C42.4138 16.0471 42.0651 16.0072 40.7403 15.9773C39.6147 15.9475 39.0171 15.9873 38.519 16.0969ZM42.2145 17.2822C44.2964 17.7205 46.2686 18.9955 47.4739 20.6789C48.0018 21.416 48.6294 22.7309 48.8485 23.5576C49.0876 24.4143 49.1573 26.1275 49.0179 27.0439C48.5597 29.8928 46.8265 32.2336 44.2765 33.4687C42.8321 34.166 42.1747 34.3055 40.4415 34.3055C39.2561 34.3055 38.8577 34.2656 38.2202 34.0863C35.0028 33.1699 32.5425 30.4705 31.9747 27.2332C31.895 26.785 31.8651 26.0678 31.895 25.2908C31.9946 23.0396 32.7616 21.3064 34.4052 19.6629C35.6901 18.3779 37.1643 17.5711 38.8577 17.2424C39.5749 17.1029 41.4675 17.1228 42.2145 17.2822ZM42.0352 43.848C42.0352 48.3703 42.0253 48.5695 41.836 48.8883C41.2483 49.8445 39.6446 49.8545 39.1267 48.8982C38.9573 48.5895 38.9474 48.2209 38.9474 43.858V39.1465H40.4913H42.0352V43.848Z" fill="#7836F8"/>
<path d="M38.7978 19.2246C37.8515 19.4736 37.4232 19.6629 36.6363 20.1908C35.2716 21.0873 34.156 22.7607 33.8073 24.4043C33.5882 25.4203 33.6679 26.6854 34.0165 27.7611C34.8532 30.4207 37.6323 32.4627 40.4114 32.4727C42.4734 32.4727 44.6249 31.4268 45.7804 29.8529C46.7068 28.5979 47.0952 27.5719 47.1749 26.0977C47.3443 23.3883 45.7904 20.8283 43.2802 19.6729C41.8857 19.0254 40.1823 18.8561 38.7978 19.2246ZM41.557 20.3303C43.5989 20.7486 45.3919 22.4918 45.87 24.5139C46.7864 28.4086 43.1607 32.0443 39.2659 31.1279C36.7757 30.5402 34.8632 28.2094 34.8632 25.7391C34.8632 22.7607 37.3435 20.2506 40.3118 20.2307C40.7103 20.2207 41.2681 20.2705 41.557 20.3303Z" fill="#7836F8"/>
<path d="M5.81728 29.823C5.63798 29.9625 5.62802 30.1717 5.59814 36.8654C5.57821 42.9416 5.58817 43.7883 5.72763 43.9875C5.87704 44.2266 5.89696 44.2266 7.69989 44.2266C9.11435 44.2266 9.57255 44.1967 9.72196 44.0871C9.90126 43.9477 9.91122 43.7385 9.9411 37.1842C9.95106 33.4688 9.9411 30.3311 9.91122 30.2115C9.79169 29.7135 9.67216 29.6836 7.77958 29.6836C6.41493 29.6836 5.96669 29.7135 5.81728 29.823ZM8.76571 36.9551V43.0313H7.76962H6.77353V36.9551V30.8789H7.76962H8.76571V36.9551Z" fill="#7836F8"/>
<path d="M18.6369 33.927C18.4277 34.186 18.4277 34.2856 18.4277 39.017V43.8381L18.6768 44.0872L18.9258 44.3362L20.659 44.3063C21.934 44.2864 22.4221 44.2366 22.5416 44.137C22.691 44.0174 22.7109 43.5293 22.7109 38.9872V33.9768L22.4918 33.8274C22.3125 33.6979 21.9439 33.668 20.5594 33.668H18.8361L18.6369 33.927ZM21.5156 38.9971V43.1409L20.5992 43.111L19.6729 43.0811L19.643 38.9672L19.623 34.8633H20.5693H21.5156V38.9971Z" fill="#7836F8"/>
<path d="M12.3018 36.0984L12.0527 36.3475V40.0629C12.0527 43.2703 12.0727 43.8182 12.2121 44.0074C12.3615 44.2166 12.4113 44.2266 14.2342 44.2266C15.549 44.2266 16.1367 44.1867 16.2164 44.107C16.3061 44.0174 16.3359 42.9914 16.3359 40.0828C16.3359 36.5766 16.316 36.1682 16.1666 36.0486C16.0471 35.949 15.559 35.8992 14.284 35.8793L12.5508 35.8494L12.3018 36.0984ZM15.1406 40.043V43.0313H14.1943H13.248V40.1127C13.248 38.499 13.2779 37.1543 13.3178 37.1244C13.3477 37.0846 13.776 37.0547 14.2641 37.0547H15.1406V40.043Z" fill="#7836F8"/>
<path d="M25.1215 39.4453C24.9123 39.6445 24.9023 39.7242 24.9023 41.7861V43.9178L25.1613 44.117C25.4104 44.3063 25.5598 44.3262 27.0838 44.3262C28.4285 44.3262 28.7871 44.2963 28.9664 44.1668C29.1855 44.0174 29.1855 43.9775 29.1855 41.7861C29.1855 39.5947 29.1855 39.5549 28.9664 39.4055C28.7871 39.276 28.4186 39.2461 27.0439 39.2461C25.4701 39.2461 25.3207 39.266 25.1215 39.4453ZM27.9902 41.7861V43.1309H27.0439H26.0977V41.7861V40.4414H27.0439H27.9902V41.7861Z" fill="#7836F8"/>
</svg>
