<svg width="189" height="28" viewBox="0 0 189 28" fill="none" xmlns="http://www.w3.org/2000/svg">
<path d="M13.0786 2.1846C13.4224 1.36942 14.5776 1.36942 14.9214 2.1846L17.8249 9.06878C17.966 9.4032 18.2772 9.63494 18.638 9.67427L25.8475 10.4602C26.6954 10.5526 27.0458 11.5958 26.4257 12.1814L20.9646 17.3381C20.7132 17.5755 20.6023 17.9258 20.6712 18.2646L22.1955 25.7542C22.3696 26.6096 21.4409 27.2618 20.6954 26.8076L14.5203 23.0458C14.2007 22.8511 13.7993 22.8511 13.4797 23.0458L7.30465 26.8076C6.55914 27.2618 5.63038 26.6096 5.80448 25.7542L7.32878 18.2646C7.39773 17.9258 7.2868 17.5755 7.03542 17.3381L1.57429 12.1814C0.954187 11.5958 1.30463 10.5526 2.15248 10.4602L9.36202 9.67427C9.72283 9.63494 10.034 9.4032 10.1751 9.06878L13.0786 2.1846Z" fill="#19181B"/>
<path d="M53.2525 2.18466C53.5963 1.36948 54.7515 1.36948 55.0953 2.18466L57.9989 9.06884C58.1399 9.40326 58.4511 9.635 58.8119 9.67433L66.0214 10.4602C66.8693 10.5527 67.2197 11.5959 66.5996 12.1814L61.1385 17.3382C60.8871 17.5755 60.7762 17.9259 60.8451 18.2647L62.3694 25.7543C62.5435 26.6097 61.6148 27.2619 60.8693 26.8077L54.6942 23.0459C54.3747 22.8512 53.9732 22.8512 53.6537 23.0459L47.4786 26.8077C46.7331 27.2619 45.8043 26.6097 45.9784 25.7543L47.5027 18.2647C47.5716 17.9259 47.4607 17.5755 47.2093 17.3382L41.7482 12.1814C41.1281 11.5959 41.4785 10.5527 42.3264 10.4602L49.5359 9.67433C49.8968 9.635 50.2079 9.40326 50.349 9.06884L53.2525 2.18466Z" fill="#19181B"/>
<path d="M93.4264 2.18466C93.7702 1.36948 94.9254 1.36948 95.2692 2.18466L98.1728 9.06884C98.3138 9.40326 98.625 9.635 98.9858 9.67433L106.195 10.4602C107.043 10.5527 107.394 11.5959 106.774 12.1814L101.312 17.3382C101.061 17.5755 100.95 17.9259 101.019 18.2647L102.543 25.7543C102.717 26.6097 101.789 27.2619 101.043 26.8077L94.8681 23.0459C94.5485 22.8512 94.1471 22.8512 93.8275 23.0459L87.6525 26.8077C86.9069 27.2619 85.9782 26.6097 86.1523 25.7543L87.6766 18.2647C87.7455 17.9259 87.6346 17.5755 87.3832 17.3382L81.9221 12.1814C81.302 11.5959 81.6524 10.5527 82.5003 10.4602L89.7098 9.67433C90.0706 9.635 90.3818 9.40326 90.5229 9.06884L93.4264 2.18466Z" fill="#19181B"/>
<path d="M133.6 2.18466C133.944 1.36948 135.099 1.36948 135.443 2.18466L138.347 9.06884C138.488 9.40326 138.799 9.635 139.16 9.67433L146.369 10.4602C147.217 10.5527 147.568 11.5959 146.947 12.1814L141.486 17.3382C141.235 17.5755 141.124 17.9259 141.193 18.2647L142.717 25.7543C142.891 26.6097 141.963 27.2619 141.217 26.8077L135.042 23.0459C134.722 22.8512 134.321 22.8512 134.001 23.0459L127.826 26.8077C127.081 27.2619 126.152 26.6097 126.326 25.7543L127.851 18.2647C127.919 17.9259 127.809 17.5755 127.557 17.3382L122.096 12.1814C121.476 11.5959 121.826 10.5527 122.674 10.4602L129.884 9.67433C130.245 9.635 130.556 9.40326 130.697 9.06884L133.6 2.18466Z" fill="#19181B"/>
<path d="M173.774 2.18466C174.118 1.36948 175.273 1.36948 175.617 2.18466L178.521 9.06884C178.662 9.40326 178.973 9.635 179.334 9.67433L186.543 10.4602C187.391 10.5527 187.741 11.5959 187.121 12.1814L181.66 17.3382C181.409 17.5755 181.298 17.9259 181.367 18.2647L182.891 25.7543C183.065 26.6097 182.137 27.2619 181.391 26.8077L175.216 23.0459C174.896 22.8512 174.495 22.8512 174.175 23.0459L168 26.8077C167.255 27.2619 166.326 26.6097 166.5 25.7543L168.024 18.2647C168.093 17.9259 167.982 17.5755 167.731 17.3382L162.27 12.1814C161.65 11.5959 162 10.5527 162.848 10.4602L170.058 9.67433C170.419 9.635 170.73 9.40326 170.871 9.06884L173.774 2.18466Z" fill="#19181B"/>
</svg>
