<svg width="24" height="24" viewBox="0 0 24 24" fill="none" xmlns="http://www.w3.org/2000/svg">
<circle cx="12" cy="12" r="11.5" transform="matrix(-1 0 0 1 24 0)" stroke="#EF732D"/>
<path d="M7.64645 12.3536C7.45119 12.1583 7.45119 11.8417 7.64645 11.6464L10.8284 8.46446C11.0237 8.2692 11.3403 8.2692 11.5355 8.46447C11.7308 8.65973 11.7308 8.97631 11.5355 9.17157L8.70711 12L11.5355 14.8284C11.7308 15.0237 11.7308 15.3403 11.5355 15.5355C11.3403 15.7308 11.0237 15.7308 10.8284 15.5355L7.64645 12.3536ZM24 12.5L8 12.5L8 11.5L24 11.5L24 12.5Z" fill="#EF732D"/>
</svg>
