<svg width="384" height="384" viewBox="0 0 384 384" fill="none" xmlns="http://www.w3.org/2000/svg">
<rect width="384" height="384" fill="#F4FFF8"/>
<path fill-rule="evenodd" clip-rule="evenodd" d="M189.579 42.0081C255.776 41.3989 320.94 74.9985 341.453 137.94C362.016 201.032 329.047 266.351 275.446 305.473C221.436 344.893 148.754 357.236 94.452 318.218C39.375 278.643 23.9875 204.782 46.072 140.658C66.9698 79.9797 125.406 42.5988 189.579 42.0081Z" fill="#E2FFEB"/>
<path d="M259.405 136.267C256.481 136.267 253.556 135.171 251.363 132.944C246.91 128.491 246.91 121.28 251.363 116.828C255.783 112.408 263.027 112.408 267.446 116.828C271.899 121.28 271.899 128.491 267.446 132.944C265.253 135.137 262.329 136.267 259.405 136.267ZM259.405 118.954C257.876 118.954 256.381 119.519 255.218 120.682C252.892 122.975 252.892 126.763 255.218 129.056C257.544 131.382 261.299 131.382 263.625 129.056C265.951 126.763 265.951 122.975 263.625 120.682C262.462 119.519 260.933 118.954 259.405 118.954Z" fill="#34A769"/>
<path d="M121.067 136.267C118.143 136.267 115.218 135.171 113.025 132.944C108.572 128.491 108.572 121.28 113.025 116.828C117.445 112.408 124.689 112.408 129.109 116.828C133.561 121.28 133.561 128.491 129.109 132.944C126.882 135.137 123.991 136.267 121.067 136.267ZM121.067 118.954C119.538 118.954 118.043 119.519 116.88 120.682C114.554 122.975 114.554 126.763 116.88 129.056C119.206 131.382 122.961 131.382 125.287 129.056C127.613 126.763 127.613 122.975 125.287 120.682C124.091 119.519 122.595 118.954 121.067 118.954Z" fill="#34A769"/>
<path d="M259.405 270.085C256.481 270.085 253.556 268.988 251.363 266.762C246.91 262.309 246.91 255.098 251.363 250.645C255.783 246.226 263.027 246.226 267.446 250.645C271.899 255.098 271.899 262.309 267.446 266.762C265.253 268.988 262.329 270.085 259.405 270.085ZM259.405 252.772C257.876 252.772 256.381 253.337 255.218 254.5C252.892 256.793 252.892 260.581 255.218 262.874C257.544 265.2 261.299 265.2 263.625 262.874C265.951 260.581 265.951 256.793 263.625 254.5C262.462 253.37 260.933 252.772 259.405 252.772Z" fill="#34A769"/>
<path d="M121.067 270.085C118.143 270.085 115.218 268.988 113.025 266.762C108.572 262.309 108.572 255.098 113.025 250.645C117.445 246.226 124.689 246.226 129.109 250.645C133.561 255.098 133.561 262.309 129.109 266.762C126.882 268.988 123.991 270.085 121.067 270.085ZM121.067 252.772C119.538 252.772 118.043 253.337 116.88 254.5C114.554 256.793 114.554 260.581 116.88 262.874C119.206 265.2 122.961 265.2 125.287 262.874C127.613 260.581 127.613 256.793 125.287 254.5C124.091 253.37 122.595 252.772 121.067 252.772Z" fill="#34A769"/>
<path d="M143.464 245.262C114.92 245.262 73.0495 196.38 71.2883 194.32L69.793 192.559L71.2883 190.798C73.0495 188.704 114.953 139.856 143.464 139.856C156.191 139.856 168.287 145.007 177.525 154.344C187.594 164.546 193.276 178.503 193.077 192.592C192.645 222.599 171.344 245.262 143.464 245.262ZM77.0039 192.559C84.7798 201.332 120.303 239.812 143.464 239.812C168.254 239.812 187.228 219.475 187.594 192.526C187.76 180.064 182.543 167.238 173.637 158.199C165.463 149.891 154.729 145.339 143.464 145.339C120.303 145.306 84.7798 183.753 77.0039 192.559Z" fill="#47CD70"/>
<path d="M190.352 313.085L188.591 311.59C186.498 309.828 137.649 267.925 137.649 239.414C137.649 226.686 142.8 214.591 152.138 205.386C162.339 195.317 176.23 189.834 190.386 189.834C220.426 190.266 243.055 211.567 243.055 239.414C243.055 267.958 194.207 309.828 192.114 311.59L190.352 313.085ZM189.688 195.251C177.426 195.251 164.832 200.435 155.926 209.241C147.618 217.415 143.066 228.149 143.066 239.414C143.066 262.575 181.546 298.098 190.319 305.907C199.092 298.098 237.573 262.575 237.573 239.414C237.573 214.624 217.236 195.65 190.286 195.284C190.12 195.251 189.887 195.251 189.688 195.251Z" fill="#47CD70"/>
<path d="M237.207 245.262C224.48 245.262 212.384 240.111 203.146 230.774C193.077 220.572 187.428 206.615 187.594 192.526C188.026 162.519 209.327 139.856 237.174 139.856C265.718 139.856 307.588 188.704 309.35 190.798L310.845 192.559L309.35 194.32C307.622 196.38 265.719 245.262 237.207 245.262ZM237.207 145.306C212.417 145.306 193.443 165.643 193.077 192.592C192.911 205.054 198.128 217.88 207.034 226.952C215.209 235.26 225.942 239.812 237.207 239.812C260.368 239.812 295.891 201.332 303.701 192.559C295.891 183.753 260.368 145.306 237.207 145.306Z" fill="#47CD70"/>
<path d="M191.017 195.284C190.784 195.284 190.552 195.284 190.319 195.284C160.279 194.852 137.649 173.551 137.649 145.705C137.649 117.16 186.498 75.2898 188.591 73.5286L190.352 72L192.114 73.4954C194.207 75.2566 243.055 117.16 243.055 145.671C243.055 158.398 237.905 170.494 228.567 179.699C218.498 189.635 204.874 195.284 191.017 195.284ZM190.352 79.2109C181.546 86.9868 143.066 122.51 143.066 145.671C143.066 170.461 163.403 189.435 190.352 189.801C202.947 190.133 215.641 184.75 224.712 175.844C233.02 167.67 237.573 156.936 237.573 145.671C237.606 122.51 199.125 86.9868 190.352 79.2109Z" fill="#47CD70"/>
</svg>
