<svg width="55" height="56" viewBox="0 0 55 56" fill="none" xmlns="http://www.w3.org/2000/svg">
<rect y="52.4797" width="54.8865" height="3.47079" fill="#AD5555"/>
<path d="M27.4404 38.2653L37.4623 28.2434C39.4443 26.2613 40.7939 23.736 41.3406 20.9869C41.8874 18.2378 41.6066 15.3882 40.5339 12.7987C39.4612 10.2091 37.6447 7.99573 35.314 6.43851C32.9834 4.88129 30.2434 4.05012 27.4404 4.05012C24.6375 4.05012 21.8974 4.88129 19.5668 6.43851C17.2362 7.99573 15.4197 10.2091 14.347 12.7987C13.2742 15.3882 12.9935 18.2378 13.5402 20.9869C14.087 23.736 15.4366 26.2613 17.4185 28.2434L27.4404 38.2653ZM27.4404 43.991L14.5557 31.1063C12.0074 28.5579 10.2719 25.3111 9.56887 21.7765C8.8658 18.2418 9.22666 14.578 10.6058 11.2485C11.985 7.91892 14.3205 5.0731 17.317 3.07089C20.3136 1.06868 23.8365 0 27.4404 0C31.0443 0 34.5673 1.06868 37.5638 3.07089C40.5604 5.0731 42.8959 7.91892 44.275 11.2485C45.6542 14.578 46.0151 18.2418 45.312 21.7765C44.6089 25.3111 42.8735 28.5579 40.3252 31.1063L27.4404 43.991ZM27.4404 22.2708C28.5144 22.2708 29.5443 21.8442 30.3037 21.0848C31.0631 20.3254 31.4897 19.2954 31.4897 18.2215C31.4897 17.1476 31.0631 16.1176 30.3037 15.3583C29.5443 14.5989 28.5144 14.1723 27.4404 14.1723C26.3665 14.1723 25.3366 14.5989 24.5772 15.3583C23.8178 16.1176 23.3912 17.1476 23.3912 18.2215C23.3912 19.2954 23.8178 20.3254 24.5772 21.0848C25.3366 21.8442 26.3665 22.2708 27.4404 22.2708ZM27.4404 26.32C25.2926 26.32 23.2327 25.4668 21.7139 23.948C20.1951 22.4293 19.3419 20.3694 19.3419 18.2215C19.3419 16.0736 20.1951 14.0138 21.7139 12.495C23.2327 10.9762 25.2926 10.123 27.4404 10.123C29.5883 10.123 31.6482 10.9762 33.1669 12.495C34.6857 14.0138 35.5389 16.0736 35.5389 18.2215C35.5389 20.3694 34.6857 22.4293 33.1669 23.948C31.6482 25.4668 29.5883 26.32 27.4404 26.32Z" fill="#AD5555"/>
</svg>
