<svg width="18" height="21" viewBox="0 0 18 21" fill="none" xmlns="http://www.w3.org/2000/svg">
<path d="M12 7.75L8 11.75L6 9.75M17 8.915C17 15.4833 12.0319 18.4281 9.9258 19.3814L9.9231 19.3825C9.7016 19.4828 9.5906 19.5331 9.3389 19.5763C9.1795 19.6037 8.8215 19.6037 8.6621 19.5763C8.4094 19.5329 8.2972 19.4825 8.074 19.3814C5.9678 18.4281 1 15.4833 1 8.915V4.9502C1 3.83009 1 3.26962 1.21799 2.8418C1.40973 2.46547 1.71547 2.15973 2.0918 1.96799C2.51962 1.75 3.08009 1.75 4.2002 1.75H13.8002C14.9203 1.75 15.4796 1.75 15.9074 1.96799C16.2837 2.15973 16.5905 2.46547 16.7822 2.8418C17 3.2692 17 3.82899 17 4.94691V8.915Z" fill="#1B1B1B"/>
<path d="M12 7.75L8 11.75L6 9.75M17 8.915C17 15.4833 12.0319 18.4281 9.9258 19.3814L9.9231 19.3825C9.7016 19.4828 9.5906 19.5331 9.3389 19.5763C9.1795 19.6037 8.8215 19.6037 8.6621 19.5763C8.4094 19.5329 8.2972 19.4825 8.074 19.3814C5.9678 18.4281 1 15.4833 1 8.915V4.9502C1 3.83009 1 3.26962 1.21799 2.8418C1.40973 2.46547 1.71547 2.15973 2.0918 1.96799C2.51962 1.75 3.08009 1.75 4.2002 1.75H13.8002C14.9203 1.75 15.4796 1.75 15.9074 1.96799C16.2837 2.15973 16.5905 2.46547 16.7822 2.8418C17 3.2692 17 3.82899 17 4.94691V8.915Z" stroke="url(#paint0_linear_2043_4844)" stroke-width="2" stroke-linecap="round" stroke-linejoin="round"/>
<defs>
<linearGradient id="paint0_linear_2043_4844" x1="8.99999" y1="1.75" x2="8.99999" y2="19.5968" gradientUnits="userSpaceOnUse">
<stop stop-color="#58CE76"/>
<stop offset="1" stop-color="#58CE76"/>
</linearGradient>
</defs>
</svg>
