<svg width="146" height="9" viewBox="0 0 146 9" fill="none" xmlns="http://www.w3.org/2000/svg">
<path d="M0.90149 7.43916L0.888611 7.51294L0.955788 7.54605C2.23223 8.17523 3.456 8.48257 4.69485 8.48257C7.50697 8.48257 9.69882 6.90541 11.7887 5.40165L11.7982 5.39477C11.7982 5.39477 11.7982 5.39476 11.7982 5.39476C13.8916 3.88903 15.8382 2.49216 18.357 2.49216C20.8757 2.49216 22.8226 3.88868 24.9159 5.39476L24.9244 5.40094C27.0144 6.90492 29.2067 8.48257 32.0192 8.48257C34.8314 8.48257 37.0232 6.90541 39.1131 5.40165L39.1226 5.39477C41.2159 3.88903 43.1626 2.49216 45.6814 2.49216C48.2001 2.49216 50.1467 3.88867 52.24 5.39476L52.2496 5.40164C54.3395 6.90541 56.5313 8.48257 59.3434 8.48257C62.1558 8.48257 64.3476 6.9054 66.4375 5.40164L66.447 5.39476C68.5401 3.88867 70.487 2.49216 73.0056 2.49216C75.5245 2.49216 77.4711 3.88903 79.5644 5.39476L79.574 5.40166C81.6639 6.90542 83.8557 8.48257 86.6678 8.48257C87.9069 8.48257 89.1304 8.17523 90.4069 7.54605L90.4741 7.51295L90.4612 7.43917L90.1556 5.68719L90.1326 5.55568L90.0129 5.61467C88.8602 6.1824 87.7668 6.45645 86.6678 6.45645C84.1491 6.45645 82.2023 5.05957 80.1092 3.55384L80.0973 3.54528C78.0082 2.0424 75.8169 0.46604 73.0056 0.46604C70.1943 0.46604 68.0029 2.04266 65.9138 3.54566L65.9025 3.55384C63.8091 5.05957 61.8625 6.45645 59.3434 6.45645C56.8248 6.45645 54.8781 5.05958 52.7848 3.55384L52.7729 3.5453C50.6838 2.04241 48.4925 0.46604 45.6814 0.46604C42.8699 0.46604 40.6782 2.0429 38.5889 3.54601L38.5781 3.55384C36.4845 5.05994 34.5379 6.45645 32.0192 6.45645C29.5004 6.45645 27.5538 5.05958 25.4604 3.55384L25.4486 3.5453C23.3594 2.04241 21.1681 0.46604 18.357 0.46604C15.546 0.46604 13.3547 2.04241 11.2655 3.5453L11.2537 3.55384C9.16035 5.05958 7.21374 6.45645 4.69485 6.45645C3.59591 6.45645 2.50243 6.1824 1.35001 5.61467L1.23027 5.55568L1.20731 5.68718L0.90149 7.43916Z" fill="#AD5555" stroke="#AD5555" stroke-width="0.2"/>
<path d="M55.5382 7.43916L55.5253 7.51294L55.5925 7.54605C56.869 8.17523 58.0927 8.48257 59.3316 8.48257C62.1437 8.48257 64.3355 6.90541 66.4254 5.40165L66.4349 5.39477C66.4349 5.39477 66.435 5.39476 66.435 5.39476C68.5283 3.88903 70.4749 2.49216 72.9938 2.49216C75.5124 2.49216 77.4593 3.88868 79.5526 5.39476L79.5612 5.40094C81.6511 6.90492 83.8434 8.48257 86.656 8.48257C89.4681 8.48257 91.6599 6.90541 93.7498 5.40165L93.7593 5.39477C95.8527 3.88903 97.7993 2.49216 100.318 2.49216C102.837 2.49216 104.783 3.88867 106.877 5.39476L106.886 5.40164C108.976 6.90541 111.168 8.48257 113.98 8.48257C116.792 8.48257 118.984 6.9054 121.074 5.40164L121.084 5.39476C123.177 3.88867 125.124 2.49216 127.642 2.49216C130.161 2.49216 132.108 3.88903 134.201 5.39476L134.211 5.40166C136.301 6.90542 138.492 8.48257 141.305 8.48257C142.544 8.48257 143.767 8.17523 145.044 7.54605L145.111 7.51295L145.098 7.43917L144.792 5.68719L144.769 5.55568L144.65 5.61467C143.497 6.1824 142.403 6.45645 141.305 6.45645C138.786 6.45645 136.839 5.05957 134.746 3.55384L134.734 3.54528C132.645 2.0424 130.454 0.46604 127.642 0.46604C124.831 0.46604 122.64 2.04266 120.551 3.54566L120.539 3.55384C118.446 5.05957 116.499 6.45645 113.98 6.45645C111.461 6.45645 109.515 5.05958 107.422 3.55384L107.41 3.5453C105.321 2.04241 103.129 0.46604 100.318 0.46604C97.5066 0.46604 95.3149 2.0429 93.2257 3.54601L93.2148 3.55384C91.1213 5.05994 89.1746 6.45645 86.656 6.45645C84.1371 6.45645 82.1905 5.05958 80.0971 3.55384L80.0853 3.5453C77.9961 2.04241 75.8049 0.46604 72.9938 0.46604C70.1827 0.46604 67.9914 2.04241 65.9023 3.5453L65.8904 3.55384C63.7971 5.05958 61.8505 6.45645 59.3316 6.45645C58.2326 6.45645 57.1392 6.1824 55.9867 5.61467L55.867 5.55568L55.844 5.68718L55.5382 7.43916Z" fill="#AD5555" stroke="#AD5555" stroke-width="0.2"/>
</svg>
