<svg width="60" height="60" viewBox="0 0 60 60" fill="none" xmlns="http://www.w3.org/2000/svg">
<g id="innovation">
<g id="Group">
<g id="Group_2">
<path id="Vector" d="M54.9979 15.089H53.3115C53.3103 15.0862 53.3091 15.0833 53.3081 15.0805L52.9845 14.2908C52.9824 14.2856 52.9803 14.2806 52.9781 14.2754C52.9782 14.2746 52.9783 14.2736 52.9784 14.2729L54.1767 13.0656C54.7429 12.495 54.7429 11.5664 54.1767 10.9957L51.9259 8.72786C51.65 8.44966 51.2818 8.29638 50.8893 8.29638C50.4968 8.29638 50.1288 8.44966 49.8528 8.72774L48.6595 9.92997C48.6567 9.92868 48.6537 9.92751 48.6508 9.92634L47.8729 9.60267C47.8692 9.60103 47.8653 9.59962 47.8614 9.59798C47.8612 9.59763 47.8609 9.59728 47.8607 9.59692V7.88599C47.8607 7.07833 47.2036 6.42114 46.3959 6.42114H43.2175C42.4097 6.42114 41.7527 7.07833 41.7527 7.88599V9.59692C41.7524 9.59728 41.7522 9.59763 41.752 9.59798C41.7481 9.59962 41.7443 9.60103 41.7405 9.60267L40.9627 9.92634C40.9598 9.92763 40.957 9.9288 40.954 9.92997L39.7609 8.72763C39.4849 8.44954 39.1168 8.29638 38.7244 8.29638C38.3406 8.29638 37.9808 8.4438 37.7069 8.71028C35.5302 7.88353 33.1736 7.42954 30.7134 7.42954C19.7509 7.42954 10.8323 16.4135 10.8323 27.4563C10.8323 31.5477 12.049 35.4824 14.3512 38.8352C16.4863 41.9448 19.4103 44.3598 22.8339 45.8482V49.1111C22.0503 49.3998 21.4888 50.1516 21.4888 51.0342V52.9409C21.4888 54.0717 22.4089 54.9917 23.5396 54.9917H24.8214V58.0784C24.8214 59.1381 25.6817 60 26.7391 60H34.6878C35.7452 60 36.6054 59.1381 36.6054 58.0784V54.9917H37.8872C39.018 54.9917 39.938 54.0717 39.938 52.9409V51.0342C39.938 50.1516 39.3765 49.3997 38.5928 49.1111V45.8483C43.045 43.9135 46.6202 40.4354 48.7005 35.9981C48.9065 35.5586 48.7172 35.0353 48.2778 34.8292C47.8382 34.623 47.3149 34.8124 47.109 35.2518C45.3217 39.0638 42.3261 42.0995 38.5928 43.9134V39.1466H38.7902C39.5979 39.1466 40.255 38.4895 40.255 37.6817V35.3914C40.255 34.5836 39.5979 33.9266 38.7902 33.9266H36.5548C35.747 33.9266 35.09 34.5836 35.09 35.3914V37.6817C35.09 38.4895 35.747 39.1466 36.5548 39.1466H36.8351V48.9832H35.5552V42.2404C35.5552 41.682 35.2805 41.0156 34.8875 40.6195L28.2577 33.9389L28.5399 33.6545C29.1061 33.0839 29.1061 32.1553 28.5399 31.5846L26.956 29.9886C26.68 29.7104 26.3118 29.5571 25.9193 29.5571C25.5269 29.5571 25.1588 29.7104 24.8828 29.9885L23.2786 31.605C22.7124 32.1756 22.7124 33.1042 23.2786 33.6749L24.8625 35.2708C25.1385 35.549 25.5067 35.7023 25.8992 35.7023C26.2916 35.7023 26.6597 35.549 26.9357 35.2709L27.0194 35.1866L33.6397 41.8576C33.7045 41.9251 33.7959 42.1472 33.7975 42.2404V48.9832H31.9804V41.6015C31.9804 41.116 31.5869 40.7226 31.1015 40.7226C30.6161 40.7226 30.2226 41.116 30.2226 41.6015V48.9833H27.5637V42.6958H27.8025C28.6103 42.6958 29.2674 42.0388 29.2674 41.231V38.9407C29.2674 38.1329 28.6103 37.4758 27.8025 37.4758H25.5672C24.7594 37.4758 24.1024 38.1329 24.1024 38.9407V41.231C24.1024 42.0388 24.7594 42.6958 25.5672 42.6958H25.8059V48.9833H24.5918V45.2625C24.5918 44.9029 24.3728 44.5797 24.0391 44.4463C20.7011 43.1127 17.8523 40.8282 15.8004 37.84C13.7003 34.7815 12.5902 31.1908 12.5902 27.4563C12.5902 17.3827 20.7202 9.18735 30.7135 9.18735C32.6758 9.18735 34.5656 9.50505 36.3366 10.0893L35.4373 10.9956C34.8711 11.5661 34.8711 12.4947 35.4373 13.0653L36.6353 14.2728C36.6354 14.2736 36.6357 14.2746 36.6357 14.2753C36.6334 14.2803 36.6313 14.2855 36.6292 14.2905L36.3057 15.0801C36.3045 15.0831 36.3033 15.086 36.3022 15.0888H34.6157C33.8079 15.0888 33.1509 15.7459 33.1509 16.5536V19.7655C33.1509 20.5733 33.8079 21.2304 34.6157 21.2304H36.3022C36.3033 21.2332 36.3045 21.2362 36.3057 21.239L36.6291 22.0284C36.6312 22.0336 36.6333 22.0386 36.6356 22.0438C36.6356 22.0446 36.6353 22.0453 36.6352 22.0461L35.4372 23.2537C34.8711 23.8242 34.8709 24.7528 35.4372 25.3236L37.6879 27.592C37.9639 27.87 38.3321 28.0231 38.7244 28.0231C39.1168 28.0231 39.4849 27.87 39.7611 27.5918L40.954 26.3894C40.957 26.3906 40.9598 26.3919 40.9627 26.3931L41.7405 26.7167C41.7443 26.7184 41.7481 26.7198 41.752 26.7214C41.7522 26.7218 41.7524 26.7221 41.7527 26.7225V28.4334C41.7527 29.2412 42.4097 29.8983 43.2175 29.8983H46.396C47.2038 29.8983 47.8608 29.2412 47.8608 28.4334V26.7225C47.8611 26.7221 47.8613 26.7218 47.8615 26.7214C47.8654 26.7198 47.8693 26.7183 47.8731 26.7166L48.651 26.3928C48.654 26.3916 48.6568 26.3905 48.6597 26.3892L48.8133 26.544C48.8283 26.8461 48.8368 27.1501 48.8368 27.4559C48.8368 28.2686 48.7833 29.0858 48.6781 29.8849C48.6147 30.3662 48.9534 30.8076 49.4347 30.871C49.9161 30.935 50.3574 30.5957 50.4208 30.1145C50.513 29.4149 50.567 28.7028 50.5858 27.991C50.6846 28.0118 50.7861 28.023 50.8895 28.023C51.2819 28.023 51.65 27.8699 51.9262 27.5917L54.177 25.3234C54.7431 24.7528 54.7431 23.8242 54.1769 23.2535L52.9788 22.0463C52.9786 22.0455 52.9784 22.0446 52.9784 22.0438C52.9805 22.0387 52.9827 22.0337 52.9847 22.0286L53.3083 21.239C53.3095 21.2362 53.3106 21.2332 53.3118 21.2304H54.9983C55.806 21.2304 56.4631 20.5733 56.4631 19.7655V16.5539C56.4627 15.7461 55.8057 15.089 54.9979 15.089ZM25.899 33.82L24.7279 32.64L25.9192 31.4396L27.0903 32.6197L25.899 33.82ZM34.6877 58.2422H26.739C26.6524 58.2422 26.5791 58.1672 26.5791 58.0784V57.3933H34.8475V58.0784C34.8475 58.1673 34.7743 58.2422 34.6877 58.2422ZM34.8475 55.6354H26.5791V54.9917H34.8475V55.6354ZM36.8475 35.6845H38.497V37.3889H36.8475V35.6845ZM25.8599 39.2336H27.5093V40.938H25.8599V39.2336ZM23.2465 51.0341C23.2465 50.8753 23.3807 50.7411 23.5395 50.7411H37.8871C38.0459 50.7411 38.1801 50.8753 38.1801 51.0341V52.9408C38.1801 53.0996 38.0459 53.2338 37.8871 53.2338H23.5395C23.3807 53.2338 23.2465 53.0996 23.2465 52.9408V51.0341ZM54.7049 19.4728H53.2704C52.5774 19.4728 51.9111 19.9417 51.6736 20.5918L51.3664 21.3418C51.0787 21.9678 51.2179 22.768 51.7038 23.2576L52.7273 24.2888L50.8893 26.1412L49.8749 25.1188C49.5658 24.8075 49.1202 24.6289 48.6522 24.6289C48.4062 24.6289 48.166 24.6806 47.955 24.7788L47.2169 25.0859C46.5695 25.3261 46.1029 25.9925 46.1029 26.6837V28.1407H43.5105V26.6837C43.5105 25.9925 43.0438 25.3261 42.3965 25.0859L41.6581 24.7788C41.4473 24.6807 41.2072 24.629 40.9613 24.629C40.4933 24.629 40.0476 24.8076 39.7383 25.1192L38.7244 26.1412L36.8865 24.2888L37.9101 23.2571C38.3959 22.7676 38.5351 21.9675 38.2472 21.3415L37.94 20.5917C37.7024 19.9414 37.0362 19.4727 36.3432 19.4727H34.9086V16.8468H36.3432C37.0362 16.8468 37.7025 16.3781 37.94 15.7277L38.2472 14.9777C38.5349 14.3518 38.3957 13.5515 37.91 13.062L36.8865 12.0304L38.7243 10.1785L39.7384 11.2005C40.0476 11.5118 40.4933 11.6905 40.9613 11.6905C41.2072 11.6905 41.4473 11.6388 41.6581 11.5407L42.3965 11.2336C43.0438 10.9934 43.5105 10.327 43.5105 9.63583V8.17896H46.103V9.63595C46.103 10.327 46.5697 10.9937 47.2171 11.2337L47.9552 11.5407C48.1661 11.6389 48.4063 11.6906 48.6523 11.6906C49.1205 11.6906 49.5661 11.512 49.875 11.2005L50.8893 10.1786L52.7273 12.0306L51.7036 13.062C51.2179 13.5515 51.0787 14.3517 51.3664 14.9776L51.6736 15.7278C51.9112 16.378 52.5774 16.8468 53.2704 16.8468H54.7049V19.4728Z" fill="#FF8100"/>
</g>
</g>
<g id="Group_3">
<g id="Group_4">
<path id="Vector_2" d="M50.5698 16.2499C50.4188 15.7886 49.9223 15.5368 49.461 15.6879C48.9997 15.8388 48.7481 16.3351 48.8991 16.7965C49.0423 17.2343 49.115 17.693 49.115 18.1598C49.115 20.5572 47.1823 22.5075 44.8068 22.5075C42.4313 22.5075 40.4988 20.5572 40.4988 18.1598C40.4988 15.7625 42.4313 13.8121 44.8068 13.8121C45.2955 13.8121 45.7746 13.8938 46.2308 14.0549C46.6886 14.2163 47.1905 13.9764 47.3521 13.5188C47.5137 13.0611 47.2739 12.5591 46.8161 12.3974C46.1714 12.1698 45.4953 12.0543 44.8068 12.0543C41.4621 12.0543 38.741 14.7932 38.741 18.1598C38.741 21.5264 41.4621 24.2653 44.8068 24.2653C48.1516 24.2653 50.8728 21.5264 50.8728 18.1598C50.8728 17.5071 50.7709 16.8645 50.5698 16.2499Z" fill="#FF8100"/>
</g>
</g>
<g id="Group_5">
<g id="Group_6">
<path id="Vector_3" d="M44.8068 15.0715C43.1131 15.0715 41.7354 16.4569 41.7354 18.1598C41.7354 19.8627 43.1132 21.2482 44.8068 21.2482C46.5005 21.2482 47.8783 19.8628 47.8783 18.1598C47.8784 16.457 46.5005 15.0715 44.8068 15.0715ZM44.8068 19.4903C44.0824 19.4903 43.4932 18.8934 43.4932 18.1597C43.4932 17.426 44.0825 16.8292 44.8068 16.8292C45.5313 16.8292 46.1205 17.426 46.1205 18.1597C46.1206 18.8935 45.5313 19.4903 44.8068 19.4903Z" fill="#FF8100"/>
</g>
</g>
<g id="Group_7">
<g id="Group_8">
<path id="Vector_4" d="M32.2188 23.6686H29.9834C29.1756 23.6686 28.5186 24.3256 28.5186 25.1334V27.4237C28.5186 28.2315 29.1756 28.8886 29.9834 28.8886H30.2222V34.3358C30.2222 34.8213 30.6157 35.2147 31.1011 35.2147C31.5865 35.2147 31.98 34.8213 31.98 34.3358V28.8886H32.2188C33.0265 28.8886 33.6836 28.2315 33.6836 27.4237V25.1334C33.6836 24.3256 33.0265 23.6686 32.2188 23.6686ZM31.9258 27.1308H30.2764V25.4264H31.9258V27.1308Z" fill="#FF8100"/>
</g>
</g>
<g id="Group_9">
<g id="Group_10">
<path id="Vector_5" d="M31.1011 0C30.6157 0 30.2222 0.393398 30.2222 0.878906V3.32789C30.2222 3.8134 30.6157 4.2068 31.1011 4.2068C31.5865 4.2068 31.98 3.8134 31.98 3.32789V0.878906C31.98 0.393398 31.5865 0 31.1011 0Z" fill="#FF8100"/>
</g>
</g>
<g id="Group_11">
<g id="Group_12">
<path id="Vector_6" d="M24.8814 4.18546L24.1808 1.83937C24.0418 1.37413 23.5522 1.10964 23.0871 1.24863C22.622 1.38761 22.3575 1.8771 22.4965 2.34222L23.1969 4.68831C23.3108 5.06964 23.6603 5.31597 24.0388 5.31597C24.122 5.31597 24.2067 5.30402 24.2906 5.27906C24.7557 5.14007 25.0202 4.65058 24.8814 4.18546Z" fill="#FF8100"/>
</g>
</g>
<g id="Group_13">
<g id="Group_14">
<path id="Vector_7" d="M18.3265 7.05196L16.9845 5.00657C16.7182 4.60064 16.1733 4.48767 15.7675 4.75392C15.3616 5.02028 15.2484 5.56509 15.5148 5.97091L16.857 8.01618C17.0257 8.27341 17.3064 8.4131 17.5925 8.4131C17.758 8.4131 17.9252 8.36646 18.0738 8.26896C18.4796 8.00271 18.5928 7.45778 18.3265 7.05196Z" fill="#FF8100"/>
</g>
</g>
<g id="Group_15">
<g id="Group_16">
<path id="Vector_8" d="M12.8672 11.6865L10.9966 10.1138C10.625 9.80123 10.0705 9.84928 9.75824 10.2208C9.44582 10.5924 9.49375 11.1468 9.86535 11.4591L11.7359 13.0319C11.9007 13.1705 12.1014 13.2381 12.3011 13.2381C12.5516 13.2381 12.8004 13.1316 12.9743 12.9249C13.2868 12.5533 13.2387 11.9988 12.8672 11.6865Z" fill="#FF8100"/>
</g>
</g>
<g id="Group_17">
<g id="Group_18">
<path id="Vector_9" d="M8.96236 17.6987L6.7208 16.7312C6.27502 16.5388 5.75787 16.7441 5.56556 17.1899C5.37326 17.6354 5.57857 18.1526 6.02424 18.345L8.2658 19.3125C8.37935 19.3615 8.49748 19.3847 8.61361 19.3847C8.95381 19.3847 9.27771 19.1861 9.42103 18.8538C9.61334 18.4082 9.40802 17.891 8.96236 17.6987Z" fill="#FF8100"/>
</g>
</g>
<g id="Group_19">
<g id="Group_20">
<path id="Vector_10" d="M6.94112 24.5825L4.51722 24.3019C4.03487 24.2457 3.59894 24.5918 3.54304 25.0739C3.48714 25.556 3.83284 25.9922 4.31507 26.0481L6.73898 26.3287C6.77331 26.3327 6.8073 26.3347 6.84116 26.3347C7.28132 26.3347 7.66136 26.0046 7.71315 25.5567C7.76905 25.0746 7.42335 24.6384 6.94112 24.5825Z" fill="#FF8100"/>
</g>
</g>
<g id="Group_21">
<g id="Group_22">
<path id="Vector_11" d="M7.99344 32.47C7.90801 31.9921 7.45145 31.6741 6.97344 31.7594L4.57122 32.1892C4.09344 32.2746 3.77528 32.7313 3.86082 33.2091C3.93688 33.6346 4.30743 33.9334 4.72497 33.9334C4.77629 33.9334 4.82844 33.9289 4.88083 33.9196L7.28305 33.4898C7.76082 33.4044 8.07887 32.9477 7.99344 32.47Z" fill="#FF8100"/>
</g>
</g>
<g id="Group_23">
<g id="Group_24">
<path id="Vector_12" d="M10.2389 39.0115C10.0196 38.5786 9.49045 38.4056 9.05768 38.6247L6.87951 39.7285C6.4465 39.948 6.27342 40.4769 6.49279 40.9098C6.64772 41.2154 6.95674 41.3917 7.27748 41.3917C7.41108 41.3917 7.54678 41.361 7.67404 41.2965L9.85221 40.1927C10.2852 39.9732 10.4583 39.4444 10.2389 39.0115Z" fill="#FF8100"/>
</g>
</g>
<g id="Group_25">
<g id="Group_26">
<path id="Vector_13" d="M14.2606 44.631C13.926 44.2793 13.3697 44.2656 13.018 44.6L11.2472 46.2851C10.8955 46.6196 10.8817 47.176 11.2164 47.5277C11.3891 47.7093 11.6209 47.8008 11.8532 47.8008C12.0708 47.8008 12.2889 47.7204 12.4589 47.5586L14.2297 45.8736C14.5814 45.539 14.5952 44.9826 14.2606 44.631Z" fill="#FF8100"/>
</g>
</g>
<g id="Group_27">
<g id="Group_28">
<path id="Vector_14" d="M24.1448 21.6858H21.9094C21.1017 21.6858 20.4446 22.3429 20.4446 23.1506V25.4409C20.4446 26.2487 21.1017 26.9058 21.9094 26.9058H24.1448C24.9525 26.9058 25.6096 26.2487 25.6096 25.4409V23.1506C25.6096 22.3429 24.9525 21.6858 24.1448 21.6858ZM23.8518 25.148H22.2024V23.4436H23.8518V25.148Z" fill="#FF8100"/>
</g>
</g>
<g id="Group_29">
<g id="Group_30">
<path id="Vector_15" d="M28.1543 14.9497H25.9189C25.1112 14.9497 24.4541 15.6068 24.4541 16.4146V18.7049C24.4541 19.5126 25.1112 20.1697 25.9189 20.1697H28.1543C28.9621 20.1697 29.6191 19.5126 29.6191 18.7049V16.4146C29.6191 15.6068 28.9621 14.9497 28.1543 14.9497ZM27.8613 18.4119H26.2119V16.7075H27.8613V18.4119Z" fill="#FF8100"/>
</g>
</g>
</g>
</svg>
