<svg height="18.225" viewBox="0 0 20 18.225" width="20" xmlns="http://www.w3.org/2000/svg"><path d="m3.656 17.979a1 1 0 0 1 -1.656-.736v-2.243a2 2 0 0 1 -2-2v-7a2 2 0 0 1 2-2h11a2 2 0 0 1 2 2v7a2 2 0 0 1 -2 2h-5zm.844-3.093a.536.536 0 0 0 .26-.069l2.355-1.638a1 1 0 0 1 .571-.179h4.314a1 1 0 0 0 1-1v-5a1 1 0 0 0 -1-1h-9a1 1 0 0 0 -1 1v5a1.007 1.007 0 0 0 1 1 1.3 1.3 0 0 1 .844.226c.128.134.135.36.156.79v.37a.5.5 0 0 0 .5.5zm11.5-4.87q0 .185 0 .37v-.37c.02-.43.028-.656.156-.79a1.3 1.3 0 0 1 .844-.226 1.007 1.007 0 0 0 1-1v-5a1 1 0 0 0 -1-1h-9a1 1 0 0 0 -1 1h-2v-1a2 2 0 0 1 2-2h11a2 2 0 0 1 2 2v7a2 2 0 0 1 -2 2v2.243a1 1 0 0 1 -1.656.736l-.344-.236v-3.726z" fill="#011d26"/></svg>