<svg width="32" height="32" viewBox="0 0 32 32" fill="none" xmlns="http://www.w3.org/2000/svg">
<path d="M1.33325 26.6667V25.3333C1.33325 20.1787 5.51193 16 10.6666 16V16C15.8212 16 19.9999 20.1787 19.9999 25.3333V26.6667" stroke="#303037" stroke-width="2" stroke-linecap="round"/>
<path d="M17.3333 18.6667V18.6667C17.3333 14.9848 20.318 12 23.9999 12V12C27.6818 12 30.6666 14.9848 30.6666 18.6667V19.3333" stroke="#303037" stroke-width="2" stroke-linecap="round"/>
<path d="M10.6666 16.0002C13.6121 16.0002 15.9999 13.6123 15.9999 10.6668C15.9999 7.72131 13.6121 5.3335 10.6666 5.3335C7.72107 5.3335 5.33325 7.72131 5.33325 10.6668C5.33325 13.6123 7.72107 16.0002 10.6666 16.0002Z" stroke="#303037" stroke-width="2" stroke-linecap="round" stroke-linejoin="round"/>
<path d="M24 12C26.2091 12 28 10.2091 28 8C28 5.79086 26.2091 4 24 4C21.7909 4 20 5.79086 20 8C20 10.2091 21.7909 12 24 12Z" stroke="#303037" stroke-width="2" stroke-linecap="round" stroke-linejoin="round"/>
</svg>
