<?xml version="1.0" encoding="UTF-8"?> <svg xmlns="http://www.w3.org/2000/svg" width="74" height="51" viewBox="0 0 74 51" fill="none"><rect width="74" height="50" fill="#FAF4E8"></rect><path d="M38.4508 43.2108L39.1865 43.8881L38.4508 43.2108ZM35.5479 43.2108L34.8122 43.8881L35.5479 43.2108ZM50.5827 21.8333C50.5827 23.2365 50.0638 24.9742 49.1454 26.9171C48.2352 28.8429 46.9733 30.8862 45.5806 32.8768C42.7957 36.8573 39.5468 40.5439 37.7151 42.5334L39.1865 43.8881C41.0434 41.8712 44.3604 38.1097 47.2193 34.0233C48.6485 31.9806 49.978 29.8358 50.9536 27.7717C51.9212 25.7247 52.5827 23.6708 52.5827 21.8333H50.5827ZM36.2836 42.5334C34.4519 40.5439 31.203 36.8573 28.4181 32.8768C27.0254 30.8862 25.7635 28.8429 24.8533 26.9171C23.9349 24.9742 23.416 23.2365 23.416 21.8333H21.416C21.416 23.6708 22.0775 25.7247 23.0451 27.7717C24.0207 29.8358 25.3502 31.9806 26.7794 34.0233C29.6383 38.1097 32.9553 41.8712 34.8122 43.8881L36.2836 42.5334ZM23.416 21.8333C23.416 14.3315 29.4975 8.25 36.9993 8.25V6.25C28.3929 6.25 21.416 13.2269 21.416 21.8333H23.416ZM36.9993 8.25C44.5012 8.25 50.5827 14.3315 50.5827 21.8333H52.5827C52.5827 13.2269 45.6058 6.25 36.9993 6.25V8.25ZM37.7151 42.5334C37.3214 42.961 36.6773 42.961 36.2836 42.5334L34.8122 43.8881C35.9981 45.1762 38.0006 45.1762 39.1865 43.8881L37.7151 42.5334Z" fill="#595959"></path><path d="M43.25 21.8333C43.25 25.285 40.4518 28.0833 37 28.0833C33.5482 28.0833 30.75 25.285 30.75 21.8333C30.75 18.3815 33.5482 15.5833 37 15.5833C40.4518 15.5833 43.25 18.3815 43.25 21.8333Z" stroke="#DFA245" stroke-width="2"></path></svg> 