<svg width="22" height="18" viewBox="0 0 22 18" fill="none" xmlns="http://www.w3.org/2000/svg">
<path fill-rule="evenodd" clip-rule="evenodd" d="M2.98783 16.5269H19.0112C19.2183 16.5304 19.4214 16.4709 19.5995 16.3553L13.5073 10.2287L12.4651 11.2817C11.6362 12.1208 10.3627 12.1208 9.53393 11.2817L8.49175 10.2287L2.40975 16.3553C2.58475 16.4683 2.78471 16.5278 2.98783 16.5269ZM8.09563 9.83114L2.02383 15.9465C1.90508 15.743 1.8418 15.5067 1.8418 15.2643V4.39781C1.8418 4.15546 1.90508 3.91916 2.02383 3.71565L8.09563 9.83114ZM19.9752 15.9465L13.9034 9.83114L19.9752 3.71578C20.094 3.91931 20.1573 4.15561 20.1573 4.39794V15.2645C20.1573 15.5068 20.094 15.743 19.9752 15.9465ZM19.5994 3.30689L12.1056 10.8445C11.4806 11.4801 10.5181 11.4801 9.89325 10.8445L2.40965 3.30689C2.58465 3.19392 2.78465 3.13441 2.98777 3.13527H19.0112C19.2182 3.13182 19.4213 3.19133 19.5994 3.30689Z" fill="#222424"/>
</svg>
