<svg width="100" height="99" viewBox="0 0 100 99" fill="none" xmlns="http://www.w3.org/2000/svg">
<path d="M97.5 58.1004C97.5 50.8004 92.9 44.7004 86.5 42.3004V39.4004C86.5 19.3004 70.1 2.90039 50 2.90039C29.9 2.90039 13.5 19.3004 13.5 39.4004V42.3004C7.1 44.7004 2.5 50.9004 2.5 58.1004C2.5 67.4004 10.1 75.0004 19.4 75.0004H25.5C27.1 75.0004 28.4 73.7004 28.4 72.1004V44.1004C28.4 42.5004 27.1 41.2004 25.5 41.2004H22.7V39.4004C22.7 24.3004 35 12.1004 50 12.1004C65 12.1004 77.3 24.4004 77.3 39.4004V41.2004H74.5C72.9 41.2004 71.6 42.5004 71.6 44.1004V72.1004C71.6 73.7004 72.9 75.0004 74.5 75.0004H75.8C72.9 81.7004 66.5 86.4004 58.9 87.0004C58.5 85.1004 56.8 83.6004 54.7 83.6004H45.2C42.8 83.6004 40.9 85.5004 40.9 87.9004V92.8004C40.9 95.2004 42.8 97.1004 45.2 97.1004H54.7C56.8 97.1004 58.6 95.6004 58.9 93.5004C70.2 92.9004 79.6 85.2004 82.8 74.8004C91.1 73.7004 97.5 66.6004 97.5 58.1004Z" fill="white"/>
</svg>
