<svg width="64" height="64" viewBox="0 0 64 64" fill="none" xmlns="http://www.w3.org/2000/svg">
<circle cx="32" cy="32" r="31.5" fill="#FCBF4D" stroke="#101010"/>
<path d="M31.5051 48.5C31.3406 48.5009 31.1775 48.4694 31.0252 48.4072C30.8729 48.345 30.7344 48.2533 30.6176 48.1375L19.3676 36.8875C19.1322 36.6521 19 36.3329 19 36C19 35.6671 19.1322 35.3479 19.3676 35.1125C19.603 34.8771 19.9222 34.7449 20.2551 34.7449C20.588 34.7449 20.9072 34.8771 21.1426 35.1125L31.5051 45.4875L41.8676 35.1125C41.9842 34.9959 42.1225 34.9035 42.2748 34.8404C42.4271 34.7773 42.5903 34.7449 42.7551 34.7449C42.9199 34.7449 43.0831 34.7773 43.2354 34.8404C43.3877 34.9035 43.5261 34.9959 43.6426 35.1125C43.7592 35.229 43.8516 35.3674 43.9147 35.5197C43.9778 35.672 44.0102 35.8352 44.0102 36C44.0102 36.1648 43.9778 36.328 43.9147 36.4803C43.8516 36.6326 43.7592 36.7709 43.6426 36.8875L32.3926 48.1375C32.2758 48.2533 32.1373 48.345 31.985 48.4072C31.8327 48.4694 31.6696 48.5009 31.5051 48.5Z" fill="#101010"/>
<path d="M31.5049 48.5C31.1734 48.5 30.8554 48.3683 30.621 48.1339C30.3866 47.8995 30.2549 47.5815 30.2549 47.25V17.25C30.2549 16.9185 30.3866 16.6005 30.621 16.3661C30.8554 16.1317 31.1734 16 31.5049 16C31.8364 16 32.1543 16.1317 32.3888 16.3661C32.6232 16.6005 32.7549 16.9185 32.7549 17.25V47.25C32.7549 47.5815 32.6232 47.8995 32.3888 48.1339C32.1543 48.3683 31.8364 48.5 31.5049 48.5Z" fill="#101010"/>
</svg>
