<svg width="78" height="79" viewBox="0 0 78 79" fill="none" xmlns="http://www.w3.org/2000/svg">
<path fill-rule="evenodd" clip-rule="evenodd" d="M38.4556 12.0018C53.3424 11.8658 67.9968 19.3697 72.6101 33.4265C77.2344 47.5172 69.8201 62.1051 57.766 70.8422C45.6198 79.6461 29.2745 82.4027 17.0627 73.6887C4.67664 64.8503 1.21618 48.3547 6.1827 34.0337C10.8823 20.4821 24.0238 12.1337 38.4556 12.0018Z" fill="#EFFFF4"/>
<path d="M41.3893 3.46604L52.3942 25.2687L73.5752 27.367C74.0794 27.4089 74.5611 27.5944 74.9632 27.9016C75.3653 28.2088 75.6709 28.6247 75.8439 29.1002C76.017 29.5756 76.0501 30.0907 75.9395 30.5845C75.8288 31.0782 75.5791 31.5299 75.2197 31.8861L57.7881 49.1631L64.2509 72.6398C64.3832 73.1378 64.3687 73.6633 64.2093 74.1533C64.05 74.6432 63.7524 75.0767 63.3525 75.4015C62.9526 75.7264 62.4674 75.9288 61.9552 75.9844C61.443 76.04 60.9256 75.9464 60.4653 75.715L38.9916 65.0817L17.5475 75.7018C17.0872 75.9333 16.5698 76.0268 16.0576 75.9712C15.5454 75.9156 15.0602 75.7132 14.6603 75.3884C14.2604 75.0635 13.9628 74.63 13.8035 74.1401C13.6441 73.6502 13.6296 73.1246 13.7619 72.6266L20.2247 49.1499L2.77997 31.8729C2.42059 31.5168 2.1708 31.0651 2.06016 30.5713C1.94953 30.0776 1.98268 29.5625 2.15571 29.087C2.32874 28.6115 2.63438 28.1956 3.03646 27.8884C3.43854 27.5813 3.92022 27.3958 4.42446 27.3539L25.6055 25.2555L36.5939 3.46604C36.8199 3.02466 37.1634 2.65423 37.5864 2.39555C38.0095 2.13688 38.4957 2 38.9916 2C39.4875 2 39.9737 2.13688 40.3968 2.39555C40.8198 2.65423 41.1633 3.02466 41.3893 3.46604V3.46604Z" stroke="#47CD70" stroke-width="3" stroke-linecap="round" stroke-linejoin="round"/>
</svg>
