<svg width="72" height="72" viewBox="0 0 72 72" fill="none" xmlns="http://www.w3.org/2000/svg">
<path d="M67.5 42C67.5 41.4885 67.5 39.495 67.5 39C67.5 30.3645 61.9515 22.8615 53.8425 19.0905C50.2035 10.5795 40.9035 4.5 30 4.5C15.939 4.5 4.5 14.5935 4.5 27C4.5 27.5535 4.5 29.544 4.5 30C4.5 36.6105 7.8345 42.876 13.5105 47.133C11.835 51.1875 9.6825 52.743 9.663 52.755C9.252 53.031 9.0135 53.484 9 53.9595C8.9955 54.1185 8.982 56.544 9 57.054C9.0045 57.1815 9.0255 57.3105 9.0645 57.4365C9.2565 58.068 9.84 58.5 10.5 58.5C14.4975 58.5 18.156 56.925 21.192 54.963C25.815 60.723 33.4095 64.5 42 64.5C43.623 64.5 45.2865 64.35 46.9575 64.056C50.433 67.1085 55.6185 70.5 61.5 70.5C62.1555 70.5 62.7285 70.071 62.925 69.447C62.973 69.2955 62.994 69.141 62.9925 68.988C62.988 68.508 62.988 66.1755 62.9925 66.039C63.006 65.541 62.769 65.0565 62.3475 64.7625C62.3205 64.7445 60.1665 63.1875 58.4895 59.133C64.1655 54.876 67.5 48.6105 67.5 42Z" fill="#15130E"/>
<path d="M42 18C55.2555 18 66 27.402 66 39C66 46.0485 62.019 52.269 55.9305 56.079C57.7125 63.4575 61.5 66 61.5 66C55.578 66 50.3205 62.1105 47.406 59.445C45.666 59.796 43.8615 60 42 60C28.7445 60 18 50.598 18 39C18 27.402 28.7445 18 42 18Z" fill="white"/>
<path d="M61.5 67.5C55.6185 67.5 50.433 64.1085 46.9575 61.0575C45.285 61.3515 43.6215 61.5 42 61.5C27.939 61.5 16.5 51.4065 16.5 39C16.5 26.5935 27.939 16.5 42 16.5C56.061 16.5 67.5 26.5935 67.5 39C67.5 45.9285 63.8415 52.4865 57.657 56.7405C59.3325 62.5995 62.316 64.74 62.3475 64.7625C62.8845 65.1375 63.123 65.8215 62.9265 66.447C62.73 67.0725 62.1555 67.5 61.5 67.5ZM47.406 57.945C47.7765 57.945 48.1395 58.083 48.4185 58.338C50.328 60.0855 53.6955 62.73 57.621 63.903C56.4855 62.2005 55.278 59.7675 54.4725 56.43C54.3195 55.803 54.5865 55.149 55.134 54.8055C60.999 51.138 64.5 45.228 64.5 39C64.5 28.248 54.4065 19.5 42 19.5C29.5935 19.5 19.5 28.248 19.5 39C19.5 49.752 29.5935 58.5 42 58.5C43.6635 58.5 45.3825 58.323 47.1105 57.975C47.2095 57.9555 47.3085 57.945 47.406 57.945Z" fill="#15130E"/>
<path d="M30 6C16.7445 6 6 15.402 6 27C6 34.0485 9.981 40.269 16.0695 44.079C14.2875 51.4575 10.5 54 10.5 54C16.422 54 21.6795 50.1105 24.594 47.445C26.334 47.796 28.1385 48 30 48C43.2555 48 54 38.598 54 27C54 15.402 43.2555 6 30 6Z" fill="white"/>
<path d="M10.5 55.5C9.84 55.5 9.258 55.068 9.0645 54.438C8.8725 53.8065 9.1155 53.124 9.663 52.755C9.6855 52.74 12.6675 50.5995 14.343 44.7405C8.1585 40.4865 4.5 33.9285 4.5 27C4.5 14.5935 15.939 4.5 30 4.5C44.061 4.5 55.5 14.5935 55.5 27C55.5 39.4065 44.061 49.5 30 49.5C28.3785 49.5 26.715 49.35 25.0425 49.056C21.5685 52.1085 16.383 55.5 10.5 55.5ZM30 7.5C17.5935 7.5 7.5 16.248 7.5 27C7.5 33.228 11.001 39.138 16.8645 42.807C17.412 43.149 17.679 43.803 17.526 44.4315C16.7205 47.769 15.513 50.202 14.3775 51.9045C18.303 50.7315 21.669 48.0855 23.58 46.3395C23.931 46.017 24.414 45.876 24.8895 45.9765C26.616 46.323 28.3365 46.5 30 46.5C42.4065 46.5 52.5 37.752 52.5 27C52.5 16.248 42.4065 7.5 30 7.5Z" fill="#15130E"/>
<path d="M40.5 22.5H19.5C18.6705 22.5 18 23.172 18 24C18 24.828 18.6705 25.5 19.5 25.5H40.5C41.3295 25.5 42 24.828 42 24C42 23.172 41.3295 22.5 40.5 22.5Z" fill="#15130E"/>
<path d="M33 30H19.5C18.6705 30 18 30.672 18 31.5C18 32.328 18.6705 33 19.5 33H33C33.8295 33 34.5 32.328 34.5 31.5C34.5 30.672 33.8295 30 33 30Z" fill="#15130E"/>
</svg>
