<svg width="32" height="32" viewBox="0 0 32 32" fill="none" xmlns="http://www.w3.org/2000/svg">
<g clip-path="url(#clip0_5515_1858)">
<path d="M32 18V14H23.718C23.53 13.272 23.242 12.592 22.87 11.96L25.9 8.93L23.072 6.1L20.04 9.132C19.408 8.76 18.728 8.472 18 8.282V0H14V8.282C13.272 8.472 12.592 8.76 11.96 9.132L8.928 6.1L6.1 8.928L9.132 11.96C8.76 12.592 8.472 13.272 8.282 14H0V18H8.282C8.47 18.728 8.758 19.408 9.13 20.04L6.1 23.072L8.928 25.9L11.958 22.87C12.59 23.242 13.27 23.53 13.998 23.718V32H17.998V23.718C18.726 23.53 19.406 23.242 20.038 22.87L23.068 25.9L25.896 23.072L22.866 20.042C23.238 19.41 23.526 18.73 23.714 18.002H32V18ZM16 20C13.79 20 12 18.21 12 16C12 13.79 13.79 12 16 12C18.21 12 20 13.79 20 16C20 18.21 18.21 20 16 20Z" fill="#52B5E9"/>
</g>
<defs>
<clipPath id="clip0_5515_1858">
<rect width="32" height="32" fill="white"/>
</clipPath>
</defs>
</svg>
