<svg xmlns="http://www.w3.org/2000/svg" xmlns:xlink="http://www.w3.org/1999/xlink" width="33px" height="33px" viewBox="0 0 33 33"><!-- Generator: Sketch 55.2 (78181) - https://sketchapp.com --><title>bx-expand</title><desc>Created with Sketch.</desc><g id="Page-1" stroke="none" stroke-width="1" fill="none" fill-rule="evenodd"><g id="Why-Choose-Us" transform="translate(-295.000000, -512.000000)" fill="#FFFFFF" fill-rule="nonzero"><g id="1" transform="translate(265.000000, 482.000000)"><g id="Group"><g id="bx-expand" transform="translate(30.851280, 30.851280)"><path d="M22.4598927,11.8547651 L28.0664701,6.24818766 L31.8153827,9.99710026 L31.8153827,0 L21.8182825,0 L25.5671951,3.7489126 L19.9606176,9.35549004 L22.4598927,11.8547651 Z M25.5671951,28.0664701 L21.8182825,31.8153827 L31.8153827,31.8153827 L31.8153827,21.8182825 L28.0664701,25.5671951 L22.4598927,19.9606176 L19.9606176,22.4598927 L25.5671951,28.0664701 Z M9.35549004,19.9606176 L3.7489126,25.5671951 L0,21.8182825 L0,31.8153827 L9.99710026,31.8153827 L6.24818766,28.0664701 L11.8547651,22.4598927 L9.35549004,19.9606176 Z M6.24818766,3.7489126 L9.99710026,0 L0,0 L0,9.99710026 L3.7489126,6.24818766 L9.35549004,11.8547651 L11.8547651,9.35549004 L6.24818766,3.7489126 Z" id="Shape"></path></g></g></g></g></g></svg>