<svg width="111" height="107" viewBox="0 0 111 107" fill="none" xmlns="http://www.w3.org/2000/svg">
<g clip-path="url(#clip0_121_1777)">
<path d="M30.0627 67.0625C30.0627 68.339 31.0987 69.375 32.3752 69.375H78.6252C79.9017 69.375 80.9377 68.339 80.9377 67.0625C80.9377 52.7897 74.8189 42.4945 64.778 38.6603C68.9451 35.7327 71.6877 30.9088 71.6877 25.4375C71.6877 16.5112 64.4265 9.24997 55.5002 9.24997C46.574 9.24997 39.3127 16.5112 39.3127 25.4375C39.3127 30.9088 42.0554 35.7327 46.2225 38.6603C36.1816 42.4945 30.0627 52.7897 30.0627 67.0625Z" fill="white"/>
<path d="M33.3102 88.4208H29.3327L28.1025 84.6421C27.4827 82.7366 24.3239 82.7366 23.7041 84.6421L22.4739 88.4208H18.501C17.4974 88.4208 16.6094 89.0683 16.2995 90.021C15.9896 90.9738 16.3272 92.019 17.1412 92.6064L20.3556 94.9466L19.1254 98.7253C18.8155 99.678 19.1531 100.723 19.9671 101.311C20.7765 101.898 21.8772 101.898 22.682 101.311L25.9056 98.975L29.1246 101.306C29.527 101.607 30.0034 101.75 30.4797 101.75C30.9561 101.75 31.4371 101.602 31.8395 101.306C32.6489 100.719 32.9911 99.6734 32.6812 98.7206L31.451 94.942L34.6654 92.6018C35.4747 92.0144 35.817 90.9691 35.5071 90.0164C35.1972 89.0636 34.3092 88.4208 33.3102 88.4208Z" fill="white"/>
<path d="M62.905 88.2128H58.9321L57.7018 84.4341C57.0821 82.5286 53.9232 82.5286 53.3035 84.4341L52.0732 88.2128H48.1003C47.0967 88.2128 46.2087 88.8603 45.8988 89.813C45.589 90.7658 45.9266 91.811 46.7406 92.3984L49.955 94.7386L48.7247 98.5173C48.4148 99.47 48.7525 100.515 49.5665 101.103C50.3758 101.69 51.4766 101.69 52.2813 101.103L55.5003 98.767L58.7193 101.098C59.1217 101.389 59.5981 101.542 60.0745 101.542C60.5508 101.542 61.0318 101.394 61.4342 101.098C62.2436 100.511 62.5858 99.4654 62.276 98.5126L61.0457 94.734L64.2601 92.3937C65.0695 91.8064 65.4117 90.7611 65.1018 89.8084C64.792 88.8556 63.904 88.2128 62.905 88.2128Z" fill="white"/>
<path d="M94.7031 89.813C94.3933 88.8603 93.5053 88.2128 92.5016 88.2128H88.5241L87.2939 84.4341C86.6741 82.5286 83.5153 82.5286 82.8955 84.4341L81.6653 88.2128H77.6924C76.6888 88.2128 75.8008 88.8603 75.4909 89.813C75.181 90.7658 75.5186 91.811 76.3326 92.3984L79.547 94.7386L78.3168 98.5173C78.0069 99.47 78.3445 100.515 79.1585 101.103C79.9679 101.69 81.0686 101.69 81.8734 101.103L85.0924 98.7716L88.3114 101.103C88.7138 101.399 89.1901 101.547 89.6665 101.547C90.1429 101.547 90.6239 101.399 91.0263 101.103C91.8356 100.515 92.1779 99.47 91.868 98.5173L90.6378 94.7386L93.8521 92.3984C94.6708 91.811 95.0084 90.7658 94.7031 89.813Z" fill="white"/>
</g>
<defs>
<clipPath id="clip0_121_1777">
<rect width="111" height="107" fill="white"/>
</clipPath>
</defs>
</svg>
