<svg width="39" height="39" viewBox="0 0 39 39" fill="none" xmlns="http://www.w3.org/2000/svg">
<path fill-rule="evenodd" clip-rule="evenodd" d="M10.23 26.3387C9.93665 26.3387 9.64148 26.2452 9.39215 26.0545C8.79082 25.5907 8.67715 24.7272 9.14098 24.1259L14.6281 16.9942C14.8518 16.7027 15.1836 16.5139 15.5466 16.468C15.917 16.4204 16.28 16.523 16.5678 16.7522L21.7378 20.813L26.2606 14.9775C26.7263 14.3744 27.588 14.2625 28.1893 14.7319C28.7906 15.1975 28.9006 16.061 28.435 16.6605L23.0633 23.5905C22.8396 23.8802 22.5096 24.069 22.1466 24.113C21.78 24.1625 21.417 24.0562 21.1273 23.8307L15.961 19.7717L11.3208 25.8015C11.0495 26.1535 10.6425 26.3387 10.23 26.3387" fill="#7147E9"/>
<mask id="mask0_79_2082" style="mask-type:luminance" maskUnits="userSpaceOnUse" x="28" y="0" width="11" height="11">
<path fill-rule="evenodd" clip-rule="evenodd" d="M28.7083 0.666992H38.5056V10.466H28.7083V0.666992Z" fill="white"/>
</mask>
<g mask="url(#mask0_79_2082)">
<path fill-rule="evenodd" clip-rule="evenodd" d="M33.6069 3.41699C32.4226 3.41699 31.4583 4.37949 31.4583 5.56566C31.4583 6.74999 32.4226 7.71616 33.6069 7.71616C34.7913 7.71616 35.7556 6.74999 35.7556 5.56566C35.7556 4.37949 34.7913 3.41699 33.6069 3.41699M33.6069 10.4662C30.9064 10.4662 28.7083 8.26799 28.7083 5.56566C28.7083 2.86333 30.9064 0.666992 33.6069 0.666992C36.3093 0.666992 38.5056 2.86333 38.5056 5.56566C38.5056 8.26799 36.3093 10.4662 33.6069 10.4662" fill="#7147E9"/>
</g>
<mask id="mask1_79_2082" style="mask-type:luminance" maskUnits="userSpaceOnUse" x="0" y="2" width="38" height="37">
<path fill-rule="evenodd" clip-rule="evenodd" d="M0.666748 2.21045H37.0802V38.6223H0.666748V2.21045Z" fill="white"/>
</mask>
<g mask="url(#mask1_79_2082)">
<path fill-rule="evenodd" clip-rule="evenodd" d="M26.7603 38.6223H10.9863C4.8135 38.6223 0.666504 34.2864 0.666504 27.8331V13.0161C0.666504 6.55362 4.8135 2.21045 10.9863 2.21045H24.311C25.07 2.21045 25.686 2.82645 25.686 3.58545C25.686 4.34445 25.07 4.96045 24.311 4.96045H10.9863C6.38834 4.96045 3.4165 8.12112 3.4165 13.0161V27.8331C3.4165 32.7923 6.31684 35.8723 10.9863 35.8723H26.7603C31.3583 35.8723 34.3302 32.7171 34.3302 27.8331V14.9283C34.3302 14.1693 34.9462 13.5533 35.7052 13.5533C36.4642 13.5533 37.0802 14.1693 37.0802 14.9283V27.8331C37.0802 34.2864 32.9332 38.6223 26.7603 38.6223" fill="#7147E9"/>
</g>
</svg>
