<svg width="60" height="60" viewBox="0 0 60 60" fill="none" xmlns="http://www.w3.org/2000/svg">
<g id="security" clip-path="url(#clip0_611_808)">
<path id="Vector" d="M44.0975 34.4766C46.7452 29.5211 47.5243 23.7792 46.2928 18.2973C45.0612 12.8154 41.9011 7.95848 37.3882 4.61162C32.8753 1.26476 27.3101 -0.349221 21.7068 0.0637979C16.1035 0.476817 10.835 2.88934 6.86164 6.86173C2.89425 10.8365 0.486054 16.1038 0.0754509 21.7047C-0.335152 27.3056 1.27914 32.8678 4.62445 37.3786C7.96977 41.8895 12.8237 45.0491 18.3026 46.2823C23.7815 47.5155 29.521 46.7402 34.4764 44.0977L48.3923 58.0137C49.6715 59.2732 51.3967 59.9761 53.192 59.9692C54.9872 59.9622 56.7069 59.246 57.9763 57.9766C59.2458 56.7073 59.9621 54.9876 59.9691 53.1924C59.9762 51.3972 59.2734 49.6719 58.014 48.3926L44.0975 34.4766ZM8.85032 38.004C6.92183 36.0928 5.38984 33.8196 4.34234 31.3148C3.29483 28.81 2.75243 26.1229 2.74628 23.4079C2.74013 20.6929 3.27036 18.0034 4.30652 15.4938C5.34267 12.9843 6.86435 10.7042 8.78416 8.78436C10.704 6.86454 12.9841 5.34287 15.4937 4.30671C18.0032 3.27056 20.6927 2.74033 23.4077 2.74648C26.1227 2.75262 28.8098 3.29502 31.3146 4.34253C33.8194 5.39004 36.0927 6.92203 38.0038 8.85051C39.9322 10.7616 41.4642 13.0348 42.5117 15.5397C43.5592 18.0445 44.1016 20.7315 44.1078 23.4466C44.1139 26.1616 43.5837 28.8511 42.5476 31.3606C41.5114 33.8702 39.9897 36.1503 38.0699 38.0701C36.1501 39.9899 33.87 41.5116 31.3604 42.5478C28.8509 43.5839 26.1614 44.1141 23.4464 44.108C20.7313 44.1018 18.0443 43.5594 15.5395 42.5119C13.0346 41.4644 10.7614 39.9324 8.85032 38.004ZM56.0248 56.025C55.2758 56.7724 54.2609 57.1921 53.2029 57.1921C52.1448 57.1921 51.1299 56.7724 50.3809 56.025L36.9325 42.5766C39.1182 41.0264 41.0263 39.1183 42.5765 36.9327L56.025 50.3811C56.7696 51.1315 57.1874 52.1459 57.1874 53.2031C57.1874 54.2602 56.7696 55.2746 56.025 56.025H56.0248ZM34.7091 12.9558C29.5177 13.3463 26.2389 12.0057 24.6889 8.85684C24.5729 8.62116 24.3933 8.42267 24.1703 8.28386C23.9473 8.14505 23.6898 8.07148 23.4272 8.07148C23.1645 8.07148 22.9071 8.14505 22.684 8.28386C22.461 8.42267 22.2814 8.62116 22.1654 8.85684C20.6156 12.0057 17.3381 13.3469 12.1459 12.9558C11.7957 12.9295 11.4483 13.035 11.1719 13.2517C10.8955 13.4683 10.7102 13.7805 10.6522 14.1269C9.73602 19.623 10.5928 24.9639 13.1301 29.5713C15.4036 33.7 18.8619 36.9306 22.8673 38.6671C23.0439 38.7437 23.2343 38.7832 23.4267 38.7832C23.6192 38.7832 23.8096 38.7437 23.9861 38.6671C27.9915 36.9304 31.4496 33.7 33.7234 29.5713C36.2607 24.9639 37.1175 19.6233 36.2013 14.1269C36.1441 13.7805 35.9591 13.4681 35.6829 13.2513C35.4067 13.0345 35.0592 12.9291 34.7091 12.9558ZM23.4272 35.8308C17.5304 32.9832 12.1186 25.7175 13.2528 15.8269C17.8654 15.9363 21.2759 14.6746 23.4272 12.0667C25.493 14.5711 28.7177 15.8336 33.0568 15.8335C33.2365 15.8335 33.4181 15.8313 33.6016 15.8269C34.7357 25.7175 29.324 32.9822 23.4272 35.8304V35.8308ZM29.4146 20.7645L23.8753 27.8261C23.7567 27.9774 23.6084 28.1028 23.4395 28.1945C23.2705 28.2862 23.0846 28.3424 22.8931 28.3594C22.8516 28.3631 22.8102 28.3649 22.7689 28.3649C22.4235 28.3649 22.0902 28.2378 21.8325 28.0079L17.6097 24.2388C17.3381 23.9887 17.1757 23.6417 17.1576 23.2729C17.1396 22.9041 17.2673 22.543 17.5133 22.2676C17.7592 21.9922 18.1036 21.8245 18.4721 21.8008C18.8406 21.7772 19.2036 21.8994 19.4827 22.1411L22.5873 24.9122L27.2018 19.0294C27.4325 18.7375 27.7695 18.5489 28.139 18.5049C28.5084 18.461 28.8803 18.5652 29.173 18.7949C29.4658 19.0245 29.6556 19.3609 29.7009 19.7302C29.7462 20.0995 29.6432 20.4717 29.4146 20.7653V20.7645Z" fill="#6E44EA"/>
</g>
<defs>
<clipPath id="clip0_611_808">
<rect width="60" height="60" fill="white"/>
</clipPath>
</defs>
</svg>
