<svg width="78" height="63" viewBox="0 0 78 63" fill="none" xmlns="http://www.w3.org/2000/svg">
<path d="M66.6598 0.292452H10.9319C5.01083 0.292452 0.48291 4.82037 0.48291 10.7414V52.5373C0.48291 58.4584 5.01083 62.9863 10.9319 62.9863H66.6598C72.5809 62.9863 77.1088 58.4584 77.1088 52.5373V10.7414C77.1088 4.82037 72.5809 0.292452 66.6598 0.292452ZM10.932 7.25841H66.6599C68.0531 7.25841 69.098 7.95498 69.7946 9.34821L38.796 30.9427L7.79736 9.34821C8.49393 7.95498 9.53883 7.25841 10.9321 7.25841H10.932ZM66.6598 56.0204H10.9319C8.84209 56.0204 7.44887 54.6271 7.44887 52.5373V17.3591L36.706 37.9088C37.4026 38.2571 38.0992 38.6053 38.7958 38.6053C39.4924 38.6053 40.189 38.257 40.8856 37.9088L70.1427 17.3591V52.5373C70.1427 54.6271 68.7495 56.0204 66.6597 56.0204H66.6598Z" fill="white"/>
</svg>
