<svg width="27" height="28" viewBox="0 0 27 28" fill="none" xmlns="http://www.w3.org/2000/svg">
<path d="M21.9304 10.4652C21.9304 15.1399 13.4652 26.4551 13.4652 26.4551C13.4652 26.4551 5 15.1399 5 10.4652C5 5.79053 8.79053 2 13.4652 2C18.1399 2 21.9304 5.79053 21.9304 10.4652Z" stroke="#090909" stroke-width="1.5" stroke-miterlimit="10" stroke-linejoin="round"/>
<path d="M13.4655 7.23096C12.6769 7.23096 11.9206 7.54421 11.363 8.10181C10.8054 8.65941 10.4922 9.41568 10.4922 10.2042C10.4922 10.9928 10.8054 11.7491 11.363 12.3067C11.9206 12.8643 12.6769 13.1775 13.4655 13.1775C14.254 13.1775 15.0103 12.8643 15.5679 12.3067C16.1255 11.7491 16.4388 10.9928 16.4388 10.2042C16.4388 9.41568 16.1255 8.65941 15.5679 8.10181C15.0103 7.54421 14.254 7.23096 13.4655 7.23096Z" stroke="#C9A969" stroke-width="1.5"/>
</svg>
