<svg width="72" height="72" viewBox="0 0 72 72" fill="none" xmlns="http://www.w3.org/2000/svg">
<path d="M5.98656 37.479L5.98206 34.4805H65.9926L65.9821 37.479C65.9821 54.039 52.5436 67.4775 35.9836 67.4775C19.4236 67.4775 5.98656 54.039 5.98656 37.479Z" fill="#15130E"/>
<path fill-rule="evenodd" clip-rule="evenodd" d="M35.9865 5.98047C51.7184 5.98047 64.4865 18.7485 64.4865 34.4805C64.4865 50.2125 51.7184 62.9805 35.9865 62.9805C20.2544 62.9805 7.48645 50.2125 7.48645 34.4805C7.48645 18.7485 20.2544 5.98047 35.9865 5.98047Z" fill="white"/>
<path fill-rule="evenodd" clip-rule="evenodd" d="M5.98645 34.4805C5.98645 17.9205 19.4249 4.48047 35.9865 4.48047C52.5465 4.48047 65.9865 17.9205 65.9865 34.4805C65.9865 51.042 52.5465 64.4805 35.9865 64.4805C19.4249 64.4805 5.98645 51.0435 5.98645 34.4805ZM62.9865 34.4805C62.9865 19.578 50.889 7.48047 35.9865 7.48047C21.0825 7.48047 8.98645 19.578 8.98645 34.4805C8.98645 49.3845 21.0825 61.4805 35.9865 61.4805C50.889 61.4805 62.9865 49.3845 62.9865 34.4805Z" fill="#15130E"/>
<path fill-rule="evenodd" clip-rule="evenodd" d="M14.9985 34.4956C14.9985 22.9081 24.4065 13.4971 35.997 13.4971C47.5845 13.4971 56.9955 22.9066 56.9955 34.4956C56.9955 46.0861 47.586 55.4941 35.997 55.4941C24.4065 55.4926 14.9985 46.0846 14.9985 34.4956ZM53.9955 34.4956C53.9955 24.5656 45.927 16.4971 35.997 16.4971C26.0655 16.4971 17.9985 24.5656 17.9985 34.4956C17.9985 44.4271 26.064 52.4941 35.997 52.4941C45.927 52.4926 53.9955 44.4271 53.9955 34.4956Z" fill="#15130E"/>
<path fill-rule="evenodd" clip-rule="evenodd" d="M32.8125 37.6785C31.0545 35.922 31.0545 33.072 32.8125 31.317L46.3125 17.817C48.069 16.059 50.919 16.059 52.674 17.817C54.432 19.5735 54.432 22.4235 52.674 24.1785L39.174 37.6785C37.419 39.4365 34.569 39.4365 32.8125 37.6785Z" fill="white"/>
<path fill-rule="evenodd" clip-rule="evenodd" d="M35.997 29.9971C33.5145 29.9971 31.4985 32.0131 31.4985 34.4956C31.4985 36.9781 33.5145 38.9941 35.997 38.9941C38.4795 38.9941 40.4955 36.9781 40.4955 34.4956C40.4955 32.0131 38.4795 29.9971 35.997 29.9971Z" fill="#15130E"/>
<path fill-rule="evenodd" clip-rule="evenodd" d="M34.9335 35.559C34.347 34.9725 34.347 34.023 34.9335 33.4365L48.4335 19.9365C49.02 19.35 49.9695 19.35 50.556 19.9365C51.1425 20.523 51.1425 21.4725 50.556 22.059L37.056 35.559C36.4695 36.1455 35.5185 36.1455 34.9335 35.559Z" fill="#15130E"/>
</svg>
