<svg width="18" height="20" viewBox="0 0 18 20" fill="none" xmlns="http://www.w3.org/2000/svg">
<path d="M9.00012 1C4.02956 1 -3.43621e-05 5 1.00012 10C1.66541 13.3259 4.98533 16.4306 7.1339 18.1367C7.83614 18.6944 8.18726 18.9732 8.73248 19.0468C8.88364 19.0672 9.11662 19.0672 9.26777 19.0468C9.813 18.9732 10.1641 18.6944 10.8664 18.1368C13.015 16.4306 16.335 13.3259 17.0001 10C18 5 13.9707 1 9.00012 1Z" stroke="#0B0C0E" stroke-width="1.5" stroke-linejoin="round"/>
<path d="M12 9.15C12 10.8069 10.6569 12.15 9 12.15C7.34315 12.15 6 10.8069 6 9.15C6 7.49315 7.34315 6.15 9 6.15C10.6569 6.15 12 7.49315 12 9.15Z" stroke="#0B0C0E" stroke-width="1.5" stroke-linejoin="round"/>
</svg>
