<?xml version="1.0" encoding="UTF-8"?> <svg xmlns="http://www.w3.org/2000/svg" width="74" height="50" viewBox="0 0 74 50" fill="none"><rect width="74" height="50" fill="#FAF4E8"></rect><path d="M54.75 8.33325H19.25C18.6977 8.33325 18.25 8.78097 18.25 9.33325V33.3332V41.4585C18.25 41.5424 18.347 41.589 18.4125 41.5366L26.0625 35.4166H54.75C55.3023 35.4166 55.75 34.9689 55.75 34.4166V9.33325C55.75 8.78097 55.3023 8.33325 54.75 8.33325Z" stroke="#DFA245" stroke-width="2"></path><mask id="mask0" maskUnits="userSpaceOnUse" x="14" y="2" width="24" height="46"><rect width="22.9167" height="45.8333" transform="matrix(-1 0 0 1 37 2.08325)" fill="black"></rect></mask><g mask="url(#mask0)"><path d="M54.75 8.33325H19.25C18.6977 8.33325 18.25 8.78097 18.25 9.33325V33.3332V41.4585C18.25 41.5424 18.347 41.589 18.4125 41.5366L26.0625 35.4166H54.75C55.3023 35.4166 55.75 34.9689 55.75 34.4166V9.33325C55.75 8.78097 55.3023 8.33325 54.75 8.33325Z" stroke="#595959" stroke-width="2"></path></g></svg> 