<?xml version="1.0"?>
<svg xmlns="http://www.w3.org/2000/svg" viewBox="0 0 64 64" width="512" height="512"><g id="Size_Shirt" data-name="Size Shirt"><path d="M61.293,41.293,59,43.5859V8.4141l2.293,2.2929a1,1,0,0,0,1.414-1.414L58.7079,5.2938a1.0033,1.0033,0,0,0-1.4158,0L53.293,9.293a1,1,0,0,0,1.414,1.414L57,8.4141V43.5859L54.707,41.293a1,1,0,0,0-1.414,1.414l3.9991,3.9992a1.0033,1.0033,0,0,0,1.4158,0L62.707,42.707a1,1,0,0,0-1.414-1.414Z"/><path d="M48.923,53.6181a.9992.9992,0,0,0-.2166-.3258L44.707,49.293a1,1,0,0,0-1.414,1.414L45.5859,53H6.4141L8.707,50.707a1,1,0,0,0-1.414-1.414l-4,4a1.0034,1.0034,0,0,0,0,1.4146l4,4a1,1,0,0,0,1.414-1.414L6.4141,55H45.5859L43.293,57.293a1,1,0,0,0,1.414,1.414l3.9994-3.9993a1.0033,1.0033,0,0,0,.2166-1.09Z"/><path d="M50.3809,12.0752,33.39,5.0789l-.0011,0A1.254,1.254,0,0,0,33,5H19a1.2413,1.2413,0,0,0-.3891.0786h0L1.6191,12.0752a1,1,0,0,0-.5839,1.188l3,11a1.0011,1.0011,0,0,0,1.3159.6733L12,22.4429V46a1,1,0,0,0,1,1H39a1,1,0,0,0,1-1V22.4429l6.6484,2.4936a1.0011,1.0011,0,0,0,1.3164-.6733l3-11A1.0006,1.0006,0,0,0,50.3809,12.0752ZM31.91,7A5.9925,5.9925,0,0,1,20.09,7ZM46.3242,22.6782l-6.9726-2.6147A1.0007,1.0007,0,0,0,38,21V45H14V21a1,1,0,0,0-1.3511-.9365L5.6763,22.6782l-2.479-9.09L18.13,7.44a8.0009,8.0009,0,0,0,15.74,0l14.9326,6.1485Z"/></g></svg>
