<svg width="410" height="410" viewBox="0 0 410 410" fill="none" xmlns="http://www.w3.org/2000/svg">
<g opacity="0.3">
<mask id="mask0" mask-type="alpha" maskUnits="userSpaceOnUse" x="0" y="0" width="410" height="410">
<circle cx="204.58" cy="204.58" r="203.477" fill="#C4C4C4" stroke="#C9A969" stroke-width="2.20625"/>
</mask>
<g mask="url(#mask0)">
<path d="M775.274 -234.521C779.59 -228.747 783.702 -222.856 788.309 -217.228C794.404 -209.792 801.636 -203.026 809.772 -196.961C817.296 -191.332 825.199 -185.996 833.072 -180.659C849.957 -169.228 865.266 -156.718 876.494 -141.321C883.201 -132.135 888.77 -122.511 892.561 -112.363C895.157 -105.452 897.111 -98.3658 898.656 -91.2504C899.794 -85.9138 899.939 -80.4315 900.348 -75.0074C900.668 -70.5749 900.902 -66.1424 900.872 -61.7098C900.843 -55.4401 900.552 -49.1704 900.377 -42.9007C900.202 -36.0769 899.589 -29.224 899.939 -22.4002C900.493 -11.6396 902.01 -0.937393 906.501 9.29827C910.029 17.3177 914.841 24.783 922.889 30.6444C928.838 34.9895 935.895 37.2349 943.827 37.789C951.234 38.3139 958.7 38.4889 966.077 39.1304C974.622 39.8303 983.02 41.2301 990.69 44.4086C994.481 45.9834 998.272 47.7331 1001.54 49.9202C1010.64 56.0441 1017.02 63.801 1021.22 72.6952C1024.52 79.7232 1026.85 86.9552 1027.58 94.4497C1027.99 98.5323 1028.66 102.615 1028.54 106.697C1028.4 111.713 1027.58 116.7 1027.05 121.716C1026.56 126.294 1025.77 130.872 1025.51 135.451C1025.13 142.129 1024.9 148.836 1025.01 155.514C1025.07 158.984 1026.03 162.425 1026.5 165.866C1026.91 168.753 1027.17 171.64 1027.58 174.527C1028.07 177.968 1028.66 181.438 1029.15 184.879C1029.39 186.571 1029.56 188.262 1029.68 189.953C1029.88 192.782 1029.91 195.611 1030.23 198.41C1031.69 210.92 1031.34 223.489 1031.19 236.028C1031.14 241.54 1030.23 247.022 1029.68 252.505C1029.36 255.537 1029.07 258.57 1028.6 261.603C1027.96 265.831 1027.43 270.089 1026.44 274.288C1024.49 282.745 1021.95 291.114 1018.31 299.221C1013.38 310.157 1006.58 320.159 997.134 329.053C990.281 335.498 982.175 340.631 972.93 344.597C966.34 347.425 959.108 348.942 951.497 348.417C944.644 347.95 938.549 345.705 933.213 342.293C921.548 334.827 914.024 324.942 907.988 314.21C903.497 306.22 899.998 297.967 897.519 289.452C895.711 283.27 894.719 276.942 893.466 270.672C891.978 263.178 891.599 255.625 891.92 248.072C892.095 243.844 892.707 239.586 893.495 235.387C894.428 230.371 895.448 225.326 896.936 220.398C900.289 209.404 905.684 198.993 912.566 189.137C917.786 181.642 923.443 174.294 928.955 166.945C933.154 161.346 936.974 155.572 938.666 149.186C941.203 139.533 938.724 130.785 930.034 123.407C926.972 120.812 923.56 118.683 919.419 117.283C915.482 115.971 911.4 115.708 907.23 116.233C898.365 117.312 890.783 120.812 883.405 124.515C868.62 131.893 854.156 139.65 838.321 145.628C825.519 150.469 812.163 153.968 798.283 156.126C788.164 157.701 777.87 158.313 767.546 157.817C758.769 157.38 750.108 156.155 741.564 154.318C729.52 151.752 718.264 147.757 707.416 143.033C698.93 139.329 690.677 135.305 682.483 131.222C668.018 124.049 653.379 117.166 637.924 111.392C625.589 106.785 613.049 102.44 600.86 97.5991C589.312 92.9916 578.697 87.1593 568.724 80.5688C555.572 71.9079 544.111 61.8763 531.893 52.4572C525.273 47.3539 518.187 42.659 509.876 39.3929C504.102 37.1183 497.803 35.9227 491.358 36.2434C483.485 36.6225 476.136 38.693 469.371 41.9008C460.01 46.3333 451.757 51.9323 443.913 57.9396C439.13 61.6139 434.435 65.3174 429.857 69.1376C419.359 77.9735 408.977 86.8677 398.567 95.7328C392.851 100.603 387.135 105.502 381.332 110.314C369.989 119.703 358.732 129.21 347.097 138.396C333.508 149.127 319.335 159.392 305.863 170.182C293.731 179.922 283.379 190.799 274.981 202.843C267.136 214.07 260.517 225.705 255.734 237.953C253.226 244.369 251.01 250.842 250.398 257.579C250.048 261.516 249.26 265.482 249.435 269.418C249.698 275.571 250.864 281.637 253.022 287.615C258.242 302.108 267.778 314.706 279.646 326.225C287.083 333.457 295.423 340.018 305.804 344.655C312.745 347.746 320.064 349.583 328.084 349.758C337.911 349.991 347.184 348.096 356.166 345.238C367.422 341.651 378.533 337.831 389.556 333.836C402.854 329.053 415.976 323.979 429.857 320.363C436.506 318.643 443.271 317.418 450.241 316.689C464.676 315.231 478.061 317.855 491.067 322.463C506.785 328.004 521.366 335.148 535.596 342.759C545.978 348.3 555.922 354.307 565.312 360.898C578.26 369.996 589.37 380.378 598.877 391.809C603.047 396.795 606.692 402.074 610.6 407.206C611.154 407.906 611.999 408.489 612.699 409.131" stroke="#C9A969" stroke-width="2.20625" stroke-miterlimit="10" stroke-linecap="round" stroke-linejoin="round"/>
<path d="M727.041 -234.521C730.57 -230.088 734.011 -225.597 737.656 -221.223C745.53 -211.804 753.316 -202.355 761.539 -193.14C769.121 -184.654 778.045 -177.072 787.989 -170.278C797.408 -163.833 806.973 -157.534 816.334 -151.031C830.535 -141.146 842.404 -129.773 850.278 -115.979C854.652 -108.339 857.801 -100.378 859.551 -92.096C860.863 -85.943 861.855 -79.7608 861.709 -73.491C861.651 -71.3039 862.234 -69.1168 862.176 -66.9297C861.942 -60.66 861.534 -54.3903 861.155 -48.1206C860.834 -43.1048 860.338 -38.1182 860.134 -33.1024C859.843 -25.6954 859.522 -18.3176 859.668 -10.9106C859.755 -5.83651 860.601 -0.762418 861.184 4.31167C861.68 8.5984 862.176 12.9143 862.788 17.201C863.313 20.9337 864.013 24.6663 864.625 28.399C865.092 31.2277 865.675 34.0272 865.908 36.8558C866.375 42.7756 867.104 48.6954 866.929 54.6152C866.375 72.2578 859.522 88.1216 845.029 101.74C836.339 109.934 826.161 116.554 813.972 121.132C806.069 124.107 797.875 126.411 789.068 127.052C784.664 127.373 780.203 127.985 775.829 127.84C765.097 127.431 754.774 125.594 744.772 122.27C729.199 117.079 715.989 109.118 702.925 100.865C689.656 92.4959 676.301 84.1557 660.758 78.4984C653.905 76.0197 646.877 73.8325 639.82 71.7329C626.493 67.7378 612.962 64.1801 600.335 58.8436C590.828 54.8193 581.905 50.1243 573.886 44.4086C565.312 38.3139 557.118 31.8401 548.632 25.6578C540.554 19.7672 532.506 13.8475 522.678 9.79402C516.029 7.05284 509.089 5.30316 501.478 4.83657C491.825 4.25335 482.844 6.11968 474.533 9.47325C467.942 12.1269 461.847 15.7138 455.957 19.3298C450.329 22.8 445.05 26.6785 440.035 30.7028C433.094 36.3018 426.562 42.2215 419.826 47.9955C417.434 50.0368 415.102 52.1073 412.652 54.1194C397.925 66.1631 383.432 78.44 368.297 90.1921C356.225 99.5821 343.569 108.476 329.95 116.437C314.728 125.332 299.243 133.905 284.167 142.916C269.44 151.694 257.63 162.542 248.502 175.373C241.241 185.608 235.146 196.252 228.993 206.896C221.878 219.261 214.617 231.596 207.88 244.106C205.139 249.209 203.069 254.692 201.815 260.145C199.919 268.485 201.406 276.709 205.372 284.641C210.563 295.022 217.504 304.645 225.027 313.977C235.555 327.012 246.169 340.018 257.134 352.849C263.929 360.81 271.073 368.596 278.626 376.062C285.1 382.477 292.711 388.018 302.13 391.751C307.204 393.763 312.541 395.046 318.286 395.396C329.659 396.125 340.098 393.617 350.072 389.797C363.719 384.577 377.133 379.007 390.664 373.583C403.904 368.276 417.814 364.426 432.278 361.977C442.513 360.256 452.953 360.227 463.276 360.81C475.67 361.539 487.626 364.222 499.087 368.276C509.964 372.125 520.258 376.762 529.852 382.419C541.954 389.563 552.394 397.962 561.638 407.381C562.279 408.052 563.212 408.518 564 409.072" stroke="#C9A969" stroke-width="2.20625" stroke-miterlimit="10" stroke-linecap="round" stroke-linejoin="round"/>
<path d="M757.514 -234.316C765.709 -222.302 774.603 -210.608 785.684 -200.139C792.945 -193.286 800.965 -186.987 809.684 -181.242C817.995 -175.76 825.956 -169.986 834.121 -164.387C844.707 -157.097 853.776 -148.786 861.446 -139.454C869.961 -129.044 876.551 -117.962 880.226 -105.831C882.004 -100.028 883.696 -94.1664 884.95 -88.2758C885.766 -84.3973 885.795 -80.4022 886.087 -76.4654C886.32 -73.3743 886.612 -70.254 886.583 -67.1629C886.554 -62.7887 886.32 -58.4145 886.058 -54.0695C885.795 -49.4911 885.562 -44.8836 884.979 -40.3344C883.812 -31.411 883.783 -22.4585 884.046 -13.5059C884.162 -8.57761 885.008 -3.64934 885.562 1.27894C886.904 13.1476 890.753 24.6081 894.281 36.156C896.089 42.0466 897.956 47.9372 899.268 53.9153C901.426 63.6261 900.405 73.1036 895.156 82.2311C890.316 90.6296 883.667 97.9783 876.318 105.065C866.549 114.484 855.263 122.561 842.578 129.269C828.143 136.909 812.542 142.624 795.191 144.724C790.438 145.307 785.655 145.774 780.873 145.978C775.944 146.182 770.899 146.445 766.059 145.92C759.177 145.191 752.353 144.024 745.646 142.595C731.823 139.65 719.342 134.313 707.473 128.044C696.13 122.036 684.815 115.971 673.559 109.876C661.836 103.548 649.121 98.7073 636.174 94.2456C624.422 90.1922 612.465 86.4012 600.976 81.9103C588.699 77.1279 577.326 71.0623 567.294 63.5969C558.429 57.0064 549.797 50.2118 541.02 43.563C534.517 38.6056 527.956 33.7065 520.344 29.828C511.858 25.4829 502.702 23.0334 492.524 23.5C487.45 23.7333 482.61 24.8706 477.944 26.4453C467.416 30.0321 458.347 35.3978 450.124 41.6675C443.971 46.3334 437.73 50.97 431.869 55.84C422.274 63.8302 412.914 72.0246 403.465 80.1023C400.753 82.4352 398.012 84.7682 395.242 87.0719C390.751 90.8046 386.26 94.5664 381.711 98.2699C375.004 103.781 368.501 109.439 361.531 114.717C351.296 122.474 340.768 129.998 330.299 137.58C322.426 143.266 314.319 148.777 306.504 154.522C300.088 159.246 293.673 164.029 287.724 169.132C278.975 176.627 271.422 184.879 265.182 193.832C260.837 200.043 256.725 206.371 252.992 212.845C245.906 225.18 239.782 237.778 235.933 251.047C233.658 258.862 233.017 266.794 233.717 274.726C234.446 283.008 237.391 290.969 241.561 298.609C247.014 308.64 253.721 318.118 261.42 327.129C267.777 334.565 274.572 341.71 282.037 348.504C288.103 354.016 294.752 358.915 302.508 362.822C309.449 366.322 316.914 368.305 325.284 368.392C335.986 368.509 345.872 366.147 355.495 362.822C365.468 359.352 375.266 355.62 385.21 352.091C397.196 347.804 409.123 343.43 421.779 340.456C430.119 338.502 438.488 336.752 447.208 336.169C455.023 335.673 462.751 335.761 470.537 336.577C485.905 338.239 499.815 342.963 513.462 348.446C528.422 354.482 542.303 361.802 555.017 370.463C566.886 378.57 577.238 387.814 586.045 398.108C588.845 401.374 591.527 404.727 594.298 408.023C594.677 408.46 595.348 408.752 595.873 409.102" stroke="#C9A969" stroke-width="2.20625" stroke-miterlimit="10" stroke-linecap="round" stroke-linejoin="round"/>
<path d="M740.018 -234.316C747.425 -224.955 754.774 -215.536 762.297 -206.234C770.958 -195.502 781.602 -186.112 793.354 -177.539C801.665 -171.473 810.647 -165.991 819.249 -160.13C832.226 -151.323 844.066 -141.641 852.873 -129.889C860.28 -119.974 865.674 -109.389 868.62 -98.0157C870.224 -91.8627 871.594 -85.7096 871.769 -79.4107C871.944 -72.8494 872.294 -66.3173 872.236 -59.7559C872.177 -54.886 871.594 -50.0452 871.244 -45.1752C870.894 -40.7427 870.399 -36.3101 870.224 -31.8484C869.932 -23.9749 869.611 -16.0721 869.757 -8.19853C869.815 -3.76599 870.69 0.666562 871.273 5.0991C871.915 10.0274 872.615 14.9557 873.402 19.884C874.102 24.1124 875.035 28.3408 875.735 32.5692C876.435 36.7101 877.193 40.8802 877.543 45.0503C877.951 49.8327 878.097 54.6152 878.097 59.4269C878.097 68.2919 875.298 76.6904 870.982 84.7682C865.062 95.7912 856.139 105.123 845.232 113.259C834.851 121.016 822.953 126.965 809.48 130.843C802.015 133.001 794.375 134.459 786.414 135.101C770.462 136.413 755.298 134.313 740.543 129.414C725.904 124.574 713.16 117.371 700.533 109.964C690.764 104.248 680.937 98.6198 670.818 93.2833C660.874 88.0634 649.88 84.3891 638.798 80.9772C626.405 77.1862 613.836 73.716 601.997 68.8752C590.595 64.2385 579.922 58.6687 570.473 51.7574C563.445 46.6541 556.738 41.2884 549.769 36.156C541.633 30.1488 533.73 23.8791 524.34 19.0091C517.837 15.6264 510.751 13.2643 503.11 12.5644C494.712 11.8062 486.372 12.5936 478.469 15.3931C468.7 18.8633 460.068 23.6166 452.253 29.3614C447.47 32.8608 442.484 36.2144 437.993 39.947C428.807 47.5582 419.913 55.4026 410.902 63.1595C408.365 65.3466 405.828 67.5629 403.203 69.6917C389.089 81.123 375.208 92.7292 360.744 103.869C346.076 115.154 330.387 125.536 314.173 135.422C300.963 143.47 287.928 151.694 276.497 161.375C268.361 168.257 261.479 175.839 255.646 184.034C251.855 189.341 248.385 194.794 245.032 200.306C237.479 212.729 230.568 225.355 224.56 238.332C221.498 244.952 218.903 251.659 217.445 258.629C216.278 264.169 216.366 269.739 217.124 275.309C219.049 289.219 227.01 301.292 235.525 313.102C241.882 321.909 248.706 330.512 255.938 338.881C263.841 347.979 272.064 356.961 280.9 365.476C286.995 371.367 294.052 376.732 302.742 380.378C307.525 382.39 312.511 383.76 317.848 384.402C328.696 385.685 338.873 383.527 348.555 380.086C361.619 375.449 374.363 370.259 387.31 365.389C399.879 360.635 412.71 356.407 426.27 353.753C433.852 352.266 441.521 351.391 449.307 350.925C463.567 350.021 477.273 351.974 490.629 355.503C509.759 360.548 527.023 368.451 542.595 378.686C555.513 387.172 566.711 396.883 576.276 407.848C576.655 408.285 577.326 408.577 577.851 408.927" stroke="#C9A969" stroke-width="2.20625" stroke-miterlimit="10" stroke-linecap="round" stroke-linejoin="round"/>
<path d="M-15.6133 117.079C-12.7846 115.884 -10.0434 114.542 -7.1273 113.522C0.775446 110.693 8.76568 108.01 16.7268 105.269C28.6246 101.157 40.8141 97.7453 53.5868 95.7915C60.673 94.7125 67.8759 93.896 75.0496 93.2545C92.6631 91.6214 110.393 92.8462 128.065 92.3213C146.874 91.7672 164.196 87.5097 178.952 77.7989C187.904 71.8791 195.428 65.0262 200.152 56.4527C202.339 52.4868 204.176 48.4042 204.41 44.0008C204.614 39.8599 205.197 35.6606 204.847 31.5489C204.439 26.7956 203.477 22.0422 202.252 17.4056C199.073 5.47855 195.37 -6.39015 192.337 -18.3172C191.025 -23.4204 190.791 -28.7278 190.15 -33.9477C189.858 -36.339 189.479 -38.7594 189.654 -41.1214C190.325 -49.8407 191.754 -58.4433 197.819 -66.0545C200.706 -69.6996 204.41 -72.7324 209.251 -74.6863C215.695 -77.3108 221.994 -76.6692 228.06 -73.6656C234.796 -70.312 239.316 -65.3546 242.845 -59.9014C248.852 -50.5989 252.584 -40.6257 254.772 -30.3317C256.055 -24.1786 257.017 -17.9672 257.396 -11.7559C257.95 -3.09491 258.008 5.56603 257.95 14.227C257.921 18.9511 257.279 23.6753 256.959 28.3994C256.725 32.0738 256.23 35.7481 256.492 39.3933C257.134 49.2207 259.437 58.7273 267.544 66.6592C274.63 73.5705 283.641 77.5948 294.839 78.4988C306.591 79.4611 317.498 77.2157 328.258 73.658C343.218 68.7005 356.253 61.3519 368.822 53.3616C382.265 44.8173 394.105 34.9316 406.119 25.1917C416.822 16.5307 426.911 7.37405 437.789 -1.11193C448.083 -9.16049 459.281 -16.3925 472.403 -21.4958C481.152 -24.8785 490.221 -26.9781 499.961 -27.678C514.775 -28.7278 528.131 -25.4034 540.758 -19.7753C551.897 -14.8178 561.579 -8.19818 571.261 -1.63685C583.8 6.87829 596.485 15.3059 611.533 20.9633C620.573 24.346 629.963 26.9414 639.615 29.0118C652.359 31.753 665.219 34.1442 677.525 38.081C689.306 41.872 700.067 47.0919 709.836 53.5366C720.101 60.2729 730.103 67.2716 740.368 73.9788C747.337 78.5279 755.123 82.1148 763.697 84.3019C776.178 87.4513 788.163 86.5473 799.216 80.3651C806.448 76.3408 811.259 70.8293 814.496 64.4721C817.529 58.5524 819.191 52.341 819.337 45.8963C819.395 43.3009 819.949 40.6764 819.774 38.081C819.454 33.0069 818.841 27.9328 818.229 22.8588C817.616 17.7847 816.917 12.7106 816.1 7.6365C815.517 3.90383 814.613 0.171164 814.03 -3.5615C813.534 -6.65261 813.33 -9.77289 812.921 -12.864C812.426 -16.8883 811.813 -20.8834 811.347 -24.9077C811.084 -27.2989 810.938 -29.6901 810.822 -32.0814C810.618 -35.9599 810.559 -39.8383 810.268 -43.6876C809.83 -49.1991 809.422 -54.6815 808.664 -60.1638C807.818 -66.2294 807.002 -72.3533 805.398 -78.3314C804.056 -83.3764 802.044 -88.3338 799.595 -93.1163C794.87 -102.448 787.58 -110.526 778.978 -117.845C771.891 -123.882 764.601 -129.772 757.544 -135.838C746.754 -145.053 736.606 -154.676 727.858 -165.203C720.246 -174.36 712.985 -183.721 704.966 -192.615C693.884 -204.921 682.249 -216.907 670.847 -229.009C669.185 -230.787 667.493 -232.537 665.802 -234.287" stroke="#C9A969" stroke-width="2.20625" stroke-miterlimit="10" stroke-linecap="round" stroke-linejoin="round"/>
<path d="M-15.876 109.264C-9.08136 106.727 -2.28674 104.161 4.53703 101.653C21.2465 95.4999 38.131 89.7551 56.2403 86.6931C63.8514 85.41 71.5792 84.4185 79.307 83.5145C85.8975 82.7563 92.5463 82.3772 99.1659 81.7648C112.58 80.5692 125.994 79.5777 138.942 76.1075C152.998 72.3457 164.721 65.9885 173.294 56.3653C178.893 50.0955 182.189 42.9802 183.792 35.2815C185.134 28.8077 184.988 22.3047 184.638 15.8309C184.317 9.8236 182.888 3.84551 181.839 -2.13258C180.964 -7.06087 179.914 -11.9892 178.952 -16.9174C178.252 -20.5043 177.523 -24.0911 176.852 -27.7072C176.59 -29.1069 176.385 -30.5067 176.327 -31.9356C176.094 -37.6512 175.452 -43.3669 175.89 -49.0533C176.531 -57.5393 178.573 -65.8795 183.472 -73.549C189.012 -82.2391 196.332 -89.5586 208.376 -92.9996C218.844 -95.9741 227.914 -93.6412 235.904 -88.1005C244.477 -82.1516 249.697 -74.3363 254.276 -66.1711C258.708 -58.3267 261.945 -50.1615 264.453 -41.8213C266.786 -34.0935 268.331 -26.2199 270.081 -18.3755C271.131 -13.6805 271.977 -8.95636 272.735 -4.23221C273.289 -0.732837 273.376 2.82486 273.843 6.32423C274.455 10.9026 275.126 15.4809 275.972 20.0593C276.905 25.2208 277.838 30.3824 279.179 35.4857C280.958 42.1928 284.254 48.4042 289.969 53.6824C295.189 58.494 301.634 61.4393 309.595 62.3725C319.597 63.539 328.871 61.4394 337.94 58.5232C350.654 54.4406 361.794 48.2292 372.409 41.4346C383.84 34.1151 394.251 25.9207 404.486 17.5514C415.393 8.62799 426.007 -0.528718 437.176 -9.21883C447.528 -17.2674 458.96 -24.2953 472.112 -29.3402C479.927 -32.3147 488.034 -34.6184 496.753 -35.2891C499.932 -35.5224 503.139 -36.1932 506.289 -36.0473C513.346 -35.7849 520.403 -35.26 527.227 -33.5686C541.224 -30.0984 553.414 -24.0037 564.874 -16.8591C573.885 -11.231 582.779 -5.45699 591.936 -0.00380141C604.884 7.69482 619.114 13.4688 634.832 16.7349C647.109 19.2719 659.445 21.634 671.663 24.4043C682.949 26.9705 693.739 30.5282 703.77 35.544C714.297 40.793 723.746 47.1211 733.194 53.5074C741.009 58.7857 748.97 63.918 758.331 67.5049C763.143 69.3421 768.246 70.5669 773.466 70.7418C779.969 70.9751 786.151 69.4879 791.196 65.9594C798.749 60.7103 802.423 53.8865 803.998 46.1296C805.281 39.8599 805.164 33.5902 804.902 27.3205C804.669 22.363 803.561 17.4639 802.89 12.5356C802.336 8.59882 801.898 4.63286 801.286 0.696062C800.644 -3.38654 799.828 -7.46914 799.215 -11.5517C798.749 -14.6429 798.486 -17.7631 798.136 -20.8542C797.612 -25.2868 797.058 -29.7193 796.562 -34.181C796.358 -36.0182 796.241 -37.8553 796.008 -39.6634C795.133 -46.6329 794.229 -53.6025 793.354 -60.5721C792.45 -67.7458 790.35 -74.6863 787.493 -81.4809C782.914 -92.3289 775.449 -101.894 766.321 -110.642C756.144 -120.411 745.442 -129.86 735.702 -139.891C727.099 -148.756 719.255 -158.146 711.527 -167.536C700.212 -181.271 689.306 -195.181 676.504 -208.1C667.902 -216.761 659.532 -225.568 651.046 -234.287" stroke="#C9A969" stroke-width="2.20625" stroke-miterlimit="10" stroke-linecap="round" stroke-linejoin="round"/>
<path d="M899.065 409.102C900.668 407.206 902.302 405.311 903.818 403.386C907.726 398.458 911.779 393.617 915.424 388.572C918.632 384.169 920.936 379.328 920.877 374.225C920.848 370.55 919.828 366.73 918.282 363.26C915.541 357.078 912.1 351.1 908.834 345.063C903.235 334.682 897.986 324.242 893.932 313.394C890.462 304.121 887.488 294.76 885.3 285.253C884.309 280.908 883.492 276.534 882.938 272.16C882.209 266.531 881.772 260.903 881.334 255.246C881.043 251.717 880.605 248.189 880.868 244.69C881.305 238.77 882.297 232.85 882.88 226.93C883.638 219.086 885.971 211.504 888.246 203.922C889.645 199.285 891.628 194.765 893.203 190.187C895.828 182.517 898.656 174.877 900.785 167.149C902.185 162.104 902.097 156.972 898.015 152.364C895.361 149.361 891.833 147.874 887.371 147.29C880.605 146.386 874.248 147.961 868.037 149.507C855.818 152.569 843.833 156.126 831.702 159.334C820.387 162.338 808.868 164.729 797 165.895C791.459 166.449 785.889 166.828 780.29 167.149C776.237 167.383 772.154 167.732 768.101 167.528C756.903 166.974 745.734 165.895 735.002 163.271C726.371 161.142 717.855 158.547 709.544 155.689C693.418 150.177 678.546 142.712 663.09 136.18C649.122 130.289 634.716 125.098 620.485 119.616C602.814 112.792 585.637 105.356 570.386 95.3246C561.113 89.2299 552.277 82.7269 543.907 75.874C538.95 71.7914 534.138 67.5921 529.035 63.6553C522.328 58.4937 515.271 53.6238 506.785 50.3577C498.182 47.0625 489.23 46.6542 480.015 48.8121C470.45 51.0576 462.489 55.4318 454.848 60.2726C441.697 68.6128 430.382 78.5277 418.572 87.976C411.515 93.6333 404.895 99.6114 398.129 105.473C390.693 111.918 383.228 118.391 375.879 124.923C358.178 140.671 339.048 155.281 320.531 170.386C309.566 179.31 299.36 188.787 290.815 199.285C280.842 211.533 273.056 224.597 267.778 238.595C265.591 244.398 263.812 250.259 263.229 256.325C262.966 259.154 262.208 261.953 262.237 264.782C262.325 276.942 265.824 288.461 273.056 299.221C277.022 305.083 281.804 310.478 287.316 315.523C293.352 321.063 300.439 325.554 308.341 329.17C314.086 331.795 320.473 333.165 327.121 333.69C339.632 334.682 351.15 331.766 362.669 328.441C376.871 324.329 390.052 318.585 403.466 313.19C411.077 310.128 418.601 306.862 426.27 303.946C434.552 300.796 443.126 298.172 452.224 296.976C462.664 295.605 472.637 297.18 482.173 300.738C493.808 305.083 504.102 311.119 514.484 317.068C527.781 324.679 540.962 332.407 553.968 340.339C560.967 344.626 567.499 349.379 574.148 354.045C588.291 363.96 599.839 375.654 609.871 388.28C614.711 394.375 618.94 400.791 623.46 407.06C623.926 407.731 624.51 408.344 625.035 408.956" stroke="#C9A969" stroke-width="2.20625" stroke-miterlimit="10" stroke-linecap="round" stroke-linejoin="round"/>
<path d="M-15.875 101.653C-8.90542 98.9698 -1.93583 96.2578 5.06291 93.6333C18.2147 88.7341 31.4248 83.9517 45.3349 80.5106C55.5122 78.0027 65.8645 76.0781 76.3335 74.5908C90.0393 72.6662 103.833 71.004 117.393 68.5836C131.419 66.0757 144.25 61.2057 154.224 52.6031C161.397 46.4209 165.947 39.1305 168.396 30.8778C170.846 22.6834 170.525 14.4016 170.321 6.14892C170.204 1.62889 169.008 -2.86196 168.309 -7.38198C167.755 -11.0563 167.259 -14.7015 166.705 -18.3758C166.122 -22.1085 165.48 -25.8412 164.868 -29.5738C164.605 -31.2069 164.168 -32.8108 164.109 -34.4438C163.847 -41.0051 163.147 -47.5664 163.672 -54.0986C164.547 -65.0633 167.959 -75.5906 174.957 -85.1555C181.81 -94.5164 190.617 -102.419 203.302 -106.91C215.813 -111.313 227.594 -110.001 238.267 -103.119C247.336 -97.2867 253.11 -89.5298 258.126 -81.3646C263.725 -72.2953 268.07 -62.8179 271.365 -53.0488C273.961 -45.3502 276.323 -37.5932 278.51 -29.8071C280.493 -22.8084 282.097 -15.7222 283.846 -8.69424C285.8 -0.937301 287.579 6.81963 289.737 14.5474C291.749 21.8086 294.519 28.8657 299.477 35.2812C304.172 41.3759 310.587 45.6044 319.365 47.2957C326.189 48.608 332.925 47.8206 339.486 46.2167C352.346 43.0673 363.457 37.3225 373.926 30.7903C389.352 21.1671 402.708 9.7941 416.268 -1.37473C427.787 -10.8814 439.568 -20.0672 452.924 -27.9408C464.997 -35.0853 478.149 -40.3636 492.963 -42.6965C502.557 -44.2129 512.151 -44.1837 521.862 -42.9881C534.285 -41.4425 545.628 -37.7099 555.981 -32.2859C566.975 -26.5411 577.502 -20.1839 588.117 -13.9725C601.793 -5.95308 616.257 0.987347 632.675 4.74917C642.357 6.96544 652.272 8.48183 662.07 10.319C668.865 11.6021 675.747 12.6519 682.454 14.1683C691.494 16.2388 700.301 18.9216 708.728 22.3335C719.693 26.7661 729.695 32.3942 739.727 37.9932C745.705 41.3468 751.683 44.7878 758.594 46.8C765.185 48.7246 771.892 49.0162 777.637 44.7587C781.544 41.8717 783.79 38.2265 784.723 34.1731C786.152 28.1075 787.085 22.0128 785.889 15.8014C785.394 13.1768 785.569 10.4357 785.277 7.78197C784.811 3.34943 784.227 -1.08311 783.702 -5.54481C783.498 -7.44031 783.323 -9.33581 783.178 -11.2605C782.798 -15.8388 782.536 -20.4171 782.098 -24.9955C781.69 -29.0781 781.02 -33.1607 780.553 -37.2433C780.145 -40.8885 780.028 -44.592 779.445 -48.2372C778.657 -53.0488 777.724 -57.8604 776.529 -62.6138C774.137 -72.1495 770.172 -81.2771 764.368 -89.8797C759.528 -97.0826 753.637 -103.702 747.396 -110.147C735.79 -122.103 724.009 -133.972 713.773 -146.715C704.558 -158.205 695.751 -169.928 686.391 -181.33C676.476 -193.432 665.132 -204.717 653.876 -216.032C647.839 -222.098 642.182 -228.397 636.35 -234.608" stroke="#C9A969" stroke-width="2.20625" stroke-miterlimit="10" stroke-linecap="round" stroke-linejoin="round"/>
<path d="M-15.876 138.017C-11.006 136.472 -6.1069 134.984 -1.29526 133.351C11.9149 128.861 25.4749 125.157 39.5599 122.882C45.1006 121.978 50.8454 121.541 56.5027 121.629C66.2718 121.774 76.0117 122.853 84.8185 126.44C96.483 131.194 104.327 138.688 108.731 148.574C112.376 156.768 114.33 165.254 116.342 173.74C119.754 188.117 124.77 202.027 133.606 214.945C138.388 221.915 143.87 228.505 150.636 234.338C153.464 236.787 156.935 238.799 160.405 240.695C166.354 243.961 172.536 243.378 178.368 240.491C183.676 237.866 187.992 234.308 191.958 230.401C201.085 221.39 208.2 211.387 214.383 200.977C219.719 191.937 224.298 182.605 229.605 173.565C235.204 164.088 241.124 154.756 250.135 146.853C258.358 139.621 268.156 134.226 278.596 129.386C289.415 124.37 300.321 119.529 311.17 114.571C324.7 108.389 337.327 101.128 349.313 93.1962C357.099 88.0346 364.71 82.6689 372.088 77.1282C381.361 70.1586 390.518 63.0724 399.383 55.782C409.385 47.5585 419.125 39.1308 428.836 30.6449C438.576 22.1297 448.782 14.0812 460.418 7.22823C468.991 2.15414 478.265 -1.84097 488.792 -3.73646C497.307 -5.28202 505.793 -5.04872 514.25 -3.15323C525.185 -0.674508 534.517 4.0788 543.09 9.79444C549.973 14.4019 556.388 19.476 563.037 24.3168C573.652 32.0738 584.5 39.5683 596.952 45.4589C605.117 49.3373 613.749 52.3993 622.672 54.9363C634.57 58.3191 646.614 61.3519 658.424 64.9387C671.342 68.8755 683.124 74.5037 693.972 81.3566C705.286 88.5303 716.339 95.9957 727.974 102.819C738.151 108.798 749.349 113.493 761.83 115.738C766.321 116.554 770.987 116.992 775.595 117.225C781.718 117.546 787.93 117.429 793.879 115.971C799.332 114.63 804.931 113.463 810.005 111.48C817.908 108.36 824.994 104.132 831.001 98.9118C840.129 90.9799 846.632 81.9107 850.102 71.4417C851.735 66.5134 853.076 61.556 853.251 56.4236C853.426 51.5536 853.951 46.6837 853.689 41.8429C853.339 35.6898 852.464 29.5659 851.618 23.4712C850.685 16.8515 849.373 10.2319 848.527 3.61221C847.915 -1.08278 847.594 -5.80694 847.448 -10.5311C847.157 -20.3293 846.836 -30.0984 846.953 -39.8966C847.069 -50.7447 847.769 -61.5928 847.886 -72.4408C847.973 -79.5562 846.544 -86.6133 844.736 -93.5537C842.987 -100.202 840.245 -106.676 836.454 -112.742C832.605 -118.866 827.939 -124.698 822.253 -129.889C812.6 -138.725 801.548 -146.365 790.204 -153.801C773.466 -164.795 758.71 -177.305 746.462 -191.594C737.276 -202.326 728.266 -213.145 719.138 -223.905C716.164 -227.405 712.985 -230.817 709.865 -234.258" stroke="#C9A969" stroke-width="2.20625" stroke-miterlimit="10" stroke-linecap="round" stroke-linejoin="round"/>
<path d="M-15.876 129.969C-2.08262 125.536 11.5649 120.87 25.5041 116.729C34.6025 114.047 44.1383 112.122 53.849 111.48C61.7518 110.956 69.742 111.247 77.7031 111.393C84.4394 111.51 90.9424 112.88 97.2996 114.542C106.281 116.934 114.534 120.433 121.445 125.711C128.823 131.339 133.051 138.367 134.889 146.212C136.347 152.481 137.076 158.868 138.155 165.225C139.788 174.877 142.237 184.384 147.982 193.103C150.782 197.361 154.427 201.268 159.384 204.068C167.287 208.559 174.665 208.5 182.684 203.689C188.662 200.102 192.716 195.261 196.128 190.129C202.077 181.205 205.693 171.524 209.25 161.871C212.429 153.269 215.462 144.608 221.586 136.909C226.631 130.552 233.279 125.74 241.503 122.124C251.272 117.838 262.033 115.709 272.531 113.084C283.729 110.314 294.927 107.631 305.658 103.782C325.313 96.7247 343.043 87.3347 359.432 76.2826C365.818 71.9667 372.117 67.5341 378.241 62.9558C385.094 57.8525 391.888 52.6909 398.362 47.3252C406.848 40.2682 414.897 32.8903 423.354 25.8333C436.476 14.8686 449.482 3.78721 465.725 -4.40716C473.628 -8.40227 482.085 -11.3476 491.212 -12.7765C502.877 -14.5845 514.191 -13.2431 525.127 -9.48124C535.45 -5.9527 544.257 -0.674489 552.685 5.12864C564.058 12.9731 575.256 20.9925 586.949 28.5161C597.185 35.1358 608.908 39.8891 621.36 43.3301C633.316 46.6545 645.36 49.7748 657.403 52.8659C673.5 57.0068 687.819 63.6556 700.854 72.1125C711.76 79.1987 722.433 86.5182 733.515 93.4003C742.351 98.8827 752.207 103.111 763.172 105.24C784.139 109.293 802.831 105.794 818.841 93.896C827.123 87.743 832.839 80.336 836.571 71.9083C838.554 67.3883 840.1 62.7516 840.537 57.9692C841.004 52.7784 841.616 47.5294 841.529 42.3386C841.441 37.2646 840.595 32.1905 840.012 27.1164C839.516 22.8296 839.05 18.5137 838.408 14.227C837.796 10.1444 836.95 6.06181 836.338 1.9792C835.871 -1.25771 835.58 -4.49463 835.259 -7.73155C833.305 -27.0073 834.705 -46.3413 834.122 -65.617C833.801 -76.2901 832.284 -86.9049 828.027 -97.0822C823.565 -107.755 816.333 -117.204 806.914 -125.66C798.632 -133.067 789.096 -139.366 779.881 -145.957C765.213 -156.426 751.711 -167.74 740.63 -180.805C732.115 -190.836 723.629 -200.897 714.88 -210.783C708.028 -218.51 700.796 -226.034 693.738 -233.645C693.505 -233.908 693.389 -234.199 693.214 -234.491" stroke="#C9A969" stroke-width="2.20625" stroke-miterlimit="10" stroke-linecap="round" stroke-linejoin="round"/>
<path d="M869.379 409.102C870.078 407.76 870.924 406.448 871.478 405.077C873.49 400.091 875.561 395.133 877.281 390.059C879.498 383.614 881.743 377.17 883.288 370.608C884.309 366.205 884.688 361.568 884.338 357.107C883.784 350.108 882.618 343.109 881.218 336.198C879.177 325.962 876.698 315.756 874.394 305.549C872.645 297.734 870.778 289.919 869.145 282.103C868.387 278.458 868.037 274.784 867.512 271.11C866.812 266.24 866.054 261.399 865.413 256.529C865.15 254.488 864.917 252.446 864.888 250.405C864.654 240.344 864.45 230.254 864.363 220.194C864.334 215.761 865.063 211.299 864.771 206.896C864.392 201.501 864.304 196.048 862.001 190.828C858.88 183.742 852.669 179.747 843.396 179.047C837.768 178.639 832.081 178.435 826.453 178.639C820.766 178.843 815.138 179.747 809.481 180.243C805.165 180.622 800.791 180.68 796.504 181.147C785.744 182.313 774.954 182.08 764.164 181.876C757.078 181.73 749.962 181.117 742.964 180.184C731.912 178.726 721.122 176.393 710.624 173.244C700.388 170.153 690.24 166.887 680.15 163.533C668.865 159.771 657.696 155.805 646.469 151.927C637.195 148.748 627.951 145.511 618.619 142.42C607.8 138.833 597.594 134.313 587.912 129.064C578.843 124.165 570.357 118.683 562.454 112.588C556.972 108.36 551.344 104.248 546.066 99.8736C538.513 93.6331 531.398 87.0426 523.699 80.9479C517.108 75.728 510.081 70.7414 501.478 67.6211C496.579 65.8422 491.359 64.5008 485.877 64.8799C480.832 65.2298 475.962 66.338 471.267 67.971C460.973 71.5287 452.195 76.8653 444.001 82.8142C436.973 87.9174 429.945 93.0207 423.354 98.4739C414.081 106.173 405.245 114.192 396.263 122.095C390.315 127.344 384.424 132.651 378.504 137.929C369.581 145.89 360.686 153.851 351.734 161.783C348.643 164.525 345.348 167.12 342.198 169.832C328.696 181.467 315.253 193.132 304.551 206.604C295.482 218.036 288.366 230.138 284.75 243.377C283.554 247.751 283.059 252.242 282.301 256.675C281.134 263.732 282.505 270.643 285.042 277.35C287.287 283.27 290.932 288.723 295.773 293.681C300.789 298.813 306.825 302.866 314.116 305.695C322.922 309.107 332.167 310.157 341.936 309.136C356.575 307.62 370.018 303.479 382.412 297.384C397.342 290.065 411.806 282.103 426.475 274.434C433.648 270.672 441.114 267.26 449.308 265.219C453.916 264.082 458.786 263.324 463.597 263.119C472.987 262.74 481.473 265.307 488.997 269.622C496.579 273.938 502.936 279.304 508.972 284.961C519.5 294.847 530.727 304.237 542.654 313.044C553.123 320.772 564.292 327.916 574.877 335.527C587.912 344.888 600.306 354.803 610.687 366.147C617.599 373.7 624.014 381.544 629.497 389.826C633.404 395.687 637.108 401.665 640.928 407.556C641.307 408.11 641.978 408.547 642.503 409.043" stroke="#C9A969" stroke-width="2.20625" stroke-miterlimit="10" stroke-linecap="round" stroke-linejoin="round"/>
<path d="M-15.6133 94.2749C-14.9134 93.8667 -14.2719 93.3417 -13.4845 93.021C-4.38613 89.3466 4.56643 85.4098 13.8398 82.0854C28.0122 76.9822 42.243 71.8789 57.5236 69.1378C70.7921 66.7465 84.0605 64.4428 97.2706 61.9349C109.431 59.6311 121.358 56.8316 132.031 51.2326C144.541 44.6713 151.977 35.5146 155.594 24.1417C158.189 16.0056 157.956 7.69461 157.606 -0.587242C157.372 -5.95295 156.381 -11.3187 155.535 -16.6552C154.777 -21.5252 153.669 -26.366 152.94 -31.2359C152.386 -34.9394 152.094 -38.7012 151.861 -42.4339C151.569 -46.7206 151.19 -51.0365 151.365 -55.3233C151.803 -65.0923 154.135 -74.5407 158.889 -83.6682C164.575 -94.6037 173.032 -103.848 183.938 -111.721C191.316 -117.058 199.569 -121.316 209.338 -123.357C221.615 -125.952 232.23 -123.153 241.678 -116.796C249.61 -111.459 255.296 -104.723 260.225 -97.549C267.049 -87.605 272.268 -77.0777 276.322 -66.2588C281.308 -52.9029 285.887 -39.4303 290.115 -25.8994C293.819 -14.0015 296.997 -2.01616 302.13 9.59009C304.9 15.8306 308.399 21.8087 314.144 26.6495C318.723 30.4988 324.263 33.0942 331.291 33.7649C342.139 34.7856 351.617 31.8694 360.686 27.9035C370.805 23.4709 379.932 17.8428 388.302 11.4856C395.446 6.06155 402.678 0.695861 409.735 -4.81565C414.197 -8.28586 418.251 -12.106 422.771 -15.5471C433.764 -23.8581 444.846 -32.0816 457.706 -38.6429C469.05 -44.4169 481.181 -48.7036 494.333 -50.7741C500.982 -51.8239 507.951 -52.2905 514.717 -52.028C526.673 -51.5906 538.162 -49.1702 549.215 -45.2334C563.387 -40.1885 575.752 -32.8981 588.437 -25.9869C595.902 -21.9334 603.688 -18.2299 611.474 -14.5556C620.864 -10.1522 631.129 -7.41102 641.686 -5.48636C649.734 -4.02829 657.928 -2.97848 666.065 -1.84118C682.103 0.375089 698.142 2.64967 713.773 6.38233C721.209 8.16118 728.732 9.67757 736.285 11.0482C747.483 13.0895 755.036 9.67757 758.769 1.13327C760.752 -3.35759 761.627 -8.05258 761.976 -12.8059C762.297 -17.0926 763.055 -21.4085 762.939 -25.6953C762.735 -32.8106 761.918 -39.926 761.452 -47.0414C761.014 -53.6611 759.294 -60.1057 757.165 -66.4629C754.511 -74.3949 750.516 -81.8893 745.529 -89.0922C736.46 -102.186 724.825 -113.909 714.822 -126.506C704.849 -139.104 695.138 -151.818 685.369 -164.533C675.6 -177.247 664.986 -189.437 653.292 -201.101C642.59 -211.774 631.567 -222.243 622.002 -233.645C621.797 -233.908 621.652 -234.2 621.477 -234.491" stroke="#C9A969" stroke-width="2.20625" stroke-miterlimit="10" stroke-linecap="round" stroke-linejoin="round"/>
<path d="M842.345 409.102C842.608 409.043 843.103 408.985 843.103 408.897C844.736 399.537 848.265 390.555 851.064 381.427C853.31 374.137 855.614 366.818 857.334 359.44C858.413 354.861 858.559 350.166 858.996 345.501C859.288 342.264 859.667 338.998 859.492 335.79C859.2 330.366 858.501 324.942 857.976 319.518C857.655 316.281 857.363 313.044 856.897 309.807C856.372 306.22 855.701 302.604 855.06 299.017C854.272 294.643 853.485 290.269 852.668 285.924C852.085 282.891 851.414 279.858 850.831 276.825C850.015 272.451 849.286 268.077 848.411 263.732C847.39 258.57 846.311 253.438 845.232 248.305C844.153 243.173 843.278 238.011 842.024 232.879C840.391 226.289 838.233 219.786 833.567 214.07C828.727 208.15 821.728 204.651 813.184 203.076C807.176 201.997 801.082 201.385 794.899 201.356C787.667 201.297 780.406 201.21 773.174 200.918C765.913 200.626 758.652 200.306 751.449 199.635C736.139 198.264 721.121 195.64 706.394 192.053C693.272 188.845 680.295 185.258 667.143 182.196C654.341 179.193 641.335 176.772 628.475 173.856C617.977 171.494 607.421 169.22 597.243 166.187C587.008 163.154 577.909 158.342 569.627 152.568C557.963 144.462 548.748 134.663 539.124 125.098C532.417 118.42 525.331 112.005 518.507 105.414C512.5 99.6404 505.472 94.7705 497.278 91.067C490.629 88.0633 483.514 87.1302 475.815 88.005C466.425 89.084 458.697 92.875 451.203 96.9868C439.713 103.315 429.565 110.955 420.233 119.208C408.656 129.443 397.662 140.117 386.494 150.644C376.374 160.18 366.255 169.745 356.282 179.397C347.038 188.35 337.619 197.215 329.512 206.867C322.922 214.741 316.973 222.906 313.298 232.004C310.586 238.741 308.691 245.623 309.42 252.709C310.47 262.974 315.252 271.576 327.646 276.388C331.757 277.963 336.044 278.633 340.623 278.75C349.954 278.983 358.469 276.855 366.897 273.88C379.67 269.389 390.459 262.536 401.599 256.092C410.348 251.047 419.038 245.943 428.136 241.365C438.051 236.378 448.87 232.762 460.418 231.013C470.07 229.525 479.81 229.555 489.288 232.208C498.473 234.745 505.939 239.178 512.092 245.098C519.061 251.834 524.281 259.474 529.647 267.056C537.375 277.992 545.365 288.84 556.126 298.113C564.874 305.637 573.856 312.986 582.896 320.305C589.02 325.262 595.581 329.928 601.647 334.944C613.836 345.005 624.83 355.824 633.695 367.897C639.411 375.683 644.864 383.585 650.113 391.576C653.525 396.795 656.353 402.249 659.474 407.585C659.794 408.139 660.494 408.577 661.048 409.072" stroke="#C9A969" stroke-width="2.20625" stroke-miterlimit="10" stroke-linecap="round" stroke-linejoin="round"/>
<path d="M-15.876 83.4854C-6.77761 79.6944 2.32076 75.9034 11.4191 72.0833C24.7167 66.4843 38.4226 61.7018 52.7992 58.2024C62.7433 55.782 72.9206 53.9157 82.9813 51.8161C94.7625 49.3374 106.456 46.6837 116.896 41.4346C126.723 36.5063 133.955 29.7992 137.863 20.9633C140.663 14.6644 141.771 8.19059 141.858 1.51262C141.946 -5.66109 141.129 -12.7473 139.729 -19.8336C138.417 -26.4532 137.047 -33.0437 136.055 -39.6925C135.239 -45.0874 134.801 -50.5406 134.451 -55.9646C134.189 -60.0472 134.072 -64.1589 134.48 -68.2124C135.151 -74.8904 137.076 -81.3934 140.225 -87.6631C145.416 -98.0445 153.027 -107.201 162.242 -115.541C171.69 -124.115 181.984 -131.93 194.057 -138.142C200.735 -141.553 207.909 -144.207 215.782 -145.053C224.443 -145.957 232.463 -144.178 239.637 -140.066C249.289 -134.525 255.879 -126.914 261.916 -118.924C268.827 -109.767 273.989 -99.9692 278.596 -89.9668C285.391 -75.2111 290.932 -60.1347 296.151 -44.9707C299.476 -35.3183 303.121 -25.7533 307.029 -16.2467C310.061 -8.86886 313.59 -1.60767 319.131 4.92449C323.272 9.82362 328.229 13.8771 335.344 15.86C339.34 16.9973 343.51 17.4348 347.796 16.9682C360.802 15.5101 371.475 10.1444 381.39 3.78721C388.214 -0.587007 394.6 -5.36949 401.045 -10.1228C406.907 -14.4679 412.506 -19.017 418.309 -23.3913C429.594 -31.8772 441.055 -40.2466 454.09 -47.0703C466.396 -53.515 479.606 -58.4141 494.099 -60.7762C498.386 -61.4761 502.731 -61.8844 507.076 -62.2634C510.575 -62.5551 514.133 -62.7592 517.662 -62.6717C530.084 -62.3801 542.07 -60.3388 553.734 -56.8103C568.198 -52.4069 581.146 -45.8164 594.269 -39.4592C606.4 -33.5978 618.677 -28.0571 632.441 -24.8493C639.323 -23.2454 646.234 -21.8457 653.379 -21.2625C658.949 -20.8251 664.49 -20.2418 670.089 -20.0377C678.749 -19.7461 687.41 -19.3961 696.042 -19.6586C703.566 -19.8919 711.031 -20.9125 717.797 -24.0036C726.37 -27.9113 730.365 -34.2101 732.348 -41.5588C733.631 -46.2247 733.894 -51.0071 733.311 -55.7021C732.698 -60.4554 731.386 -65.2088 729.928 -69.8454C727.682 -76.99 723.921 -83.7554 719.809 -90.3168C715.755 -96.8198 710.915 -103.031 706.395 -109.359C699.629 -118.807 692.63 -128.168 686.04 -137.704C673.88 -155.259 661.369 -172.61 645.71 -188.387C636.378 -197.777 626.813 -207.021 617.685 -216.527C612.203 -222.243 607.362 -228.309 602.259 -234.228" stroke="#C9A969" stroke-width="2.20625" stroke-miterlimit="10" stroke-linecap="round" stroke-linejoin="round"/>
<path d="M-15.876 124.049C-4.99876 120.375 5.79097 116.613 16.7265 113.084C28.1286 109.41 39.8515 106.406 51.9827 104.657C62.0434 103.199 72.2207 102.469 82.4564 102.965C89.1927 103.315 95.8998 104.044 102.607 104.832C119.55 106.844 135.618 111.626 152.181 114.921C162.854 117.05 173.119 116.146 182.655 111.393C190.791 107.339 199.015 103.432 207.297 99.5533C216.541 95.2374 226.572 93.2545 237.216 94.1001C245.206 94.7417 253.08 96.3456 261.099 96.8996C268.39 97.3954 275.768 97.1621 283.087 96.9579C291.281 96.7247 299.155 94.9458 306.941 92.992C314.611 91.0382 321.93 88.472 328.929 85.3517C341.672 79.6652 353.599 73.0456 364.739 65.5219C369.259 62.46 373.867 59.4272 378.241 56.1903C384.365 51.6411 390.46 47.0627 396.263 42.2511C405.594 34.465 414.489 26.3581 423.908 18.6595C436.01 8.74463 447.937 -1.3744 462.547 -9.07302C471.849 -13.9721 481.793 -17.7048 492.787 -19.1045C504.743 -20.6209 516.495 -19.5128 527.781 -15.6343C538.979 -11.7559 548.544 -6.01106 557.73 0.229487C567.353 6.79081 576.772 13.5271 586.687 19.826C597.039 26.4165 608.529 31.6364 621.097 35.0483C634.132 38.5476 647.459 41.4346 660.553 44.8756C677.146 49.2499 692.222 55.8987 705.636 64.9096C715.61 71.6167 725.437 78.4404 735.643 84.9434C744.538 90.6008 754.365 95.2374 765.563 97.1621C785.947 100.72 803.327 96.5497 817.004 83.5145C824.994 75.9326 829.106 67.155 831.06 57.5026C832.314 51.3203 832.955 45.1381 832.547 38.8975C832.168 33.2402 831.235 27.6121 830.476 21.9839C829.806 16.764 829.106 11.5441 828.348 6.35339C827.706 2.12498 826.831 -2.10343 826.277 -6.33184C825.752 -10.1811 825.373 -14.0596 825.227 -17.9381C824.79 -28.0863 824.498 -38.2344 824.148 -48.3535C823.973 -52.9901 824.003 -57.656 823.565 -62.2926C823.099 -67.4542 822.165 -72.5866 821.524 -77.719C820.795 -83.6096 818.899 -89.267 816.45 -94.8368C812.367 -104.139 806.214 -112.479 797.874 -119.741C791.983 -124.873 785.801 -129.86 779.59 -134.759C774.428 -138.812 768.858 -142.545 763.755 -146.628C751.799 -156.222 741.068 -166.632 731.707 -177.889C719.196 -192.907 706.686 -207.925 692.951 -222.243C689.073 -226.267 685.194 -230.263 681.287 -234.287" stroke="#C9A969" stroke-width="2.20625" stroke-miterlimit="10" stroke-linecap="round" stroke-linejoin="round"/>
<path d="M286.004 -234.521C280.871 -228.601 275.739 -222.681 270.635 -216.761C264.366 -209.5 257.688 -202.443 251.943 -194.948C246.49 -187.862 245.178 -180.164 248.56 -171.94C252.322 -162.842 258.067 -154.531 263.199 -145.957C270.781 -133.301 278.159 -120.587 283.846 -107.289C288.686 -96.0037 293.323 -84.6307 297.901 -73.2869C302.946 -60.7767 307.612 -48.1498 312.832 -35.6978C316.448 -27.066 320.851 -18.6384 327.588 -11.173C331.058 -7.29457 335.111 -3.97018 340.594 -1.87056C346.047 0.199906 351.675 0.549854 357.566 -0.383312C365.993 -1.69558 373.167 -5.04915 380.078 -8.8693C388.739 -13.6226 396.496 -19.2508 404.224 -24.9081C417.318 -34.5022 430.032 -44.4754 444.496 -52.8156C457.152 -60.106 470.654 -66.1132 485.584 -69.9042C493.254 -71.858 501.098 -73.2869 509.176 -73.7243C513.871 -73.9868 518.537 -74.57 523.232 -74.5117C531.98 -74.3659 540.67 -73.5785 549.215 -72.033C561.258 -69.8459 572.748 -66.434 583.946 -62.3222C595.231 -58.1813 606.459 -53.9529 617.89 -50.1327C625.326 -47.654 633.112 -45.9335 641.161 -44.9128C647.635 -44.0963 654.108 -43.863 660.524 -44.2421C671.08 -44.8545 681.228 -46.7209 688.869 -53.253C692.893 -56.6941 694.993 -60.8058 695.838 -65.5008C697.53 -75.0366 694.205 -83.9308 690.094 -92.5043C682.045 -109.272 672.159 -125.398 661.836 -141.35C652.271 -156.135 641.161 -170.161 628.184 -183.196C619.348 -192.061 610.279 -200.752 601.472 -209.646C593.657 -217.519 586.191 -225.597 579.98 -234.346" stroke="#C9A969" stroke-width="2.20625" stroke-miterlimit="10" stroke-linecap="round" stroke-linejoin="round"/>
<path d="M-15.876 220.427C-3.74482 224.801 7.59898 230.226 17.8055 237.108C29.3826 244.923 38.9475 254.167 47.7251 263.965C53.7324 270.672 59.7396 277.35 67.1175 283.183C73.7663 288.432 81.4066 292.602 90.7091 294.118C99.195 295.489 107.798 295.43 116.109 293.302C123.982 291.29 131.827 289.102 139.409 286.507C146.087 284.232 152.619 281.695 159.88 280.937C165.333 280.383 170.378 281.9 174.986 284.262C181.722 287.703 187.467 292.019 192.453 296.947C200.939 305.345 209.717 313.569 217.561 322.346C229.518 335.702 240.745 349.525 252.409 363.056C259.233 370.959 266.203 378.803 273.376 386.502C279.325 392.888 286.411 398.487 294.839 402.745C300.846 405.777 307.408 407.789 314.669 408.577C325.167 409.743 334.878 407.673 344.355 404.64C356.895 400.645 368.355 394.842 380.165 389.68C395.154 383.119 410.552 377.403 427.349 374.487C433.56 373.408 439.771 372.533 446.158 372.592C450.94 372.621 455.752 372.242 460.447 372.679C466.775 373.262 473.132 374.079 479.256 375.42C493.837 378.599 507.134 384.081 519.266 391.226C527.693 396.183 535.683 401.578 542.391 408.081C542.886 408.577 543.79 408.81 544.49 409.16" stroke="#C9A969" stroke-width="2.20625" stroke-miterlimit="10" stroke-linecap="round" stroke-linejoin="round"/>
<path d="M-15.876 210.687C0.979335 216.432 17.0181 223.402 30.9281 232.967C38.6268 238.245 45.538 244.281 52.4493 250.23C60.0604 256.762 66.7675 263.994 75.5743 269.623C81.9607 273.705 89.1635 276.65 97.562 276.534C104.357 276.446 110.451 274.492 115.613 270.731C120.104 267.465 123.137 263.615 124.303 258.862C125.528 253.904 124.857 249.005 122.932 244.31C120.045 237.137 116.925 230.021 113.688 222.964C108.585 211.883 104.211 200.685 100.945 189.166C98.1452 179.251 96.0748 169.191 91.7006 159.567C89.1052 153.852 85.8391 148.369 80.5026 143.966C74.0871 138.659 66.2718 135.188 56.9693 134.226C53.2658 133.847 49.5623 133.468 45.8296 133.409C36.7604 133.234 27.8662 134.576 19.3802 136.85C7.91976 139.912 -3.27823 143.645 -14.5637 147.115C-15.0011 147.232 -15.2927 147.669 -15.6427 147.932" stroke="#C9A969" stroke-width="2.20625" stroke-miterlimit="10" stroke-linecap="round" stroke-linejoin="round"/>
<path d="M-15.6134 71.8788C-12.7848 70.3915 -10.0727 68.7585 -7.12744 67.4754C4.85791 62.1972 16.7266 56.8023 28.9453 51.874C39.8225 47.4998 51.4287 44.4962 63.0642 41.6092C73.7664 38.9555 84.5853 36.4185 94.7918 32.8316C105.057 29.2156 113.63 23.5291 118.471 15.014C120.833 10.8439 122.437 6.52798 122.728 1.92047C122.903 -0.966512 123.516 -3.88266 123.166 -6.74048C122.495 -12.252 121.62 -17.7927 120.279 -23.2167C117.275 -35.4353 112.434 -47.2165 106.486 -58.7061C104.386 -62.7596 102.111 -66.9005 98.991 -70.4874C95.4333 -74.5991 90.8842 -76.0864 84.8477 -73.0536C78.1114 -69.6709 71.4918 -66.1423 64.9596 -62.4971C55.8613 -57.3939 46.5004 -52.6989 35.769 -50.0744C29.8493 -48.6455 23.6962 -47.5957 17.4848 -48.0039C9.81536 -48.4705 2.20422 -49.5495 -4.76536 -52.3781C-8.41054 -53.8654 -12.0266 -55.4692 -15.6426 -57.0148" stroke="#C9A969" stroke-width="2.20625" stroke-miterlimit="10" stroke-linecap="round" stroke-linejoin="round"/>
<path d="M-15.6133 228.651C-11.9098 230.488 -8.06047 232.179 -4.50277 234.162C0.542155 236.991 5.58708 239.878 10.3404 243.027C22.559 251.105 31.3658 261.457 40.3475 271.722C46.0632 278.254 51.6913 284.874 57.9027 291.114C64.814 298.055 73.2999 303.596 84.0897 306.308C88.4056 307.387 93.0422 307.97 97.5914 308.232C109.343 308.903 120.687 306.803 132.06 304.733C140.4 303.216 148.828 301.7 157.489 301.962C166.587 302.225 174.869 304.529 182.393 308.524C191.812 313.51 199.598 319.926 207.122 326.633C218.174 336.548 227.535 347.396 236.721 358.39C244.915 368.188 252.789 378.132 260.895 387.96C266.669 394.988 273.172 401.549 280.784 407.381C281.746 408.11 283.058 408.518 284.195 409.102" stroke="#C9A969" stroke-width="2.20625" stroke-miterlimit="10" stroke-linecap="round" stroke-linejoin="round"/>
<path d="M-15.6133 235.008C-14.2135 235.795 -12.8429 236.612 -11.3557 237.312C3.02088 244.281 14.8896 253.38 24.3671 264.374C31.6283 272.801 38.3645 281.491 45.6841 289.89C49.7958 294.614 54.3158 299.163 59.215 303.392C66.2137 309.399 74.8747 313.627 84.877 315.639C92.1091 317.097 99.5452 317.768 107.127 316.806C114.155 315.931 121.271 315.406 128.328 314.648C133.81 314.035 139.263 312.898 144.775 312.636C154.398 312.169 163.963 312.432 173.149 315.464C182.13 318.439 189.683 322.93 196.74 328.179C212.837 340.135 224.998 354.541 236.779 369.18C246.548 381.34 255.617 393.879 266.757 405.311C268.128 406.711 269.906 407.877 271.51 409.131" stroke="#C9A969" stroke-width="2.20625" stroke-miterlimit="10" stroke-linecap="round" stroke-linejoin="round"/>
<path d="M-15.876 243.669C-11.2685 246.352 -6.45683 248.801 -2.14094 251.747C10.6901 260.437 19.526 271.635 28.1578 282.979C33.8151 290.444 39.5016 297.938 45.713 305.141C51.9244 312.315 59.8271 318.293 69.5379 322.434C76.245 325.292 83.5354 326.983 91.234 327.362C94.9375 327.537 98.6702 327.887 102.374 327.741C107.244 327.537 112.084 326.954 116.954 326.517C121.824 326.108 126.665 325.642 131.535 325.263C137.28 324.796 143.025 324.096 148.769 324.038C163.088 323.95 175.977 327.45 187.467 334.303C199.569 341.535 209.163 350.604 217.94 360.285C229.255 372.767 238.733 386.152 248.939 399.158C251.301 402.161 253.867 405.077 256.375 408.023C256.667 408.373 257.25 408.606 257.687 408.868" stroke="#C9A969" stroke-width="2.20625" stroke-miterlimit="10" stroke-linecap="round" stroke-linejoin="round"/>
<path d="M-15.876 201.822C-2.81165 207.1 10.3985 212.204 23.317 217.744C33.0278 221.914 42.0678 226.93 50.6704 232.471C56.1528 235.999 61.5476 239.586 67.1175 243.027C71.4042 245.681 75.8076 248.335 81.1733 249.326C86.8889 250.405 91.4381 249.414 94.1793 243.698C95.9581 239.936 95.6082 236.028 95.0541 232.296C93.9752 224.772 92.0505 217.336 90.4175 209.9C89.426 205.321 88.347 200.743 87.2389 196.165C85.5183 189.049 83.9436 181.905 81.8732 174.819C79.5986 167.062 76.07 159.655 69.4504 153.472C63.9972 148.398 57.0568 145.191 48.8041 143.966C38.1893 142.391 27.8079 143.616 17.543 145.861C6.57833 148.253 -3.8323 151.781 -13.9805 155.805C-14.5929 156.039 -15.0595 156.505 -15.5844 156.855" stroke="#C9A969" stroke-width="2.20625" stroke-miterlimit="10" stroke-linecap="round" stroke-linejoin="round"/>
<path d="M-15.6133 251.484C-13.0471 253.38 -10.6267 255.45 -7.8855 257.171C-2.05321 260.816 2.26268 265.482 6.63689 270.118C14.8021 278.75 21.0427 288.373 27.604 297.763C33.5821 306.308 39.8518 314.706 48.3378 321.822C57.6694 329.608 68.8674 334.973 82.4858 336.636C86.4226 337.102 90.4177 337.423 94.4128 337.452C100.245 337.51 106.077 337.394 111.91 337.015C117.071 336.694 122.145 335.732 127.278 335.44C135.56 334.973 143.929 334.273 152.182 334.682C165.683 335.352 177.669 339.581 188.254 346.375C201.873 355.095 212.167 366.001 221.323 377.695C229.11 387.61 236.546 397.67 244.186 407.673C244.623 408.256 245.411 408.664 246.023 409.16" stroke="#C9A969" stroke-width="2.20625" stroke-miterlimit="10" stroke-linecap="round" stroke-linejoin="round"/>
<path d="M-15.6133 260.787C-14.5635 261.632 -13.4845 262.478 -12.4347 263.324C-4.47361 269.681 2.20436 276.855 7.68671 284.67C15.1229 295.314 22.1216 306.191 29.7911 316.747C36.9065 326.517 46.034 334.973 58.6026 340.66C65.9513 343.984 73.7665 346.113 82.1942 346.784C86.1601 347.104 90.1553 347.659 94.1212 347.571C100.216 347.425 106.311 346.813 112.405 346.375C117.888 345.967 123.37 345.471 128.852 345.121C134.16 344.772 139.467 344.217 144.745 344.334C159.822 344.597 173.382 348.388 185.309 355.882C198.723 364.31 208.405 375.187 217.328 386.56C222.869 393.617 227.972 400.907 233.309 408.081C233.63 408.518 234.329 408.81 234.883 409.16" stroke="#C9A969" stroke-width="2.20625" stroke-miterlimit="10" stroke-linecap="round" stroke-linejoin="round"/>
<path d="M-15.6133 270.906C-13.0471 273.647 -10.4809 276.388 -7.94382 279.158C-1.29502 286.39 3.63327 294.351 8.56155 302.371C15.9977 314.473 22.7632 326.866 33.9028 337.277C43.5553 346.288 55.2782 352.674 69.7131 355.62C78.9864 357.486 88.5514 357.748 98.058 357.282C105.319 356.903 112.551 355.882 119.812 355.241C129.144 354.424 138.563 353.841 147.895 354.453C161.892 355.386 174.111 359.819 184.784 367.226C198.082 376.47 207.384 388.105 216.308 400.003C218.553 402.978 220.886 405.923 223.19 408.868" stroke="#C9A969" stroke-width="2.20625" stroke-miterlimit="10" stroke-linecap="round" stroke-linejoin="round"/>
<path d="M-15.6133 286.974C-12.2597 292.106 -8.70202 297.18 -5.58175 302.429C-1.99489 308.466 1.21287 314.648 4.53727 320.801C11.711 333.953 19.9637 346.58 33.6987 356.29C39.9684 360.694 46.9672 364.193 54.8699 366.439C61.7229 368.392 68.7508 369.617 76.0703 370.113C84.3521 370.667 92.5173 370.404 100.741 369.617C106.107 369.092 111.531 368.917 116.896 368.305C124.741 367.401 132.585 366.876 140.488 367.08C154.106 367.459 166.354 370.813 177.056 377.637C188.4 384.839 196.594 394.113 204.147 403.824C205.576 405.661 206.218 407.964 208.871 409.131" stroke="#C9A969" stroke-width="2.20625" stroke-miterlimit="10" stroke-linecap="round" stroke-linejoin="round"/>
<path d="M-15.6133 60.0392C-14.9134 59.5435 -14.2719 58.9602 -13.4845 58.5811C-0.945078 52.1656 11.5652 45.6918 24.1629 39.3638C34.107 34.348 45.0134 30.8778 55.9489 27.4951C63.56 25.1622 71.2878 22.975 78.6948 20.263C86.3059 17.4927 92.8964 13.4393 96.979 7.432C100.362 2.4454 101.616 -2.83282 100.595 -8.60679C99.7494 -13.3309 98.1747 -17.7052 94.9086 -21.7003C90.9426 -26.5411 85.7227 -29.7488 78.2282 -30.6528C72.3085 -31.3819 66.8261 -30.0988 61.2563 -29.2239C54.4617 -28.1741 47.8712 -26.3661 41.0766 -25.3455C34.5444 -24.354 27.9831 -23.9457 21.1885 -24.5581C9.99046 -25.5496 -0.245203 -28.6115 -10.3059 -32.2859C-12.1722 -33.0149 -13.8344 -34.123 -15.6133 -35.0562" stroke="#C9A969" stroke-width="2.20625" stroke-miterlimit="10" stroke-linecap="round" stroke-linejoin="round"/>
<path d="M-15.6133 312.344C-14.476 315.027 -13.3679 317.71 -12.1431 320.363C-9.25609 326.575 -6.45659 332.815 -3.39464 338.939C2.7001 351.07 11.1861 361.977 23.638 370.609C33.8445 377.695 45.8299 381.923 59.1275 383.994C67.5843 385.306 76.0703 385.51 84.5854 385.131C91.8466 384.81 99.0786 383.79 106.34 383.119C111.443 382.652 116.576 382.244 121.708 381.836C125.586 381.544 129.465 381.136 133.372 381.019C136.026 380.932 138.709 381.107 141.304 381.427C147.108 382.186 152.823 382.973 158.306 384.927C164.867 387.26 170.553 390.497 175.744 394.317C181.081 398.254 185.426 402.861 189.567 407.614C190.062 408.168 190.791 408.606 191.404 409.102" stroke="#C9A969" stroke-width="2.20625" stroke-miterlimit="10" stroke-linecap="round" stroke-linejoin="round"/>
<path d="M-15.6133 350.779C-14.8259 352.762 -14.301 354.832 -13.1929 356.669C-7.44808 366.351 -0.653464 375.508 9.31975 382.856C20.1678 390.876 32.9114 396.037 47.4629 398.312C54.7241 399.449 62.0728 400.091 69.4506 399.945C75.4579 399.828 81.4943 399.303 87.4724 398.691C96.075 397.845 104.619 396.737 113.193 395.775C121.183 394.9 129.261 394.521 137.309 394.988C147.982 395.629 157.489 398.837 165.683 404.407C168.016 406.011 170.437 407.498 172.828 409.073" stroke="#C9A969" stroke-width="2.20625" stroke-miterlimit="10" stroke-linecap="round" stroke-linejoin="round"/>
<path d="M362.086 409.102C366.139 407.352 370.28 405.69 374.275 403.794C384.803 398.779 395.476 393.938 406.907 390.322C415.714 387.522 424.725 385.423 434.173 384.285C441.609 383.381 449.074 383.177 456.452 383.644C472.112 384.635 486.722 388.66 500.194 395.163C507.339 398.633 514.075 402.54 520.112 407.177C521.162 407.964 522.561 408.46 523.786 409.102" stroke="#C9A969" stroke-width="2.20625" stroke-miterlimit="10" stroke-linecap="round" stroke-linejoin="round"/>
<path d="M380.107 409.102C383.636 407.614 387.223 406.186 390.693 404.669C403.553 398.983 416.938 394.317 431.548 392.538C438.576 391.663 445.896 391.342 452.982 391.721C465.288 392.392 477.157 394.929 487.946 399.887C493.487 402.424 498.736 405.34 504.16 408.081C504.977 408.489 505.91 408.781 506.814 409.16" stroke="#C9A969" stroke-width="2.20625" stroke-miterlimit="10" stroke-linecap="round" stroke-linejoin="round"/>
<path d="M406.061 409.102C410.289 407.965 414.459 406.623 418.804 405.777C424.578 404.64 430.41 403.765 436.301 403.036C439.771 402.599 443.358 402.511 446.887 402.599C456.947 402.861 466.6 404.698 475.786 408.052C477.039 408.519 478.439 408.781 479.751 409.131" stroke="#C9A969" stroke-width="2.20625" stroke-miterlimit="10" stroke-linecap="round" stroke-linejoin="round"/>
<path d="M-8.73141 180.476C-6.77759 185.638 -1.79099 188.641 3.45807 191.47C12.5273 196.311 22.3838 199.781 32.882 201.968C37.0521 202.843 41.3096 203.426 45.8588 202.784C52.3618 201.91 57.1151 196.865 58.0191 191.674C59.2147 184.763 57.6984 178.201 53.5574 172.019C49.2415 165.604 42.7385 161.696 33.6693 160.85C18.3012 159.392 5.47021 163.65 -5.2612 172.252C-7.91489 174.41 -9.16883 177.152 -8.73141 180.243" stroke="#C9A969" stroke-width="2.20625" stroke-miterlimit="10" stroke-linecap="round" stroke-linejoin="round"/>
<path d="M380.37 208.384C383.257 213.953 387.573 214.362 393.609 213.399C404.399 211.679 414.547 208.325 424.928 205.467C435.076 202.668 445.37 200.131 455.664 197.623C468.087 194.59 480.656 191.907 492.991 188.641C500.923 186.542 507.63 182.751 511.246 176.452C513.579 172.398 513.987 167.995 513.113 163.592C512.5 160.471 511.829 157.322 510.721 154.289C507.601 145.949 502.993 138.192 495.936 131.456C492.116 127.81 487.888 124.719 482.435 122.532C474.357 119.237 466.396 119.499 458.289 121.978C449.949 124.515 443.008 128.773 436.535 133.584C420.496 145.482 408.19 159.713 397.137 174.615C391.276 182.547 385.852 190.683 382.178 199.518C381.011 202.347 380.078 205.176 380.34 208.179" stroke="#C9A969" stroke-width="2.20625" stroke-miterlimit="10" stroke-linecap="round" stroke-linejoin="round"/>
</g>
</g>
</svg>
