<svg width="29" height="37" viewBox="0 0 29 37" fill="none" xmlns="http://www.w3.org/2000/svg">
<path d="M7.1543 3.76504C3.38203 5.83183 0.224023 7.58789 0.144531 7.66738C0 7.80469 0 7.90586 0 13.4992C0 19.6346 0.00722656 19.8008 0.397461 21.752C1.56094 27.5621 5.34043 32.6424 10.5869 35.4318C11.548 35.9449 13.9545 37 14.1568 37C14.3953 36.9928 17.5316 35.6125 18.4205 35.1139C20.2561 34.0877 21.6219 33.0398 23.0889 31.5367C26.1313 28.4221 27.974 24.657 28.6244 20.2344C28.7328 19.5189 28.7545 18.5867 28.7762 13.6437L28.8051 7.89141L28.6027 7.67461C28.3498 7.40723 14.4459 0 14.193 0C14.099 0 10.9338 1.69101 7.1543 3.76504ZM20.8486 5.01523L27.3887 8.50566V13.8461C27.3814 19.0203 27.3814 19.2154 27.2225 20.2271C26.5938 24.2234 24.9172 27.6488 22.2289 30.4383C20.2561 32.4834 18.4277 33.7119 15.4215 35.0055L14.1496 35.5547L13.109 35.0922C11.2518 34.2756 10.1389 33.6541 8.91035 32.7363C5.11641 29.9107 2.48594 25.676 1.66934 21.1016C1.39473 19.5406 1.37305 19.0709 1.37305 13.7449V8.51289L7.73242 5.02246C11.2301 3.10019 14.1424 1.5248 14.2002 1.5248C14.258 1.5248 17.2498 3.09297 20.8486 5.01523Z" fill="#AE7EFF"/>
<path d="M19.7502 15.0529C19.3383 15.3853 17.5027 16.8812 15.66 18.3771L12.3141 21.1015L10.7893 19.3165C8.96094 17.163 8.93203 17.1269 8.59238 17.1269C8.24551 17.1269 8.06484 17.2353 7.94199 17.5316C7.85527 17.7411 7.85527 17.8134 7.94199 18.0085C8.07207 18.3265 11.6998 22.554 11.9455 22.6841C12.0756 22.7564 12.1984 22.7636 12.3719 22.7202C12.6176 22.6552 21.2316 15.6888 21.3617 15.4575C21.5857 15.0312 21.2316 14.4531 20.7475 14.4531C20.5307 14.4531 20.3645 14.5542 19.7502 15.0529Z" fill="#AE7EFF"/>
</svg>
