<svg width="50" height="50" viewBox="0 0 50 50" fill="none" xmlns="http://www.w3.org/2000/svg">
<circle cx="25.0001" cy="25" r="25" fill="#F2F2F2"/>
<path opacity="0.5" d="M19.0001 26.5661V31.7835C19.0001 32.0602 19.1055 32.3256 19.293 32.5213C19.4806 32.717 19.7349 32.8269 20.0001 32.8269H32.0502L37.0002 37.0008V20.3052C37.0002 20.0284 36.8949 19.763 36.7073 19.5673C36.5198 19.3717 36.2654 19.2617 36.0002 19.2617H31.0002V25.5226C31.0002 25.7993 30.8948 26.0647 30.7073 26.2604C30.5198 26.4561 30.2654 26.5661 30.0002 26.5661H19.0001Z" fill="#9BBEA2"/>
<path d="M17.9501 26.5652L13.0001 30.7391V14.0435C13.0001 13.7667 13.1055 13.5013 13.293 13.3056C13.4806 13.1099 13.7349 13 14.0001 13H30.0002C30.2654 13 30.5198 13.1099 30.7073 13.3056C30.8949 13.5013 31.0002 13.7667 31.0002 14.0435V25.5217C31.0002 25.7985 30.8949 26.0639 30.7073 26.2596C30.5198 26.4553 30.2654 26.5652 30.0002 26.5652H17.9501Z" stroke="black" stroke-width="1.5" stroke-linecap="round" stroke-linejoin="round"/>
<path d="M19.0001 26.5661V31.7835C19.0001 32.0602 19.1055 32.3256 19.293 32.5213C19.4806 32.717 19.7349 32.8269 20.0001 32.8269H32.0502L37.0002 37.0008V20.3052C37.0002 20.0284 36.8949 19.763 36.7073 19.5673C36.5198 19.3717 36.2654 19.2617 36.0002 19.2617H31.0002" stroke="black" stroke-width="1.5" stroke-linecap="round" stroke-linejoin="round"/>
</svg>
