<svg width="20" height="18" viewBox="0 0 20 18" fill="none" xmlns="http://www.w3.org/2000/svg">
<path d="M1 9C1 6.67029 1 5.50544 1.3806 4.58658C1.88807 3.36144 2.86144 2.38807 4.08658 1.8806C5.00544 1.5 6.17029 1.5 8.5 1.5H11.5C13.8297 1.5 14.9946 1.5 15.9134 1.8806C17.1386 2.38807 18.1119 3.36144 18.6194 4.58658C19 5.50544 19 6.67029 19 9V9C19 11.3297 19 12.4946 18.6194 13.4134C18.1119 14.6386 17.1386 15.6119 15.9134 16.1194C14.9946 16.5 13.8297 16.5 11.5 16.5H8.5C6.17029 16.5 5.00544 16.5 4.08658 16.1194C2.86144 15.6119 1.88807 14.6386 1.3806 13.4134C1 12.4946 1 11.3297 1 9V9Z" stroke="#252422" stroke-width="1.5" stroke-linejoin="round"/>
<path d="M15.7461 6.60162C15.4203 6.85738 15.3635 7.32885 15.6193 7.65467C15.875 7.98048 16.3465 8.03726 16.6723 7.7815L15.7461 6.60162ZM13.5025 10.2269C13.8295 9.97263 13.8884 9.50143 13.634 9.17447C13.3797 8.84752 12.9085 8.78863 12.5816 9.04294L13.5025 10.2269ZM6.96064 9.63508L6.5002 10.2271L6.96064 9.63508ZM0.540534 5.59202L6.5002 10.2271L7.42108 9.04306L1.46142 4.40798L0.540534 5.59202ZM16.6723 7.7815L19.4641 5.58994L18.5379 4.41006L15.7461 6.60162L16.6723 7.7815ZM6.5002 10.2271C8.55956 11.8288 11.4432 11.8287 13.5025 10.2269L12.5816 9.04294C11.0639 10.2234 8.93877 10.2234 7.42108 9.04306L6.5002 10.2271Z" fill="#252422"/>
</svg>
