<svg width="70" height="70" viewBox="0 0 70 70" fill="none" xmlns="http://www.w3.org/2000/svg">
<g clip-path="url(#clip0_172_517)">
<path d="M60.0992 54.3783C58.913 54.3792 57.7532 54.0282 56.7664 53.3699C55.7797 52.7115 55.0104 51.7752 54.5559 50.6795C54.1013 49.5839 53.9819 48.378 54.2128 47.2145C54.4437 46.0509 55.0145 44.982 55.853 44.1429C56.6915 43.3039 57.76 42.7323 58.9233 42.5006C60.0867 42.2688 61.2926 42.3873 62.3886 42.8411C63.4846 43.2948 64.4214 44.0634 65.0806 45.0497C65.7397 46.0359 66.0915 47.1955 66.0915 48.3817C66.0907 49.9711 65.4593 51.4953 64.3358 52.6196C63.2123 53.7439 61.6886 54.3764 60.0992 54.3783ZM60.0992 44.5725C59.3456 44.5716 58.6087 44.7943 57.9817 45.2123C57.3547 45.6304 56.8658 46.225 56.5769 46.9209C56.2879 47.6169 56.2118 48.3829 56.3583 49.1221C56.5048 49.8613 56.8672 50.5405 57.3998 51.0736C57.9323 51.6068 58.611 51.97 59.3501 52.1173C60.0891 52.2647 60.8552 52.1895 61.5515 51.9013C62.2478 51.6131 62.843 51.1249 63.2617 50.4984C63.6805 49.8719 63.904 49.1352 63.904 48.3817C63.9036 47.3723 63.5028 46.4043 62.7894 45.6902C62.0761 44.976 61.1086 44.5741 60.0992 44.5725Z" fill="#0B0C0E"/>
<path d="M28.4986 54.3783C27.3123 54.3795 26.1524 54.0288 25.1654 53.3706C24.1785 52.7123 23.409 51.7762 22.9542 50.6805C22.4995 49.5849 22.3799 48.379 22.6106 47.2154C22.8413 46.0517 23.412 44.9827 24.2504 44.1435C25.0888 43.3042 26.1573 42.7325 27.3207 42.5007C28.4841 42.2688 29.6902 42.3872 30.7862 42.8409C31.8823 43.2946 32.8192 44.0632 33.4784 45.0495C34.1376 46.0358 34.4894 47.1954 34.4894 48.3817C34.4883 49.9707 33.8569 51.4944 32.7338 52.6186C31.6108 53.7428 30.0876 54.3756 28.4986 54.3783ZM28.4986 44.5725C27.745 44.5714 27.0079 44.7938 26.3807 45.2116C25.7536 45.6295 25.2644 46.224 24.9752 46.9199C24.686 47.6159 24.6098 48.3819 24.7561 49.1212C24.9024 49.8605 25.2647 50.5398 25.7972 51.0731C26.3297 51.6064 27.0084 51.9698 27.7475 52.1172C28.4865 52.2647 29.2527 52.1896 29.9491 51.9014C30.6455 51.6133 31.2407 51.1251 31.6596 50.4985C32.0784 49.872 32.3019 49.1353 32.3019 48.3817C32.3012 47.3727 31.9004 46.4051 31.1875 45.6911C30.4745 44.9771 29.5076 44.5748 28.4986 44.5725Z" fill="#0B0C0E"/>
<path d="M67.9889 49.4754H64.9979C64.7078 49.4754 64.4296 49.3602 64.2245 49.1551C64.0193 48.95 63.9041 48.6718 63.9041 48.3817C63.9041 48.0916 64.0193 47.8134 64.2245 47.6083C64.4296 47.4032 64.7078 47.2879 64.9979 47.2879H67.6797V41.4881C67.679 40.704 67.4783 39.933 67.0964 39.2482L61.1756 28.6329C61.125 28.5424 61.0512 28.4669 60.9617 28.4143C60.8722 28.3618 60.7704 28.334 60.6666 28.334H52.5977V47.2923H55.2022C55.4923 47.2923 55.7705 47.4076 55.9756 47.6127C56.1808 47.8178 56.296 48.096 56.296 48.3861C56.296 48.6761 56.1808 48.9543 55.9756 49.1595C55.7705 49.3646 55.4923 49.4798 55.2022 49.4798H51.5039C51.2138 49.4798 50.9356 49.3646 50.7305 49.1595C50.5254 48.9543 50.4102 48.6761 50.4102 48.3861V27.2402C50.4102 26.9502 50.5254 26.672 50.7305 26.4668C50.9356 26.2617 51.2138 26.1465 51.5039 26.1465H60.6666C61.16 26.1462 61.6446 26.2778 62.0702 26.5275C62.4958 26.7772 62.847 27.136 63.0874 27.5669L69.0068 38.1836C69.5696 39.1941 69.8652 40.3315 69.8658 41.4881V47.5986C69.865 48.0961 69.667 48.5731 69.3152 48.9249C68.9634 49.2767 68.4864 49.4747 67.9889 49.4754Z" fill="#0B0C0E"/>
<path d="M23.6002 49.4754H13.1133C12.8232 49.4754 12.545 49.3602 12.3399 49.155C12.1348 48.9499 12.0195 48.6717 12.0195 48.3816V39.97C12.0195 39.6799 12.1348 39.4017 12.3399 39.1966C12.545 38.9915 12.8232 38.8762 13.1133 38.8762C13.4034 38.8762 13.6816 38.9915 13.8867 39.1966C14.0918 39.4017 14.207 39.6799 14.207 39.97V47.2879H23.6002C23.8902 47.2879 24.1684 47.4031 24.3736 47.6082C24.5787 47.8134 24.6939 48.0916 24.6939 48.3816C24.6939 48.6717 24.5787 48.9499 24.3736 49.155C24.1684 49.3602 23.8902 49.4754 23.6002 49.4754Z" fill="#0B0C0E"/>
<path d="M13.1133 36.0893C12.8232 36.0893 12.545 35.9741 12.3399 35.7689C12.1348 35.5638 12.0195 35.2856 12.0195 34.9955V27.6514C12.0195 27.3613 12.1348 27.0831 12.3399 26.878C12.545 26.6729 12.8232 26.5576 13.1133 26.5576C13.4034 26.5576 13.6816 26.6729 13.8867 26.878C14.0918 27.0831 14.207 27.3613 14.207 27.6514V34.9999C14.2059 35.2892 14.0901 35.5663 13.8851 35.7705C13.6801 35.9747 13.4026 36.0893 13.1133 36.0893Z" fill="#0B0C0E"/>
<path d="M51.5039 49.4755H33.3958C33.1057 49.4755 32.8275 49.3603 32.6224 49.1552C32.4173 48.9501 32.302 48.6719 32.302 48.3818C32.302 48.0917 32.4173 47.8135 32.6224 47.6084C32.8275 47.4033 33.1057 47.288 33.3958 47.288H50.4102V18.6741H14.207V23.1789C14.207 23.4689 14.0918 23.7471 13.8867 23.9523C13.6816 24.1574 13.4034 24.2726 13.1133 24.2726C12.8232 24.2726 12.545 24.1574 12.3399 23.9523C12.1348 23.7471 12.0195 23.4689 12.0195 23.1789V18.4728C12.0203 17.946 12.23 17.441 12.6027 17.0687C12.9753 16.6963 13.4804 16.487 14.0072 16.4866H50.6114C51.138 16.4873 51.6427 16.6969 52.015 17.0692C52.3874 17.4415 52.5969 17.9463 52.5977 18.4728V48.3818C52.5977 48.6719 52.4824 48.9501 52.2773 49.1552C52.0722 49.3603 51.794 49.4755 51.5039 49.4755Z" fill="#0B0C0E"/>
<path d="M17.4371 41.0637H3.55518C3.2651 41.0637 2.9869 40.9485 2.78178 40.7434C2.57666 40.5382 2.46143 40.2601 2.46143 39.97C2.46143 39.6799 2.57666 39.4017 2.78178 39.1966C2.9869 38.9915 3.2651 38.8762 3.55518 38.8762H17.4371C17.7271 38.8762 18.0053 38.9915 18.2105 39.1966C18.4156 39.4017 18.5308 39.6799 18.5308 39.97C18.5308 40.2601 18.4156 40.5382 18.2105 40.7434C18.0053 40.9485 17.7271 41.0637 17.4371 41.0637Z" fill="#0B0C0E"/>
<path d="M28.499 36.0894H9.12793C8.83785 36.0894 8.55965 35.9741 8.35453 35.769C8.14941 35.5639 8.03418 35.2857 8.03418 34.9956C8.03418 34.7055 8.14941 34.4273 8.35453 34.2222C8.55965 34.0171 8.83785 33.9019 9.12793 33.9019H28.499C28.7891 33.9019 29.0673 34.0171 29.2724 34.2222C29.4775 34.4273 29.5927 34.7055 29.5927 34.9956C29.5927 35.2857 29.4775 35.5639 29.2724 35.769C29.0673 35.9741 28.7891 36.0894 28.499 36.0894Z" fill="#0B0C0E"/>
<path d="M8.52531 30.3145H0.960937C0.670857 30.3145 0.392657 30.1992 0.187539 29.9941C-0.0175785 29.789 -0.132812 29.5108 -0.132812 29.2207C-0.132812 28.9306 -0.0175785 28.6524 0.187539 28.4473C0.392657 28.2422 0.670857 28.127 0.960937 28.127H8.52531C8.81539 28.127 9.09359 28.2422 9.29871 28.4473C9.50383 28.6524 9.61906 28.9306 9.61906 29.2207C9.61906 29.5108 9.50383 29.789 9.29871 29.9941C9.09359 30.1992 8.81539 30.3145 8.52531 30.3145Z" fill="#0B0C0E"/>
<path d="M20.6543 24.2725H7.30176C7.01168 24.2725 6.73348 24.1572 6.52836 23.9521C6.32324 23.747 6.20801 23.4688 6.20801 23.1787C6.20801 22.8886 6.32324 22.6104 6.52836 22.4053C6.73348 22.2002 7.01168 22.085 7.30176 22.085H20.6543C20.9443 22.085 21.2225 22.2002 21.4277 22.4053C21.6328 22.6104 21.748 22.8886 21.748 23.1787C21.748 23.4688 21.6328 23.747 21.4277 23.9521C21.2225 24.1572 20.9443 24.2725 20.6543 24.2725Z" fill="#0B0C0E"/>
</g>
<defs>
<clipPath id="clip0_172_517">
<rect width="70" height="70" fill="white"/>
</clipPath>
</defs>
</svg>
