<svg width="20" height="18" viewBox="0 0 20 18" fill="none" xmlns="http://www.w3.org/2000/svg">
<path d="M1 9C1 6.67029 1 5.50544 1.3806 4.58658C1.88807 3.36144 2.86144 2.38807 4.08658 1.8806C5.00544 1.5 6.17029 1.5 8.5 1.5H11.5C13.8297 1.5 14.9946 1.5 15.9134 1.8806C17.1386 2.38807 18.1119 3.36144 18.6194 4.58658C19 5.50544 19 6.67029 19 9V9C19 11.3297 19 12.4946 18.6194 13.4134C18.1119 14.6386 17.1386 15.6119 15.9134 16.1194C14.9946 16.5 13.8297 16.5 11.5 16.5H8.5C6.17029 16.5 5.00544 16.5 4.08658 16.1194C2.86144 15.6119 1.88807 14.6386 1.3806 13.4134C1 12.4946 1 11.3297 1 9V9Z" stroke="#0B0C0E" stroke-width="1.5" stroke-linejoin="round"/>
<path d="M1 5L4.47486 7.70254C6.82448 9.52994 7.99929 10.4436 9.34127 10.6221C9.77876 10.6802 10.222 10.6802 10.6595 10.622C12.0015 10.4436 13.1762 9.5298 15.5258 7.70229L19 5" stroke="#0B0C0E" stroke-width="1.5" stroke-linejoin="round"/>
</svg>
