<svg width="46" height="28" viewBox="0 0 46 28" fill="none" xmlns="http://www.w3.org/2000/svg">
<path d="M10.094 15.8621C12.8814 15.8621 15.141 13.6025 15.141 10.8151C15.141 8.02769 12.8814 5.76807 10.094 5.76807C7.30663 5.76807 5.047 8.02769 5.047 10.8151C5.047 13.6025 7.30663 15.8621 10.094 15.8621Z" fill="#BBE0D9"/>
<path d="M14.1317 18.1692C12.8339 17.5924 11.536 17.304 10.094 17.304C4.47022 17.304 0 21.7742 0 27.398H10.094C10.094 23.793 11.6803 20.4764 14.1317 18.1692Z" fill="#BBE0D9"/>
<path d="M35.906 15.8621C38.6934 15.8621 40.953 13.6025 40.953 10.8151C40.953 8.02769 38.6934 5.76807 35.906 5.76807C33.1186 5.76807 30.8589 8.02769 30.8589 10.8151C30.8589 13.6025 33.1186 15.8621 35.906 15.8621Z" fill="#BBE0D9"/>
<path d="M35.906 17.304C34.464 17.304 33.1662 17.5924 31.8683 18.1692C34.3198 20.4764 35.906 23.793 35.906 27.5422H46C46 21.9184 41.5298 17.304 35.906 17.304Z" fill="#BBE0D9"/>
<path d="M22.9279 12.6897C26.3887 12.6897 29.2727 9.80564 29.2727 6.34483C29.2727 2.88401 26.3887 0 22.9279 0C19.4671 0 16.5831 2.88401 16.5831 6.34483C16.5831 9.80564 19.4671 12.6897 22.9279 12.6897Z" fill="#16A571"/>
<path d="M25.8119 27.5423H35.906C35.906 23.9373 34.3198 20.6206 31.8684 18.1692C29.5611 16.0062 26.3887 14.5642 22.9279 14.5642C19.4671 14.5642 16.2947 16.0062 13.9875 18.1692C11.5361 20.4764 10.0941 23.793 10.0941 27.3981H20.1881L25.8119 27.5423Z" fill="#16A571"/>
</svg>
