<svg width="24" height="25" viewBox="0 0 24 25" fill="none" xmlns="http://www.w3.org/2000/svg">
<g clip-path="url(#clip0_273_30)">
<path d="M8.944 5.13271L7.778 8.55571H8.555L11.978 4.04471L16.8 2.25571C17.345 2.02171 17.656 1.32171 17.423 0.777715C17.189 0.155715 16.489 -0.156285 15.944 0.0777145L11.978 1.55571H3.889L2.333 2.33271L8.166 2.95471L3.966 4.51071L1.556 3.03371L0 3.81171L3.889 6.92271L8.944 5.13271Z" fill="white"/>
<path d="M11.5008 8H13.5008L14.3008 10H8.30078L10.2868 13.965C10.9648 13.881 11.5628 13.525 12.0008 13C12.5008 13.6 13.2008 14 14.0008 14C14.8008 14 15.5008 13.6 16.0008 13C16.5008 13.6 17.2008 14 18.0008 14C18.8008 14 19.5008 13.6 20.0008 13C20.5008 13.6 21.2008 14 22.0008 14L24.0008 10H21.3008L20.5008 8C20.5008 7.4 20.1008 7 19.5008 7H12.5008C11.9008 7 11.5008 7.4 11.5008 8ZM18.5008 8L19.3008 10H16.3008L15.5008 8H18.5008Z" fill="white"/>
<path d="M5 20C3.9 20 3 20.9 3 22C3 23.1 3.9 24 5 24C6.1 24 7 23.1 7 22C7 20.9 6.1 20 5 20ZM5 23C4.4 23 4 22.6 4 22C4 21.4 4.4 21 5 21C5.6 21 6 21.4 6 22C6 22.6 5.6 23 5 23Z" fill="white"/>
<path d="M15 20C13.9 20 13 20.9 13 22C13 23.1 13.9 24 15 24C16.1 24 17 23.1 17 22C17 20.9 16.1 20 15 20ZM15 23C14.4 23 14 22.6 14 22C14 21.4 14.4 21 15 21C15.6 21 16 21.4 16 22C16 22.6 15.6 23 15 23Z" fill="white"/>
<path d="M19.014 18.836L14 18L11 15C11 15 10.742 15 6 15L3 18H1C0.45 18 0 18.45 0 19V20.5C0 21.328 0.671 22 1.5 22H2C2 20.3 3.3 19 5 19C6.7 19 8 20.3 8 22H12C12 20.3 13.3 19 15 19C16.7 19 18 20.3 18 22L20 20.996V20C20 19.45 19.557 18.926 19.014 18.836ZM8 18H5.666L7 16H8V18ZM9 18V16H10L12 18H9Z" fill="white"/>
<path d="M19.9995 14C19.4995 14.6 18.7995 15 17.9995 15C17.1995 15 16.4995 14.6 15.9995 14C15.4995 14.6 14.7995 15 13.9995 15C13.1995 15 12.4995 14.6 11.9995 14C11.8465 14.184 11.6685 14.34 11.4805 14.48L11.9995 15C12.4995 15.6 13.1995 16 13.9995 16C14.7995 16 15.4995 15.6 15.9995 15C16.4995 15.6 17.1995 16 17.9995 16C18.7995 16 19.4995 15.6 19.9995 15C20.4995 15.6 21.1995 16 21.9995 16C22.7995 16 23.4995 15.6 23.9995 15V14C23.4995 14.6 22.7995 15 21.9995 15C21.1995 15 20.4995 14.6 19.9995 14Z" fill="white"/>
</g>
<defs>
<clipPath id="clip0_273_30">
<rect width="24" height="25" fill="white"/>
</clipPath>
</defs>
</svg>
