<svg width="50" height="50" viewBox="0 0 50 50" fill="none" xmlns="http://www.w3.org/2000/svg">
<circle cx="25" cy="25" r="25" fill="#F2F2F2"/>
<path opacity="0.5" d="M13.2001 27.2C13.0637 26.4747 12.9967 25.738 13.0001 25C12.9985 22.5182 13.7673 20.0972 15.2002 18.0709C16.6332 16.0446 18.6597 14.513 21.0001 13.6875V22.6875L13.2001 27.2Z" fill="#9BBEA2"/>
<path d="M25 25V13" stroke="black" stroke-width="1.5" stroke-linecap="round" stroke-linejoin="round"/>
<path d="M35.3883 19L14.6133 31" stroke="black" stroke-width="1.5" stroke-linecap="round" stroke-linejoin="round"/>
<path d="M13.2001 27.2C13.0637 26.4747 12.9967 25.738 13.0001 25C12.9985 22.5182 13.7673 20.0972 15.2002 18.0709C16.6332 16.0446 18.6597 14.513 21.0001 13.6875V22.6875L13.2001 27.2Z" stroke="black" stroke-width="1.5" stroke-linecap="round" stroke-linejoin="round"/>
<path d="M25.0004 13C27.1031 13.0002 29.1688 13.553 30.9907 14.6029C32.8125 15.6528 34.3265 17.1629 35.381 18.9821C36.4355 20.8013 36.9934 22.8656 36.999 24.9683C37.0045 27.071 36.4575 29.1382 35.4126 30.963C34.3678 32.7877 32.8618 34.3058 31.0455 35.3653C29.2292 36.4248 27.1665 36.9885 25.0638 36.9998C22.9611 37.0112 20.8924 36.4698 19.0648 35.43C17.2372 34.3901 15.7149 32.8883 14.6504 31.075" stroke="black" stroke-width="1.5" stroke-linecap="round" stroke-linejoin="round"/>
</svg>
