<svg xmlns="http://www.w3.org/2000/svg" width="20" height="20" viewBox="0 0 20 20"><path d="M2.252,8h0a8.063,8.063,0,0,0,0,4H5.1a19.83,19.83,0,0,1,0-4H2.252ZM3.07,6H5.416A13.086,13.086,0,0,1,6.537,2.786h0A8.035,8.035,0,0,0,3.07,6ZM17.748,8H14.9a19.83,19.83,0,0,1,0,4h2.848a8.062,8.062,0,0,0,0-4ZM16.93,6h0a8.035,8.035,0,0,0-3.467-3.214A13.045,13.045,0,0,1,14.584,6H16.93ZM7.112,8h0A17.763,17.763,0,0,0,7,10a17.582,17.582,0,0,0,.112,2h5.776a17.763,17.763,0,0,0,0-4H7.112ZM7.47,6h5.06a10.758,10.758,0,0,0-.783-2.177C11.119,2.568,10.447,2,10,2s-1.119.568-1.747,1.823A10.784,10.784,0,0,0,7.47,6Zm-4.4,8h0a8.035,8.035,0,0,0,3.467,3.214A13.045,13.045,0,0,1,5.416,14H3.07Zm13.86,0H14.584a13.086,13.086,0,0,1-1.121,3.214h0A8.035,8.035,0,0,0,16.93,14ZM7.47,14a10.784,10.784,0,0,0,.783,2.177C8.881,17.432,9.553,18,10,18s1.119-.568,1.747-1.823A10.784,10.784,0,0,0,12.53,14H7.47ZM10,20A10,10,0,1,1,20,10,10,10,0,0,1,10,20Z" fill="#011d26"/></svg>