<?xml version="1.0"?>
<svg xmlns="http://www.w3.org/2000/svg" id="Capa_1" enable-background="new 0 0 512.019 512.019" height="512px" viewBox="0 0 512.019 512.019" width="512px" class=""><g><g><path d="m491.486 493.087-7.702-28.383c-9.997-36.844-37.521-66.245-73.627-78.647l-84.023-28.862v-23.779c15.122-12.393 26.361-29.353 31.599-48.752l24.456-24.84c30.731-31.213 38.832-78.806 20.158-118.428l-32.841-69.686c-20.531-43.562-64.914-71.71-113.072-71.71h-.807c-48.324 0-92.773 28.287-113.238 72.064l-32.856 70.286c-18.616 39.821-10.267 87.488 20.773 118.612l24.107 24.172c5.292 19.203 16.472 35.988 31.472 48.282v23.639l-84.108 28.979c-36.054 12.422-63.54 41.81-73.526 78.612l-7.717 28.441c-2.169 7.995 2.553 16.235 10.548 18.405 1.315.357 2.637.527 3.937.527 6.605 0 12.655-4.396 14.468-11.076l7.717-28.441c7.381-27.202 27.697-48.923 54.345-58.105l94.222-32.463c6.052-2.085 10.114-7.781 10.114-14.182v-17.731c9.47 3.174 19.6 4.898 30.125 4.898h20c10.525 0 20.655-1.724 30.125-4.898v17.881c0 6.406 4.068 12.105 10.127 14.186l94.15 32.34c26.686 9.167 47.031 30.898 54.42 58.131l7.702 28.383c1.813 6.68 7.863 11.076 14.467 11.076 1.3 0 2.622-.17 3.938-.527 7.994-2.169 12.717-10.409 10.547-18.404zm-116.275-338.901c13.297 28.214 7.583 62.085-14.201 84.383v-41.949c0-4.155-1.724-8.124-4.76-10.961l-78.266-73.114 51.555-48.161c5.051 6.065 9.384 12.804 12.831 20.116zm-238.502.868 32.857-70.285c15.553-33.271 49.334-54.769 86.061-54.769h.807c18.115 0 35.523 5.247 50.383 14.555l-151.047 141.103c-3.037 2.837-4.76 6.806-4.76 10.961v42.597c-21.722-22.24-27.487-55.953-14.301-84.162zm109.301 169.865c-12.959 0-25.034-3.827-35.183-10.389-.938-.832-1.976-1.55-3.102-2.128-16.179-11.835-26.715-30.947-26.715-52.483v-56.786l75-70.063 75 70.063v56.786c0 21.536-10.536 40.649-26.715 52.483-1.125.578-2.164 1.296-3.102 2.128-10.149 6.561-22.224 10.389-35.183 10.389z" data-original="#000000" class="active-path" data-old_color="#000000" fill="#FFFFFF"/><path d="m401.01 452h-290c-8.284 0-15 6.716-15 15v29.984c0 8.284 6.716 15 15 15s15-6.716 15-15v-14.984h260v15.015c0 8.284 6.716 15 15 15s15-6.716 15-15v-30.015c0-8.284-6.716-15-15-15z" data-original="#000000" class="active-path" data-old_color="#000000" fill="#FFFFFF"/></g></g> </svg>
