<?xml version="1.0" encoding="UTF-8"?> <svg xmlns="http://www.w3.org/2000/svg" width="35" height="30" viewBox="0 0 35 30" fill="none"><path d="M0.278864 21.7337C0.278863 26.2992 3.97971 30.0001 8.54514 30.0001C13.1106 30.0001 16.8115 26.2992 16.8115 21.7337C16.8115 17.1682 13.1106 13.4674 8.54515 13.4674C7.60688 13.4674 6.70873 13.631 5.86794 13.9193C7.72821 3.25013 16.0481 -3.63025 8.33558 2.03244C-0.216412 8.31172 0.269705 21.4811 0.279274 21.7224C0.279274 21.7262 0.278864 21.7296 0.278864 21.7337Z" fill="#DFA245"></path><path d="M18.4664 21.7337C18.4664 26.2992 22.1672 30 26.7327 30C31.2982 30 34.9991 26.2992 34.9991 21.7337C34.9991 17.1682 31.2982 13.4674 26.7327 13.4674C25.7943 13.4674 24.8963 13.631 24.0555 13.9192C25.9157 3.25006 34.2356 -3.63031 26.5231 2.03238C17.9711 8.31166 18.4572 21.481 18.4668 21.7224C18.4668 21.7261 18.4664 21.7295 18.4664 21.7337Z" fill="#DFA245"></path></svg> 