<?xml version="1.0" encoding="UTF-8"?> <svg xmlns="http://www.w3.org/2000/svg" xmlns:xlink="http://www.w3.org/1999/xlink" width="44px" height="55px" viewBox="0 0 44 55"><!-- Generator: Sketch 55.2 (78181) - https://sketchapp.com --><title>file</title><desc>Created with Sketch.</desc><g id="Page-1" stroke="none" stroke-width="1" fill="none" fill-rule="evenodd"><g id="Achirvements" transform="translate(-1292.000000, -520.000000)"><g id="features" transform="translate(265.000000, 471.000000)"><g id="4" transform="translate(922.373099, 1.000000)"><g id="Group" transform="translate(46.951804, 43.086603)"><g id="file" transform="translate(47.000000, 0.000000)"><polygon id="Shape" points="0 0 65 0 65 65 0 65"></polygon><path d="M15.8630952,5.41666667 L37.2027809,5.41666667 C38.1633855,5.41666667 39.0929137,5.75706167 39.8263417,6.37741972 L52.7277275,17.2898418 C53.6403107,18.0617351 54.1666667,19.1963369 54.1666667,20.3915888 L54.1666667,54.392361 C54.1666667,59.2417451 54.1112869,59.5833333 49.1369046,59.5833333 L15.8630952,59.5833333 C10.888713,59.5833333 10.8333333,59.2417451 10.8333333,54.392361 L10.8333333,10.6076389 C10.8333333,5.75825491 10.888713,5.41666667 15.8630952,5.41666667 Z" id="Combined-Shape" fill="#FFD032" opacity="0.3"></path><rect id="Rectangle" fill="#FFD032" x="16.25" y="29.7916667" width="24.375" height="5.41666667" rx="0.753108821"></rect><rect id="Rectangle-Copy" fill="#FFD032" x="16.25" y="40.625" width="13.5416667" height="5.41666667" rx="0.753108821"></rect></g></g></g></g></g></g></svg> 