<svg width="104" height="79" viewBox="0 0 104 79" fill="none" xmlns="http://www.w3.org/2000/svg">
<path fill-rule="evenodd" clip-rule="evenodd" d="M51.4556 12.0018C66.3424 11.8658 80.9968 19.3697 85.6101 33.4265C90.2344 47.5172 82.8201 62.1051 70.766 70.8422C58.6198 79.6461 42.2745 82.4027 30.0627 73.6887C17.6766 64.8503 14.2162 48.3547 19.1827 34.0337C23.8823 20.4821 37.0238 12.1337 51.4556 12.0018Z" fill="#EFFFF4"/>
<path d="M80.5448 15.4494C75.6939 9.5737 69.1479 5.33813 61.8004 3.32086C54.4529 1.30359 46.6619 1.60291 39.4908 4.17795C32.3198 6.753 26.1181 11.4783 21.7323 17.7089C17.3465 23.9394 14.9903 31.3716 14.9854 38.991V49.0995" stroke="#47CD70" stroke-width="3" stroke-linecap="round" stroke-linejoin="round"/>
<path d="M25.0801 64.3901C30.167 69.7804 36.755 73.5194 43.9911 75.1231C51.2272 76.7268 58.778 76.1213 65.666 73.3849C72.5541 70.6485 78.462 65.9074 82.6249 59.7753C86.7879 53.6432 89.0141 46.4026 89.0153 38.991V32.261" stroke="#47CD70" stroke-width="3" stroke-linecap="round" stroke-linejoin="round"/>
<path d="M1.52539 35.626L14.9854 49.086L28.4455 35.626" stroke="#47CD70" stroke-width="3" stroke-linecap="round" stroke-linejoin="round"/>
<path d="M102.476 45.721L89.0157 32.261L75.5557 45.721" stroke="#47CD70" stroke-width="3" stroke-linecap="round" stroke-linejoin="round"/>
</svg>
