<svg version="1.2" xmlns="http://www.w3.org/2000/svg" viewBox="0 0 43 42" width="43" height="42">
	<title>insurbes-svg</title>
	<style>
		.s0 { fill: #003d2b } 
		.s1 { fill: #def071 } 
		.s2 { fill: #bb7bf9 } 
		.s3 { fill: #ff8b59 } 
	</style>
	<path id="Layer" class="s0" d="m42.7 0v21h-21z"/>
	<path id="Layer" class="s1" d="m21.7 21v21h21z"/>
	<path id="Layer" class="s2" d="m0.7 42v-21h21z"/>
	<path id="Layer" class="s3" d="m21.7 21v-21h-21z"/>
	<path id="Layer" class="s0" d="m28.4 9.9c1.7 0 3.1-1.3 3.1-3.1 0-1.7-1.4-3.1-3.1-3.1-1.7 0-3.1 1.4-3.1 3.1 0 1.8 1.4 3.1 3.1 3.1z"/>
	<path id="Layer" class="s3" d="m6.2 18.6c1.7 0 3.1-1.4 3.1-3.1 0-1.7-1.4-3.1-3.1-3.1-1.7 0-3.1 1.4-3.1 3.1 0 1.7 1.4 3.1 3.1 3.1z"/>
	<path id="Layer" class="s2" d="m14.8 39.6c1.7 0 3.1-1.3 3.1-3.1 0-1.7-1.4-3.1-3.1-3.1-1.7 0-3.1 1.4-3.1 3.1 0 1.8 1.4 3.1 3.1 3.1z"/>
	<path id="Layer" class="s1" d="m37.1 31c1.7 0 3.1-1.4 3.1-3.1 0-1.7-1.4-3.1-3.1-3.1-1.7 0-3.1 1.4-3.1 3.1 0 1.7 1.4 3.1 3.1 3.1z"/>
</svg>