<?xml version="1.0" encoding="UTF-8"?> <svg xmlns="http://www.w3.org/2000/svg" width="50" height="50" viewBox="0 0 50 50" fill="none"><path d="M40.2084 28.5743C42.2534 23.4318 42.1498 17.6553 39.8882 12.6349L33.0607 12.5C32.9476 12.4978 32.8546 12.5884 32.8538 12.7015L32.7963 21.0768C32.7959 21.1311 32.8173 21.1833 32.8557 21.2216L40.2084 28.5743ZM40.2084 28.5743C39.1947 31.1232 37.6532 33.5164 35.5851 35.5846C33.5169 37.6528 31.1237 39.1942 28.5748 40.2079M28.5748 40.2079C23.4323 42.2529 17.6558 42.1493 12.6353 39.8877L12.5005 33.0602C12.4983 32.9472 12.5889 32.8541 12.7019 32.8533L21.0773 32.7958C21.1316 32.7954 21.1837 32.8168 21.2221 32.8552L28.5748 40.2079Z" stroke="#ED6436" stroke-width="2"></path><path d="M16.6672 27.0833C16.6672 21.3303 21.3309 16.6666 27.0839 16.6666" stroke="#ED6436" stroke-width="2"></path><path d="M8.33386 27.0833C8.33386 16.7279 16.7285 8.33325 27.0839 8.33325" stroke="#ED6436" stroke-width="2"></path></svg> 