<svg width="25" height="24" viewBox="0 0 25 24" fill="none" xmlns="http://www.w3.org/2000/svg">
<path d="M21.6666 11.5C21.6701 12.8199 21.3617 14.1219 20.7666 15.3C20.0611 16.7118 18.9764 17.8992 17.6341 18.7293C16.2918 19.5594 14.7449 19.9994 13.1666 20C11.8468 20.0035 10.5447 19.6951 9.36663 19.1L3.66663 21L5.56663 15.3C4.97156 14.1219 4.66318 12.8199 4.66663 11.5C4.66724 9.92179 5.10724 8.37488 5.93735 7.03258C6.76745 5.69028 7.95488 4.6056 9.36663 3.90003C10.5447 3.30496 11.8468 2.99659 13.1666 3.00003H13.6666C15.751 3.11502 17.7197 3.99479 19.1958 5.47089C20.6719 6.94699 21.5516 8.91568 21.6666 11V11.5Z" stroke="#412D3D" stroke-width="2" stroke-linecap="round" stroke-linejoin="round"/>
</svg>
