<svg xmlns="http://www.w3.org/2000/svg" xmlns:xlink="http://www.w3.org/1999/xlink" width="37px" height="36px" viewBox="0 0 37 36"><!-- Generator: Sketch 55.2 (78181) - https://sketchapp.com --><title>pantone</title><desc>Created with Sketch.</desc><g id="Page-1" stroke="none" stroke-width="1" fill="none" fill-rule="evenodd"><g id="Services-" transform="translate(-1104.000000, -695.000000)" fill="#FFFFFF" fill-rule="nonzero"><g id="Group-6" transform="translate(265.000000, 637.000000)"><g id="Group-4" transform="translate(839.000000, 58.000000)"><g id="pantone"><path d="M37,23.3684211 L37,31.1578947 C37,33.3088985 35.2562669,35.0526316 33.1052632,35.0526316 L9.73684211,35.0526316 C5.43483458,35.0526316 1.94736842,31.5651654 1.94736842,27.2631579 C1.94736842,22.9611504 5.43483458,19.4736842 9.73684211,19.4736842 L33.1052632,19.4736842 C35.2562669,19.4736842 37,21.2174173 37,23.3684211 Z M7.78947368,31.1578947 C9.94047745,31.1578947 11.6842105,29.4141617 11.6842105,27.2631579 C11.6842105,25.1121541 9.94047745,23.3684211 7.78947368,23.3684211 C5.63846992,23.3684211 3.89473684,25.1121541 3.89473684,27.2631579 C3.89473684,29.4141617 5.63846992,31.1578947 7.78947368,31.1578947 Z" id="Combined-Shape" opacity="0.3"></path><path d="M24.424159,5.25789437 L29.9321486,10.765884 C31.453138,12.2868734 31.453138,14.7528844 29.9321486,16.2738738 L13.4081797,32.7978426 C10.366201,35.8398214 5.43417908,35.8398214 2.39220038,32.7978426 C-0.649778324,29.7558641 -0.649778324,24.8238421 2.39220038,21.7818634 L18.9161694,5.25789437 C20.4371588,3.73690503 22.9031696,3.73690503 24.424159,5.25789437 Z M7.78947368,31.1578947 C9.94047745,31.1578947 11.6842105,29.4141617 11.6842105,27.2631579 C11.6842105,25.1121541 9.94047745,23.3684211 7.78947368,23.3684211 C5.63846992,23.3684211 3.89473684,25.1121541 3.89473684,27.2631579 C3.89473684,29.4141617 5.63846992,31.1578947 7.78947368,31.1578947 Z" id="Combined-Shape" opacity="0.3"></path><path d="M3.89473684,0 L11.6842105,0 C13.8352143,0 15.5789474,1.74373308 15.5789474,3.89473684 L15.5789474,27.2631579 C15.5789474,31.5651654 12.0914812,35.0526316 7.78947368,35.0526316 C3.48746616,35.0526316 0,31.5651654 0,27.2631579 L0,3.89473684 C0,1.74373308 1.74373308,0 3.89473684,0 Z M7.78947368,31.1578947 C9.94047745,31.1578947 11.6842105,29.4141617 11.6842105,27.2631579 C11.6842105,25.1121541 9.94047745,23.3684211 7.78947368,23.3684211 C5.63846992,23.3684211 3.89473684,25.1121541 3.89473684,27.2631579 C3.89473684,29.4141617 5.63846992,31.1578947 7.78947368,31.1578947 Z" id="Combined-Shape"></path></g></g></g></g></g></svg>