<svg width="20" height="20" viewBox="0 0 20 20" fill="none" xmlns="http://www.w3.org/2000/svg">
<path d="M2.02513 2.07282L1.4949 1.54239L1.4949 1.54239L2.02513 2.07282ZM6.97487 2.07282L7.5051 1.54239L6.97487 2.07282ZM6.97487 7.02064L6.44465 6.4902L6.44465 6.4902L6.97487 7.02064ZM12.9853 13.0287L12.4551 12.4983L12.4551 12.4983L12.9853 13.0287ZM17.935 17.9765L17.4048 17.4461L17.4048 17.4461L17.935 17.9765ZM5.56066 14.4424L5.03043 14.9728L5.56066 14.4424ZM1.01853 4.90738L1.76852 4.90312C1.76838 4.87886 1.76707 4.85462 1.76458 4.83048L1.01853 4.90738ZM15.0994 18.9827L15.1762 18.2367C15.1521 18.2342 15.1279 18.2329 15.1036 18.2327L15.0994 18.9827ZM5.05559 8.00126L4.9372 7.26066C4.69728 7.29901 4.49081 7.45121 4.38319 7.66904C4.27556 7.88687 4.28013 8.14334 4.39544 8.3572L5.05559 8.00126ZM12.0043 14.9472L11.6486 15.6075C11.8624 15.7227 12.1188 15.7272 12.3366 15.6196C12.5543 15.512 12.7065 15.3056 12.7449 15.0657L12.0043 14.9472ZM6.11244 10.9433C6.37099 11.2669 6.84292 11.3197 7.16654 11.0611C7.49015 10.8026 7.54289 10.3306 7.28434 10.007L6.11244 10.9433ZM9.99484 12.7176C9.67117 12.4591 9.19925 12.5119 8.94077 12.8356C8.68229 13.1592 8.73513 13.6312 9.0588 13.8897L9.99484 12.7176ZM2.55535 2.60326C3.62932 1.52971 5.37068 1.52971 6.44465 2.60326L7.5051 1.54239C5.8454 -0.116668 3.1546 -0.116668 1.4949 1.54239L2.55535 2.60326ZM6.44465 2.60326C7.51845 3.67664 7.51845 5.41682 6.44465 6.4902L7.5051 7.55107C9.16497 5.89185 9.16497 3.20161 7.5051 1.54239L6.44465 2.60326ZM13.5155 13.5591C14.5895 12.4856 16.3308 12.4856 17.4048 13.5591L18.4653 12.4983C16.8055 10.8392 14.1148 10.8392 12.4551 12.4983L13.5155 13.5591ZM17.4048 13.5591C18.4786 14.6325 18.4786 16.3727 17.4048 17.4461L18.4653 18.5069C20.1251 16.8477 20.1251 14.1575 18.4653 12.4983L17.4048 13.5591ZM6.09089 13.9119C3.26504 11.0872 1.78435 7.6927 1.76852 4.90312L0.268544 4.91163C0.287109 8.18253 1.99291 11.9365 5.03043 14.9728L6.09089 13.9119ZM1.76458 4.83048C1.6825 4.03408 1.94644 3.21193 2.55535 2.60326L1.4949 1.54239C0.553198 2.48372 0.14608 3.75784 0.272484 4.98427L1.76458 4.83048ZM17.4048 17.4461C16.7959 18.0548 15.9732 18.3187 15.1762 18.2367L15.0225 19.7288C16.2491 19.8551 17.5236 19.4483 18.4653 18.5069L17.4048 17.4461ZM15.1036 18.2327C12.3127 18.2169 8.91671 16.7366 6.09089 13.9119L5.03043 14.9728C8.06797 18.0091 11.8232 19.7141 15.0951 19.7327L15.1036 18.2327ZM6.44465 6.4902C6.01844 6.91625 5.48913 7.17243 4.9372 7.26066L5.17398 8.74185C6.02737 8.60543 6.84804 8.20787 7.5051 7.55107L6.44465 6.4902ZM12.7449 15.0657C12.8331 14.5142 13.0893 13.9852 13.5155 13.5591L12.4551 12.4983C11.798 13.1551 11.4002 13.9755 11.2637 14.8288L12.7449 15.0657ZM7.28434 10.007C6.67114 9.23953 6.14722 8.44555 5.71575 7.64532L4.39544 8.3572C4.87072 9.23869 5.4447 10.1076 6.11244 10.9433L7.28434 10.007ZM12.36 14.287C11.5585 13.8551 10.7631 13.3311 9.99484 12.7176L9.0588 13.8897C9.8958 14.5581 10.7661 15.1321 11.6486 15.6075L12.36 14.287Z" fill="#252422"/>
</svg>
