<svg width="37" height="40" viewBox="0 0 37 40" fill="none" xmlns="http://www.w3.org/2000/svg">
<path d="M7.96875 0.185455C7.5 0.41983 7.21875 0.833893 7.10156 1.47452C6.71875 3.57608 5.1875 5.32608 3.04688 6.10733C2.69531 6.24014 2.08594 6.39639 1.6875 6.4667C1.29688 6.53702 0.882813 6.63858 0.765625 6.69327C0.460938 6.85733 0.0859375 7.31827 0.03125 7.61514C0 7.75577 -0.0078125 9.87295 0.0078125 12.3183C0.03125 15.873 0.0546875 16.8105 0.140625 16.9823C0.28125 17.2558 0.601563 17.3886 0.875 17.287C1.21875 17.1542 1.25 16.998 1.16406 15.8573C1.125 15.287 1.08594 13.2636 1.08594 11.3651C1.08594 7.48233 1.04688 7.7167 1.69531 7.63077C2.73438 7.49014 4.27344 6.91202 5.13281 6.33389C6.72656 5.24796 7.86719 3.56827 8.1875 1.83389C8.23438 1.59952 8.3125 1.34952 8.35938 1.29483C8.49219 1.13077 27.7422 1.13077 27.875 1.28702C27.9219 1.34952 28 1.58389 28.0391 1.81827C28.375 3.58389 29.5 5.24796 31.1016 6.33389C31.9609 6.91202 33.5 7.49014 34.5391 7.63077C35.1875 7.7167 35.1484 7.47452 35.1484 11.4042C35.1484 13.3261 35.1094 15.3339 35.0703 15.873C35 16.7714 35 16.8651 35.1406 17.0448C35.3516 17.3339 35.8125 17.3183 36.0391 17.0214C36.2031 16.8026 36.2031 16.7323 36.2266 12.2948C36.25 9.20889 36.2266 7.70108 36.1719 7.50577C36.125 7.3417 35.9453 7.0917 35.7734 6.94327C35.4609 6.6542 35.3359 6.60733 34.25 6.4042C31.6172 5.89639 29.5859 3.94327 29.1328 1.47452C29.0156 0.833893 28.7344 0.412018 28.2578 0.177643L27.9141 0.0135803H18.1094H8.3125L7.96875 0.185455Z" fill="#8444E8"/>
<path d="M10.2656 2.82624C9.77341 3.06062 9.6406 3.20906 9.17966 4.02937C8.58591 5.08406 8.08591 5.72468 7.28122 6.50593C6.46091 7.29499 5.53122 7.92781 4.42185 8.45124C3.48435 8.89656 3.17966 9.12312 2.93747 9.57624C2.77341 9.88874 2.7656 9.95906 2.77341 12.5919C2.77341 15.3497 2.83591 16.2637 3.12497 17.9044C4.17966 23.9122 7.48435 29.3497 12.5312 33.4044C14.4062 34.9122 17.1562 36.5997 17.8906 36.7012C18.3906 36.7716 18.75 36.6466 19.8359 36.0216C26.9922 31.9434 31.7968 25.3966 33.1093 17.9044C33.3984 16.2794 33.4609 15.3497 33.4609 12.5919C33.4687 10.1075 33.4609 9.87312 33.3203 9.62312C33.0625 9.13093 32.7812 8.91218 31.875 8.48249C30.6953 7.92781 29.789 7.31062 28.9531 6.50593C28.1484 5.72468 27.6484 5.08406 27.0547 4.02937C26.5937 3.20906 26.4609 3.06062 25.9687 2.82624C25.664 2.67781 25.3828 2.66999 18.1172 2.66999C10.8515 2.66999 10.5703 2.67781 10.2656 2.82624ZM25.539 3.86531C25.6562 3.91999 25.8672 4.20124 26.0468 4.54499C27.2343 6.74812 28.8984 8.31843 31.2578 9.45124C31.9765 9.79499 32.1953 9.93562 32.2656 10.1075C32.4062 10.4434 32.3125 15.6544 32.1484 16.8106C31.6953 19.9434 30.5781 23.0762 28.9375 25.8028C27.1797 28.7091 24.5312 31.5137 21.5859 33.5684C20.125 34.5919 18.4375 35.5606 18.1172 35.5606C17.7187 35.5606 15.5156 34.2325 13.8906 33.0059C8.09372 28.6466 4.60153 22.545 3.97653 15.6778C3.86716 14.4747 3.87497 10.3106 3.98435 10.0606C4.04685 9.92781 4.27341 9.77937 4.71091 9.58406C7.10153 8.51374 8.98435 6.78718 10.1875 4.54499C10.3672 4.20124 10.5781 3.91999 10.6953 3.86531C10.9843 3.71687 25.25 3.71687 25.539 3.86531Z" fill="#8444E8"/>
<path d="M16.9843 6.06836C15.2968 6.43555 13.9453 7.49023 13.164 9.04492C12.6875 10.0059 12.6328 10.3262 12.5937 12.373L12.5547 14.2324H11.9687C11.6406 14.2324 11.2343 14.2793 11.0547 14.3262C10.6328 14.4512 10.0547 15.0293 9.92966 15.4512C9.80466 15.873 9.79684 24.2793 9.92184 24.7246C10.0234 25.0918 10.4609 25.5918 10.8828 25.8184L11.2031 25.9902H18.1172H25.0312L25.3984 25.8105C25.6015 25.709 25.875 25.5059 26 25.3574C26.4687 24.834 26.4765 24.7012 26.4765 20.1387C26.4765 17.584 26.4453 15.8574 26.3906 15.6387C26.2812 15.1543 25.9687 14.7324 25.5468 14.4824C25.2422 14.3027 25.0703 14.2637 24.4453 14.2324L23.7031 14.1934L23.664 12.2402C23.6172 10.3418 23.6093 10.2715 23.3984 9.70117C22.5468 7.41992 20.4453 5.93555 18.1015 5.95898C17.7422 5.95898 17.2422 6.01367 16.9843 6.06836ZM19.6406 7.35742C20.6328 7.70117 21.5703 8.5293 22.0547 9.48242C22.4765 10.3262 22.5703 10.8965 22.5703 12.6855V14.2324H18.1562H13.7422V12.5918C13.7422 11.6934 13.7812 10.7715 13.8281 10.5449C14.1093 9.17773 15.2578 7.86523 16.6093 7.35742C17.4765 7.03711 18.7187 7.0293 19.6406 7.35742ZM25.1172 15.584L25.3047 15.8027V20.0996V24.4043L25.0781 24.6309L24.8515 24.8574H18.1172H11.3906L11.2031 24.6621L11.0078 24.4746V20.1074V15.7402L11.1875 15.584C11.2812 15.498 11.414 15.4043 11.4765 15.3809C11.539 15.3574 14.5937 15.3418 18.2578 15.3496L24.9297 15.3652L25.1172 15.584Z" fill="#8444E8"/>
<path d="M17.6094 18.2794C17.2344 18.4591 17.0703 18.6309 16.8985 19.0372C16.6797 19.5606 16.9141 20.3184 17.375 20.5606C17.5703 20.6622 17.5703 20.6778 17.5703 21.5919C17.5703 22.4747 17.5781 22.5294 17.7656 22.7091C17.9766 22.9278 18.0938 22.9434 18.3828 22.8184C18.6563 22.6934 18.7422 22.3731 18.7422 21.4825C18.7422 20.7169 18.7422 20.7013 18.9766 20.5059C19.3047 20.2325 19.4453 19.9278 19.4453 19.4981C19.4453 18.5372 18.461 17.8809 17.6094 18.2794Z" fill="#8444E8"/>
<path d="M0.750024 19.373C0.546899 19.5918 0.585961 19.9668 0.937524 21.1933C2.32815 26.1308 5.08596 30.5918 8.96096 34.1777C11.1094 36.1621 13.2266 37.6308 16.1641 39.1855C17.6797 39.9824 17.9766 40.084 18.461 39.9512C18.9063 39.834 21.5781 38.4043 22.8281 37.6074C28.2813 34.1387 32.461 29.084 34.586 23.373C35.0547 22.1152 35.6172 20.1777 35.6172 19.8105C35.6172 19.2871 35.0391 19.0371 34.6953 19.4043C34.6094 19.5058 34.4844 19.8105 34.4141 20.0918C33.8985 22.3183 32.7735 25.0527 31.4844 27.209C29.1485 31.123 25.6406 34.5996 21.5547 37.0605C20.4531 37.7246 18.2969 38.8418 18.125 38.8418C18.0235 38.8418 17.375 38.5371 16.6875 38.1699C13.3828 36.4121 11.211 34.8418 8.89846 32.5215C5.46877 29.0762 3.06252 24.9121 1.87502 20.3262C1.7344 19.7715 1.59377 19.3965 1.50784 19.334C1.30471 19.1855 0.898461 19.209 0.750024 19.373Z" fill="#8444E8"/>
</svg>
