<?xml version="1.0" encoding="UTF-8"?> <svg xmlns="http://www.w3.org/2000/svg" width="48" height="48" viewBox="0 0 48 48" fill="none"><circle cx="24" cy="24" r="24" fill="#ED6436"></circle><path d="M27.392 30.4429C26.4817 30.4429 25.6707 30.0286 24.9529 29.1943C24.2352 28.3657 23.8793 27.2683 23.8793 25.9022C23.8793 24.7432 24.5328 22.9684 25.834 20.5833C27.1411 18.1926 28.1097 17 28.7457 17C29.1017 17 29.2826 17.1792 29.2826 17.5319C29.2826 17.6271 28.9091 18.3997 28.1681 19.8554C27.4212 21.3111 27.0536 22.4533 27.0536 23.2707C27.0536 23.9034 27.4737 24.4241 28.3198 24.8272C29.16 25.2303 29.726 25.6502 30.0061 26.087C30.2862 26.5237 30.4262 26.9996 30.4262 27.5035C30.4262 28.4161 30.1462 29.1383 29.586 29.659C29.0083 30.1797 28.2848 30.4429 27.392 30.4429Z" fill="white"></path><path d="M19.0132 30.4429C18.1029 30.4429 17.286 30.0286 16.5741 29.1943C15.8564 28.3657 15.5005 27.2683 15.5005 25.9022C15.5005 24.7432 16.154 22.9684 17.4552 20.5833C18.7565 18.1926 19.7309 17 20.3611 17C20.717 17 20.8979 17.1792 20.8979 17.5319C20.8979 17.6271 20.5245 18.3997 19.7834 19.8554C19.0365 21.3111 18.6689 22.4533 18.6689 23.2707C18.6689 23.9034 19.0891 24.4241 19.9351 24.8272C20.7754 25.2303 21.3414 25.6502 21.6215 26.087C21.9016 26.5237 22.0416 26.9996 22.0416 27.5035C22.0416 28.4161 21.7615 29.1383 21.2013 29.659C20.6412 30.1797 19.906 30.4429 19.0132 30.4429Z" fill="white"></path></svg> 