<svg width="25" height="31" viewBox="0 0 25 31" fill="none" xmlns="http://www.w3.org/2000/svg">
<path d="M11.5312 0.0363129C10.2537 0.199789 9.36367 0.399594 8.40097 0.762875C5.37363 1.88905 2.84882 4.38963 1.68632 7.39276C1.03847 9.06385 0.759955 11.0195 0.929486 12.624C1.41992 17.1771 4.84687 23.1168 10.6896 29.5166C11.7795 30.7094 12.0096 30.9213 12.282 30.9758C12.8391 31.0787 12.9783 30.9758 14.3103 29.5166C15.9148 27.7547 16.9139 26.5619 18.1248 24.9514C22.2723 19.4355 24.2764 14.8158 24.1068 11.1709C23.9676 8.18592 22.793 5.50975 20.7041 3.42088C18.9725 1.6953 16.8594 0.599399 14.4375 0.175571C13.7654 0.0605316 12.0277 -0.024234 11.5312 0.0363129ZM13.4566 1.99803C14.2437 2.0828 14.8553 2.216 15.5879 2.46424C18.4578 3.43299 20.692 5.66717 21.6607 8.53709C21.9393 9.36659 22.0482 9.8994 22.1391 10.8863C22.248 12.1033 22.1209 13.1871 21.6971 14.5918C20.6617 18.0308 18.0521 22.2389 14.1287 26.792C13.6443 27.3551 13.0752 27.9969 12.8693 28.2148L12.5 28.6084L12.1307 28.2148C11.5373 27.5851 10.0418 25.8414 9.27284 24.8666C5.73691 20.4164 3.51484 16.3113 2.96386 13.2174C2.50976 10.6381 3.18183 7.90741 4.81054 5.75194C6.80859 3.11815 10.181 1.65291 13.4566 1.99803Z" fill="#A67CFF"/>
<path d="M11.3496 5.93964C10.2174 6.17577 9.23653 6.70859 8.40704 7.53202C7.57149 8.37363 7.05079 9.34843 6.81465 10.517C6.65118 11.292 6.65118 11.958 6.81465 12.733C7.05079 13.9016 7.57149 14.8764 8.40704 15.718C9.24864 16.5535 10.2234 17.0742 11.392 17.3103C12.167 17.4738 12.833 17.4738 13.608 17.3103C14.7766 17.0742 15.7514 16.5535 16.593 15.718C17.4285 14.8764 17.9492 13.9016 18.1854 12.733C18.3488 11.958 18.3488 11.292 18.1854 10.517C17.9492 9.34843 17.4285 8.37363 16.593 7.53202C15.2004 6.1455 13.2387 5.54609 11.3496 5.93964ZM13.3113 7.84081C14.7584 8.14355 15.9815 9.3666 16.2842 10.8137C16.8654 13.5443 14.4193 15.9904 11.6887 15.4092C10.5807 15.173 9.55743 14.3799 9.06094 13.3748C8.48575 12.2062 8.48575 11.0437 9.06094 9.87519C9.82383 8.32519 11.6039 7.47753 13.3113 7.84081Z" fill="#A67CFF"/>
</svg>
