<svg width="18" height="18" viewBox="0 0 18 18" fill="none" xmlns="http://www.w3.org/2000/svg">
<path d="M11.3254 0.978787C11.0226 0.668895 10.6609 0.422655 10.2616 0.254537C9.86226 0.0864201 9.43335 -0.000183105 9.00007 -0.000183105C8.56679 -0.000183105 8.13788 0.0864201 7.73855 0.254537C7.33921 0.422655 6.97751 0.668895 6.6747 0.978787L5.97495 1.69654L4.9737 1.68416C4.54029 1.67903 4.11023 1.76061 3.70882 1.92411C3.3074 2.08761 2.94272 2.32972 2.63624 2.6362C2.32975 2.94269 2.08764 3.30736 1.92415 3.70878C1.76065 4.1102 1.67907 4.54026 1.6842 4.97366L1.69545 5.97491L0.979946 6.67466C0.670054 6.97748 0.423814 7.33918 0.255697 7.73851C0.0875798 8.13785 0.000976563 8.56676 0.000976562 9.00004C0.000976563 9.43332 0.0875798 9.86223 0.255697 10.2616C0.423814 10.6609 0.670054 11.0226 0.979946 11.3254L1.69657 12.0252L1.6842 13.0264C1.67907 13.4598 1.76065 13.8899 1.92415 14.2913C2.08764 14.6927 2.32975 15.0574 2.63624 15.3639C2.94272 15.6704 3.3074 15.9125 3.70882 16.076C4.11023 16.2395 4.54029 16.321 4.9737 16.3159L5.97495 16.3047L6.6747 17.0202C6.97751 17.3301 7.33921 17.5763 7.73855 17.7444C8.13788 17.9125 8.56679 17.9991 9.00007 17.9991C9.43335 17.9991 9.86226 17.9125 10.2616 17.7444C10.6609 17.5763 11.0226 17.3301 11.3254 17.0202L12.0252 16.3035L13.0264 16.3159C13.4599 16.321 13.8899 16.2395 14.2913 16.076C14.6927 15.9125 15.0574 15.6704 15.3639 15.3639C15.6704 15.0574 15.9125 14.6927 16.076 14.2913C16.2395 13.8899 16.3211 13.4598 16.3159 13.0264L16.3047 12.0252L17.0202 11.3254C17.3301 11.0226 17.5763 10.6609 17.7444 10.2616C17.9126 9.86223 17.9992 9.43332 17.9992 9.00004C17.9992 8.56676 17.9126 8.13785 17.7444 7.73851C17.5763 7.33918 17.3301 6.97748 17.0202 6.67466L16.3036 5.97491L16.3159 4.97366C16.3211 4.54026 16.2395 4.1102 16.076 3.70878C15.9125 3.30736 15.6704 2.94269 15.3639 2.6362C15.0574 2.32972 14.6927 2.08761 14.2913 1.92411C13.8899 1.76061 13.4599 1.67903 13.0264 1.68416L12.0252 1.69541L11.3254 0.978787ZM11.6483 7.71079L8.27332 11.0858C8.22107 11.1382 8.159 11.1797 8.09066 11.2081C8.02232 11.2364 7.94906 11.251 7.87507 11.251C7.80108 11.251 7.72782 11.2364 7.65948 11.2081C7.59114 11.1797 7.52907 11.1382 7.47682 11.0858L5.78932 9.39829C5.73702 9.34599 5.69554 9.2839 5.66723 9.21557C5.63893 9.14724 5.62436 9.074 5.62436 9.00004C5.62436 8.92607 5.63893 8.85284 5.66723 8.7845C5.69554 8.71617 5.73702 8.65409 5.78932 8.60179C5.84162 8.54949 5.90371 8.508 5.97204 8.4797C6.04037 8.45139 6.11361 8.43683 6.18757 8.43683C6.26153 8.43683 6.33477 8.45139 6.4031 8.4797C6.47143 8.508 6.53352 8.54949 6.58582 8.60179L7.87507 9.89216L10.8518 6.91429C10.9574 6.80866 11.1007 6.74933 11.2501 6.74933C11.3994 6.74933 11.5427 6.80866 11.6483 6.91429C11.7539 7.01991 11.8133 7.16316 11.8133 7.31254C11.8133 7.46191 11.7539 7.60516 11.6483 7.71079Z" fill="#89B592"/>
</svg>
