<svg width="55" height="51" viewBox="0 0 55 51" fill="none" xmlns="http://www.w3.org/2000/svg">
<path d="M9.15841 9.07843C9.039 9.13271 8.84359 9.27384 8.71332 9.39325C8.5939 9.51267 6.56385 13.0191 4.21898 17.1878C-0.00395567 24.7 -0.0365233 24.7652 0.00690021 25.2863C0.0394679 25.5902 0.148027 25.905 0.267441 26.0353C0.376 26.1656 1.27704 26.8061 2.25407 27.4683C3.63277 28.391 4.14299 28.6733 4.49038 28.7167C5.06574 28.771 5.53255 28.543 5.84737 28.0328C5.97764 27.8265 6.11876 27.6528 6.15133 27.6528C6.23818 27.6637 8.05111 29.8783 8.10539 30.0411C8.1271 30.0954 7.98598 30.3668 7.80143 30.6382C7.22606 31.4633 7.04151 31.9843 7.04151 32.7551C7.04151 34.2098 8.00769 35.4582 9.37553 35.8056L9.82062 35.9142L9.7772 36.5872C9.7012 37.8248 10.3743 39.0081 11.5141 39.616C11.9049 39.8223 12.1438 39.8657 12.9905 39.8657H13.9893L14.1087 40.2131C14.2824 40.745 15.0206 41.505 15.6828 41.8306C16.2147 42.0912 16.3667 42.1129 17.1809 42.0695L18.0819 42.026L18.2231 42.406C18.4293 42.9596 19.2327 43.763 19.884 44.0561C20.2965 44.2406 20.6439 44.3058 21.1542 44.3058C22.37 44.2949 23.0539 43.8715 24.0961 42.5145C24.4978 41.9935 24.8126 41.6678 24.8994 41.7004C24.9754 41.7221 26.1804 42.4928 27.5591 43.3939C28.9487 44.3058 30.284 45.12 30.5336 45.2068C30.805 45.3154 31.337 45.3805 31.9015 45.3914C32.694 45.3914 32.9219 45.3479 33.5082 45.0874C34.3983 44.6749 35.1908 43.8281 35.3862 43.0899L35.5165 42.558L35.9616 42.6557C36.6129 42.8077 37.8397 42.6991 38.4476 42.4386C39.2184 42.0912 39.9891 41.3095 40.2605 40.6148C40.3799 40.2891 40.4776 39.9091 40.4776 39.768C40.4776 39.5292 40.5319 39.5075 41.2158 39.4423C42.8768 39.2795 44.2229 38.1939 44.4835 36.8261C44.6137 36.1313 44.4726 35.328 44.1144 34.796L43.843 34.3835L44.2012 34.2098C44.8091 33.9058 45.569 33.0808 45.797 32.4511C46.0576 31.7564 46.0684 31.2461 45.8187 30.5297L45.6342 29.9869L46.6112 29.3898C47.154 29.0533 47.8814 28.5756 48.2287 28.3259L48.8692 27.87L49.2166 28.2391C49.5966 28.6624 49.9765 28.7927 50.5193 28.7059C50.8993 28.6407 54.2538 26.4696 54.6446 26.0245C54.8074 25.8399 54.8617 25.6337 54.8617 25.1668C54.8508 24.5698 54.7857 24.4395 50.5953 17.0141C47.9248 12.3026 46.2204 9.39325 46.0467 9.26298C45.8622 9.13271 45.569 9.04586 45.2651 9.04586C44.8091 9.03501 44.592 9.14357 42.9202 10.1966C41.8998 10.8262 40.9553 11.4776 40.8142 11.6296C40.6513 11.7924 40.5428 12.0747 40.5102 12.3895C40.4559 12.7911 40.5102 12.9648 40.8033 13.4859C40.9987 13.8225 41.129 14.1264 41.0964 14.159C40.9553 14.2893 39.1424 14.3218 38.1762 14.2024C37.6117 14.1373 35.929 13.8659 34.4418 13.5945C30.7182 12.9214 29.3829 12.7586 27.5591 12.7477C25.3337 12.7477 23.9767 13.03 22.4243 13.8442C21.7295 14.2024 21.241 14.6584 20.416 15.7005L20.2206 15.9611L19.0047 15.8308C16.9204 15.6137 15.1834 15.0275 14.2281 14.2241L13.859 13.9202L14.1521 13.3774C14.3801 12.954 14.4344 12.7369 14.3909 12.3569C14.3258 11.7164 14.0001 11.4342 11.9049 10.1315C10.1789 9.05672 9.65778 8.86131 9.15841 9.07843ZM11.2753 11.8033C11.9592 12.2375 12.5346 12.5957 12.5563 12.6174C12.578 12.6392 12.4477 12.8888 12.274 13.1711C12.1004 13.4642 10.2874 16.6667 8.24652 20.2926L4.52295 26.8821L3.17682 25.9919C2.43862 25.5034 1.83069 25.0691 1.83069 25.0366C1.83069 24.9714 9.27783 11.6947 9.61436 11.1736C9.7012 11.0325 9.83148 10.9348 9.89661 10.9674C9.9726 10.9999 10.5914 11.369 11.2753 11.8033ZM49.1406 18.002C51.301 21.8449 53.0705 25.0149 53.0705 25.0474C53.0705 25.08 52.4625 25.5034 51.7135 25.9919L50.3673 26.8821L49.9982 26.209C49.792 25.8399 47.9791 22.6374 45.9707 19.0876C43.9624 15.5485 42.334 12.6283 42.3448 12.6174C42.5728 12.4112 45.0154 10.9456 45.0914 10.9674C45.1565 10.9891 46.9695 14.1481 49.1406 18.002ZM30.4902 14.6909C31.1741 14.7886 32.3791 14.984 33.1499 15.1252C37.9048 16.0262 39.772 16.1999 41.2267 15.8851C41.6718 15.7874 42.0517 15.7222 42.0626 15.7439C42.0735 15.7548 43.4196 18.1105 45.0371 20.9765C46.6655 23.8424 48.0116 26.2199 48.0333 26.2524C48.131 26.4153 44.6246 28.6299 44.2772 28.6299C44.2121 28.6299 43.2676 27.946 42.182 27.1101C38.5996 24.3418 34.8977 21.769 32.0643 20.0646C30.5011 19.1093 27.4614 17.5894 26.9512 17.4917C26.6798 17.4483 26.213 17.5569 25.0623 17.9368L23.5425 18.4471L23.1191 19.055C22.8911 19.4024 22.3375 20.0212 21.8815 20.4445C20.9913 21.3022 18.8419 22.7677 18.4945 22.7677C18.1037 22.7677 17.7888 22.4637 17.7888 22.0838C17.7888 21.8015 17.9951 21.4758 18.8419 20.4337C19.4172 19.7172 20.5245 18.3494 21.2953 17.394C22.5546 15.8416 22.7608 15.6245 23.3688 15.3097C25.1057 14.4304 27.1466 14.2567 30.4902 14.6909ZM13.5225 15.8634C14.5755 16.6124 16.0302 17.1444 17.7888 17.4375L18.8744 17.6112L17.5717 19.2287C16.8552 20.1297 16.2147 21.0199 16.1496 21.2262C15.9433 21.8449 16.0736 22.8871 16.4101 23.3973C16.9638 24.2441 18.2122 24.7 19.1458 24.3961C20.1771 24.0595 22.7174 22.2249 23.6944 21.1067C24.0201 20.7376 24.4001 20.3034 24.5412 20.1514C24.6932 19.9669 25.1383 19.7389 25.7245 19.5326L26.6472 19.207L27.57 19.6086C29.7954 20.6074 33.4973 22.8871 37.1449 25.5142C37.7745 25.981 38.1979 26.3501 38.1979 26.4696C38.1979 26.7301 38.4584 26.9255 41.3678 28.9013C42.8225 29.8783 44.0058 30.7576 44.1035 30.9205C44.6463 31.8432 43.7235 32.8637 42.3557 32.8637H41.7261L38.7407 30.9096C36.6781 29.5526 35.6576 28.9556 35.4514 28.9556C35.0388 28.9556 34.6155 29.3898 34.6155 29.8349C34.6155 30.0846 34.7132 30.2583 34.9737 30.4862C35.2777 30.7468 38.2739 32.7443 41.5849 34.872C42.41 35.4039 42.6162 35.5885 42.7139 35.9033C42.9636 36.6849 42.4426 37.4014 41.433 37.6403C40.5102 37.8682 40.2388 37.738 36.0593 35.0131C31.8798 32.2883 31.7712 32.2449 31.2827 32.7985C30.9462 33.2002 30.957 33.6236 31.337 33.971C31.4998 34.123 33.1499 35.252 35.0171 36.4787C38.4584 38.7476 38.7407 38.9864 38.7407 39.616C38.7407 40.6039 37.1232 41.3313 35.9833 40.8536C35.7879 40.7776 34.0835 39.6703 32.1837 38.411C30.284 37.1409 28.6664 36.077 28.5796 36.0444C28.3408 35.9576 27.9065 36.0987 27.6677 36.3593C27.3963 36.6524 27.3854 37.2169 27.646 37.51C27.7437 37.6294 29.0572 38.5196 30.5445 39.4858C32.0426 40.4519 33.367 41.3747 33.4973 41.5375C33.671 41.7329 33.747 41.9609 33.747 42.2974C33.747 42.6991 33.6927 42.8294 33.3779 43.1116C33.0088 43.459 32.3791 43.7196 31.8798 43.7196C31.3261 43.7196 30.7182 43.3939 28.3082 41.8089L25.8548 40.1914L26.0827 39.7029C26.4193 38.9647 26.3867 37.7705 26.0067 37.0323C25.5074 36.0444 24.3241 35.252 23.3796 35.252C23.1734 35.252 23.1299 35.176 23.0757 34.6549C22.9345 33.2436 21.7947 32.082 20.3943 31.9192L19.8732 31.8541L19.808 31.333C19.7103 30.5948 19.4715 30.0954 18.9613 29.5309C18.2556 28.771 17.7997 28.5756 16.7033 28.5756C15.9433 28.5756 15.6828 28.619 15.2486 28.8361C14.7383 29.0858 14.7166 29.0858 14.6081 28.8904C14.5538 28.7819 14.2715 28.4562 13.9893 28.1848C12.7951 27.0123 10.8194 27.0341 9.61436 28.2282L9.2344 28.619L8.13796 27.2837L7.05237 25.9376L10.0052 20.7159C11.6336 17.85 12.9688 15.4943 12.9797 15.4943C13.0014 15.4943 13.2402 15.6571 13.5225 15.8634ZM12.578 29.2378C12.9905 29.4875 13.2294 29.9434 13.2294 30.4971C13.2294 30.9205 13.1208 31.1159 12.1438 32.4403C11.3947 33.4716 10.9605 33.9601 10.7325 34.0578C10.2223 34.2641 9.56008 34.1338 9.16927 33.743C8.87616 33.439 8.83273 33.3305 8.83273 32.7768C8.83273 32.1689 8.84359 32.1363 9.84233 30.7685C10.4068 30.0086 10.9931 29.3138 11.145 29.2269C11.5358 29.0207 12.2089 29.0207 12.578 29.2378ZM17.474 30.5079C17.9083 30.8011 18.1688 31.409 18.0711 31.9084C18.006 32.2449 14.4669 37.206 13.8373 37.8465C13.5008 38.1831 12.7409 38.2699 12.2632 38.0311C11.5467 37.6511 11.2862 36.7284 11.7095 36.0336C11.8398 35.8273 12.3175 35.1651 12.7843 34.568C13.2402 33.9601 14.0978 32.7985 14.6623 31.9952C15.2377 31.181 15.8131 30.4645 15.9542 30.3994C16.3993 30.1823 17.0724 30.2365 17.474 30.5079ZM20.6874 33.8407C21.165 34.123 21.4038 34.6332 21.3496 35.1868C21.3061 35.5559 21.013 36.0119 19.6561 37.8248C18.755 39.0298 17.9083 40.0828 17.7671 40.1805C17.4523 40.4085 16.6598 40.3977 16.269 40.1805C15.6937 39.8331 15.4331 38.9538 15.7371 38.3893C16.0628 37.7705 19.0264 33.9275 19.287 33.7973C19.6995 33.5693 20.2748 33.591 20.6874 33.8407ZM23.8573 37.1843C24.4761 37.5208 24.7583 38.2482 24.5303 38.8778C24.3784 39.2686 22.3266 42.0152 21.9684 42.2866C21.0347 43.0248 19.7429 42.3626 19.7429 41.1576C19.7429 40.6582 19.8732 40.4411 21.3387 38.5087C21.8707 37.8248 22.4134 37.206 22.5654 37.13C22.9454 36.9346 23.4339 36.9563 23.8573 37.1843Z" fill="#7836F8"/>
</svg>
