<svg xmlns="http://www.w3.org/2000/svg" xmlns:xlink="http://www.w3.org/1999/xlink" width="37px" height="37px" viewBox="0 0 37 37"><!-- Generator: Sketch 55.2 (78181) - https://sketchapp.com --><title>web developement Icon</title><desc>Created with Sketch.</desc><g id="Page-1" stroke="none" stroke-width="1" fill="none" fill-rule="evenodd"><g id="Services-" transform="translate(-310.000000, -695.000000)" fill="#FFFFFF"><g id="Group-6" transform="translate(265.000000, 637.000000)"><g id="Group-3" transform="translate(45.000000, 58.000000)"><g id="web-developement-Icon"><rect id="Rectangle-151" opacity="0.3" x="0.166666667" y="0.166666667" width="18.3333333" height="36.6666667"></rect><path d="M4.75,32.25 L11.625,32.25 C13.1527778,32.5121252 13.9166667,33.2760142 13.9166667,34.5416667 C13.9166667,35.8073191 13.1527778,36.5712081 11.625,36.8333333 L0.166666667,36.8333333 L0.166666667,25.375 C0.166666667,23.8472221 0.930555548,23.0833333 2.45833333,23.0833333 C3.98611112,23.0833333 4.75,23.8472221 4.75,25.375 L4.75,32.25 Z M32.25,32.25 L32.25,25.375 C32.5121252,23.8472221 33.2760142,23.0833333 34.5416667,23.0833333 C35.8073191,23.0833333 36.5712081,23.8472221 36.8333333,25.375 L36.8333333,36.8333333 L25.375,36.8333333 C23.8472221,36.8333333 23.0833333,36.0694445 23.0833333,34.5416667 C23.0833333,33.0138888 23.8472221,32.25 25.375,32.25 L32.25,32.25 Z M32.25,4.75 L25.375,4.75 C23.8472221,4.48787477 23.0833333,3.72398589 23.0833333,2.45833333 C23.0833333,1.19268078 23.8472221,0.4287919 25.375,0.166666667 L36.8333333,0.166666667 L36.8333333,11.625 C36.8333333,13.1527778 36.0694445,13.9166667 34.5416667,13.9166667 C33.0138888,13.9166667 32.25,13.1527778 32.25,11.625 L32.25,4.75 Z M4.75,4.75 L4.75,11.625 C4.48787477,13.1527778 3.72398589,13.9166667 2.45833333,13.9166667 C1.19268078,13.9166667 0.4287919,13.1527778 0.166666667,11.625 L0.166666667,0.166666667 L11.625,0.166666667 C13.1527778,0.166666667 13.9166667,0.930555548 13.9166667,2.45833333 C13.9166667,3.98611112 13.1527778,4.75 11.625,4.75 L4.75,4.75 Z" id="Combined-Shape" fill-rule="nonzero"></path></g></g></g></g></g></svg>