<svg width="46" height="47" viewBox="0 0 46 47" fill="none" xmlns="http://www.w3.org/2000/svg">
<path d="M10.0772 5.14829V5C10.0772 2.79086 11.8681 1 14.0772 1H28.1429C30.352 1 32.1429 2.79086 32.1429 5V8.97748M32.1429 38.6537C32.1429 38.6537 26.001 38.6537 22.0656 38.6537M32.1429 38.6537C32.1429 38.6537 32.7782 38.6537 33.1853 38.6537M32.1429 38.6537V8.97748M22.0656 38.6537C21.9741 34.9566 20.43 32.1207 18.417 31.9526C16.3059 31.7764 14.5168 34.7766 14.4209 38.6537M22.0656 38.6537C22.0656 42.4829 20.528 45.8168 18.417 45.993C16.2123 46.1771 14.3206 42.7029 14.4209 38.6537M14.4209 38.6537C14.3101 38.6537 14.1953 38.6537 14.0774 38.6537C11.8682 38.6537 10.0772 36.8629 10.0772 34.6537V34.5054M33.1853 38.6537C33.1853 35.4627 34.9441 31.9526 37.0077 31.9526C39.0714 31.9526 40.7342 34.8678 40.8301 38.6537M33.1853 38.6537C33.1853 42.4829 34.8482 45.993 37.0077 45.993C39.1673 45.993 40.926 42.616 40.8301 38.6537M40.8301 38.6537C40.8857 38.6537 40.9423 38.6537 40.9998 38.6537C43.209 38.6537 45 36.8629 45 34.6537V24.9324M45 24.9324L40.8442 11.7729C40.3187 10.1088 38.775 8.97748 37.0299 8.97748H32.1429M45 24.9324H39.139C37.4821 24.9324 36.139 23.5893 36.139 21.9324V14.4022M2.95367 9.93478H5.55985M7.12355 9.93478H17.8958M2.95367 16.955H13.7259M0 23.337H4.86486M5.90734 23.337H16.8533M2.25869 30.3571H13.3784" stroke="#FF471D" stroke-width="1.5"/>
</svg>
